<svg width="116" height="95" viewBox="0 0 116 95" fill="none" xmlns="http://www.w3.org/2000/svg">
<g id="Frame" clip-path="url(#clip0_877_747)">
<path id="Vector" d="M12.9389 80.7763C10.1963 80.7763 8.35074 82.9294 8.35074 85.6977C8.35074 88.466 10.1963 90.6191 12.9389 90.6191C15.6816 90.6191 17.5271 88.466 17.5271 85.6977C17.5015 82.9294 15.6559 80.7763 12.9389 80.7763ZM12.3237 77.7261C14.5281 77.7261 16.3736 78.8539 17.2451 80.0842V78.0337H20.6286V93.3874H18.0141C17.8103 93.3868 17.6151 93.3056 17.471 93.1615C17.327 93.0174 17.2457 92.8222 17.2451 92.6184V91.3368C16.3736 92.5672 14.5537 93.695 12.3237 93.695C8.12005 93.695 4.91602 90.1065 4.91602 85.7233C4.91602 81.3402 8.09441 77.7261 12.3237 77.7261ZM24.4734 78.0337H27.8569V80.1099C28.7796 78.5719 30.5226 77.7261 32.522 77.7261C36.0848 77.7261 38.3917 80.238 38.3917 84.1341V93.3874H35.8029C35.5991 93.3868 35.4039 93.3056 35.2598 93.1615C35.1157 93.0174 35.0345 92.8222 35.0339 92.6184V84.698C35.0339 82.263 33.8036 80.8019 31.8299 80.8019C29.5999 80.8019 27.8569 82.5449 27.8569 85.8259V93.3874H25.268C25.0643 93.3868 24.869 93.3056 24.725 93.1615C24.5809 93.0174 24.4997 92.8222 24.4991 92.6184L24.4734 78.0337ZM49.0548 80.7763C46.3121 80.7763 44.4666 82.9294 44.4666 85.6977C44.4666 88.466 46.3121 90.6191 49.0548 90.6191C51.7974 90.6191 53.6429 88.466 53.6429 85.6977C53.6429 82.9294 51.7974 80.7763 49.0548 80.7763ZM48.4396 77.7261C50.644 77.7261 52.4895 78.8539 53.361 80.0842V70.344H56.7444V93.3874H54.1556C53.9518 93.3868 53.7566 93.3056 53.6125 93.1615C53.4684 93.0174 53.3872 92.8222 53.3866 92.6184V91.3368C52.5151 92.5672 50.6952 93.695 48.4652 93.695C44.2615 93.695 41.0575 90.1065 41.0575 85.7233C41.0575 81.3402 44.2359 77.7261 48.4396 77.7261ZM60.5893 78.0337H63.9727V80.7763C64.2699 79.9369 64.8177 79.2089 65.542 78.6909C66.2663 78.1729 67.1322 77.8898 68.0226 77.8799C68.4619 77.8717 68.9006 77.9147 69.3299 78.008V81.4684C68.7844 81.2856 68.2134 81.1905 67.6381 81.1864C65.7157 81.1864 63.9471 82.8269 63.9471 85.8771V93.3617H61.3582C61.1545 93.3611 60.9593 93.2799 60.8152 93.1359C60.6711 92.9918 60.5899 92.7965 60.5893 92.5928V78.0337ZM78.4293 90.5422C81.1207 90.5422 83.0431 88.4147 83.0431 85.6977C83.0431 82.9551 81.1463 80.8532 78.4293 80.8532C75.6867 80.8532 73.7899 82.9807 73.7899 85.6977C73.8155 88.4404 75.6867 90.5422 78.4293 90.5422ZM78.4293 93.695C76.8523 93.6824 75.3144 93.203 74.0094 92.3175C72.7045 91.4319 71.691 90.1797 71.0969 88.7189C70.5027 87.258 70.3544 85.654 70.6707 84.109C70.987 82.564 71.7538 81.1472 72.8743 80.0374C73.9948 78.9277 75.4188 78.1745 76.9668 77.8731C78.5147 77.5716 80.1173 77.7353 81.5724 78.3434C83.0275 78.9516 84.2698 79.9771 85.1429 81.2904C86.0159 82.6038 86.4804 84.1463 86.4779 85.7233C86.4832 86.7782 86.278 87.8235 85.8745 88.7981C85.4709 89.7726 84.877 90.657 84.1275 91.3993C83.3781 92.1416 82.4881 92.7269 81.5097 93.1211C80.5313 93.5153 79.4841 93.7104 78.4293 93.695ZM89.2205 78.0337H92.604V93.3874H90.0151C89.8113 93.3868 89.6161 93.3056 89.472 93.1615C89.328 93.0174 89.2467 92.8222 89.2461 92.6184L89.2205 78.0337ZM90.9122 74.6758C90.309 74.6702 89.732 74.428 89.3054 74.0014C88.8788 73.5748 88.6367 72.9978 88.631 72.3946C88.6431 71.798 88.8889 71.2301 89.3156 70.813C89.7422 70.396 90.3156 70.1631 90.9122 70.1646C91.5105 70.1646 92.0842 70.4022 92.5072 70.8252C92.9302 71.2482 93.1679 71.822 93.1679 72.4202C93.1679 73.0184 92.9302 73.5922 92.5072 74.0152C92.0842 74.4382 91.5105 74.6758 90.9122 74.6758ZM103.395 80.7763C100.652 80.7763 98.807 82.9294 98.807 85.6977C98.807 88.466 100.652 90.6191 103.395 90.6191C106.138 90.6191 107.983 88.466 107.983 85.6977C107.932 82.9294 106.138 80.7763 103.395 80.7763ZM102.78 77.7261C104.984 77.7261 106.83 78.8539 107.701 80.0842V70.344H111.085V93.3874H108.496C108.292 93.3868 108.097 93.3056 107.953 93.1615C107.809 93.0174 107.728 92.8222 107.727 92.6184V91.3368C106.855 92.5672 105.036 93.695 102.806 93.695C98.6019 93.695 95.3979 90.1065 95.3979 85.7233C95.3979 81.3402 98.5763 77.7261 102.78 77.7261Z" fill="#757575"/>
<path id="Vector_2" d="M84.0172 18.8229L92.8603 3.52045C93.0974 3.0994 93.1592 2.60189 93.0322 2.13564C92.9052 1.66939 92.5997 1.27191 92.1818 1.02926C91.7639 0.786613 91.2672 0.718316 90.7994 0.839159C90.3315 0.960001 89.93 1.26026 89.6819 1.67493L80.7362 17.1568C73.5955 13.9465 65.8552 12.2867 58.0261 12.2867C50.1969 12.2867 42.4566 13.9465 35.3159 17.1568L26.3702 1.67493C26.1221 1.26026 25.7206 0.960001 25.2527 0.839159C24.7849 0.718316 24.2882 0.786613 23.8703 1.02926C23.4524 1.27191 23.1469 1.66939 23.0199 2.13564C22.8929 2.60189 22.9547 3.0994 23.1918 3.52045L32.0349 18.8229C16.7837 27.0765 6.42832 42.4302 4.91602 60.5522H111.034C109.521 42.4302 99.1402 27.0765 84.0172 18.8229ZM33.5729 45.4292C32.7009 45.4292 31.8485 45.1706 31.1235 44.6862C30.3985 44.2017 29.8334 43.5132 29.4997 42.7076C29.166 41.902 29.0787 41.0155 29.2488 40.1603C29.419 39.3051 29.8388 38.5196 30.4554 37.903C31.072 37.2864 31.8576 36.8665 32.7128 36.6964C33.568 36.5263 34.4544 36.6136 35.26 36.9473C36.0656 37.281 36.7542 37.8461 37.2386 38.5711C37.7231 39.2961 37.9816 40.1485 37.9816 41.0204C37.9816 42.1897 37.5171 43.3111 36.6903 44.1379C35.8635 44.9647 34.7421 45.4292 33.5729 45.4292ZM82.428 45.4292C81.556 45.4292 80.7036 45.1706 79.9786 44.6862C79.2536 44.2017 78.6885 43.5132 78.3548 42.7076C78.0211 41.902 77.9338 41.0155 78.1039 40.1603C78.274 39.3051 78.6939 38.5196 79.3105 37.903C79.9271 37.2864 80.7126 36.8665 81.5679 36.6964C82.4231 36.5263 83.3095 36.6136 84.1151 36.9473C84.9207 37.281 85.6093 37.8461 86.0937 38.5711C86.5781 39.2961 86.8367 40.1485 86.8367 41.0204C86.8367 42.1897 86.3722 43.3111 85.5454 44.1379C84.7186 44.9647 83.5972 45.4292 82.428 45.4292Z" fill="#757575"/>
</g>
<defs>
<clipPath id="clip0_877_747">
<rect width="116" height="93.96" fill="white" transform="translate(0 0.52002)"/>
</clipPath>
</defs>
</svg>
