<svg width="160" height="45" viewBox="0 0 160 45" fill="none" xmlns="http://www.w3.org/2000/svg">
<g id="Frame" clip-path="url(#clip0_877_755)">
<path id="Vector" d="M38.6758 0.488281V34.467L43.0397 34.4837V18.3105H53.5831V14.0298H43.0397V4.76894H56.7645V0.488281H38.6758ZM64.6429 7.38397C66.2252 7.38397 67.4911 6.10144 67.4911 4.53575C67.4911 2.97006 66.2086 1.68753 64.6429 1.68753C63.0605 1.68753 61.7947 2.97006 61.7947 4.53575C61.7947 6.10144 63.0772 7.38397 64.6429 7.38397ZM62.4276 11.6646V34.467H66.7915V11.6646H62.4276Z" fill="#757575"/>
<path id="Vector_2" fill-rule="evenodd" clip-rule="evenodd" d="M82.9982 10.999C77.1852 10.999 73.1377 15.9126 73.1377 21.7423C73.1377 27.572 77.1852 32.4856 82.9982 32.4856C85.6632 32.4856 87.8452 31.4529 89.4442 29.7873V32.8021C89.4442 36.583 86.4794 39.7311 82.5984 39.7311C81.1993 39.7311 79.8169 39.1981 78.7175 38.4319L76.5189 42.2295C78.2678 43.3621 80.3499 44.0117 82.5818 44.0117C88.7779 44.0117 93.7914 38.9982 93.7914 32.8021V11.6653H89.4442V13.6973C87.8452 12.0317 85.6632 10.999 82.9982 10.999ZM77.5183 21.7423C77.5183 18.1279 80.2832 15.2797 83.4812 15.2797C86.6792 15.2797 89.4442 18.1279 89.4442 21.7423C89.4442 25.3567 86.6792 28.2049 83.4812 28.2049C80.2832 28.2049 77.5183 25.3567 77.5183 21.7423Z" fill="#757575"/>
<path id="Vector_3" d="M109.565 15.2797C106.983 15.2797 104.884 17.4783 104.884 20.06V34.4677H100.521V11.6653H104.884V13.7473C106.167 12.0983 108.049 10.999 110.514 10.999C113.579 10.999 115.928 12.5147 117.293 14.8466C118.809 12.598 121.274 10.999 124.256 10.999C129.236 10.999 132.334 15.0132 132.351 19.9767V34.4677H127.987V20.0434C127.987 17.4617 125.888 15.263 123.306 15.263C120.725 15.263 118.626 17.4617 118.626 20.0434V34.4677H114.262V20.0434C114.245 17.4617 112.147 15.2797 109.565 15.2797Z" fill="#757575"/>
<path id="Vector_4" fill-rule="evenodd" clip-rule="evenodd" d="M155.636 14.247C153.687 12.2316 151.022 10.999 147.941 10.999C141.445 10.999 136.814 16.5122 136.814 23.0748C136.814 29.6374 141.428 35.1506 147.941 35.1506C151.022 35.1506 153.687 33.9014 155.636 31.9026V34.4677H160V11.6653H155.636V14.247ZM141.195 23.0748C141.195 18.7275 144.526 15.2797 148.424 15.2797C152.305 15.2797 155.653 18.7109 155.653 23.0748C155.653 27.4221 152.321 30.8699 148.424 30.8699C144.526 30.8533 141.195 27.4221 141.195 23.0748Z" fill="#757575"/>
<path id="Vector_5" d="M14.6738 22.5085C14.6738 18.461 17.9551 15.1631 22.0192 15.1631C26.0667 15.1631 29.3646 18.4444 29.3646 22.5085C29.3646 26.556 26.0834 29.8539 22.0192 29.8539C17.9718 29.8539 14.6738 26.556 14.6738 22.5085Z" fill="#757575"/>
<path id="Vector_6" d="M0 37.1823C0 33.1349 3.28128 29.8369 7.34541 29.8369H14.6908V37.1823C14.6908 41.2298 11.4095 44.5277 7.34541 44.5277C3.28128 44.5277 0 41.2465 0 37.1823Z" fill="#757575"/>
<path id="Vector_7" d="M14.6738 0.488824V15.163H22.0192C26.0667 15.163 29.3646 11.8817 29.3646 7.81758C29.3646 3.77011 26.0834 0.472168 22.0192 0.472168H14.6738V0.488824Z" fill="#757575"/>
<path id="Vector_8" d="M0 7.83369C0 11.8812 3.28128 15.1791 7.34541 15.1791H14.6908V0.488281H7.34541C3.28128 0.488281 0 3.76956 0 7.83369Z" fill="#757575"/>
<path id="Vector_9" d="M0 22.5085C0 26.556 3.28128 29.8539 7.34541 29.8539H14.6908V15.1631H7.34541C3.28128 15.1631 0 18.461 0 22.5085Z" fill="#757575"/>
</g>
<defs>
<clipPath id="clip0_877_755">
<rect width="160" height="44.096" fill="white" transform="translate(0 0.452148)"/>
</clipPath>
</defs>
</svg>
