<svg width="102" height="51" viewBox="0 0 102 51" fill="none" xmlns="http://www.w3.org/2000/svg">
<g id="Frame" clip-path="url(#clip0_877_730)">
<path id="Vector" d="M8.03934 10.728H23.1042C27.5259 10.7651 30.73 12.0389 32.7166 14.5474C34.7031 17.0558 35.3585 20.482 34.684 24.826C34.422 26.8109 33.8408 28.7577 32.9414 30.6674C32.0673 32.5945 30.8481 34.3457 29.3438 35.8348C27.4697 37.7816 25.4652 39.0173 23.3291 39.5418C21.193 40.0664 18.9817 40.3282 16.696 40.3282H9.95056L7.81449 51H0.000976562L8.03934 10.728ZM14.6162 17.1311L11.2434 33.9813C11.4683 34.0184 11.6931 34.0374 11.918 34.0374H12.705C16.3026 34.0745 19.3009 33.7195 21.6989 32.9703C24.097 32.1839 25.7091 29.4508 26.5332 24.7698C27.2078 20.8381 26.5332 18.5723 24.5096 17.9736C22.523 17.3748 20.0317 17.094 17.0333 17.1311C16.5836 17.1681 16.153 17.1872 15.7404 17.1872H14.56L14.6162 17.1311ZM43.5846 0H51.3419L49.1497 10.728H56.12C59.9424 10.8032 62.7902 11.5896 64.6643 13.087C66.5755 14.5844 67.1376 17.431 66.3506 21.6244L62.5844 40.3282H54.7147L58.3123 22.467C58.6867 20.5944 58.5742 19.2654 57.975 18.4791C57.3757 17.6927 56.0829 17.2996 54.0963 17.2996L47.8568 17.2434L43.2474 40.3282H35.4901L43.5846 0ZM74.6807 10.728H89.7456C94.1673 10.7651 97.3714 12.0389 99.3579 14.5474C101.344 17.0558 102 20.482 101.325 24.826C101.063 26.8109 100.482 28.7577 99.5827 30.6674C98.7086 32.5945 97.4894 34.3457 95.9851 35.8348C94.111 37.7816 92.1065 39.0173 89.9704 39.5418C87.8344 40.0664 85.623 40.3282 83.3374 40.3282H76.5919L74.4558 51H66.6423L74.6807 10.728ZM81.2575 17.1311L77.8848 33.9813C78.1096 34.0184 78.3345 34.0374 78.5593 34.0374H79.3463C82.9439 34.0745 85.9422 33.7195 88.3403 32.9703C90.7383 32.1839 92.3504 29.4508 93.1745 24.7698C93.8491 20.8381 93.1745 18.5723 91.1509 17.9736C89.1644 17.3748 86.673 17.094 83.6746 17.1311C83.2249 17.1681 82.7943 17.1872 82.3817 17.1872H81.2013L81.2575 17.1311Z" fill="#757575"/>
</g>
<defs>
<clipPath id="clip0_877_730">
<rect width="102" height="51" fill="white"/>
</clipPath>
</defs>
</svg>
