<svg width="186" height="55" viewBox="0 0 186 55" fill="none" xmlns="http://www.w3.org/2000/svg">
<g id="Frame">
<path id="Vector" d="M70.1308 22.998C70.1308 17.2935 68.5043 14.3648 65.2509 14.2046C63.9562 14.1434 62.6928 14.3495 61.4631 14.827C60.4818 15.178 59.8213 15.5259 59.4738 15.8773V29.4935C61.5548 30.7996 63.4026 31.4068 65.0142 31.3112C68.4236 31.0852 70.1308 28.3171 70.1308 22.998ZM74.1438 23.2346C74.1438 26.1327 73.4641 28.5384 72.097 30.4513C70.5735 32.6165 68.462 33.7314 65.7625 33.7925C63.7274 33.8571 61.6308 33.2198 59.4734 31.8831V44.2587L55.9834 43.0137V15.5447C56.5561 14.8423 57.2934 14.239 58.1866 13.727C60.264 12.5165 62.7876 11.8944 65.7586 11.8639L65.8079 11.9133C68.5231 11.8792 70.615 12.9941 72.0852 15.2544C73.4563 17.3279 74.1438 19.9855 74.1438 23.2346ZM95.4731 31.3566C95.4731 35.2439 95.0837 37.9356 94.3049 39.4324C93.5222 40.9289 92.0328 42.1241 89.8335 43.0141C88.0503 43.7165 86.1218 44.0985 84.0526 44.1635L83.4755 41.9643C85.5796 41.6783 87.0612 41.3915 87.9202 41.1052C89.6118 40.5324 90.7725 39.6545 91.4103 38.4781C91.9219 37.5199 92.1738 35.6909 92.1738 32.9839V32.0751C89.7873 33.1598 87.2864 33.6981 84.6711 33.6981C82.9526 33.6981 81.4369 33.1598 80.1308 32.0751C78.6645 30.8952 77.9316 29.3987 77.9316 27.5849V13.0591L81.4216 11.8639V26.4841C81.4216 28.0456 81.9254 29.2487 82.9334 30.0925C83.9413 30.9363 85.2474 31.3414 86.8473 31.3104C88.4471 31.2759 90.1614 30.6574 91.9826 29.4469V12.3904H95.4727L95.4731 31.3566ZM109.097 33.6017C108.714 33.634 108.331 33.6505 107.947 33.6511C105.973 33.6511 104.434 33.1818 103.335 32.2384C102.239 31.2955 101.689 29.9938 101.689 28.3324V14.5861H99.2988V12.3908H101.689V6.56008L105.175 5.31904V12.3908H109.097V14.5861H105.175V28.2368C105.175 29.5468 105.526 30.4744 106.229 31.017C106.832 31.4636 107.791 31.7194 109.096 31.7844V33.6017H109.097ZM130.228 33.3153H126.738V19.8441C126.738 18.4734 126.417 17.2935 125.779 16.3086C125.043 15.1933 124.019 14.6359 122.705 14.6359C121.106 14.6359 119.105 15.4797 116.703 17.1673V33.3153H113.214V1.11525L116.703 0.015625V14.6817C118.933 13.0587 121.369 12.2455 124.015 12.2455C125.864 12.2455 127.36 12.8679 128.506 14.109C129.655 15.3496 130.228 16.8962 130.228 18.7445L130.228 33.3153ZM148.777 22.4484C148.777 20.2566 148.361 18.4467 147.532 17.0149C146.547 15.2701 145.016 14.3495 142.946 14.2543C139.12 14.4756 137.211 17.2171 137.211 22.4715C137.211 24.8807 137.608 26.8931 138.41 28.5083C139.433 30.5665 140.969 31.5823 143.015 31.5478C146.856 31.5169 148.777 28.4852 148.777 22.4484ZM152.599 22.4711C152.599 25.591 151.801 28.1874 150.209 30.2605C148.456 32.5824 146.036 33.7467 142.946 33.7467C139.884 33.7467 137.498 32.582 135.776 30.2605C134.214 28.1874 133.435 25.591 133.435 22.4711C133.435 19.5389 134.278 17.0721 135.966 15.0636C137.75 12.933 140.094 11.8639 142.992 11.8639C145.89 11.8639 148.25 12.933 150.068 15.0636C151.756 17.0721 152.599 19.5389 152.599 22.4711ZM172.607 33.3153H169.117V19.0806C169.117 17.5191 168.648 16.3008 167.709 15.4225C166.769 14.5481 165.516 14.1242 163.955 14.1583C162.298 14.1889 160.721 14.7311 159.224 15.7813V33.3153H155.734V15.35C157.743 13.888 159.591 12.933 161.278 12.4864C162.87 12.0703 164.276 11.8639 165.486 11.8639C166.314 11.8639 167.094 11.9438 167.827 12.1044C169.198 12.4213 170.313 13.0093 171.172 13.8724C172.13 14.827 172.607 15.9721 172.607 17.3126V33.3153Z" fill="#757575"/>
<path id="Vector_2" d="M21.514 1.24404C19.7182 1.25226 18.0036 1.40543 16.495 1.6726C12.0503 2.45805 11.2433 4.10141 11.2433 7.13272V11.1359H21.7467V12.4702H7.30115C4.24869 12.4702 1.57543 14.3051 0.739453 17.7956C-0.225019 21.7964 -0.267719 24.293 0.739453 28.4706C1.48612 31.5802 3.26933 33.7959 6.32179 33.7959H9.93327V28.9971C9.93327 25.5301 12.9328 22.4722 16.495 22.4722H26.9862C29.9067 22.4722 32.2379 20.0677 32.2379 17.1347V7.13233C32.2379 4.28592 29.8366 2.14739 26.9862 1.67221C25.1815 1.37214 23.3097 1.23542 21.514 1.24404ZM15.8337 4.46338C16.9188 4.46338 17.8046 5.364 17.8046 6.47106C17.8046 7.57421 16.9184 8.4666 15.8337 8.4666C14.7451 8.4666 13.8628 7.5746 13.8628 6.47106C13.8628 5.364 14.7451 4.46338 15.8337 4.46338Z" fill="#757575"/>
<path id="Vector_3" d="M33.5478 12.4697V17.1338C33.5478 20.75 30.4821 23.7935 26.9861 23.7935H16.4949C13.621 23.7935 11.2432 26.2528 11.2432 29.131V39.1325C11.2432 41.9793 13.7182 43.6537 16.4949 44.47C19.8196 45.4478 23.008 45.6245 26.9861 44.47C29.6304 43.7046 32.2379 42.1635 32.2379 39.1325V35.1297H21.7466V33.7954H37.4896C40.5424 33.7954 41.6796 31.6659 42.7413 28.4701C43.8381 25.1802 43.7915 22.0157 42.7413 17.7951C41.9868 14.7563 40.5459 12.4697 37.4896 12.4697H33.5478ZM27.647 37.7983C28.7357 37.7983 29.6179 38.6903 29.6179 39.7938C29.6179 40.9009 28.7357 41.8015 27.647 41.8015C26.5619 41.8015 25.6762 40.9009 25.6762 39.7938C25.6762 38.6907 26.5623 37.7983 27.647 37.7983Z" fill="#757575"/>
<path id="Vector_4" d="M179.404 9.27896H180.016V5.44144H181.465V4.98389H177.954V5.44144H179.404L179.404 9.27896ZM182.008 9.27896H182.53V5.77403L183.665 9.27857H184.247L185.429 5.78579V9.27896H186V4.98428H185.245L183.953 8.66392L182.851 4.98428H182.008V9.27896Z" fill="#757575"/>
</g>
</svg>
