<svg width="70" height="70" viewBox="0 0 70 70" fill="none" xmlns="http://www.w3.org/2000/svg">
<g id="Frame 8155">
<g id="Group 3399">
<path id="Vector 6" d="M27.4615 37.5385H16.9999C16.4476 37.5385 15.9979 37.0871 16.0184 36.5352C16.4477 24.9674 24.2678 19.558 29.0452 18.0247C29.6731 17.8232 30.0181 17.1118 29.7274 16.52C28.8408 14.7148 27.4266 11.7842 26.0483 8.77966C25.8427 8.33137 25.3334 8.09902 24.8615 8.24273C7.13337 13.6425 4.00008 28.9655 4 41.6923V61C4 61.5523 4.44772 62 5 62H27.4615C28.0138 62 28.4615 61.5523 28.4615 61V38.5385C28.4615 37.9862 28.0138 37.5385 27.4615 37.5385Z" stroke="black"/>
<path id="Vector 7" d="M63.9225 37.5385H53.4609C52.9086 37.5385 52.4588 37.0871 52.4793 36.5352C52.9087 24.9674 60.7287 19.558 65.5062 18.0247C66.134 17.8232 66.479 17.1118 66.1883 16.52C65.3017 14.7148 63.8876 11.7842 62.5093 8.77966C62.3036 8.33137 61.7943 8.09902 61.3225 8.24273C43.5943 13.6425 40.461 28.9655 40.4609 41.6923V61C40.4609 61.5523 40.9087 62 41.4609 62H63.9225C64.4748 62 64.9225 61.5523 64.9225 61V38.5385C64.9225 37.9862 64.4748 37.5385 63.9225 37.5385Z" stroke="black"/>
</g>
</g>
</svg>
