<svg width="154" height="45" viewBox="0 0 154 45" fill="none" xmlns="http://www.w3.org/2000/svg">
<g id="Laag_1" clip-path="url(#clip0_877_792)">
<g id="Group">
<path id="Vector" d="M32.6483 8.00803C32.4943 8.00803 29.2603 7.70003 29.2603 7.70003C29.2603 7.70003 26.9503 5.39003 26.6423 5.23603C26.4883 5.08203 26.4883 5.08203 26.3343 5.08203L24.4863 42.966L37.7303 40.04C37.7303 40.04 33.1103 8.62403 33.1103 8.31603C33.1103 8.16203 32.8023 8.00803 32.6483 8.00803Z" fill="#757575"/>
<path id="Subtract" fill-rule="evenodd" clip-rule="evenodd" d="M17.9517 1.72706C17.7704 1.62242 17.6275 1.53989 17.402 1.53989C13.398 1.53989 11.242 6.77589 10.164 9.85589L13.552 8.93189C14.476 4.61989 16.324 2.61789 18.172 1.84789C18.0895 1.80663 18.018 1.76536 17.9517 1.72706ZM19.712 6.77589C19.712 5.08189 19.404 4.00389 19.096 3.07989C17.71 3.69589 16.17 5.08189 15.246 8.31589L19.712 7.08389V6.77589ZM21.098 6.46789L23.1 5.85189C22.638 4.31189 21.714 2.92589 20.636 2.61789C20.944 3.54189 21.098 4.61989 21.098 6.00589V6.46789ZM32.802 8.00789C32.956 8.00789 33.11 8.16189 33.11 8.31589C33.11 8.62389 37.73 40.0399 37.73 40.0399L24.486 42.9659L0 38.3459C0 38.3459 3.08 14.0139 3.234 13.2439C3.23679 13.2243 3.23953 13.2051 3.24223 13.1862C3.3884 12.1603 3.41034 12.0063 4.62 11.7039C4.97404 11.5859 5.31803 11.4679 5.65454 11.3524C6.6354 11.0159 7.5527 10.7012 8.47 10.4719C9.394 6.92989 12.012 -0.000108346 17.556 0.153892C18.326 0.153892 19.25 0.461892 19.866 1.38589H20.02C22.33 1.38589 23.716 3.38789 24.486 5.54389C25.256 5.23589 25.718 5.08189 25.718 5.08189C25.7488 5.08189 25.7919 5.07573 25.8437 5.06834C26.0506 5.03877 26.3956 4.98949 26.642 5.23589C26.95 5.38989 29.26 7.69989 29.26 7.69989C29.26 7.69989 32.494 8.00789 32.802 8.00789ZM18.3262 20.328L20.0202 15.4C20.0202 15.4 18.9422 14.63 16.3242 14.784C10.6262 14.784 7.70024 18.634 7.70024 22.638C7.70024 25.3157 9.20213 26.54 10.5211 27.6151C11.5537 28.4569 12.4742 29.2072 12.4742 30.492C12.4742 31.262 12.0122 32.186 10.7802 32.186C8.93224 32.186 6.77624 30.338 6.77624 30.338L5.69824 34.034C5.69824 34.034 7.85424 36.652 12.0122 36.652C15.5542 36.652 18.1722 34.034 18.1722 29.876C18.1722 26.6866 16.0009 25.0972 14.3035 23.8546C13.2143 23.0572 12.3202 22.4028 12.3202 21.56C12.3202 21.098 12.4742 19.558 15.0922 19.558C16.9402 19.558 18.3262 20.328 18.3262 20.328Z" fill="#757575"/>
<path id="Vector_2" d="M53.2836 24.4867C51.8976 23.7167 51.2816 23.1007 51.2816 22.3307C51.2816 21.2527 52.2057 20.6367 53.7457 20.6367C55.4397 20.6367 56.9796 21.4067 56.9796 21.4067L58.2116 17.7107C58.2116 17.7107 57.1336 16.7867 53.8996 16.7867C49.2796 16.7867 46.1996 19.4047 46.1996 23.1007C46.1996 25.2567 47.7396 26.7967 49.5876 27.8747C51.1276 28.7987 51.7436 29.4147 51.7436 30.3387C51.7436 31.2627 50.9736 32.1867 49.4336 32.1867C47.2776 32.1867 45.1216 31.1087 45.1216 31.1087L43.8896 34.8047C43.8896 34.8047 45.7376 36.0367 48.9716 36.0367C53.5916 36.0367 56.9796 33.7267 56.9796 29.5687C56.9796 27.2587 55.2856 25.5647 53.2836 24.4867ZM71.9176 16.6327C69.6076 16.6327 67.7596 17.7107 66.3736 19.4047L68.3757 8.9327H63.1396L58.0576 35.5747H63.2936L64.9876 26.4887C65.6036 23.1007 67.4517 20.9447 69.1457 20.9447C70.3776 20.9447 70.8396 21.7147 70.8396 22.9467C70.8396 23.7167 70.8396 24.4867 70.6856 25.2567L68.6836 35.7287H73.9196L75.9216 24.9487C76.0756 23.8707 76.2296 22.4847 76.2296 21.5607C76.2296 18.4807 74.6896 16.6327 71.9176 16.6327ZM85.3157 31.8787C83.4677 31.8787 82.8516 30.3387 82.8516 28.4907C82.8516 25.5647 84.3916 20.6367 87.1636 20.6367C89.0116 20.6367 89.6276 22.1767 89.6276 23.7167C89.6276 27.1047 88.0877 31.8787 85.3157 31.8787ZM87.9336 16.6327C81.6196 16.6327 77.4616 22.3307 77.4616 28.6447C77.4616 32.6487 79.9256 35.8827 84.6996 35.8827C90.8596 35.8827 95.0176 30.3387 95.0176 23.8707C95.0176 20.1747 92.8616 16.6327 87.9336 16.6327ZM103.334 32.0327C101.948 32.0327 101.178 31.2627 101.178 31.2627L102.102 26.3347C102.718 23.1007 104.412 20.9447 106.26 20.9447C107.8 20.9447 108.416 22.4847 108.416 23.8707C108.262 27.2587 106.26 32.0327 103.334 32.0327ZM108.416 16.6327C104.874 16.6327 102.872 19.7127 102.872 19.7127L103.18 16.9407H98.5596C98.4056 18.7887 97.9436 21.7147 97.4816 23.8707L93.7856 42.9667H99.0217L100.408 35.2667H100.562C100.562 35.2667 101.64 35.8827 103.642 35.8827C109.802 35.8827 113.806 29.5687 113.806 23.2547C113.806 19.8667 112.266 16.6327 108.416 16.6327ZM121.198 9.2407C119.504 9.2407 118.272 10.6267 118.272 12.3207C118.272 13.8607 119.196 14.9387 120.736 14.9387C122.43 14.9387 123.816 13.8607 123.816 11.8587C123.816 10.3187 122.738 9.2407 121.198 9.2407ZM113.96 35.5747H119.196L122.738 17.0947H117.502L113.96 35.5747ZM135.982 17.0947H132.286L132.44 16.1707C132.748 14.3227 133.826 12.7827 135.52 12.7827C136.444 12.7827 137.214 13.0907 137.214 13.0907L138.292 8.9327C138.292 8.9327 137.368 8.4707 135.52 8.4707C133.672 8.4707 131.824 8.9327 130.438 10.1647C128.59 11.7047 127.82 13.8607 127.358 16.0167L127.204 16.9407H124.74L123.97 20.9447H126.434L123.662 35.5747H128.898L131.67 20.9447H135.212L135.982 17.0947ZM148.456 17.0947C148.456 17.0947 145.222 25.2567 143.682 29.7227C143.528 28.3367 142.45 17.0947 142.45 17.0947H136.906L139.986 34.0347C139.986 34.3427 139.986 34.6507 139.832 34.9587C139.216 36.1907 138.138 37.2687 137.06 38.0387C136.136 38.8087 134.904 39.2707 134.134 39.5787L135.52 44.0447C136.598 43.8907 138.754 42.9667 140.602 41.2727C142.912 39.1167 145.222 35.5747 147.378 30.9547L153.692 17.2487L148.456 17.0947Z" fill="#757575"/>
</g>
</g>
<defs>
<clipPath id="clip0_877_792">
<rect width="154" height="44.044" fill="white"/>
</clipPath>
</defs>
</svg>
