<svg width="116" height="70" viewBox="0 0 116 70" fill="none" xmlns="http://www.w3.org/2000/svg">
<g id="Frame" clip-path="url(#clip0_877_768)">
<path id="Subtract" fill-rule="evenodd" clip-rule="evenodd" d="M105.183 0.339355H10.7705C4.79483 0.339355 -0.0413663 5.22358 0.00620738 11.1513V47.1899C0.00620738 53.1651 4.84286 58.0018 10.8177 58.0018H55.5346L75.9727 69.3823L71.3254 58.0018H105.183C111.158 58.0018 115.995 53.1651 115.995 47.1899V11.1513C115.995 5.17601 111.158 0.339355 105.183 0.339355ZM9.58071 8.73186C8.26043 8.82611 7.27044 9.29731 6.6103 10.1935C5.95016 11.0417 5.66744 12.1264 5.85637 13.3524C8.63784 31.0335 11.2313 42.9627 13.6358 49.1396C14.5787 51.4022 15.6629 52.4869 16.936 52.3927C18.9165 52.2513 21.2739 49.5165 24.0558 44.1883C25.5174 41.1707 27.7806 36.6445 30.8457 30.6094C33.3915 39.5206 36.8807 46.2158 41.2657 50.6954C42.4917 51.9686 43.7644 52.534 44.9905 52.4398C46.0751 52.3456 46.9233 51.7797 47.4897 50.7426C47.9609 49.8464 48.1498 48.8088 48.0551 47.6308C47.7724 43.3401 48.1969 37.3517 49.3754 29.6661C50.601 21.7453 52.1102 16.0401 53.9492 12.6451C54.3262 11.9379 54.4676 11.2306 54.4205 10.382C54.3262 9.29731 53.8546 8.40157 52.9588 7.6943C52.0631 6.98704 51.0731 6.6572 49.9884 6.75099C48.621 6.84568 47.5834 7.50582 46.8766 8.82611C43.9533 14.1539 41.8787 22.7824 40.6526 34.7583C38.8612 30.232 37.3524 24.9037 36.1735 18.6331C35.6547 15.8511 34.382 14.5313 32.3073 14.6727C30.8928 14.7669 29.7139 15.7098 28.7706 17.5017L18.4448 37.1632C16.7476 30.3267 15.1446 21.9809 13.6829 12.1264C13.3531 9.67427 11.9857 8.54293 9.58071 8.73186ZM100.392 12.1264C103.739 12.8341 106.239 14.6256 107.936 17.596C109.445 20.1418 110.246 23.2069 110.199 26.8846C110.199 31.7407 108.973 36.1728 106.521 40.2279C103.692 44.9431 100.015 47.3005 95.4412 47.3005C94.6392 47.3005 93.7906 47.2063 92.8948 47.0173C89.5475 46.3101 87.0483 44.5186 85.351 41.5482C83.8423 38.9547 83.0879 35.8429 83.0879 32.2124C83.0879 27.3558 84.3135 22.9238 86.7655 18.9162C89.6417 14.201 93.3194 11.8436 97.8457 11.8436C98.6476 11.8436 99.4958 11.9379 100.392 12.1264ZM98.4111 37.6344C100.156 36.0786 101.335 33.7683 101.995 30.6565C102.231 29.5723 102.325 28.3934 102.325 27.1673C102.325 25.7999 102.042 24.3383 101.476 22.8766C100.769 21.038 99.8261 20.0476 98.6943 19.812C96.997 19.4821 95.3469 20.4246 93.7906 22.7353C92.5179 24.5268 91.7164 26.4129 91.2918 28.3463C91.0562 29.4305 90.962 30.6094 90.962 31.7879C90.962 33.1553 91.2443 34.6169 91.8106 36.0786C92.5174 37.9176 93.4607 38.9076 94.5925 39.1432C95.771 39.3788 97.0442 38.8605 98.4111 37.6344ZM70.876 12.1264C74.1762 12.8341 76.7225 14.6256 78.4198 17.596C79.9285 20.1418 80.6829 23.2069 80.6829 26.8846C80.6829 31.7407 79.4573 36.1728 77.0052 40.2279C74.1762 44.9431 70.4985 47.3005 65.9251 47.3005C65.1232 47.3005 64.275 47.2063 63.3788 47.0173C60.0314 46.3101 57.5322 44.5186 55.835 41.5482C54.3262 38.9547 53.5718 35.8429 53.5718 32.2124C53.5718 27.3558 54.7979 22.9238 57.2495 18.9162C60.1257 14.201 63.8033 11.8436 68.3296 11.8436C69.1316 11.8436 69.9802 11.9379 70.876 12.1264ZM68.8484 37.6344C70.5928 36.0786 71.7717 33.7683 72.4318 30.6565C72.6674 29.5723 72.8092 28.3934 72.7617 27.1673C72.7617 25.7999 72.4794 24.3383 71.913 22.8766C71.2062 21.038 70.2629 20.0476 69.1311 19.812C67.4339 19.4821 65.7838 20.4246 64.2279 22.7353C62.9547 24.5268 62.1532 26.4129 61.7287 28.3463C61.4931 29.4305 61.3988 30.6094 61.3988 31.7879C61.3988 33.1553 61.6815 34.6169 62.247 36.0786C62.9547 37.9176 63.8976 38.9076 65.0289 39.1432C66.2078 39.3788 67.481 38.8605 68.8484 37.6344Z" fill="#757575"/>
</g>
<defs>
<clipPath id="clip0_877_768">
<rect width="116" height="69.3216" fill="white" transform="translate(0 0.339355)"/>
</clipPath>
</defs>
</svg>
