<svg width="98" height="96" viewBox="0 0 98 96" fill="none" xmlns="http://www.w3.org/2000/svg">
<g id="Frame" clip-path="url(#clip0_877_785)">
<path id="Subtract" fill-rule="evenodd" clip-rule="evenodd" d="M80.6458 0.224609H17.3542C7.75833 0.224609 0 7.98294 0 17.5788V78.4204C0 88.0163 7.75833 95.7746 17.3542 95.7746H80.6458C90.2417 95.7746 98 88.0163 98 78.4204V17.5788C98 7.98294 90.2417 0.224609 80.6458 0.224609ZM32.1767 57.3912H47.3667L50.715 67.1095C50.7967 67.3953 51.0825 67.5995 51.3684 67.5587H59.9025C60.3109 67.5587 60.4334 67.3545 60.3109 66.9053L45.4067 24.847C45.3659 24.6428 45.2025 24.5203 44.8759 24.5203H34.3C34.0959 24.5612 33.9325 24.7653 33.9734 24.9695C33.9734 25.8678 33.8917 26.7662 33.7284 27.6237C33.6126 27.9708 33.5174 28.2974 33.4282 28.6036C33.3914 28.7296 33.3557 28.8521 33.32 28.9712L20.1717 66.8237C20.0492 67.3137 20.1717 67.5587 20.6209 67.5587H28.2975C28.665 67.5995 28.9917 67.3545 29.0734 66.987L32.1767 57.3912ZM44.9167 49.102H34.545C35.1575 47.387 35.77 45.4678 36.3417 43.3853C36.7462 42.1213 37.135 40.8572 37.5179 39.6125C37.7535 38.8468 37.9867 38.0885 38.22 37.342C38.7917 35.5862 39.2409 33.8303 39.6084 32.0745H39.69C39.8494 32.6208 40.0087 33.1925 40.1751 33.7895C40.3072 34.2635 40.4438 34.7535 40.5884 35.2595C40.915 36.4437 41.2825 37.6278 41.6909 38.8937C41.895 39.5266 42.089 40.1493 42.2829 40.772C42.4769 41.3947 42.6708 42.0174 42.875 42.6503C43.2425 43.8753 43.61 45.0595 43.9775 46.162C44.345 47.2237 44.6717 48.2445 44.9167 49.102ZM65.7825 30.237C66.7625 31.1762 68.0692 31.707 69.4167 31.6662C70.805 31.7478 72.1934 31.217 73.1325 30.237C74.1125 29.2162 74.6025 27.8687 74.5617 26.4803C74.6025 25.1328 74.1125 23.8262 73.2142 22.8462C72.3159 21.907 71.0909 21.417 69.4984 21.417C68.1509 21.417 66.8442 21.907 65.8642 22.8462C64.8842 23.7853 64.3534 25.092 64.3942 26.4803C64.3534 27.8687 64.8434 29.2162 65.7825 30.237ZM64.8434 35.6678V67.1095C64.8434 67.5178 65.0475 67.7628 65.4559 67.7628H73.4592C73.8267 67.7628 73.99 67.5587 73.99 67.1095V35.6678C73.99 35.3003 73.8267 35.0962 73.4592 35.0962H65.3742C65.0067 35.0962 64.8434 35.2595 64.8434 35.6678Z" fill="#757575"/>
</g>
<defs>
<clipPath id="clip0_877_785">
<rect width="98" height="95.5696" fill="white" transform="translate(0 0.214844)"/>
</clipPath>
</defs>
</svg>
