<svg width="84" height="153" viewBox="0 0 84 153" fill="none" xmlns="http://www.w3.org/2000/svg">
<path d="M48.5 69.5L40 56H73.5L62.5 69.5H48.5Z" fill="#BB3B13"/>
<path d="M25.5 94.5L29.5 84.5H0L13.5 94.5H25.5Z" fill="#BB3B13"/>
<path d="M84 68.5L79.5 54.5L5 151.5L18.5 153L84 68.5Z" fill="#BB3B13"/>
<path d="M65 0H38.5L46 19H56L65 0Z" fill="#BB3B13"/>
<path d="M46 19L38.5 0L4.5 80H21.5L46 19Z" fill="#F35423"/>
<path d="M56.0009 19H46.0009L21.5 80H33.5C36.3 80 35.6667 82 35 83L44 93.5L62.5 69.5H48.5C46.5003 66.1667 42.1009 59 40.5009 57C38.9009 55 39.1676 52.8333 39.5009 52L56.0009 19Z" fill="#F5683C"/>
<path d="M76 18.5L69.5 0L44.5 52H59.5L76 18.5Z" fill="#BB3B13"/>
<path d="M13.5 133.5L35 82.5L44.5 93L13.5 133.5Z" fill="#F35423"/>
</svg>
