<svg width="1094" height="130" viewBox="0 0 1094 130" fill="none" xmlns="http://www.w3.org/2000/svg">
<path d="M94.981 194.892C42.0443 194.892 0.265821 152.335 0.265821 97.5823C0.265821 43.0886 42.0443 0.791187 94.981 0.791187C146.101 0.791187 185.544 34.7848 191.513 84.0886H139.614C135.721 60.7342 118.335 44.6456 95.5 44.6456C67.9936 44.6456 50.6076 65.9241 50.6076 97.5823C50.6076 129.5 67.9936 151.038 95.5 151.038C118.076 151.038 135.462 134.949 139.614 111.335H191.513C185.285 161.158 146.101 194.892 94.981 194.892ZM302.049 194.892C248.334 194.892 206.036 154.152 206.036 97.5823C206.036 41.0127 248.334 0.791187 302.049 0.791187C356.023 0.791187 398.321 41.0127 398.321 97.5823C398.321 154.152 356.023 194.892 302.049 194.892ZM302.049 151.038C331.372 151.038 347.72 126.905 347.72 97.5823C347.72 68.2595 331.372 44.6456 302.049 44.6456C272.726 44.6456 256.378 68.2595 256.378 97.5823C256.378 126.905 272.726 151.038 302.049 151.038ZM508.054 191L468.092 83.5696V191H423.719V4.68359H481.586L528.554 131.057L575.263 4.68359H633.13V191H588.757V82.2722L548.535 191H508.054ZM818.737 130.019C818.737 168.424 788.117 193.595 739.591 193.595C691.066 193.595 659.927 167.905 656.554 126.646H706.117C706.636 144.291 718.313 155.449 738.554 155.449C755.421 155.449 766.579 148.962 766.579 137.285C766.579 129.241 758.535 123.272 747.636 121.196L713.642 114.709C683.8 109 664.079 91.614 664.079 61.5127C664.079 26.7406 694.699 2.34814 736.478 2.34814C780.851 2.34814 812.769 27.7785 815.623 68H766.06C764.762 51.1329 753.345 40.2342 736.997 40.2342C722.465 40.2342 713.642 48.019 713.642 58.1393C713.642 66.4431 721.946 71.3734 731.807 73.1899L767.876 80.1962C801.091 86.6836 818.737 103.032 818.737 130.019ZM922.624 194.892C869.687 194.892 827.908 152.335 827.908 97.5823C827.908 43.0886 869.687 0.791187 922.624 0.791187C973.744 0.791187 1013.19 34.7848 1019.16 84.0886H967.257C963.364 60.7342 945.978 44.6456 923.143 44.6456C895.636 44.6456 878.25 65.9241 878.25 97.5823C878.25 129.5 895.636 151.038 923.143 151.038C945.719 151.038 963.105 134.949 967.257 111.335H1019.16C1012.93 161.158 973.744 194.892 922.624 194.892ZM1093.62 191H1044.58V4.68359H1093.62V191Z" fill="white"/>
</svg>
