<svg width="1268" height="226" viewBox="0 0 1268 226" fill="none" xmlns="http://www.w3.org/2000/svg">
<path d="M110.612 225.508C49.302 225.508 0.915106 176.22 0.915106 112.806C0.915106 49.6925 49.302 0.704542 110.612 0.704542C169.818 0.704542 215.5 40.0752 222.413 97.1777H162.305C157.797 70.1292 137.661 51.4957 111.213 51.4957C79.3559 51.4957 59.2198 76.14 59.2198 112.806C59.2198 149.772 79.3559 174.717 111.213 174.717C137.36 174.717 157.496 156.083 162.305 128.734H222.413C215.2 186.438 169.818 225.508 110.612 225.508ZM350.433 225.508C288.221 225.508 239.234 178.323 239.234 112.806C239.234 47.2882 288.221 0.704542 350.433 0.704542C412.945 0.704542 461.933 47.2882 461.933 112.806C461.933 178.323 412.945 225.508 350.433 225.508ZM350.433 174.717C384.394 174.717 403.328 146.767 403.328 112.806C403.328 78.8448 384.394 51.4957 350.433 51.4957C316.472 51.4957 297.538 78.8448 297.538 112.806C297.538 146.767 316.472 174.717 350.433 174.717ZM589.024 221L542.741 96.5766V221H491.349V5.21263H558.369L612.767 151.575L666.864 5.21263H733.884V221H682.492V95.0739L635.908 221H589.024ZM948.85 150.373C948.85 194.853 913.386 224.005 857.185 224.005C800.984 224.005 764.919 194.252 761.012 146.466H818.415C819.017 166.903 832.541 179.826 855.983 179.826C875.518 179.826 888.441 172.313 888.441 158.788C888.441 149.472 879.124 142.559 866.502 140.155L827.131 132.641C792.569 126.03 769.728 105.893 769.728 71.0308C769.728 30.7585 805.192 2.50777 853.579 2.50777C904.971 2.50777 941.937 31.9607 945.243 78.5443H887.84C886.337 59.0092 873.114 46.3865 854.18 46.3865C837.349 46.3865 827.131 55.4027 827.131 67.1238C827.131 76.741 836.748 82.4513 848.169 84.5551L889.944 92.6696C928.413 100.183 948.85 119.117 948.85 150.373ZM1069.17 225.508C1007.86 225.508 959.472 176.22 959.472 112.806C959.472 49.6925 1007.86 0.704542 1069.17 0.704542C1128.37 0.704542 1174.06 40.0752 1180.97 97.1777H1120.86C1116.35 70.1292 1096.22 51.4957 1069.77 51.4957C1037.91 51.4957 1017.78 76.14 1017.78 112.806C1017.78 149.772 1037.91 174.717 1069.77 174.717C1095.92 174.717 1116.05 156.083 1120.86 128.734H1180.97C1173.76 186.438 1128.37 225.508 1069.17 225.508ZM1267.21 221H1210.41V5.21263H1267.21V221Z" fill="white"/>
</svg>
