<svg width="98" height="54" viewBox="0 0 98 54" fill="none" xmlns="http://www.w3.org/2000/svg">
<path id="Vector" d="M38.6618 0.70916C34.761 0.760738 31.402 1.52522 28.1024 3.16936C19.6754 7.36696 14.8095 16.2066 14.8095 27.3446C14.8095 38.5081 19.5963 47.0855 28.0523 51.098C30.3366 52.1819 32.6265 52.7718 36.1027 53.1852C37.862 53.2558 39.5075 53.3809 41.2209 53.1852C44.6971 52.7718 46.9871 52.1819 49.2713 51.098C57.728 47.0855 62.5149 38.5088 62.5149 27.3446C62.5149 16.2066 57.6482 7.36696 49.2219 3.16936C45.9216 1.52522 42.5634 0.760738 38.6618 0.70916ZM42.0165 8.56102C47.0761 9.90912 50.7473 14.4741 52.1533 21.1333C53.1425 25.81 52.8726 31.2137 51.4581 35.4699C49.2551 42.098 44.4732 45.8413 38.6618 45.7813C32.8504 45.8413 28.0685 42.098 25.8662 35.4699C24.4531 31.2137 24.1825 25.81 25.1703 21.1333C26.577 14.4741 30.2482 9.90912 35.3078 8.56102C37.602 8.07492 39.8877 8.16253 42.0165 8.56102ZM5.06404 0.70916C4.06363 0.70916 3.08568 1.00581 2.25387 1.56161C1.42205 2.11741 0.773734 2.90739 0.390892 3.83165C0.00805103 4.75591 -0.0921178 5.77294 0.103053 6.75413C0.298224 7.73532 0.779969 8.63661 1.48737 9.344C2.19477 10.0514 3.09605 10.5331 4.07724 10.7283C5.05843 10.9235 6.07546 10.8233 6.99972 10.4405C7.92398 10.0576 8.71396 9.40932 9.26976 8.57751C9.82556 7.74569 10.1222 6.76775 10.1222 5.76733C10.1222 4.42582 9.5893 3.13926 8.64071 2.19066C7.69212 1.24207 6.40555 0.70916 5.06404 0.70916ZM0.337939 16.1423V53.2905H9.79014V16.1423H0.337939ZM76.2586 53.2127C72.2087 52.5189 68.3135 51.9819 65.0069 50.1039C64.9631 50.0651 66.9591 42.6067 67.0488 42.4732C72.3634 44.2777 79.8444 46.8086 84.8884 44.4897C87.6383 43.114 88.9928 40.5712 88.5377 37.6362C88.0255 34.3373 85.7412 32.436 79.4706 30.0917C72.4758 27.4774 68.3778 24.2633 66.6998 20.0848C65.8752 18.0295 65.6025 15.4138 65.9727 13.1289C67.0043 6.77346 71.9551 2.35259 79.5533 1.00096C81.7542 0.609532 86.4619 0.606001 88.778 0.993189C92.1157 1.55136 95.9438 2.81396 95.9438 3.35659C95.9438 3.55655 93.988 10.4525 93.8877 10.6051C90.5874 9.29796 86.8858 8.3639 83.7537 8.34412C79.3222 8.2883 74.5177 10.9188 75.3656 15.5657C75.9654 18.4774 77.8236 19.899 84.663 22.6779C89.7007 24.7268 92.1178 26.1399 94.1894 28.2426C97.0686 31.1176 97.9786 34.4906 97.9998 37.834C98.0076 40.6185 97.7476 41.9179 96.7542 44.0679C94.3406 49.2897 89.4317 52.3171 82.0276 53.1498C80.6428 53.3046 77.3799 53.3399 76.2622 53.2127H76.2586Z" fill="#757575"/>
</svg>
