<svg width="84" height="84" viewBox="0 0 84 84" fill="none" xmlns="http://www.w3.org/2000/svg">
<g id="Frame" clip-path="url(#clip0_877_741)">
<path id="Subtract" fill-rule="evenodd" clip-rule="evenodd" d="M84 0H0V84H84V0ZM66.6093 53.9134C74.0112 56.9157 76.5104 60.1335 77.1253 63.9662C77.7162 67.2639 76.9815 69.4039 76.8698 69.7233C74.139 79.0655 58.912 79.369 52.8276 73.1967C52.6428 72.9878 52.4679 72.7933 52.3016 72.6083C51.311 71.5064 50.6254 70.7439 49.9691 69.3081L49.976 69.3041C53.2029 67.4477 53.2052 67.4464 56.3488 65.6271C58.0577 68.2541 59.6386 69.6994 62.4812 70.2903C66.3379 70.7613 70.2184 69.4359 69.3481 65.3397C68.8296 63.4 66.2579 62.3111 63.2591 61.0414C61.0855 60.1211 58.6874 59.1057 56.6842 57.6024C51.8454 54.3525 50.7116 46.4557 54.688 41.9443C56.0135 40.2754 58.2733 39.0298 60.6447 38.4309C61.0538 38.3793 61.4649 38.3257 61.876 38.272C62.2913 38.2179 62.7066 38.1637 63.1199 38.1116C67.8709 38.0157 70.8412 39.2694 73.0211 41.7047C73.6279 42.3195 74.123 42.9823 75.0492 44.4195C74.5271 44.7522 74.113 45.0156 73.7528 45.2448C72.3667 46.1264 71.7782 46.5007 68.9009 48.3639C68.1264 46.6952 66.8409 45.6491 65.4834 45.194C63.3755 44.5552 60.7165 45.2499 60.1656 47.4776C59.9739 48.1643 60.0139 48.8031 60.3173 49.937C61.0088 51.5139 63.0185 52.369 65.1229 53.2642C65.6184 53.4751 66.1192 53.6881 66.6093 53.9134ZM37.8082 38.6065H45.6652C45.6652 41.0171 45.6696 43.4249 45.6741 45.831C45.6829 50.6378 45.6918 55.4376 45.6652 60.2373C45.6676 60.889 45.6779 61.5315 45.6881 62.1639C45.747 65.8163 45.8004 69.132 44.2758 71.943C43.0382 74.4582 40.6748 76.111 37.936 76.9095C33.7279 77.8756 29.7036 77.3247 26.7093 75.5281C24.7051 74.2985 23.1402 72.4062 22.0781 70.2263C23.1426 69.5764 24.2052 68.9245 25.2677 68.2727C26.3331 67.619 27.3986 66.9654 28.466 66.3138C28.5158 66.3351 28.6542 66.578 28.8418 66.9072C28.8649 66.9477 28.8887 66.9895 28.9132 67.0324C29.7276 68.3977 30.4303 69.3639 31.8117 70.0426C33.1691 70.5058 36.1474 70.8011 37.2972 68.4138C37.8578 67.4455 37.8288 64.7292 37.7942 61.4769C37.7854 60.6524 37.7763 59.7935 37.7763 58.9198C37.7763 55.5263 37.7843 52.1447 37.7922 48.7632C37.8002 45.3816 37.8082 42.0001 37.8082 38.6065Z" fill="#757575"/>
</g>
<defs>
<clipPath id="clip0_877_741">
<rect width="84" height="84" fill="white"/>
</clipPath>
</defs>
</svg>
