<svg width="90" height="94" viewBox="0 0 90 94" fill="none" xmlns="http://www.w3.org/2000/svg">
<g id="Frame" clip-path="url(#clip0_877_801)">
<path id="Vector" d="M89.7893 21.4464C89.8226 21.571 89.8396 21.6994 89.84 21.8284V41.8825C89.84 42.1399 89.7727 42.3927 89.645 42.6155C89.5173 42.8382 89.3336 43.0229 89.1126 43.151L72.4506 52.8417V72.0495C72.4506 72.5723 72.1756 73.0548 71.7269 73.318L36.9463 93.5439C36.8667 93.5896 36.7798 93.6188 36.693 93.6499C36.6604 93.6608 36.6297 93.6809 36.5953 93.6901C36.3522 93.7548 36.0966 93.7548 35.8535 93.6901C35.8137 93.6791 35.7775 93.6572 35.7395 93.6426C35.6599 93.6133 35.5766 93.5877 35.5007 93.5439L0.727346 73.318C0.506442 73.1898 0.322892 73.005 0.195198 72.7823C0.0675028 72.5596 0.000175032 72.3069 0 72.0495L0 11.8873C0 11.7557 0.0180932 11.6277 0.0506609 11.5035C0.0615169 11.4614 0.0868473 11.423 0.101322 11.381C0.128462 11.3042 0.153792 11.2256 0.193597 11.1544C0.220737 11.1068 0.260542 11.0685 0.29311 11.0246C0.334724 10.9661 0.37272 10.9058 0.421571 10.8546C0.463186 10.8126 0.517465 10.7815 0.564508 10.7449C0.616978 10.7011 0.66402 10.6536 0.723728 10.6188L18.1131 0.505881C18.3333 0.377903 18.5828 0.310547 18.8368 0.310547C19.0908 0.310547 19.3404 0.377903 19.5606 0.505881L36.9481 10.6188H36.9517C37.0096 10.6554 37.0585 10.7011 37.111 10.7431C37.158 10.7797 37.2105 10.8126 37.2521 10.8528C37.3027 10.9058 37.3389 10.9661 37.3823 11.0246C37.4131 11.0685 37.4547 11.1068 37.4801 11.1544C37.5217 11.2275 37.5452 11.3042 37.5741 11.381C37.5886 11.423 37.6139 11.4614 37.6248 11.5053C37.6581 11.6298 37.6751 11.7583 37.6755 11.8873V49.464L52.1645 41.0362V21.8266C52.1645 21.6986 52.1826 21.5689 52.2151 21.4464C52.2278 21.4026 52.2513 21.3642 52.2658 21.3221C52.2948 21.2454 52.3201 21.1668 52.3599 21.0955C52.387 21.048 52.4268 21.0096 52.4576 20.9657C52.501 20.9072 52.5372 20.8469 52.5879 20.7957C52.6295 20.7537 52.682 20.7226 52.729 20.6861C52.7833 20.6422 52.8303 20.5947 52.8882 20.56L70.2794 10.447C70.4995 10.3189 70.7491 10.2514 71.0031 10.2514C71.2572 10.2514 71.5068 10.3189 71.7269 10.447L89.1144 20.56C89.1759 20.5965 89.223 20.6422 89.2773 20.6842C89.3225 20.7208 89.375 20.7537 89.4166 20.7939C89.4672 20.8469 89.5034 20.9072 89.5468 20.9657C89.5794 21.0096 89.6192 21.048 89.6445 21.0955C89.6862 21.1668 89.7097 21.2454 89.7386 21.3221C89.7549 21.3642 89.7784 21.4026 89.7893 21.4464ZM86.9414 41.0362V24.3599L80.8567 27.8984L72.4506 32.7876V49.464L86.9432 41.0362H86.9414ZM69.5539 71.2033V54.5159L61.2853 59.2863L37.6737 72.8994V89.744L69.5539 71.2033ZM2.89853 14.4187V71.2033L34.7751 89.7421V72.9013L18.1221 63.3805L18.1167 63.3768L18.1095 63.3732C18.0534 63.3403 18.0063 63.2928 17.9539 63.2526C17.9086 63.216 17.8562 63.1868 17.8164 63.1465L17.8128 63.1411C17.7657 63.0954 17.7331 63.0387 17.6933 62.9875C17.6572 62.9382 17.6137 62.8961 17.5848 62.845L17.583 62.8395C17.5504 62.7846 17.5305 62.7189 17.507 62.6567C17.4835 62.6019 17.4527 62.5507 17.4382 62.4922C17.4201 62.4228 17.4165 62.3478 17.4093 62.2765C17.402 62.2217 17.3876 62.1669 17.3876 62.112V22.8465L8.98327 17.9554L2.89853 14.4187ZM18.8386 3.46318L4.35141 11.8873L18.835 20.3114L33.3204 11.8855L18.835 3.46318H18.8386ZM26.3726 56.0366L34.7769 51.1492V14.4187L28.6922 17.9572L20.2861 22.8465V59.5769L26.3726 56.0366ZM71.0031 13.4043L56.5177 21.8284L71.0031 30.2525L85.4867 21.8266L71.0031 13.4043ZM69.5539 32.7876L61.1478 27.8984L55.063 24.3599V41.0362L63.4673 45.9237L69.5539 49.464V32.7876ZM36.2226 70.368L57.4694 58.1147L68.0901 51.9918L53.6156 43.5732L36.9499 53.2657L21.7607 62.0992L36.2226 70.368Z" fill="#757575"/>
</g>
<defs>
<clipPath id="clip0_877_801">
<rect width="90" height="94" fill="white"/>
</clipPath>
</defs>
</svg>
