<svg width="111" height="150" viewBox="0 0 111 150" fill="none" xmlns="http://www.w3.org/2000/svg">
<path d="M76.5 15L92 91L84 86L72.5 24.5L76.5 15Z" fill="#F35423"/>
<path d="M72.5 24.5L76.5 15L28 16.5L29.5 26L72.5 24.5Z" fill="#BB3B13"/>
<path d="M96.8412 135.124L57.1348 111.424L69.4468 100.343L111 125.89L96.8412 135.124Z" fill="#F35423"/>
<path d="M71.6258 101.716L20.8209 149.557L20.5059 144.05L67.5995 99.1113L71.6258 101.716Z" fill="#BB3B13"/>
<path fill-rule="evenodd" clip-rule="evenodd" d="M12.1943 2.15461L33.4326 124.044L67.2908 94.1873L110.999 120.043L86.6823 0L12.1943 2.15461ZM27.585 13.7978L42.0085 97.8803L65.0025 77.2844L94.6857 95.1201L78.1718 12.3115L27.585 13.7978Z" fill="#F5683C"/>
<path d="M0.499023 18.1609L8.50186 2.15527L29.7402 124.045L19.2749 137.896L0.499023 18.1609Z" fill="#F35423"/>
</svg>
