<svg width="98" height="97" viewBox="0 0 98 97" fill="none" xmlns="http://www.w3.org/2000/svg">
<g id="Frame" clip-path="url(#clip0_877_778)">
<path id="Subtract" fill-rule="evenodd" clip-rule="evenodd" d="M80.6458 0.811523H17.3542C7.75833 0.811523 0 8.56986 0 18.1657V79.0074C0 88.6032 7.75833 96.3615 17.3542 96.3615H80.6458C90.2417 96.3615 98 88.6032 98 79.0074V18.1657C98 8.56986 90.2417 0.811523 80.6458 0.811523ZM22.0498 25.8016V67.8191C22.0498 68.1866 22.2131 68.3499 22.5398 68.3499H30.4615C30.7473 68.3091 30.9515 68.0641 30.9106 67.7783V54.6708C31.6865 54.6708 32.2581 54.6708 32.6665 54.7116C33.0748 54.7524 33.7281 54.7524 34.7081 54.7524C38.0565 54.7524 41.119 54.3849 43.8956 53.3641C46.5498 52.3841 48.8365 50.6691 50.4698 48.3824C52.1031 46.0958 52.9198 43.1966 52.9198 39.6849C52.9198 37.8474 52.5931 36.0916 51.9806 34.3766C51.3273 32.6208 50.3065 31.0283 48.9998 29.7216C47.4481 28.2108 45.5698 27.0674 43.5281 26.3733C41.2415 25.5158 38.4648 25.1074 35.1165 25.1074C33.8915 25.1074 32.6665 25.1074 31.4006 25.1483C30.7895 25.168 30.1974 25.1782 29.6243 25.188C29.0104 25.1986 28.4184 25.2088 27.8481 25.2299C27.3134 25.2497 26.7979 25.2599 26.2969 25.2698C25.765 25.2804 25.2495 25.2906 24.7448 25.3116C23.8057 25.3524 23.1524 25.3524 22.4582 25.3524H22.4581C22.1723 25.3524 22.0498 25.5158 22.0498 25.8016ZM30.9515 46.9533V33.2333C31.2373 33.1924 31.809 33.1516 32.6256 33.1924C33.4015 33.1516 34.3406 33.1516 35.4023 33.1516C37.0765 33.1108 38.7098 33.3558 40.2206 33.9683C41.4048 34.4174 42.3848 35.2341 43.079 36.2958C43.7323 37.3983 44.059 38.6641 44.0181 39.9299C44.0181 41.7266 43.6098 43.1149 42.7523 44.1358C41.854 45.1566 40.7106 45.9324 39.404 46.2999C37.8931 46.7899 36.3006 47.0349 34.7081 47.0349H32.544C32.0892 47.0349 31.5992 46.9997 31.074 46.962C31.0334 46.9591 30.9925 46.9562 30.9515 46.9533ZM74.4798 43.0741C75.8681 43.3599 77.1748 43.8091 78.3998 44.4624C78.5631 44.5441 78.7673 44.5441 79.1348 44.4624C79.2573 44.3808 79.339 44.2174 79.339 44.0541V37.3983C79.339 37.2349 79.2981 37.0716 79.2573 36.9083C79.1756 36.7449 79.0123 36.5816 78.849 36.5408C77.7465 36.0916 76.5623 35.7649 75.3373 35.6016C73.6631 35.3566 71.9481 35.2341 70.274 35.2341C67.3748 35.2341 64.9656 35.6833 63.0465 36.6633C61.2906 37.4799 59.7798 38.7866 58.759 40.4199C57.8606 41.9308 57.3706 43.6049 57.3706 45.3608C57.3298 46.7899 57.6565 48.2191 58.3098 49.5258C59.0856 50.9141 60.1473 52.0983 61.4131 52.9966C63.2098 54.2216 65.129 55.2016 67.2115 55.9366C69.2123 56.7124 70.5598 57.3249 71.2131 57.8558C71.8665 58.3866 72.1931 58.9174 72.1931 59.4891C72.1931 60.2241 71.744 60.9183 71.0906 61.2041C70.3556 61.5716 69.2531 61.7758 67.7015 61.7758C66.0681 61.7758 64.4348 61.5716 62.8831 61.1633C61.0865 60.7549 59.4123 60.1016 57.8198 59.1624C57.6973 59.0808 57.5748 59.0399 57.4523 59.1216C57.3298 59.2033 57.289 59.3666 57.289 59.4891V66.5941C57.2481 66.9208 57.4523 67.2066 57.7381 67.3699C59.0448 67.9824 60.474 68.4316 61.9031 68.6766C63.7406 69.0441 65.5781 69.2074 67.4565 69.2074C70.3965 69.2074 72.8465 68.7583 74.8473 67.9008C76.6848 67.1658 78.2773 65.8999 79.4206 64.2666C80.4823 62.6741 81.054 60.7549 81.0131 58.8358C81.054 57.3658 80.7273 55.9366 80.074 54.6299C79.2981 53.2416 78.1956 52.0983 76.8481 51.2408C74.8881 50.0158 72.7648 48.9949 70.5598 48.2599C69.5798 47.8516 68.5998 47.4024 67.6606 46.9124C67.1298 46.6266 66.6398 46.2591 66.2723 45.8099C66.0273 45.4833 65.864 45.1158 65.864 44.7483C65.864 44.3808 65.9865 43.9724 66.1906 43.6458C66.4765 43.2374 66.9256 42.9516 67.4565 42.8291C68.2323 42.6249 69.0898 42.5024 69.9065 42.5433C71.4581 42.5433 72.969 42.7474 74.4798 43.0741Z" fill="#757575"/>
</g>
<defs>
<clipPath id="clip0_877_778">
<rect width="98" height="95.5696" fill="white" transform="translate(0 0.801758)"/>
</clipPath>
</defs>
</svg>
