<svg width="172" height="136" viewBox="0 0 172 136" fill="none" xmlns="http://www.w3.org/2000/svg">
<path d="M19.173 69.9433L46.3503 37.5539L35.3677 26.5713L0 69.9433L35.3677 115.177L46.1642 104.38L19.173 69.9433Z" fill="#F5683C"/>
<path d="M56.4018 37.5537H49.1421L21.9648 69.9431L48.956 104.38L55.6572 103.302L28.8522 69.9431L56.4018 37.5537Z" fill="#BB3B13"/>
<path d="M48.9556 104.379L55.6569 103.302L43.7436 114.245L38.1592 115.176L48.9556 104.379Z" fill="#F35423"/>
<path d="M56.4015 37.5534H49.1418L38.1592 26.5708L44.6743 25.8262L56.4015 37.5534Z" fill="#F35423"/>
<path d="M104.428 9.63227L98.6578 10.3772L87.8613 6.6543L92.8873 6.0955L104.428 9.63227Z" fill="#F35423"/>
<path d="M72.225 132.341L66.6406 134.575L98.6577 10.3764L104.428 9.63184L72.225 132.341Z" fill="#BB3B13"/>
<path d="M96.0516 11.8635L85.2551 8.14062L53.6104 130.625L64.2207 135.092L96.0516 11.8635Z" fill="#F5683C"/>
<path d="M122.113 123.033L166.23 76.124H172L129.373 121.73L122.113 123.033Z" fill="#F35423"/>
<path d="M166.229 76.1248L121.927 25.4932H127.511L172 76.1248H166.229Z" fill="#BB3B13"/>
<path d="M135.515 76.1256L104.242 40.944L118.948 25.8662L163.064 76.1256L118.948 123.034L104.242 109.073L135.515 76.1256Z" fill="#F5683C"/>
</svg>
