<svg width="150" height="80" viewBox="0 0 150 80" fill="none" xmlns="http://www.w3.org/2000/svg">
<g clip-path="url(#clip0_1488_20556)">
<g opacity="0.99">
<mask id="mask0_1488_20556" style="mask-type:luminance" maskUnits="userSpaceOnUse" x="43" y="31" width="107" height="17">
<path d="M149.263 31.7559H43.6426V47.7442H149.263V31.7559Z" fill="white"/>
</mask>
<g mask="url(#mask0_1488_20556)">
<path d="M50.7125 31.9263C46.5498 31.9291 43.6426 34.6837 43.6426 38.6254V47.5085C43.6426 47.588 43.7048 47.6505 43.7839 47.6505H46.612C46.6912 47.6505 46.7533 47.588 46.7533 47.5085V39.0514C46.7533 36.3734 48.3286 34.7718 50.9671 34.7718C53.6056 34.7718 54.9546 36.2911 54.9546 39.0514V47.5085C54.9546 47.588 55.0168 47.6505 55.096 47.6505H57.6411C57.7203 47.6505 57.7826 47.588 57.7826 47.5085V38.6254C57.7826 34.6837 54.8754 31.9291 50.7125 31.9263Z" fill="white"/>
<path d="M74.3257 32.0312H71.7805C71.7014 32.0312 71.6392 32.0937 71.6392 32.1732V40.6246C71.6392 43.3026 70.064 44.8986 67.4255 44.8986C64.7869 44.8986 63.438 43.3793 63.438 40.6246V32.1732C63.438 32.0937 63.3757 32.0312 63.2965 32.0312H60.4686C60.3894 32.0312 60.3271 32.0937 60.3271 32.1732V41.0477C60.3271 44.9866 63.2344 47.7413 67.3971 47.7413C71.56 47.7413 74.4672 44.9866 74.4672 41.0477V32.1732C74.4672 32.0937 74.4049 32.0312 74.3257 32.0312Z" fill="white"/>
<path d="M92.1784 32.0937C92.1523 32.0539 92.1069 32.0312 92.0625 32.0312H89.1915C89.1322 32.0312 89.0816 32.0681 89.059 32.1221L84.3954 44.2312L79.732 32.1221C79.7122 32.0681 79.6585 32.0312 79.5991 32.0312H76.7287C76.6806 32.0312 76.6382 32.0539 76.6127 32.0937C76.5873 32.1335 76.5816 32.1818 76.5986 32.2272L82.7071 47.5624C82.7297 47.6163 82.7806 47.6504 82.8371 47.6504H85.9507C86.0073 47.6504 86.0611 47.6163 86.0809 47.5624L92.1924 32.2272C92.209 32.1846 92.2037 32.1335 92.1784 32.0937Z" fill="white"/>
<path d="M100.034 31.8809C97.7289 31.8809 95.8225 32.6419 94.3696 34.1413C92.9158 35.6408 92.1807 37.5435 92.1807 39.7983C92.1807 42.0532 92.9324 43.9814 94.415 45.4696C95.8967 46.9576 97.8449 47.713 100.209 47.713C103.131 47.713 105.35 46.5686 106.804 44.308C106.824 44.274 106.833 44.2342 106.824 44.1973C106.815 44.1604 106.79 44.1263 106.756 44.1064L104.578 42.8654C104.513 42.8285 104.428 42.8484 104.389 42.9137C103.538 44.2996 102.152 45.0038 100.271 45.0038C98.9167 45.0038 97.7629 44.6459 96.8411 43.9389C95.9612 43.2658 95.3847 42.3173 95.1187 41.1189H107.277C107.347 41.1189 107.407 41.0677 107.415 40.9968C107.475 40.5992 107.505 40.2045 107.505 39.8239C107.505 37.6514 106.804 35.7629 105.424 34.2181C104.039 32.6675 102.225 31.8809 100.036 31.8809H100.034ZM100.034 34.5617C101.171 34.5617 102.18 34.9195 103.035 35.6238C103.852 36.2968 104.378 37.2879 104.606 38.563H95.1135C95.342 37.3788 95.8792 36.4132 96.7138 35.6948C97.585 34.9422 98.7048 34.5617 100.036 34.5617H100.034Z" fill="white"/>
<path d="M118.161 31.7559C115.874 31.7559 114.213 32.5794 113.212 34.2009V32.1732C113.212 32.0938 113.15 32.0313 113.071 32.0313H110.526C110.447 32.0313 110.384 32.0938 110.384 32.1732V47.5085C110.384 47.588 110.447 47.6505 110.526 47.6505H113.071C113.15 47.6505 113.212 47.588 113.212 47.5085V39.3837C113.212 37.7621 113.699 36.5694 114.657 35.8452C115.628 35.1125 116.804 34.7717 118.156 34.8314C118.193 34.8314 118.232 34.82 118.261 34.7916C118.288 34.7661 118.302 34.7263 118.302 34.6894V31.8978C118.302 31.8183 118.24 31.7559 118.161 31.7559Z" fill="white"/>
<path d="M129.037 39.1197L126.625 38.4068C125.841 38.1768 125.157 37.8928 124.588 37.5605C124.051 37.2482 123.79 36.8478 123.79 36.3394C123.79 35.7686 124.02 35.3398 124.492 35.0274C124.976 34.7065 125.576 34.5447 126.268 34.5447C127.79 34.5447 128.776 35.1353 129.288 36.3479C129.306 36.3849 129.333 36.4132 129.374 36.4274C129.413 36.4416 129.453 36.436 129.49 36.4161L131.638 35.2034C131.704 35.1666 131.729 35.0842 131.695 35.016C131.215 34.0306 130.487 33.2496 129.535 32.6959C128.584 32.1449 127.487 31.8638 126.271 31.8638C124.752 31.8638 123.469 32.2927 122.456 33.1389C121.435 33.9909 120.918 35.0927 120.918 36.4104C120.918 37.4271 121.218 38.2762 121.808 38.9294C122.391 39.5768 123.109 40.0312 123.938 40.2811L126.35 41.0081C127.137 41.2438 127.815 41.5363 128.372 41.8715C128.901 42.1923 129.158 42.6013 129.158 43.121C129.158 43.76 128.912 44.2171 128.403 44.5182C127.877 44.8277 127.199 44.9868 126.384 44.9868C125.513 44.9868 124.755 44.7851 124.136 44.3875C123.519 43.9928 123.093 43.4533 122.869 42.7774C122.855 42.7376 122.823 42.7035 122.784 42.6893C122.745 42.6751 122.699 42.678 122.663 42.6979L120.454 43.9701C120.392 44.0042 120.366 44.0808 120.394 44.1462C120.836 45.2139 121.588 46.0801 122.629 46.7248C123.667 47.3665 124.93 47.6903 126.381 47.6903C128.016 47.6903 129.376 47.2729 130.428 46.4493C131.488 45.6172 132.029 44.4955 132.029 43.1153C132.029 42.056 131.734 41.1757 131.152 40.497C130.575 39.8239 129.863 39.3582 129.031 39.1111L129.037 39.1197Z" fill="white"/>
<path d="M147.182 34.2181C145.796 32.6675 143.984 31.8809 141.795 31.8809C139.49 31.8809 137.583 32.6419 136.13 34.1413C134.677 35.6408 133.941 37.5435 133.941 39.7983C133.941 42.0532 134.693 43.9814 136.176 45.4696C137.657 46.9576 139.608 47.713 141.97 47.713C144.891 47.713 147.111 46.5686 148.565 44.308C148.585 44.274 148.593 44.2342 148.585 44.1973C148.576 44.1604 148.551 44.1263 148.517 44.1064L146.339 42.8654C146.274 42.8285 146.189 42.8484 146.15 42.9137C145.299 44.2996 143.913 45.0038 142.032 45.0038C140.677 45.0038 139.524 44.6459 138.602 43.9389C137.722 43.2658 137.145 42.3173 136.879 41.1189H149.037C149.108 41.1189 149.167 41.0677 149.176 40.9968C149.235 40.5992 149.266 40.2045 149.266 39.8239C149.266 37.6514 148.565 35.7629 147.185 34.2181H147.182ZM138.472 35.6948C139.342 34.9422 140.463 34.5617 141.795 34.5617C142.932 34.5617 143.941 34.9195 144.795 35.6238C145.613 36.2968 146.139 37.2879 146.367 38.563H136.874C137.103 37.3788 137.64 36.4132 138.475 35.6948H138.472Z" fill="white"/>
</g>
</g>
<path d="M17.478 57.1923C27.1109 57.1923 34.9199 49.3833 34.9199 39.7505C34.9199 30.1176 27.1109 22.3086 17.478 22.3086C7.84512 22.3086 0.0361328 30.1176 0.0361328 39.7505C0.0361328 49.3833 7.84512 57.1923 17.478 57.1923Z" fill="white"/>
<path d="M14.5049 35.5053C14.818 35.169 15.1758 34.8825 15.5734 34.6456C16.3321 34.2033 17.1537 33.9797 18.0185 33.9797C19.019 33.9797 20.3989 34.4882 21.098 35.4607C21.7541 36.3519 22.0887 37.5579 22.0887 39.0405V49.4686H26.9043V38.5253C26.9043 35.9659 26.3428 33.9764 25.2345 32.613C24.166 31.2794 21.764 29.9028 19.5889 29.9028C18.3779 29.9028 17.1587 30.1497 16.1565 30.5986C15.3465 30.9614 14.7401 31.4368 14.5049 31.8874V35.5037V35.5053Z" fill="black"/>
<path d="M20.416 43.8661C20.103 44.2024 19.7451 44.4889 19.3475 44.7259C18.5888 45.1681 17.7672 45.3918 16.9025 45.3918C15.9019 45.3918 14.522 44.8832 13.8229 43.9108C13.1669 43.0195 12.8322 41.8136 12.8322 40.331V29.9028H8.0166V40.8462C8.0166 43.4055 8.57819 45.3951 9.68642 46.7585C10.7549 48.092 13.1569 49.4686 15.332 49.4686C16.543 49.4686 17.7623 49.2218 18.7645 48.7728C19.5745 48.41 20.1808 47.9346 20.416 47.484V43.8677V43.8661Z" fill="black"/>
</g>
<defs>
<clipPath id="clip0_1488_20556">
<rect width="150" height="35.7558" fill="white" transform="translate(-0.000976562 22.1221)"/>
</clipPath>
</defs>
</svg>
