<svg width="151" height="80" viewBox="0 0 151 80" fill="none" xmlns="http://www.w3.org/2000/svg">
<path fill-rule="evenodd" clip-rule="evenodd" d="M95.4265 50.0083L95.3622 50.0105C95.2855 50.0131 95.2088 50.0157 95.1316 50.0157C86.5135 50.0157 79.5272 43.0336 79.5272 34.4209C79.5272 25.8086 86.5135 18.8265 95.1316 18.8265C95.2122 18.8265 95.2922 18.8292 95.3722 18.8319C95.4141 18.8334 95.456 18.8348 95.498 18.8358V14.1832C95.4472 14.1823 95.3966 14.1806 95.3461 14.1788L95.3461 14.1788C95.2747 14.1763 95.2034 14.1738 95.1316 14.1738C84.2924 14.1738 75.4414 22.6804 74.898 33.3775H71.8407V54.0777H76.8397V43.1371C80.0992 49.9567 87.0648 54.668 95.1316 54.668C95.204 54.668 95.2758 54.6656 95.3476 54.6632C95.3977 54.6615 95.4477 54.6599 95.498 54.659V50.0064C95.4741 50.0069 95.4503 50.0076 95.4265 50.0083ZM61.5963 65.5601C61.8678 65.826 62.1881 66.0314 62.5581 66.1763C62.9281 66.3216 63.3322 66.3941 63.7707 66.3941C64.2199 66.3941 64.6325 66.3174 65.0079 66.164C65.383 66.0105 65.7025 65.7861 65.9654 65.4904L65.4313 64.9729C65.2119 65.2082 64.9653 65.3822 64.6914 65.4943C64.4173 65.607 64.1241 65.6628 63.8119 65.6628C63.4884 65.6628 63.1883 65.6082 62.9117 65.4985C62.6349 65.3892 62.3952 65.2357 62.1924 65.0388C61.9896 64.8412 61.8318 64.6071 61.7196 64.3362C61.6072 64.0649 61.5513 63.7704 61.5513 63.453C61.5513 63.1355 61.6072 62.8407 61.7196 62.5697C61.8318 62.2985 61.9896 62.0647 62.1924 61.8675C62.3952 61.6702 62.6349 61.5171 62.9117 61.4074C63.1883 61.2978 63.4884 61.2431 63.8119 61.2431C64.1241 61.2431 64.4173 61.2993 64.6914 61.4116C64.9653 61.5237 65.2119 61.6947 65.4313 61.9249L65.9654 61.4074C65.7025 61.1117 65.383 60.8885 65.0079 60.7378C64.6325 60.587 64.2229 60.5118 63.7789 60.5118C63.3403 60.5118 62.9362 60.5846 62.5666 60.7296C62.1966 60.8749 61.8744 61.08 61.6006 61.3458C61.3264 61.6116 61.1127 61.9221 60.9592 62.2783C60.8056 62.6344 60.7292 63.0259 60.7292 63.453C60.7292 63.8801 60.8056 64.2719 60.9592 64.6277C61.1127 64.9838 61.3252 65.2946 61.5963 65.5601ZM54.2355 65.6135H52.6816V61.2922H54.2355C54.7121 61.2922 55.1244 61.3825 55.4726 61.5635C55.8205 61.7438 56.0904 61.996 56.2823 62.3192C56.4739 62.6424 56.5701 63.0203 56.5701 63.4529C56.5701 63.88 56.4739 64.2566 56.2823 64.5826C56.0904 64.9085 55.8205 65.1616 55.4726 65.3425C55.1244 65.5232 54.7121 65.6135 54.2355 65.6135ZM51.8593 60.5776V66.3282H54.2846C54.8981 66.3282 55.4395 66.208 55.908 65.9669C56.3768 65.7259 56.741 65.3891 57.0012 64.9562C57.2615 64.524 57.3917 64.0223 57.3917 63.4529C57.3917 62.8832 57.2615 62.3824 57.0012 61.9495C56.741 61.5167 56.3768 61.1799 55.908 60.9388C55.4395 60.6981 54.8981 60.5776 54.2846 60.5776H51.8593ZM44.1697 60.6527L41.7023 64.6857L39.2034 60.6527H38.501V66.3941H39.3227V62.233L41.4898 65.6972H41.8836L44.0501 62.207L44.0582 66.3941H44.8803L44.8715 60.6527H44.1697ZM46.7942 60.6527V66.3941H51.2597V65.6806H47.6733V63.8268H50.7581V63.1296H47.6733V61.3663H51.1359V60.6527H46.7942ZM58.6494 66.3282H59.4715V60.5776H58.6494V66.3282ZM66.1303 66.3284L68.7363 60.5778H69.55L72.1642 66.3284H71.301L69.1278 61.3931L66.9769 66.3284H66.1303ZM73.0187 60.5778V66.3284H76.9561V65.6137H73.8408V60.5778H73.0187ZM80.0385 60.5778V66.3284H84.2145V65.6137H80.8607V63.7569H83.746V63.0586H80.8607V61.2924H84.0993V60.5778H80.0385ZM85.0205 65.671C85.2508 65.8846 85.5658 66.0588 85.966 66.1927C86.3659 66.3271 86.7851 66.3941 87.2237 66.3941C87.7278 66.3941 88.1455 66.3189 88.4771 66.1682C88.8087 66.0175 89.0541 65.8178 89.2128 65.5686C89.3718 65.3191 89.4513 65.0497 89.4513 64.7594C89.4513 64.4582 89.3881 64.2118 89.2621 64.0199C89.136 63.8281 88.9704 63.6747 88.7652 63.5596C88.5593 63.4445 88.332 63.3518 88.0827 63.2802C87.8333 63.2092 87.5852 63.1449 87.3388 63.0875C87.0919 63.0298 86.8658 62.9654 86.6606 62.8942C86.455 62.8232 86.2876 62.7271 86.1591 62.6069C86.0304 62.4864 85.966 62.3248 85.966 62.1221C85.966 61.9523 86.0137 61.7989 86.1096 61.6621C86.2057 61.5252 86.3577 61.4156 86.566 61.3334C86.7742 61.2513 87.0399 61.2102 87.3633 61.2102C87.6208 61.2102 87.8865 61.2473 88.1609 61.321C88.4348 61.395 88.695 61.5143 88.9417 61.6787L89.2128 61.0214C88.9716 60.8571 88.6869 60.7311 88.358 60.6435C88.0292 60.5559 87.6973 60.5118 87.3633 60.5118C86.8591 60.5118 86.4438 60.587 86.118 60.7378C85.7919 60.8885 85.5507 61.0884 85.3944 61.3376C85.2385 61.5868 85.1602 61.859 85.1602 62.155C85.1602 62.4616 85.2233 62.7123 85.3494 62.9065C85.4754 63.1014 85.6414 63.2557 85.8466 63.3708C86.0521 63.4859 86.2794 63.5804 86.5288 63.6544C86.7781 63.7281 87.0263 63.7928 87.2729 63.8472C87.5196 63.9021 87.7457 63.9665 87.9509 64.0405C88.1567 64.1145 88.3239 64.2118 88.4523 64.332C88.5811 64.4525 88.6458 64.6114 88.6458 64.8086C88.6458 64.9784 88.5965 65.1303 88.4977 65.2644C88.3991 65.3988 88.2456 65.5043 88.0373 65.581C87.8291 65.6577 87.5576 65.6958 87.2237 65.6958C86.8564 65.6958 86.5028 65.6326 86.163 65.5067C85.8233 65.381 85.5437 65.2221 85.3246 65.0303L85.0205 65.671ZM92.0121 66.1763C91.6425 66.0314 91.3218 65.826 91.0507 65.5601C90.7792 65.2946 90.5667 64.9838 90.4135 64.6277C90.26 64.2719 90.1832 63.8801 90.1832 63.453C90.1832 63.0259 90.26 62.6344 90.4135 62.2783C90.5667 61.9221 90.7804 61.6116 91.0546 61.3458C91.3287 61.08 91.6506 60.8749 92.0206 60.7296C92.3905 60.5846 92.7947 60.5118 93.2329 60.5118C93.6769 60.5118 94.0868 60.587 94.4622 60.7378C94.8373 60.8885 95.1568 61.1117 95.4197 61.4074L94.8853 61.9249C94.6662 61.6947 94.4196 61.5237 94.1454 61.4116C93.8716 61.2993 93.5784 61.2431 93.2662 61.2431C92.9425 61.2431 92.6423 61.2978 92.3658 61.4074C92.0889 61.5171 91.8492 61.6702 91.6464 61.8675C91.4436 62.0647 91.2861 62.2985 91.174 62.5697C91.0615 62.8407 91.0053 63.1355 91.0053 63.453C91.0053 63.7704 91.0615 64.0649 91.174 64.3362C91.2861 64.6071 91.4436 64.8412 91.6464 65.0388C91.8492 65.2357 92.0889 65.3892 92.3658 65.4985C92.6423 65.6082 92.9425 65.6628 93.2662 65.6628C93.5784 65.6628 93.8716 65.607 94.1454 65.4943C94.4196 65.3822 94.6662 65.2082 94.8853 64.9729L95.4197 65.4904C95.1568 65.7861 94.8373 66.0105 94.4622 66.164C94.0868 66.3174 93.6739 66.3941 93.2248 66.3941C92.7865 66.3941 92.3824 66.3216 92.0121 66.1763ZM98.1896 60.5778L95.5836 66.3284H96.4305L98.5827 61.3927L100.754 66.3284H101.617L99.0033 60.5778H98.1896ZM103.295 63.872H104.692C105.218 63.872 105.617 63.7596 105.888 63.5349C106.16 63.3105 106.295 62.9927 106.295 62.5819C106.295 62.1714 106.16 61.8536 105.888 61.6292C105.617 61.4045 105.218 61.2924 104.692 61.2924H103.295V63.872ZM102.472 66.3281V60.5775H104.716C105.221 60.5775 105.651 60.6569 106.007 60.8155C106.363 60.9747 106.638 61.2049 106.829 61.506C107.021 61.8072 107.117 62.1657 107.117 62.582C107.117 62.9982 107.021 63.3559 106.829 63.6543C106.638 63.9527 106.363 64.1829 106.007 64.3442C105.651 64.5058 105.221 64.5868 104.716 64.5868H103.294V66.3281H102.472ZM112.032 63.757L109.147 63.7568V63.0585L112.032 63.0583V63.757ZM112.501 65.6135H109.146V61.2922H112.385V60.5775H108.324V66.3281H112.501V65.6135ZM63.6798 54.0777H68.6787V33.3775H63.6798V54.0777ZM60.5178 54.0777H55.5188V33.3775H60.5178V54.0777Z" fill="white"/>
</svg>
