<svg width="151" height="80" viewBox="0 0 151 80" fill="none" xmlns="http://www.w3.org/2000/svg">
<g clip-path="url(#clip0_1488_21123)">
<path d="M52.1739 41.4725C52.1739 42.7412 52.1739 43.7857 52.2386 44.3429C52.2794 44.725 52.3577 45.0159 52.7525 45.0684C52.9363 45.093 53.2256 45.121 53.3447 45.121C53.4639 45.121 53.4503 45.1596 53.4503 45.2016C53.4503 45.2437 53.3822 45.3068 53.2392 45.3068C52.5143 45.3068 51.6906 45.2682 51.6226 45.2682C51.5545 45.2682 50.7308 45.3068 50.336 45.3068C50.1897 45.3068 50.125 45.2787 50.125 45.2016C50.125 45.1245 50.1522 45.121 50.2305 45.121C50.3634 45.1156 50.4955 45.098 50.6253 45.0684C50.8874 45.0159 50.9657 44.7179 51.0065 44.3429C51.0712 43.7857 51.0712 42.7412 51.0712 41.4725V35.8648L49.1278 35.8928C48.3143 35.8928 47.9978 35.998 47.7868 36.3134C47.6999 36.4433 47.6258 36.5819 47.5656 36.727C47.5247 36.8321 47.4873 36.8601 47.4328 36.8601C47.3784 36.8601 47.3682 36.8216 47.3682 36.741C47.3682 36.6604 47.6302 35.4722 47.6575 35.3671C47.6847 35.2619 47.7357 35.1147 47.7868 35.1147C47.9728 35.1917 48.167 35.2458 48.3654 35.276C48.7466 35.3145 49.2469 35.3391 49.3865 35.3391H54.3113C54.6234 35.345 54.9353 35.3239 55.2439 35.276C55.4413 35.2479 55.5604 35.2094 55.6115 35.2094C55.6625 35.2094 55.6762 35.2865 55.6762 35.3671C55.6762 35.7631 55.6387 36.6744 55.6387 36.8216C55.6387 36.9688 55.5979 36.9933 55.5468 36.9933C55.4958 36.9933 55.4549 36.9513 55.4413 36.769V36.6218C55.4005 36.2258 55.101 35.9209 53.8246 35.8963L52.1705 35.8683L52.1739 41.4725Z" fill="white"/>
<path d="M60.5328 36.6499C63.1331 36.6499 65.1037 38.2481 65.1037 40.8557C65.1037 43.3651 63.2522 45.44 60.4647 45.44C57.2994 45.44 55.9482 43.0497 55.9482 41.0274C55.9482 39.2259 57.3437 36.6499 60.5328 36.6499ZM60.7949 44.9879C61.8329 44.9879 63.9193 44.4341 63.9193 41.1816C63.9193 38.4794 62.2924 37.0775 60.4647 37.0775C58.5349 37.0775 57.1429 38.2937 57.1429 40.7365C57.1429 43.3511 58.7051 44.9879 60.7949 44.9879Z" fill="white"/>
<path d="M75.8888 43.8523C75.9297 44.2484 76.008 44.8582 76.4811 45.0159C76.724 45.0899 76.9765 45.1254 77.2298 45.1211C77.2809 45.1211 77.3217 45.1491 77.3217 45.2017C77.3217 45.2542 77.2162 45.3068 77.0835 45.3068C76.8214 45.3068 75.5349 45.2788 75.1162 45.2402C74.8406 45.2122 74.7759 45.1736 74.7759 45.1211C74.7765 45.0988 74.7846 45.0775 74.7989 45.0608C74.8132 45.0442 74.8328 45.0332 74.8542 45.0299C74.9188 45.0299 74.9325 44.8442 74.9086 44.6304L74.3607 38.9491H74.3368L71.5528 44.6865C71.3145 45.1736 71.2498 45.2788 71.1443 45.2788C71.0388 45.2788 70.9742 45.1736 70.7529 44.7636C70.45 44.2098 69.6876 42.7693 69.3915 42.1595C69.0512 41.4585 68.1186 39.5554 67.9212 39.0928H67.894L67.4481 44.1712C67.4481 44.343 67.4481 44.5533 67.4481 44.739C67.4477 44.8175 67.4758 44.8933 67.5267 44.9516C67.5777 45.0099 67.648 45.0466 67.7238 45.0545C67.8705 45.0947 68.0213 45.117 68.1731 45.1211C68.2105 45.1211 68.265 45.1596 68.265 45.2017C68.265 45.2437 68.1833 45.3068 68.0539 45.3068C67.6183 45.3068 67.0669 45.2683 66.975 45.2683C66.8831 45.2683 66.3215 45.3068 66.005 45.3068C65.8859 45.3068 65.8076 45.2788 65.8076 45.2017C65.8076 45.1246 65.8587 45.1211 65.9267 45.1211C66.0409 45.1162 66.1546 45.1033 66.2671 45.0825C66.6483 45.0159 66.6619 44.6058 66.713 44.1818L67.5536 36.8462C67.5536 36.727 67.6183 36.6499 67.6864 36.6499C67.7376 36.6513 67.7873 36.6684 67.8291 36.699C67.871 36.7296 67.903 36.7723 67.9212 36.8216L71.4166 43.7997L74.7759 36.8357C74.8303 36.727 74.8814 36.6499 74.9597 36.6499C75.038 36.6499 75.106 36.741 75.1333 36.9548L75.8888 43.8523Z" fill="white"/>
<path d="M81.9918 36.6499C84.5887 36.6499 86.5593 38.2481 86.5593 40.8557C86.5593 43.3651 84.7078 45.44 81.9237 45.44C78.7584 45.44 77.4072 43.0497 77.4072 41.0274C77.4242 39.2259 78.7857 36.6499 81.9918 36.6499ZM82.2538 44.9879C83.2749 44.9879 85.3783 44.4341 85.3783 41.1816C85.3783 38.4794 83.7514 37.0775 81.9237 37.0775C79.9939 37.0775 78.6019 38.2937 78.6019 40.7365C78.6019 43.3511 80.1641 44.9879 82.2538 44.9879Z" fill="white"/>
<path d="M88.5886 40.0601C88.5886 38.3077 88.5886 37.9993 88.5614 37.6418C88.5341 37.2843 88.4695 37.074 88.0883 37.0179C87.9964 37.0179 87.799 36.9934 87.6935 36.9934C87.671 36.9896 87.6501 36.9788 87.6337 36.9625C87.6173 36.9463 87.6061 36.9252 87.6016 36.9022C87.6016 36.8357 87.656 36.8076 87.7854 36.8076C88.3129 36.8076 89.0855 36.8357 89.1468 36.8357C89.208 36.8357 90.2359 36.8076 90.5899 36.8076C91.325 36.8076 92.1385 36.8742 92.7443 37.2983C92.9845 37.472 93.1824 37.7007 93.3224 37.9665C93.4623 38.2322 93.5406 38.5278 93.5509 38.8299C93.5509 39.664 93.2106 40.4702 92.1351 41.3954C93.0778 42.5836 93.8777 43.6 94.5481 44.3009C95.1676 44.9353 95.5488 45.0404 95.8381 45.0825C95.9716 45.1081 96.1072 45.1211 96.2431 45.121C96.2686 45.1199 96.2935 45.1287 96.313 45.1455C96.3325 45.1624 96.3452 45.1862 96.3486 45.2122C96.3486 45.2788 96.2839 45.3068 96.0729 45.3068H95.3514C94.9275 45.347 94.5009 45.2696 94.1159 45.0825C93.6156 44.8161 93.197 44.2764 92.5401 43.4282C92.0534 42.8219 91.5428 42.0929 91.291 41.7915C91.2724 41.7678 91.2483 41.7493 91.2209 41.7376C91.1936 41.726 91.1638 41.7216 91.1344 41.7249L89.6777 41.6968C89.6267 41.6968 89.5994 41.7249 89.5994 41.7915V42.0543C89.5994 43.1373 89.5994 44.01 89.6505 44.4727C89.6913 44.8021 89.756 45.0159 90.11 45.0685C90.2802 45.0954 90.4518 45.113 90.6239 45.121C90.636 45.1194 90.6484 45.1206 90.66 45.1246C90.6717 45.1285 90.6823 45.1351 90.6911 45.1439C90.6999 45.1526 90.7067 45.1633 90.711 45.1751C90.7153 45.187 90.7169 45.1996 90.7158 45.2122C90.7158 45.2683 90.6613 45.3068 90.532 45.3068C89.9023 45.3068 89.1706 45.2683 89.1127 45.2683C89.0549 45.2683 88.3265 45.3068 87.9691 45.3068C87.8534 45.3068 87.7854 45.2788 87.7854 45.2122C87.7853 45.1999 87.7877 45.1878 87.7924 45.1765C87.7971 45.1652 87.8039 45.155 87.8125 45.1465C87.821 45.138 87.8312 45.1313 87.8423 45.127C87.8535 45.1226 87.8653 45.1206 87.8773 45.121C87.9978 45.1156 88.1174 45.098 88.2346 45.0685C88.4558 45.0159 88.4831 44.8021 88.5341 44.4727C88.6012 43.6638 88.6239 42.8518 88.6022 42.0403L88.5886 40.0601ZM89.5858 41.0099C89.5855 41.0393 89.5926 41.0682 89.6063 41.094C89.62 41.1198 89.6399 41.1415 89.6641 41.1571C90.0768 41.2838 90.5065 41.3418 90.937 41.3288C91.2391 41.3523 91.5412 41.2828 91.8049 41.1291C92.1997 40.8662 92.5026 40.2704 92.5026 39.4117C92.5026 38.0098 91.7402 37.2037 90.5048 37.2037C90.2278 37.2039 89.9513 37.2262 89.6777 37.2703C89.6511 37.2802 89.628 37.2983 89.6116 37.3221C89.5952 37.3459 89.5862 37.3743 89.5858 37.4034V41.0099Z" fill="white"/>
<path d="M97.8044 40.0601C97.8044 38.3077 97.8044 37.9993 97.7772 37.6418C97.7499 37.2843 97.6853 37.074 97.3041 37.0179C97.2122 37.0179 97.0148 36.9934 96.9093 36.9934C96.8868 36.9896 96.866 36.9788 96.8496 36.9625C96.8331 36.9463 96.8219 36.9252 96.8174 36.9022C96.8174 36.8357 96.8718 36.8076 97.0012 36.8076C97.5287 36.8076 98.3013 36.8357 98.3626 36.8357C98.4238 36.8357 99.4517 36.8076 99.8057 36.8076C100.541 36.8076 101.354 36.8742 101.96 37.2983C102.2 37.472 102.398 37.7007 102.538 37.9665C102.678 38.2322 102.756 38.5278 102.767 38.8299C102.767 39.664 102.426 40.4702 101.351 41.3954C102.294 42.5836 103.097 43.6 103.767 44.3009C104.383 44.9353 104.765 45.0404 105.054 45.0825C105.187 45.1081 105.323 45.1211 105.459 45.121C105.485 45.1191 105.51 45.1275 105.53 45.1445C105.549 45.1616 105.562 45.1858 105.564 45.2122C105.564 45.2788 105.5 45.3068 105.289 45.3068H104.567C104.143 45.347 103.717 45.2696 103.332 45.0825C102.831 44.8161 102.413 44.2764 101.756 43.4282C101.269 42.8219 100.759 42.0929 100.51 41.7915C100.491 41.768 100.466 41.7497 100.438 41.7381C100.41 41.7265 100.38 41.722 100.35 41.7249L98.8663 41.6968C98.8153 41.6968 98.788 41.7249 98.788 41.7915V42.0543C98.788 43.1373 98.788 44.01 98.8391 44.4727C98.8799 44.8021 98.9446 45.0159 99.2986 45.0685C99.4688 45.0954 99.6404 45.113 99.8125 45.121C99.8246 45.1194 99.837 45.1206 99.8486 45.1246C99.8602 45.1285 99.8709 45.1351 99.8797 45.1439C99.8885 45.1526 99.8953 45.1633 99.8996 45.1751C99.9039 45.187 99.9055 45.1996 99.9044 45.2122C99.9044 45.2683 99.8533 45.3068 99.7206 45.3068C99.0909 45.3068 98.3592 45.2683 98.3013 45.2683C98.2435 45.2683 97.5151 45.3068 97.1611 45.3068C97.042 45.3068 96.9773 45.2788 96.9773 45.2122C96.9768 45.1998 96.9789 45.1874 96.9834 45.1758C96.9878 45.1643 96.9946 45.1539 97.0033 45.1453C97.012 45.1367 97.0224 45.13 97.0338 45.1259C97.0451 45.1217 97.0572 45.12 97.0692 45.121C97.184 45.1144 97.298 45.0968 97.4096 45.0685C97.6308 45.0159 97.6581 44.8021 97.7091 44.4727C97.7761 43.6638 97.7989 42.8518 97.7772 42.0403L97.8044 40.0601ZM98.8016 41.0099C98.8014 41.0393 98.8084 41.0682 98.8221 41.094C98.8358 41.1198 98.8557 41.1415 98.8799 41.1571C99.2926 41.2838 99.7224 41.3418 100.153 41.3288C100.455 41.3523 100.757 41.2828 101.021 41.1291C101.416 40.8662 101.701 40.2704 101.701 39.4117C101.701 38.0098 100.939 37.2037 99.7036 37.2037C99.4266 37.2039 99.1501 37.2262 98.8765 37.2703C98.8501 37.2806 98.8273 37.2988 98.811 37.3225C98.7946 37.3462 98.7854 37.3744 98.7846 37.4034L98.8016 41.0099Z" fill="white"/>
<path d="M109.417 36.6499C112.017 36.6499 113.988 38.2481 113.988 40.8557C113.988 43.3651 112.136 45.44 109.352 45.44C106.187 45.44 104.836 43.0497 104.836 41.0274C104.85 39.2259 106.242 36.6499 109.417 36.6499ZM109.683 44.9879C110.704 44.9879 112.807 44.4341 112.807 41.1816C112.821 38.4794 111.19 37.0775 109.366 37.0775C107.436 37.0775 106.044 38.2937 106.044 40.7365C106.044 43.3511 107.606 44.9879 109.696 44.9879H109.683Z" fill="white"/>
<path d="M123.372 43.6424H123.423C123.712 42.7171 124.75 39.4647 125.159 38.0347C125.238 37.8097 125.282 37.573 125.288 37.3337C125.288 37.1375 125.196 37.0043 124.672 37.0043C124.645 37.0027 124.62 36.9912 124.6 36.9719C124.581 36.9526 124.569 36.9268 124.567 36.8991C124.567 36.8466 124.621 36.8185 124.764 36.8185C125.356 36.8185 125.84 36.8466 125.945 36.8466C126.051 36.8466 126.524 36.8185 126.878 36.8185C126.983 36.8185 127.038 36.8466 127.038 36.8851C127.039 36.9003 127.037 36.9155 127.033 36.9299C127.028 36.9444 127.02 36.9576 127.011 36.9688C127.001 36.9801 126.988 36.989 126.975 36.9951C126.961 37.0012 126.947 37.0044 126.932 37.0043C126.799 37.0084 126.667 37.026 126.537 37.0569C126.197 37.176 126.013 37.6246 125.788 38.245C125.278 39.675 124.134 43.2429 123.675 44.4976C123.372 45.3317 123.307 45.4614 123.175 45.4614C123.042 45.4614 122.953 45.3177 122.793 44.8796L120.533 38.7252C120.142 39.703 118.58 43.8142 118.151 44.8586C117.954 45.3317 117.875 45.4509 117.743 45.4509C117.61 45.4509 117.535 45.3317 117.297 44.5677L115.255 37.9085C115.071 37.3127 114.955 37.169 114.652 37.0639C114.479 37.0204 114.302 36.9981 114.125 36.9973C114.111 36.9978 114.098 36.9954 114.085 36.9903C114.072 36.9852 114.061 36.9774 114.051 36.9676C114.042 36.9577 114.034 36.9459 114.029 36.9329C114.024 36.92 114.022 36.9061 114.023 36.8921C114.023 36.8396 114.101 36.8115 114.206 36.8115C114.809 36.8115 115.452 36.8396 115.568 36.8396C115.683 36.8396 116.197 36.8115 116.776 36.8115C116.933 36.8115 116.987 36.8396 116.987 36.8921C116.984 36.9219 116.969 36.9492 116.947 36.9687C116.925 36.9882 116.897 36.9984 116.868 36.9973C116.729 36.9897 116.59 37.0124 116.459 37.0639C116.41 37.0784 116.368 37.1102 116.339 37.1538C116.311 37.1973 116.298 37.2499 116.303 37.3022C116.349 37.6586 116.424 38.0103 116.528 38.3536C116.711 39.0546 117.889 43.1903 118.035 43.6529H118.062L120.479 37.3758C120.649 36.9237 120.727 36.8571 120.796 36.8571C120.864 36.8571 120.966 37.0043 121.109 37.3863L123.372 43.6424Z" fill="white"/>
<path d="M128.324 34.7327C128.219 34.6135 128.205 34.5749 128.205 34.5083C128.205 34.4418 128.273 34.4277 128.324 34.4277C128.638 34.4707 128.947 34.5506 129.243 34.6661C129.314 34.6879 129.376 34.7352 129.416 34.7994C129.457 34.8636 129.474 34.9406 129.464 35.0165C129.464 35.9558 128.784 37.0669 128.338 37.6206C128.321 37.6523 128.297 37.6788 128.267 37.6973C128.237 37.7158 128.203 37.7256 128.168 37.7258C128.151 37.7259 128.134 37.7194 128.122 37.7078C128.109 37.6961 128.101 37.68 128.1 37.6627C128.105 37.602 128.124 37.5434 128.154 37.4909C128.426 36.8983 128.573 36.2535 128.586 35.5983C128.591 35.2884 128.499 34.985 128.324 34.7327Z" fill="white"/>
<path d="M129.907 45.1383C129.747 45.0577 129.736 45.0192 129.736 44.7143C129.736 44.1605 129.787 43.7084 129.801 43.5261C129.801 43.407 129.828 43.3404 129.893 43.3404C129.958 43.3404 129.998 43.3789 129.998 43.4701C129.995 43.608 130.008 43.7458 130.039 43.8801C130.22 44.7002 131.088 44.9911 131.864 44.9911C133.004 44.9911 133.596 44.3428 133.596 43.4981C133.596 42.6534 133.164 42.31 132.139 41.5424L131.615 41.1464C130.366 40.2071 129.958 39.5201 129.958 38.7421C129.958 37.4172 130.979 36.6392 132.52 36.6392C132.922 36.6399 133.323 36.6845 133.715 36.7723C133.847 36.8085 133.983 36.8262 134.12 36.8249C134.212 36.8249 134.239 36.8249 134.239 36.9055C134.239 36.9861 134.188 37.3261 134.188 38.0937C134.188 38.2654 134.188 38.346 134.096 38.346C134.004 38.346 134.004 38.2934 133.991 38.1988C133.959 38.0069 133.902 37.8205 133.821 37.645C133.742 37.5119 133.361 37.0878 132.323 37.0878C131.482 37.0878 130.785 37.5119 130.785 38.3039C130.785 39.0049 131.125 39.429 132.282 40.2071L132.623 40.4314C134.028 41.3987 134.511 42.1838 134.511 43.1406C134.515 43.5299 134.417 43.9131 134.228 44.2502C134.039 44.5874 133.765 44.8662 133.436 45.0577C132.868 45.3551 132.234 45.4918 131.598 45.4538C131.019 45.466 130.444 45.3588 129.907 45.1383Z" fill="white"/>
<path d="M57.3101 54.9837C57.3101 56.2524 57.3101 57.2968 57.3748 57.8506C57.4156 58.2326 57.4939 58.527 57.8887 58.5796C58.0725 58.6041 58.3618 58.6322 58.4775 58.6322C58.5932 58.6322 58.583 58.6707 58.583 58.7093C58.583 58.7478 58.5184 58.8144 58.3754 58.8144C57.6505 58.8144 56.8234 58.7759 56.7587 58.7759C56.6941 58.7759 55.8636 58.8144 55.4722 58.8144C55.3259 58.8144 55.2612 58.7899 55.2612 58.7093C55.2612 58.6287 55.2884 58.6322 55.3667 58.6322C55.4996 58.6268 55.6317 58.6092 55.7615 58.5796C56.0236 58.527 56.1019 58.2291 56.1427 57.8506C56.2074 57.2968 56.2074 56.2524 56.2074 54.9837V53.5817C56.2074 53.5711 56.2053 53.5607 56.2014 53.5509C56.1975 53.5411 56.1917 53.5322 56.1844 53.5247C56.1772 53.5172 56.1685 53.5113 56.159 53.5073C56.1495 53.5032 56.1394 53.5011 56.1291 53.5011H50.5609C50.5201 53.5011 50.4792 53.5011 50.4792 53.5817V54.9837C50.4792 56.2524 50.4792 57.2968 50.5473 57.8506C50.5848 58.2326 50.663 58.527 51.0578 58.5796C51.2416 58.6041 51.5309 58.6322 51.6501 58.6322C51.7692 58.6322 51.7556 58.6707 51.7556 58.7093C51.7556 58.7478 51.6909 58.8144 51.5445 58.8144C50.823 58.8144 49.9959 58.7759 49.9279 58.7759C49.8598 58.7759 49.0362 58.8144 48.6413 58.8144C48.4984 58.8144 48.4337 58.7899 48.4337 58.7093C48.4337 58.6287 48.4576 58.6322 48.5358 58.6322C48.6687 58.6268 48.8008 58.6092 48.9306 58.5796C49.1927 58.527 49.271 58.2291 49.3118 57.8506C49.3765 57.2968 49.3765 56.2524 49.3765 54.9837V52.6565C49.3765 50.5956 49.3765 50.2276 49.3527 49.8035C49.3289 49.3794 49.2199 49.1411 48.7877 49.05C48.6394 49.0227 48.489 49.0098 48.3384 49.0114C48.2874 49.0114 48.2363 48.9834 48.2363 48.9308C48.2363 48.8783 48.301 48.8257 48.4439 48.8257C49.0362 48.8257 49.8632 48.8642 49.9279 48.8642C49.9925 48.8642 50.823 48.8257 51.2178 48.8257C51.3608 48.8257 51.4254 48.8502 51.4254 48.9308C51.4254 49.0114 51.3744 49.0114 51.3233 49.0114C51.2089 49.0131 51.095 49.026 50.983 49.05C50.6426 49.1166 50.5235 49.3409 50.4963 49.8035C50.469 50.2662 50.469 50.5956 50.469 52.6565V52.9368C50.469 52.9999 50.5099 53.0139 50.5507 53.0139H56.1189C56.1292 53.0156 56.1398 53.0148 56.1498 53.0116C56.1598 53.0084 56.169 53.0028 56.1766 52.9954C56.1841 52.9879 56.1899 52.9787 56.1935 52.9686C56.1971 52.9584 56.1983 52.9476 56.1972 52.9368V52.6565C56.1972 50.5956 56.1972 50.2276 56.1699 49.8035C56.1427 49.3794 56.0372 49.1411 55.6049 49.05C55.4578 49.0228 55.3086 49.0099 55.1591 49.0114C55.108 49.0114 55.0536 48.9834 55.0536 48.9308C55.0536 48.8783 55.1182 48.8257 55.2646 48.8257C55.8534 48.8257 56.6839 48.8642 56.7485 48.8642C56.8132 48.8642 57.6403 48.8257 58.0351 48.8257C58.1814 48.8257 58.2461 48.8502 58.2461 48.9308C58.2461 49.0114 58.1916 49.0114 58.1406 49.0114C58.0262 49.0131 57.9122 49.026 57.8002 49.05C57.4599 49.1166 57.3373 49.3409 57.3135 49.8035C57.2897 50.2662 57.2863 50.5956 57.2863 52.6565L57.3101 54.9837Z" fill="white"/>
<path d="M60.6418 53.5676C60.6418 51.8152 60.6418 51.5068 60.6146 51.1528C60.5874 50.7988 60.5227 50.5815 60.1415 50.529C60.0496 50.529 59.8522 50.5044 59.7501 50.5044C59.7269 50.5009 59.7055 50.4898 59.6889 50.4728C59.6724 50.4557 59.6616 50.4336 59.6582 50.4098C59.6582 50.3432 59.7093 50.3187 59.842 50.3187C60.3661 50.3187 61.1149 50.3432 61.1796 50.3432C61.2442 50.3432 63.6744 50.3432 63.9398 50.3432C64.2053 50.3432 64.3721 50.2906 64.464 50.2801C64.514 50.2563 64.5665 50.2387 64.6205 50.2275C64.6614 50.2275 64.675 50.2801 64.675 50.3327C64.6344 50.5071 64.6038 50.6838 64.5831 50.8619C64.5831 50.9671 64.5423 51.4682 64.515 51.6014C64.515 51.654 64.464 51.7206 64.4095 51.7206C64.3551 51.7206 64.3176 51.668 64.3176 51.5734C64.3186 51.4385 64.2967 51.3045 64.253 51.1773C64.1747 50.9916 64.0555 50.9145 63.4259 50.8269C63.2285 50.8023 61.8875 50.7883 61.7582 50.7883C61.7037 50.7883 61.6935 50.8269 61.6935 50.9075V53.9602C61.6935 54.0373 61.6935 54.0793 61.7582 54.0793C61.9045 54.0793 63.4259 54.0793 63.688 54.0513C63.95 54.0233 64.1338 54.0127 64.253 53.8936C64.3721 53.7744 64.3857 53.7464 64.4231 53.7464C64.4606 53.7464 64.4912 53.7744 64.4912 53.841C64.4486 54.0457 64.4179 54.2529 64.3993 54.4614C64.3721 54.6857 64.3449 55.1098 64.3449 55.1869C64.3449 55.264 64.3176 55.4007 64.2393 55.4007C64.1611 55.4007 64.1611 55.3586 64.1611 55.2955C64.167 55.1695 64.1497 55.0434 64.11 54.924C64.0692 54.7663 63.9637 54.6331 63.5178 54.5735C63.2013 54.535 61.9692 54.5209 61.7718 54.5209C61.7037 54.5209 61.6935 54.5595 61.6935 54.598V55.5373C61.6935 55.9229 61.6935 57.2302 61.6935 57.4545C61.7173 58.208 61.9284 58.3517 63.0719 58.3517C63.4601 58.3712 63.849 58.331 64.2257 58.2325C64.3787 58.1714 64.5105 58.0647 64.6045 57.9262C64.6984 57.7876 64.7502 57.6234 64.7533 57.4545C64.7771 57.3213 64.8043 57.2827 64.8724 57.2827C64.9405 57.2827 64.9507 57.3739 64.9507 57.4545C64.9196 57.8186 64.8661 58.1803 64.7907 58.5375C64.7124 58.8284 64.5933 58.8284 64.1474 58.8284C63.2795 58.8284 62.6125 58.8003 62.1394 58.7898C61.6663 58.7793 61.3498 58.7618 61.1796 58.7618C61.1523 58.7618 60.9311 58.7618 60.6827 58.7618C60.4342 58.7618 60.196 58.7863 60.002 58.7863C59.8828 58.7863 59.8182 58.7618 59.8182 58.6952C59.8176 58.6828 59.8197 58.6704 59.8242 58.6589C59.8287 58.6473 59.8355 58.6369 59.8442 58.6283C59.8528 58.6197 59.8632 58.613 59.8746 58.6089C59.8859 58.6047 59.898 58.6031 59.9101 58.6041C60.0244 58.5929 60.138 58.5754 60.2504 58.5515C60.475 58.5094 60.4989 58.2851 60.5533 57.9557C60.6169 57.1467 60.6385 56.3347 60.618 55.5233L60.6418 53.5676Z" fill="white"/>
<path d="M69.7706 50.543C69.9135 50.1715 69.9646 50.1084 70.0463 50.1084C70.1279 50.1084 70.2028 50.2661 70.3219 50.5185C70.5296 50.9916 72.3845 55.632 73.0924 57.3353C73.511 58.3412 73.8276 58.4849 74.076 58.5655C74.2254 58.6098 74.3801 58.6322 74.5355 58.6321C74.6036 58.6321 74.6819 58.6567 74.6819 58.7232C74.6819 58.7898 74.5491 58.8144 74.4198 58.8144C74.2904 58.8144 73.3987 58.8144 72.5921 58.7898C72.3709 58.7898 72.1871 58.7898 72.1871 58.7092C72.1871 58.6286 72.2143 58.6567 72.2654 58.6321C72.2935 58.6215 72.3191 58.6046 72.3403 58.5827C72.3614 58.5608 72.3776 58.5343 72.3877 58.5052C72.3977 58.4761 72.4014 58.445 72.3985 58.4143C72.3956 58.3835 72.3862 58.3538 72.3709 58.3272L71.3328 55.7512C71.3056 55.6951 71.2919 55.6846 71.2273 55.6846H68.5759C68.549 55.6836 68.5226 55.6921 68.5009 55.7087C68.4793 55.7252 68.4637 55.7489 68.4568 55.7757L67.7999 57.5737C67.7015 57.8129 67.6439 58.0678 67.6298 58.3272C67.6298 58.5515 67.8272 58.6321 68.0246 58.6321H68.1267C68.2186 58.6321 68.2458 58.6707 68.2458 58.7232C68.2458 58.7758 68.1811 58.8144 68.0756 58.8144C67.7999 58.8144 67.1703 58.7758 67.0375 58.7758C66.9048 58.7758 66.3568 58.8144 65.8701 58.8144C65.7238 58.8144 65.6455 58.7898 65.6455 58.7232C65.6481 58.6969 65.6606 58.6726 65.6803 58.6556C65.7 58.6386 65.7254 58.6302 65.751 58.6321C65.8649 58.6292 65.9785 58.6198 66.0914 58.6041C66.6189 58.5375 66.8401 58.1414 67.0648 57.5737L69.7706 50.543ZM71.0571 55.2219C71.1082 55.2219 71.1082 55.1939 71.0945 55.1413L69.9544 52.0641C69.8863 51.8924 69.8216 51.8924 69.757 52.0641L68.678 55.1413C68.678 55.1939 68.678 55.2219 68.7189 55.2219H71.0571Z" fill="white"/>
<path d="M77.2544 55.5791C77.2544 57.2299 77.2817 57.9028 77.4927 58.1026C77.7037 58.3024 78.1223 58.3655 79.0277 58.3655C79.6301 58.3655 80.144 58.3655 80.4197 58.015C80.5648 57.8325 80.66 57.6136 80.6954 57.3806C80.6954 57.3035 80.7499 57.2369 80.8145 57.2369C80.8792 57.2369 80.8928 57.2895 80.8928 57.4086C80.8661 57.7867 80.8092 58.1618 80.7226 58.5302C80.6443 58.7965 80.6035 58.8351 79.9875 58.8351C79.1604 58.8351 78.5171 58.8351 77.976 58.7966C77.4348 58.758 77.057 58.7685 76.7167 58.7685C76.6656 58.7685 76.4682 58.7685 76.2436 58.7685C76.019 58.7685 75.7569 58.793 75.5629 58.793C75.4472 58.793 75.3791 58.7685 75.3791 58.7019C75.3791 58.6897 75.3815 58.6775 75.3861 58.6662C75.3908 58.6549 75.3976 58.6447 75.4062 58.6362C75.4148 58.6277 75.425 58.6211 75.4361 58.6167C75.4472 58.6123 75.4591 58.6103 75.471 58.6108C75.5858 58.6047 75.6998 58.587 75.8113 58.5582C76.036 58.5057 76.0632 58.2919 76.1143 57.9624C76.1779 57.1534 76.1995 56.3414 76.1789 55.5301V53.5463C76.1789 51.7939 76.1789 51.4855 76.1551 51.1315C76.1313 50.7775 76.0632 50.5602 75.682 50.5077C75.5901 50.5077 75.3927 50.4831 75.2872 50.4831C75.2643 50.4791 75.2431 50.4678 75.2266 50.4509C75.2102 50.4339 75.1992 50.4121 75.1953 50.3885C75.1953 50.3219 75.2498 50.2974 75.3791 50.2974C75.9032 50.2974 76.6282 50.3219 76.6929 50.3219C76.7575 50.3219 77.6118 50.2974 77.9658 50.2974C78.0849 50.2974 78.1496 50.3219 78.1496 50.3885C78.1456 50.4108 78.1343 50.431 78.1176 50.4457C78.1008 50.4604 78.0797 50.4687 78.0577 50.4691C77.9794 50.4691 77.8092 50.4691 77.6765 50.4971C77.3361 50.5602 77.2715 50.732 77.2442 51.1315C77.217 51.5311 77.2442 51.8044 77.2442 53.5463L77.2544 55.5791Z" fill="white"/>
<path d="M85.0322 55.5513C85.0322 56.6343 85.0322 57.521 85.0833 57.9837C85.1241 58.3131 85.1752 58.5269 85.5291 58.5795C85.704 58.6065 85.8801 58.6241 86.0567 58.6321C86.0688 58.6304 86.0812 58.6316 86.0928 58.6356C86.1045 58.6395 86.1151 58.6461 86.1239 58.6549C86.1327 58.6636 86.1395 58.6743 86.1438 58.6861C86.1481 58.698 86.1497 58.7106 86.1486 58.7232C86.1486 58.7758 86.0941 58.8143 85.9648 58.8143C85.3351 58.8143 84.6034 58.7758 84.5319 58.7758C84.4604 58.7758 83.6776 58.8143 83.3373 58.8143C83.2045 58.8143 83.1535 58.7898 83.1535 58.7232C83.1539 58.7115 83.1566 58.7 83.1616 58.6895C83.1665 58.6789 83.1735 58.6696 83.1822 58.662C83.1908 58.6544 83.2009 58.6488 83.2118 58.6454C83.2227 58.6421 83.2341 58.6411 83.2454 58.6426C83.3602 58.6383 83.4742 58.6218 83.5857 58.5935C83.824 58.5374 83.8887 58.3131 83.9261 57.9837C83.9771 57.521 83.9771 56.6343 83.9771 55.5513V50.8338L82.3094 50.8619C81.5879 50.8619 81.3122 50.953 81.142 51.2124C81.0677 51.3214 81.0061 51.439 80.9582 51.5628C80.931 51.6575 80.8902 51.668 80.8391 51.668C80.8171 51.6662 80.7967 51.6557 80.7821 51.6387C80.7675 51.6217 80.7599 51.5995 80.7608 51.5769C80.7608 51.4577 80.9957 50.4518 81.0093 50.3607C81.0229 50.2696 81.0876 50.1504 81.1284 50.1504C81.2956 50.2053 81.4661 50.2486 81.6389 50.2801C81.9397 50.3132 82.2418 50.3307 82.5443 50.3326H86.9042C87.1819 50.336 87.4594 50.3184 87.7346 50.2801C87.9048 50.2555 88.0103 50.2275 88.075 50.2275C88.1396 50.2275 88.1294 50.2941 88.1294 50.3607C88.1294 50.7112 88.0886 51.5103 88.0886 51.6434C88.0886 51.7766 88.0341 51.7871 87.9831 51.7871C87.932 51.7871 87.9048 51.7486 87.8912 51.5909V51.4717C87.8538 51.1212 87.6019 50.8759 86.4992 50.8514L85.0561 50.8233L85.0322 55.5513Z" fill="white"/>
<path d="M97.5732 55.5515C97.5732 56.6345 97.5732 57.5213 97.6379 57.9839C97.6787 58.3133 97.7026 58.5271 98.0599 58.5797C98.2291 58.6062 98.3995 58.6237 98.5705 58.6323C98.5833 58.6303 98.5965 58.6311 98.609 58.6348C98.6215 58.6384 98.6332 58.6447 98.6432 58.6534C98.6531 58.662 98.6612 58.6727 98.6669 58.6847C98.6725 58.6968 98.6756 58.71 98.676 58.7234C98.676 58.776 98.6113 58.8145 98.4786 58.8145C97.8489 58.8145 97.1172 58.776 97.0457 58.776C96.9742 58.776 96.2459 58.8145 95.9055 58.8145C95.7728 58.8145 95.7217 58.79 95.7217 58.7234C95.7212 58.711 95.7232 58.6986 95.7277 58.6871C95.7322 58.6755 95.739 58.6651 95.7477 58.6565C95.7564 58.6479 95.7668 58.6413 95.7781 58.6371C95.7895 58.6329 95.8016 58.6313 95.8136 58.6323C95.9285 58.6268 96.0426 58.6092 96.154 58.5797C96.3922 58.5271 96.4297 58.2993 96.4705 57.9699C96.5216 57.5072 96.5215 56.6626 96.5215 55.5796V54.4545C96.5215 54.402 96.4943 54.3879 96.4569 54.3879H91.6375C91.5967 54.3879 91.5694 54.3879 91.5694 54.4545V55.5796C91.5694 56.6626 91.5694 57.5213 91.6239 57.9839C91.6613 58.3133 91.7022 58.5271 92.0425 58.5797C92.2161 58.6042 92.4646 58.6323 92.5701 58.6323C92.582 58.6318 92.5938 58.6338 92.605 58.6382C92.6161 58.6426 92.6263 58.6492 92.6349 58.6577C92.6434 58.6662 92.6503 58.6764 92.6549 58.6877C92.6596 58.699 92.662 58.7111 92.662 58.7234C92.662 58.776 92.6075 58.8145 92.4782 58.8145C91.8349 58.8145 91.1168 58.776 91.0453 58.776C90.9738 58.776 90.2455 58.8145 89.8915 58.8145C89.7724 58.8145 89.7077 58.79 89.7077 58.7234C89.7072 58.711 89.7092 58.6986 89.7137 58.6871C89.7182 58.6755 89.725 58.6651 89.7337 58.6565C89.7424 58.6479 89.7528 58.6413 89.7641 58.6371C89.7755 58.6329 89.7876 58.6313 89.7996 58.6323C89.9144 58.6257 90.0283 58.6081 90.14 58.5797C90.3612 58.5271 90.3884 58.3133 90.4395 57.9839C90.5064 57.1751 90.5291 56.363 90.5075 55.5515V53.5678C90.5075 51.8154 90.5075 51.507 90.4803 51.153C90.4531 50.799 90.3884 50.5817 90.0072 50.5291C89.9153 50.5291 89.7179 50.5046 89.6124 50.5046C89.5895 50.5006 89.5683 50.4893 89.5518 50.4724C89.5354 50.4554 89.5244 50.4336 89.5205 50.41C89.5205 50.3434 89.575 50.3188 89.7043 50.3188C90.2318 50.3188 90.967 50.3434 91.0317 50.3434C91.0963 50.3434 91.8213 50.3188 92.1753 50.3188C92.3046 50.3188 92.359 50.3434 92.359 50.41C92.3551 50.4336 92.3442 50.4554 92.3277 50.4724C92.3113 50.4893 92.2901 50.5006 92.2672 50.5046C92.1702 50.5025 92.0732 50.5107 91.9778 50.5291C91.6613 50.5957 91.5967 50.7534 91.5694 51.153C91.5422 51.5525 91.5694 51.854 91.5694 53.6064V53.8447C91.5694 53.9113 91.5967 53.9113 91.6375 53.9113H96.4569C96.4943 53.9113 96.5215 53.9113 96.5215 53.8447V53.6064C96.5215 51.854 96.5215 51.5035 96.4943 51.153C96.4671 50.8025 96.416 50.5817 96.0348 50.5291C95.9429 50.5291 95.7455 50.5046 95.64 50.5046C95.6162 50.503 95.5937 50.4925 95.5768 50.4751C95.5599 50.4577 95.5497 50.4345 95.5481 50.41C95.5481 50.3434 95.6026 50.3188 95.7353 50.3188C96.2459 50.3188 96.9946 50.3434 97.0457 50.3434C97.0967 50.3434 97.8489 50.3188 98.1893 50.3188C98.322 50.3188 98.3867 50.3434 98.3867 50.41C98.3827 50.436 98.3699 50.4597 98.3506 50.477C98.3313 50.4943 98.3067 50.5041 98.2812 50.5046C98.1842 50.5031 98.0873 50.5114 97.9919 50.5291C97.6924 50.5957 97.6243 50.7534 97.6005 51.153C97.5766 51.5525 97.5732 51.8259 97.5732 53.5678V55.5515Z" fill="white"/>
<path d="M47.0703 22.0419C43.9697 20.6575 43.129 21.5968 42.9486 21.6564C40.8384 22.119 42.2883 24.1799 42.775 24.9124C43.0881 25.382 42.9248 25.6133 42.6423 25.7465C42.1726 25.8972 41.0494 26.0164 38.9325 24.9895V22.6167C39.4147 22.4176 39.8145 22.0518 40.0633 21.5822C40.3121 21.1125 40.3943 20.5683 40.2959 20.0431C40.1974 19.5178 39.9244 19.0442 39.5238 18.7036C39.1231 18.363 38.6198 18.1768 38.1003 18.1768C37.5808 18.1768 37.0775 18.363 36.6768 18.7036C36.2761 19.0442 36.0032 19.5178 35.9047 20.0431C35.8062 20.5683 35.8885 21.1125 36.1373 21.5822C36.3861 22.0518 36.7859 22.4176 37.2681 22.6167V25.0105C35.1716 26.0234 34.0552 25.9042 33.5889 25.7535C33.303 25.6238 33.1431 25.403 33.4562 24.9194C33.9395 24.1869 35.3928 22.1155 33.2826 21.6634C33.1022 21.6213 32.2616 20.682 29.1609 22.0699C29.1609 22.0699 21.4758 25.8937 16.4658 26.1811C16.4658 26.1811 16.6905 26.6683 17.0921 26.6683C17.2249 26.8651 17.4094 27.019 17.6239 27.1121C17.8384 27.2051 18.0741 27.2336 18.3037 27.194C18.3037 27.194 18.4705 28.0492 20.4173 27.93C20.7342 28.2965 21.1425 28.5666 21.5978 28.7112C22.0532 28.8558 22.5383 28.8692 23.0006 28.7501C23.0006 28.7501 24.0216 29.5142 24.7568 29.3319C24.7568 29.3319 25.3898 30.1556 27.2516 29.728C27.2516 29.728 28.2726 30.7058 30.6006 29.6684L30.3658 30.1451C30.3658 30.1451 31.7817 30.464 32.476 29.9453L32.3909 30.3694C32.5657 30.4524 32.7566 30.4931 32.9491 30.4885C34.6508 30.5972 36.5194 28.5083 37.3192 27.5059L37.4009 32.8333H38.8337L38.9154 27.4674C39.6982 28.4557 41.6008 30.6007 43.3162 30.4885C43.5086 30.4931 43.6996 30.4524 43.8744 30.3694L43.7893 29.9453C44.47 30.464 45.8995 30.1451 45.8995 30.1451L45.6646 29.6684C47.9892 30.7198 49.0137 29.728 49.0137 29.728C50.8754 30.1556 51.5051 29.3319 51.5051 29.3319C52.2368 29.5142 53.2647 28.7501 53.2647 28.7501C53.7272 28.8692 54.2127 28.8554 54.6681 28.7102C55.1236 28.565 55.5317 28.2939 55.8479 27.9265C57.7948 28.0492 57.9615 27.194 57.9615 27.194C58.188 27.2233 58.418 27.1873 58.6258 27.0902C58.8337 26.9931 59.0114 26.8385 59.1391 26.6437C59.5442 26.6437 59.7654 26.1566 59.7654 26.1566C54.7554 25.8622 47.0703 22.0419 47.0703 22.0419Z" fill="white"/>
<path d="M37.5107 39.6748L37.5278 40.9716C37.9156 40.8864 38.3128 40.8546 38.7088 40.877L38.7292 39.6748H37.5107Z" fill="#003A60"/>
<path d="M38.5854 48.7944H37.6494V49.9335H38.5513L38.5854 48.7944Z" fill="#003A60"/>
<path d="M38.5408 51.6436H37.6934L37.7512 55.4147C37.9584 55.5795 38.2192 55.6561 38.4796 55.6285L38.5408 51.6436Z" fill="#003A60"/>
<path d="M37.7754 56.771L37.8673 62.7818L38.371 62.8484L38.4629 56.771H37.7754Z" fill="white"/>
<path d="M38.6847 42.5239H37.5547L37.6228 47.0802H38.6234L38.6847 42.5239Z" fill="#003A60"/>
<path d="M38.8163 33.9756H37.4209L37.4856 38.1288C37.898 38.0122 38.324 37.9545 38.7517 37.9571L38.8163 33.9756Z" fill="#003A60"/>
<path d="M40.0598 20.4435C40.0605 20.8353 39.9483 21.2185 39.7374 21.5446C39.5265 21.8707 39.2264 22.1251 38.8751 22.2755C38.5238 22.4259 38.137 22.4656 37.7638 22.3896C37.3905 22.3136 37.0476 22.1253 36.7783 21.8485C36.509 21.5717 36.3255 21.2189 36.2511 20.8346C36.1766 20.4504 36.2145 20.0521 36.3599 19.69C36.5054 19.328 36.7518 19.0185 37.0681 18.8008C37.3845 18.583 37.7564 18.4668 38.1369 18.4668C38.6463 18.4668 39.1349 18.6749 39.4954 19.0456C39.8559 19.4162 40.0589 19.9189 40.0598 20.4435Z" fill="#113D62"/>
<path d="M33.0993 24.6075C33.0993 24.6075 34.9236 22.4065 33.0108 22.1752C33.0108 22.1752 32.1633 21.2604 29.5801 22.4976C29.5801 22.4976 21.6499 26.3985 17.7324 26.3529C17.7324 26.3529 18.488 27.9091 28.8653 23.3248C28.8653 23.3248 23.1644 26.763 19.5567 27.499C19.5567 27.499 20.1353 28.6451 29.6243 23.3248C29.6243 23.3248 31.629 21.9929 33.1436 22.9112C33.1436 22.9112 33.6779 23.3248 32.8747 24.4253C32.8747 24.4253 32.6977 24.8388 33.0993 24.6075Z" fill="url(#paint0_linear_1488_21123)"/>
<path d="M21.1152 27.965C21.1152 27.965 25.1688 26.7698 30.8255 23.1914C30.8255 23.1844 22.8987 28.8727 21.1152 27.965Z" fill="url(#paint1_linear_1488_21123)"/>
<path d="M23.6475 28.459C26.3208 27.2408 28.8615 25.7347 31.2271 23.9658C31.2271 23.9658 24.1444 29.7172 23.6475 28.459Z" fill="url(#paint2_linear_1488_21123)"/>
<path d="M25.4385 29.195C25.4385 29.195 26.8611 28.9181 30.0264 26.0757C30.0264 26.0757 26.8646 30.1132 25.4385 29.195Z" fill="url(#paint3_linear_1488_21123)"/>
<path d="M28.0205 29.5178C28.99 28.9849 29.8758 28.3043 30.648 27.499C30.648 27.499 29.1335 30.1136 28.0205 29.5178Z" fill="url(#paint4_linear_1488_21123)"/>
<path d="M30.876 29.7597C31.4774 29.2782 32.0002 28.7008 32.4246 28.0493C32.4246 28.0493 31.5329 30.2644 30.876 29.7597Z" fill="url(#paint5_linear_1488_21123)"/>
<path d="M43.15 24.5616C43.15 24.5616 41.3223 22.3606 43.2385 22.1293C43.2385 22.1293 44.086 21.2145 46.6658 22.4517C46.6658 22.4517 54.596 26.3526 58.5169 26.307C58.5169 26.307 57.7579 27.8667 47.3806 23.2789C47.3806 23.2789 53.0815 26.7206 56.6892 27.4531C56.6892 27.4531 56.1106 28.6027 46.6216 23.2789C46.6216 23.2789 44.6203 21.9505 43.1057 22.8688C43.1057 22.8688 42.5714 23.2789 43.3712 24.3829C43.3882 24.3794 43.5482 24.7894 43.15 24.5616Z" fill="url(#paint6_linear_1488_21123)"/>
<path d="M55.1307 27.9087C55.1307 27.9087 51.0771 26.7171 45.4307 23.1387C45.4307 23.1387 53.3507 28.827 55.1307 27.9087Z" fill="url(#paint7_linear_1488_21123)"/>
<path d="M52.5778 28.4136C49.9115 27.1941 47.3777 25.688 45.0186 23.9204C45.0186 23.9204 52.1013 29.6543 52.5778 28.4136Z" fill="url(#paint8_linear_1488_21123)"/>
<path d="M50.8116 29.1496C50.8116 29.1496 49.3855 28.8727 46.2236 26.0303C46.2236 26.0303 49.3855 30.0678 50.8116 29.1496Z" fill="url(#paint9_linear_1488_21123)"/>
<path d="M48.2281 29.4685C48.2281 29.4685 46.5263 28.5502 45.6006 27.4497C45.6006 27.4497 47.1117 30.0678 48.2281 29.4685Z" fill="url(#paint10_linear_1488_21123)"/>
<path d="M45.3728 29.7172C44.7714 29.2357 44.2486 28.6583 43.8242 28.0068C43.8242 28.0068 44.7159 30.2184 45.3728 29.7172Z" fill="url(#paint11_linear_1488_21123)"/>
<path d="M31.9424 21.7158C31.9424 21.7158 35.1043 21.9471 33.5012 24.057C33.5182 24.057 34.301 22.2696 31.9424 21.7158Z" fill="url(#paint12_linear_1488_21123)"/>
<path d="M44.0689 21.7402C44.0689 21.7402 41.6183 22.1538 42.7313 23.9868C42.6595 23.5099 42.7546 23.0222 42.9996 22.6107C43.2446 22.1992 43.6235 21.8907 44.0689 21.7402Z" fill="url(#paint13_linear_1488_21123)"/>
<path d="M38.105 33.9756H37.8086L37.829 38.0517C37.921 38.0342 38.0164 38.0201 38.1118 38.0096L38.105 33.9756Z" fill="white"/>
<path d="M38.1193 42.5239H37.8535L37.874 47.0802H38.1261L38.1193 42.5239Z" fill="white"/>
<path d="M38.1301 48.7944H37.8848V49.9335H38.1267L38.1301 48.7944Z" fill="white"/>
<path d="M38.1326 51.6436H37.8975L37.9179 55.5304C37.9894 55.5641 38.0651 55.5877 38.1428 55.6005L38.1326 51.6436Z" fill="white"/>
<path d="M37.9424 56.771V62.242H38.1434V56.771H37.9424Z" fill="url(#paint14_linear_1488_21123)"/>
<path d="M37.8369 39.6748V40.9295L38.1095 40.884V39.6748H37.8369Z" fill="white"/>
<path d="M38.0858 23.2337L37.7451 23.1636L37.7962 32.8334H38.0961L38.0858 23.2337Z" fill="#113D62"/>
<path d="M37.2852 22.5923C37.8269 22.7677 38.4078 22.7677 38.9495 22.5923V23.3633C38.3428 23.3922 37.748 23.183 37.2852 22.778" fill="#003A60"/>
<path d="M41.5122 47.9112C40.5864 46.2955 38.2346 44.9356 36.332 43.3865C35.4335 42.654 34.6779 41.9039 34.3205 41.1223C34.2635 40.9977 34.2157 40.8689 34.1776 40.7368C34.0341 41.2697 34.085 41.8381 34.3205 42.335C34.6609 43.1131 35.4335 43.8631 36.332 44.5991C38.2346 46.1518 40.5864 47.5116 41.5122 49.1274C41.63 49.3324 41.7205 49.5528 41.781 49.7828C41.8631 49.4685 41.8815 49.1402 41.8353 48.8182C41.789 48.4963 41.6791 48.1876 41.5122 47.9112Z" fill="white"/>
<path d="M34.6782 51.9659C35.6006 53.5816 37.9422 54.952 39.855 56.4941C40.7535 57.2266 41.5091 57.9802 41.8665 58.7582C41.9331 58.8853 41.9868 59.0192 42.0264 59.1578C42.1719 58.6228 42.1211 58.0514 41.8835 57.5526C41.5431 56.7745 40.7705 56.0245 39.872 55.2885C37.9422 53.7218 35.6006 52.3619 34.6782 50.7462C34.5593 50.5413 34.4677 50.3209 34.4059 50.0908C34.3231 50.4058 34.3045 50.735 34.3514 51.0577C34.3983 51.3804 34.5095 51.6897 34.6782 51.9659Z" fill="#6087A9"/>
<path d="M34.6782 33.8565C35.6006 35.4722 37.9422 36.8321 39.855 38.3848C40.7535 39.1173 41.5091 39.8673 41.8665 40.6489C41.925 40.7728 41.9728 40.9018 42.0094 41.0344C42.1549 40.4994 42.104 39.928 41.8665 39.4292C41.5261 38.6511 40.7535 37.9011 39.855 37.1651C37.9422 35.6124 35.6006 34.2526 34.6782 32.6368C34.5593 32.432 34.4677 32.2115 34.4059 31.9814C34.3231 32.2964 34.3045 32.6256 34.3514 32.9483C34.3983 33.2711 34.5095 33.5803 34.6782 33.8565Z" fill="#6087A9"/>
<path d="M35.4546 42.8188C35.385 42.8322 35.3222 42.8701 35.277 42.9261C35.2318 42.9821 35.207 43.0527 35.207 43.1255C35.207 43.1984 35.2318 43.2689 35.277 43.3249C35.3222 43.3809 35.385 43.4189 35.4546 43.4322H37.8711V42.8188H35.4546Z" fill="white"/>
<path d="M40.8331 42.8188H37.8721V43.4322H40.8331C40.9027 43.4189 40.9655 43.3809 41.0107 43.3249C41.0559 43.2689 41.0807 43.1984 41.0807 43.1255C41.0807 43.0527 41.0559 42.9821 41.0107 42.9261C40.9655 42.8701 40.9027 42.8322 40.8331 42.8188Z" fill="#94AABC"/>
<path d="M34.4876 41.3709C34.4459 41.3663 34.4036 41.3708 34.3636 41.3841C34.3236 41.3974 34.2868 41.4192 34.2556 41.4482C34.2243 41.4771 34.1993 41.5125 34.1822 41.552C34.1651 41.5915 34.1562 41.6343 34.1562 41.6776C34.1562 41.7208 34.1651 41.7636 34.1822 41.8031C34.1993 41.8427 34.2243 41.878 34.2556 41.907C34.2868 41.9359 34.3236 41.9577 34.3636 41.971C34.4036 41.9843 34.4459 41.9888 34.4876 41.9842H37.8707V41.3709H34.4876Z" fill="white"/>
<path d="M41.878 41.3709H37.8721V41.9842H41.878C41.9198 41.9888 41.9621 41.9843 42.002 41.971C42.042 41.9577 42.0788 41.9359 42.1101 41.907C42.1413 41.878 42.1663 41.8427 42.1835 41.8031C42.2006 41.7636 42.2094 41.7208 42.2094 41.6776C42.2094 41.6343 42.2006 41.5915 42.1835 41.552C42.1663 41.5125 42.1413 41.4771 42.1101 41.4482C42.0788 41.4192 42.042 41.3974 42.002 41.3841C41.9621 41.3708 41.9198 41.3663 41.878 41.3709Z" fill="#94AABC"/>
<path d="M35.9715 34.5225C35.8796 34.5225 35.8047 34.6627 35.8047 34.8309C35.8047 34.9991 35.8796 35.1358 35.9715 35.1358H37.8706V34.5225H35.9715Z" fill="white"/>
<path d="M39.6453 34.5225H37.8721V35.1358H39.6453C39.7372 35.1358 39.8155 34.9991 39.8155 34.8309C39.8155 34.6627 39.7236 34.5225 39.6453 34.5225Z" fill="#94AABC"/>
<path d="M35.0332 33.0747C34.9577 33.0792 34.8869 33.1141 34.836 33.1717C34.7851 33.2294 34.7581 33.3053 34.7609 33.3831C34.7582 33.4606 34.7852 33.5361 34.8362 33.5932C34.8872 33.6503 34.958 33.6844 35.0332 33.6881H37.8718V33.0747H35.0332Z" fill="white"/>
<path d="M40.9206 33.0747H37.8574V33.6881H40.9206C40.9958 33.6844 41.0666 33.6503 41.1176 33.5932C41.1686 33.5361 41.1956 33.4606 41.1929 33.3831C41.1957 33.3053 41.1687 33.2294 41.1178 33.1717C41.0669 33.1141 40.9961 33.0792 40.9206 33.0747Z" fill="#94AABC"/>
<path d="M34.3177 39.8811C34.2759 39.8765 34.2337 39.881 34.1937 39.8944C34.1537 39.9077 34.1169 39.9295 34.0856 39.9584C34.0544 39.9873 34.0294 40.0227 34.0123 40.0622C33.9952 40.1018 33.9863 40.1445 33.9863 40.1878C33.9863 40.2311 33.9952 40.2739 34.0123 40.3134C34.0294 40.3529 34.0544 40.3883 34.0856 40.4172C34.1169 40.4461 34.1537 40.468 34.1937 40.4813C34.2337 40.4946 34.2759 40.4991 34.3177 40.4945H37.871V39.8811H34.3177Z" fill="white"/>
<path d="M41.6874 39.8811H37.8721V40.4945H41.6874C41.7292 40.4991 41.7715 40.4946 41.8114 40.4813C41.8514 40.468 41.8882 40.4461 41.9195 40.4172C41.9507 40.3883 41.9757 40.3529 41.9929 40.3134C42.01 40.2739 42.0188 40.2311 42.0188 40.1878C42.0188 40.1445 42.01 40.1018 41.9929 40.0622C41.9757 40.0227 41.9507 39.9873 41.9195 39.9584C41.8882 39.9295 41.8514 39.9077 41.8114 39.8944C41.7715 39.881 41.7292 39.8765 41.6874 39.8811Z" fill="#94AABC"/>
<path d="M35.0772 38.4795C35.0037 38.4876 34.9357 38.5234 34.8863 38.58C34.8369 38.6366 34.8096 38.71 34.8096 38.7862C34.8096 38.8623 34.8369 38.9357 34.8863 38.9923C34.9357 39.0489 35.0037 39.0847 35.0772 39.0928H37.8715V38.4795H35.0772Z" fill="white"/>
<path d="M40.7106 38.4795H37.8721V39.0928H40.7106C40.7841 39.0847 40.8521 39.0489 40.9015 38.9923C40.9509 38.9357 40.9782 38.8623 40.9782 38.7862C40.9782 38.71 40.9509 38.6366 40.9015 38.58C40.8521 38.5234 40.7841 38.4876 40.7106 38.4795Z" fill="#94AABC"/>
<path d="M35.6863 51.9204C35.618 51.9317 35.5565 51.9697 35.5146 52.0265C35.4728 52.0833 35.4538 52.1545 35.4617 52.2253C35.4617 52.3936 35.5638 52.5338 35.6863 52.5338H37.8714V51.9204H35.6863Z" fill="white"/>
<path d="M40.52 51.9204H37.8721V52.5338H40.52C40.6425 52.5338 40.7412 52.3936 40.7412 52.2253C40.7412 52.0571 40.6425 51.9204 40.52 51.9204Z" fill="#94AABC"/>
<path d="M34.6009 50.4729C34.5591 50.4683 34.5169 50.4728 34.4769 50.4861C34.4369 50.4995 34.4001 50.5213 34.3688 50.5502C34.3376 50.5791 34.3126 50.6145 34.2955 50.654C34.2784 50.6936 34.2695 50.7363 34.2695 50.7796C34.2695 50.8229 34.2784 50.8657 34.2955 50.9052C34.3126 50.9447 34.3376 50.9801 34.3688 51.009C34.4001 51.0379 34.4369 51.0598 34.4769 51.0731C34.5169 51.0864 34.5591 51.0909 34.6009 51.0863H37.8717V50.4729H34.6009Z" fill="white"/>
<path d="M41.3471 50.4731H37.8721V51.097H41.3471C41.3888 51.1016 41.4311 51.0971 41.4711 51.0838C41.5111 51.0705 41.5479 51.0487 41.5791 51.0197C41.6104 50.9908 41.6354 50.9554 41.6525 50.9159C41.6696 50.8764 41.6785 50.8336 41.6785 50.7903C41.6785 50.7471 41.6696 50.7043 41.6525 50.6647C41.6354 50.6252 41.6104 50.5899 41.5791 50.5609C41.5479 50.532 41.5111 50.5102 41.4711 50.4969C41.4311 50.4836 41.3888 50.4791 41.3471 50.4837V50.4731Z" fill="#94AABC"/>
<path d="M34.5384 48.9695C34.4966 48.9649 34.4544 48.9694 34.4144 48.9827C34.3744 48.996 34.3376 49.0179 34.3063 49.0468C34.2751 49.0757 34.2501 49.1111 34.233 49.1506C34.2159 49.1901 34.207 49.2329 34.207 49.2762C34.207 49.3195 34.2159 49.3623 34.233 49.4018C34.2501 49.4413 34.2751 49.4767 34.3063 49.5056C34.3376 49.5345 34.3744 49.5564 34.4144 49.5697C34.4544 49.583 34.4966 49.5875 34.5384 49.5829H37.8807V48.9695H34.5384Z" fill="white"/>
<path d="M41.5955 48.9695H37.8721V49.5829H41.5955C41.6373 49.5875 41.6796 49.583 41.7195 49.5697C41.7595 49.5564 41.7963 49.5345 41.8276 49.5056C41.8589 49.4767 41.8838 49.4413 41.901 49.4018C41.9181 49.3623 41.9269 49.3195 41.9269 49.2762C41.9269 49.2329 41.9181 49.1901 41.901 49.1506C41.8838 49.1111 41.8589 49.0757 41.8276 49.0468C41.7963 49.0179 41.7595 48.996 41.7195 48.9827C41.6796 48.9694 41.6373 48.9649 41.5955 48.9695Z" fill="#94AABC"/>
<path d="M35.4302 47.5918C35.3606 47.6051 35.2978 47.6431 35.2526 47.6991C35.2074 47.7551 35.1826 47.8256 35.1826 47.8985C35.1826 47.9713 35.2074 48.0418 35.2526 48.0979C35.2978 48.1539 35.3606 48.1918 35.4302 48.2051H37.8705V47.5918H35.4302Z" fill="white"/>
<path d="M40.8331 47.5918H37.8721V48.2051H40.8331C40.9027 48.1918 40.9655 48.1539 41.0107 48.0979C41.0559 48.0418 41.0807 47.9713 41.0807 47.8985C41.0807 47.8256 41.0559 47.7551 41.0107 47.6991C40.9655 47.6431 40.9027 47.6051 40.8331 47.5918Z" fill="#94AABC"/>
<path d="M40.9727 56.9775H37.8721V57.5874H40.9727C41.0512 57.5874 41.1265 57.5553 41.1821 57.4981C41.2376 57.4409 41.2688 57.3633 41.2688 57.2825C41.2688 57.2016 41.2376 57.124 41.1821 57.0668C41.1265 57.0097 41.0512 56.9775 40.9727 56.9775Z" fill="#94AABC"/>
<path d="M34.927 56.9775C34.8484 56.9775 34.7731 57.0097 34.7176 57.0668C34.6621 57.124 34.6309 57.2016 34.6309 57.2825C34.6309 57.3633 34.6621 57.4409 34.7176 57.4981C34.7731 57.5553 34.8484 57.5874 34.927 57.5874H37.871V56.9775H34.927Z" fill="white"/>
<path d="M39.8393 55.6533H37.8721V56.2667H39.8393C39.938 56.2667 40.0197 56.1265 40.0197 55.9582C40.0197 55.79 39.938 55.6533 39.8393 55.6533Z" fill="#94AABC"/>
<path d="M35.8996 55.6533C35.8009 55.6533 35.7158 55.79 35.7158 55.9582C35.7158 56.1265 35.8009 56.2667 35.8996 56.2667H37.8771V55.6533H35.8996Z" fill="white"/>
<path opacity="0.39" d="M35.1687 33.2222C35.1524 33.2222 35.1369 33.2288 35.1254 33.2406C35.1139 33.2525 35.1074 33.2685 35.1074 33.2853C35.1074 33.302 35.1139 33.318 35.1254 33.3299C35.1369 33.3417 35.1524 33.3483 35.1687 33.3483H37.8711V33.2222H35.1687Z" fill="white"/>
<path opacity="0.39" d="M41.0748 33.2222H37.8721V33.3483H41.0748C41.091 33.3483 41.1066 33.3417 41.1181 33.3299C41.1296 33.318 41.136 33.302 41.136 33.2853C41.136 33.2685 41.1296 33.2525 41.1181 33.2406C41.1066 33.2288 41.091 33.2222 41.0748 33.2222Z" fill="white"/>
<path opacity="0.39" d="M40.5968 34.624H37.874V34.7467H40.5968C40.604 34.7458 40.6109 34.7435 40.6172 34.7399C40.6235 34.7362 40.6291 34.7313 40.6335 34.7254C40.6379 34.7196 40.6412 34.7128 40.6431 34.7057C40.645 34.6985 40.6454 34.691 40.6445 34.6836C40.6455 34.6693 40.6411 34.6551 40.6322 34.644C40.6233 34.6329 40.6107 34.6258 40.5968 34.624Z" fill="white"/>
<path opacity="0.39" d="M35.9788 34.624C35.9649 34.6258 35.9523 34.6329 35.9434 34.644C35.9346 34.6551 35.9302 34.6693 35.9311 34.6836C35.9302 34.691 35.9307 34.6985 35.9326 34.7057C35.9344 34.7128 35.9377 34.7196 35.9421 34.7254C35.9466 34.7313 35.9521 34.7362 35.9584 34.7399C35.9647 34.7435 35.9716 34.7458 35.9788 34.7467H37.8711V34.624H35.9788Z" fill="white"/>
<path opacity="0.39" d="M35.3718 38.5918C35.3556 38.5918 35.34 38.5984 35.3285 38.6103C35.317 38.6221 35.3105 38.6382 35.3105 38.6549C35.3105 38.6716 35.317 38.6877 35.3285 38.6995C35.34 38.7113 35.3556 38.718 35.3718 38.718H37.87V38.5918H35.3718Z" fill="white"/>
<path opacity="0.39" d="M40.7106 38.5918H37.8721V38.718H40.7106C40.7269 38.718 40.7424 38.7113 40.7539 38.6995C40.7654 38.6877 40.7719 38.6716 40.7719 38.6549C40.7719 38.6382 40.7654 38.6221 40.7539 38.6103C40.7424 38.5984 40.7269 38.5918 40.7106 38.5918Z" fill="white"/>
<path opacity="0.39" d="M34.3894 39.9937C34.3731 39.9937 34.3576 40.0003 34.3461 40.0121C34.3346 40.024 34.3281 40.04 34.3281 40.0567C34.3281 40.0735 34.3346 40.0895 34.3461 40.1013C34.3576 40.1132 34.3731 40.1198 34.3894 40.1198H37.8712V39.9937H34.3894Z" fill="white"/>
<path opacity="0.39" d="M41.5615 39.9937H37.8721V40.1198H41.5615C41.5777 40.1198 41.5933 40.1132 41.6048 40.1013C41.6163 40.0895 41.6227 40.0735 41.6227 40.0567C41.6227 40.04 41.6163 40.024 41.6048 40.0121C41.5933 40.0003 41.5777 39.9937 41.5615 39.9937Z" fill="white"/>
<path opacity="0.39" d="M41.827 41.49H37.8721V41.6127H41.827C41.836 41.6149 41.8453 41.615 41.8544 41.613C41.8635 41.611 41.8719 41.6068 41.8792 41.6009C41.8865 41.595 41.8924 41.5875 41.8964 41.5789C41.9005 41.5703 41.9026 41.5609 41.9026 41.5514C41.9026 41.5418 41.9005 41.5324 41.8964 41.5238C41.8924 41.5152 41.8865 41.5077 41.8792 41.5018C41.8719 41.4959 41.8635 41.4918 41.8544 41.4897C41.8453 41.4877 41.836 41.4878 41.827 41.49Z" fill="white"/>
<path opacity="0.39" d="M34.3764 41.49C34.3674 41.4878 34.358 41.4877 34.3489 41.4897C34.3399 41.4918 34.3314 41.4959 34.3241 41.5018C34.3169 41.5077 34.311 41.5152 34.3069 41.5238C34.3029 41.5324 34.3008 41.5418 34.3008 41.5514C34.3008 41.5609 34.3029 41.5703 34.3069 41.5789C34.311 41.5875 34.3169 41.595 34.3241 41.6009C34.3314 41.6068 34.3399 41.611 34.3489 41.613C34.358 41.615 34.3674 41.6149 34.3764 41.6127H37.8718V41.49H34.3764Z" fill="white"/>
<path opacity="0.39" d="M35.4656 42.9199C35.4493 42.9199 35.4337 42.9266 35.4222 42.9384C35.4108 42.9502 35.4043 42.9663 35.4043 42.983C35.4043 42.9997 35.4108 43.0158 35.4222 43.0276C35.4337 43.0394 35.4493 43.0461 35.4656 43.0461H37.8718V42.9199H35.4656Z" fill="white"/>
<path opacity="0.39" d="M41.1122 42.9202H37.8721V43.0358H41.1122C41.1285 43.0358 41.1441 43.0292 41.1555 43.0174C41.167 43.0055 41.1735 42.9895 41.1735 42.9728C41.1735 42.956 41.167 42.94 41.1555 42.9281C41.1441 42.9163 41.1285 42.9097 41.1122 42.9097V42.9202Z" fill="white"/>
<path opacity="0.39" d="M40.7719 47.7427H37.8721V47.8653H40.7719C40.779 47.8649 40.786 47.863 40.7925 47.8598C40.7989 47.8565 40.8047 47.852 40.8094 47.8465C40.8142 47.8409 40.8178 47.8345 40.8201 47.8275C40.8224 47.8205 40.8234 47.8131 40.8229 47.8058C40.8239 47.7905 40.8191 47.7755 40.8096 47.7637C40.8001 47.752 40.7866 47.7444 40.7719 47.7427Z" fill="white"/>
<path opacity="0.39" d="M35.4311 47.7427C35.4163 47.7444 35.4028 47.752 35.3933 47.7637C35.3838 47.7755 35.379 47.7905 35.38 47.8058C35.3795 47.8131 35.3805 47.8205 35.3828 47.8275C35.3851 47.8345 35.3888 47.8409 35.3935 47.8465C35.3983 47.852 35.404 47.8565 35.4105 47.8598C35.4169 47.863 35.4239 47.8649 35.4311 47.8653H37.8714V47.7427H35.4311Z" fill="white"/>
<path opacity="0.39" d="M34.4465 49.1446C34.429 49.1436 34.4118 49.1497 34.3984 49.1614C34.3851 49.1732 34.3767 49.1898 34.375 49.2077C34.3758 49.2165 34.3784 49.225 34.3824 49.2327C34.3865 49.2405 34.392 49.2473 34.3987 49.2529C34.4053 49.2584 34.413 49.2625 34.4212 49.265C34.4294 49.2675 34.438 49.2683 34.4465 49.2673H37.8704V49.1446H34.4465Z" fill="white"/>
<path opacity="0.39" d="M41.6179 49.1449H37.874V49.2676H41.6179C41.6587 49.2676 41.6894 49.243 41.6894 49.208C41.689 49.1989 41.6867 49.19 41.6829 49.1819C41.679 49.1737 41.6736 49.1665 41.6669 49.1606C41.6602 49.1547 41.6524 49.1502 41.6439 49.1475C41.6355 49.1448 41.6267 49.1439 41.6179 49.1449Z" fill="white"/>
<path opacity="0.39" d="M39.8359 55.7827H37.8721V55.9089H39.8359C39.8521 55.9089 39.8677 55.9022 39.8792 55.8904C39.8907 55.8786 39.8972 55.8625 39.8972 55.8458C39.8972 55.8291 39.8907 55.813 39.8792 55.8012C39.8677 55.7894 39.8521 55.7827 39.8359 55.7827Z" fill="white"/>
<path opacity="0.39" d="M34.8044 55.7827C34.7882 55.7827 34.7726 55.7894 34.7611 55.8012C34.7496 55.813 34.7432 55.8291 34.7432 55.8458C34.7432 55.8625 34.7496 55.8786 34.7611 55.8904C34.7726 55.9022 34.7882 55.9089 34.8044 55.9089H37.8676V55.7827H34.8044Z" fill="white"/>
<path opacity="0.39" d="M34.1996 57.1253C34.1906 57.1231 34.1812 57.123 34.1722 57.125C34.1631 57.127 34.1547 57.1312 34.1474 57.1371C34.1401 57.143 34.1342 57.1505 34.1302 57.1591C34.1261 57.1677 34.124 57.1771 34.124 57.1866C34.124 57.1962 34.1261 57.2056 34.1302 57.2142C34.1342 57.2227 34.1401 57.2303 34.1474 57.2362C34.1547 57.2421 34.1631 57.2462 34.1722 57.2482C34.1812 57.2503 34.1906 57.2502 34.1996 57.248H37.872V57.1253H34.1996Z" fill="white"/>
<path opacity="0.39" d="M40.9659 57.1253H37.8721V57.248H40.9659C40.9749 57.2502 40.9843 57.2503 40.9933 57.2482C41.0024 57.2462 41.0108 57.2421 41.0181 57.2362C41.0254 57.2303 41.0313 57.2227 41.0353 57.2142C41.0394 57.2056 41.0415 57.1962 41.0415 57.1866C41.0415 57.1771 41.0394 57.1677 41.0353 57.1591C41.0313 57.1505 41.0254 57.143 41.0181 57.1371C41.0108 57.1312 41.0024 57.127 40.9933 57.125C40.9843 57.123 40.9749 57.1231 40.9659 57.1253Z" fill="white"/>
<path opacity="0.39" d="M34.4363 50.6382C34.42 50.6382 34.4044 50.6448 34.3929 50.6567C34.3815 50.6685 34.375 50.6845 34.375 50.7013C34.375 50.718 34.3815 50.734 34.3929 50.7459C34.4044 50.7577 34.42 50.7644 34.4363 50.7644H37.8704V50.6382H34.4363Z" fill="white"/>
<path opacity="0.39" d="M41.8848 50.6382H37.8721V50.7644H41.8848C41.9011 50.7644 41.9167 50.7577 41.9281 50.7459C41.9396 50.734 41.9461 50.718 41.9461 50.7013C41.9461 50.6845 41.9396 50.6685 41.9281 50.6567C41.9167 50.6448 41.9011 50.6382 41.8848 50.6382Z" fill="white"/>
<path opacity="0.39" d="M35.5256 52.0713C35.51 52.0722 35.4953 52.0792 35.4845 52.091C35.4737 52.1027 35.4677 52.1182 35.4678 52.1344C35.4678 52.1422 35.4693 52.1499 35.4722 52.1572C35.4751 52.1644 35.4793 52.171 35.4847 52.1765C35.4901 52.182 35.4965 52.1864 35.5035 52.1894C35.5105 52.1924 35.518 52.194 35.5256 52.194H37.8707V52.0713H35.5256Z" fill="white"/>
<path opacity="0.39" d="M41.1701 52.0713H37.8721V52.194H41.1701C41.1777 52.194 41.1852 52.1924 41.1922 52.1894C41.1992 52.1864 41.2056 52.182 41.211 52.1765C41.2164 52.171 41.2206 52.1644 41.2235 52.1572C41.2264 52.1499 41.2279 52.1422 41.2279 52.1344C41.228 52.1182 41.222 52.1027 41.2112 52.091C41.2005 52.0792 41.1857 52.0722 41.1701 52.0713Z" fill="white"/>
<path d="M41.8668 39.4293C42.1101 39.9258 42.167 40.4974 42.0268 41.0345C41.9642 41.2653 41.8727 41.4868 41.7545 41.6934C40.8288 43.3091 38.4769 44.669 36.5778 46.2216C35.8405 46.7717 35.2033 47.4516 34.6956 48.2299C33.7767 49.3794 34.117 51.1073 34.6956 51.966C34.5269 51.6898 34.4156 51.3805 34.3688 51.0578C34.3219 50.7351 34.3405 50.4059 34.4233 50.0909C34.4512 49.9558 34.4899 49.8234 34.539 49.6949C34.8998 48.9168 35.652 48.1668 36.5539 47.4308C38.4327 45.8992 40.7505 44.5498 41.6966 42.9621C42.4897 41.9107 42.7177 40.365 41.6966 39.1313C41.7715 39.2365 41.8226 39.3311 41.8668 39.4293Z" fill="#6087A9"/>
<path d="M34.3204 60.4479C34.0831 59.949 34.0322 59.3777 34.1774 58.8427C34.2415 58.6123 34.3329 58.391 34.4497 58.1838C35.3754 56.568 37.7273 55.2082 39.6298 53.6555C40.3654 53.1045 41.0013 52.4247 41.5086 51.6473C42.4275 50.4977 42.0872 48.7698 41.5086 47.9111C41.6759 48.188 41.7862 48.4973 41.8324 48.8199C41.8787 49.1425 41.86 49.4714 41.7775 49.7862C41.7415 49.9197 41.6948 50.0498 41.6379 50.1752C41.2771 50.9533 40.525 51.7033 39.6264 52.4394C37.7477 53.971 35.4299 55.3203 34.4837 56.908C33.6907 57.9594 33.4627 59.5051 34.4837 60.7388C34.4233 60.6455 34.3687 60.5483 34.3204 60.4479Z" fill="white"/>
<path d="M34.5389 42.7134C34.4624 42.5935 34.3942 42.4682 34.3347 42.3384C34.0974 41.8395 34.0465 41.2682 34.1917 40.7332C34.2558 40.5029 34.3472 40.2816 34.464 40.0743C35.3761 38.4796 37.728 37.0987 39.6442 35.5461C40.5427 34.8136 41.2949 34.0635 41.6556 33.2855C41.892 32.785 41.9417 32.2125 41.7952 31.6768C41.7592 31.8102 41.7126 31.9403 41.6556 32.0658C41.2949 32.8439 40.5427 33.5939 39.6442 34.3299C37.973 35.6758 35.9786 36.8884 34.8792 38.2413C33.6369 39.6012 33.5178 41.5744 34.5389 42.7169V42.7134Z" fill="white"/>
<path d="M38.8342 32.8335H37.4014L37.4218 33.9761H38.8172L38.8342 32.8335Z" fill="#003A60"/>
<path d="M38.1026 32.8335H37.8027V33.9761H38.0992L38.1026 32.8335Z" fill="white"/>
<path d="M38.7524 37.9679C38.3248 37.9653 37.8988 38.023 37.4863 38.1396L37.5102 39.6747H38.7286L38.7524 37.9679Z" fill="#003A60"/>
<path d="M38.1129 38.0098C38.0175 38.0098 37.9221 38.0343 37.8301 38.0518V39.6746H38.1095L38.1129 38.0098Z" fill="white"/>
<path d="M38.7084 40.8766C38.3124 40.8542 37.9152 40.886 37.5273 40.9712L37.5546 42.5238H38.6845L38.7084 40.8766Z" fill="#003A60"/>
<path d="M38.1163 40.8838L37.8438 40.9294V42.524H38.1095L38.1163 40.8838Z" fill="white"/>
<path d="M38.6237 47.084H37.623L37.6503 48.7943H38.5862L38.6237 47.084Z" fill="#003A60"/>
<path d="M38.1262 47.084H37.874V48.7943H38.1193L38.1262 47.084Z" fill="white"/>
<path d="M38.5689 49.9331H37.667L37.6942 51.6435H38.5417L38.5689 49.9331Z" fill="#003A60"/>
<path d="M38.1335 49.9331H37.8916V51.6435H38.1267L38.1335 49.9331Z" fill="white"/>
<path d="M38.4803 55.6283C38.2199 55.6559 37.9591 55.5793 37.752 55.4146L37.7758 56.7709H38.4565L38.4803 55.6283Z" fill="#003A60"/>
<path d="M38.1428 55.6009C38.0651 55.5881 37.9895 55.5645 37.918 55.5308V56.7715H38.136L38.1428 55.6009Z" fill="white"/>
</g>
<defs>
<linearGradient id="paint0_linear_1488_21123" x1="20.217" y1="27.5025" x2="31.1654" y2="23.4947" gradientUnits="userSpaceOnUse">
<stop stop-color="white"/>
<stop offset="1" stop-color="#003A60"/>
</linearGradient>
<linearGradient id="paint1_linear_1488_21123" x1="22.2282" y1="27.285" x2="29.4129" y2="24.6553" gradientUnits="userSpaceOnUse">
<stop stop-color="white"/>
<stop offset="1" stop-color="#003A60"/>
</linearGradient>
<linearGradient id="paint2_linear_1488_21123" x1="24.4235" y1="27.5793" x2="30.2028" y2="25.4622" gradientUnits="userSpaceOnUse">
<stop stop-color="white"/>
<stop offset="1" stop-color="#003A60"/>
</linearGradient>
<linearGradient id="paint3_linear_1488_21123" x1="25.4385" y1="27.7019" x2="30.0264" y2="27.7019" gradientUnits="userSpaceOnUse">
<stop stop-color="white"/>
<stop offset="1" stop-color="#003A60"/>
</linearGradient>
<linearGradient id="paint4_linear_1488_21123" x1="28.0205" y1="28.5505" x2="30.648" y2="28.5505" gradientUnits="userSpaceOnUse">
<stop stop-color="white"/>
<stop offset="1" stop-color="#003A60"/>
</linearGradient>
<linearGradient id="paint5_linear_1488_21123" x1="30.876" y1="28.9395" x2="32.4246" y2="28.9395" gradientUnits="userSpaceOnUse">
<stop stop-color="white"/>
<stop offset="1" stop-color="#003A60"/>
</linearGradient>
<linearGradient id="paint6_linear_1488_21123" x1="56.0289" y1="27.4566" x2="45.0838" y2="23.4488" gradientUnits="userSpaceOnUse">
<stop stop-color="white"/>
<stop offset="1" stop-color="#003A60"/>
</linearGradient>
<linearGradient id="paint7_linear_1488_21123" x1="54.0177" y1="27.2393" x2="46.8364" y2="24.6096" gradientUnits="userSpaceOnUse">
<stop stop-color="white"/>
<stop offset="1" stop-color="#003A60"/>
</linearGradient>
<linearGradient id="paint8_linear_1488_21123" x1="51.8222" y1="27.5339" x2="46.0428" y2="25.4168" gradientUnits="userSpaceOnUse">
<stop stop-color="white"/>
<stop offset="1" stop-color="#003A60"/>
</linearGradient>
<linearGradient id="paint9_linear_1488_21123" x1="50.8082" y1="27.6565" x2="46.2202" y2="27.6565" gradientUnits="userSpaceOnUse">
<stop stop-color="white"/>
<stop offset="1" stop-color="#003A60"/>
</linearGradient>
<linearGradient id="paint10_linear_1488_21123" x1="48.2247" y1="28.5047" x2="45.6006" y2="28.5047" gradientUnits="userSpaceOnUse">
<stop stop-color="white"/>
<stop offset="1" stop-color="#003A60"/>
</linearGradient>
<linearGradient id="paint11_linear_1488_21123" x1="45.3728" y1="28.8936" x2="43.8208" y2="28.8936" gradientUnits="userSpaceOnUse">
<stop stop-color="white"/>
<stop offset="1" stop-color="#003A60"/>
</linearGradient>
<linearGradient id="paint12_linear_1488_21123" x1="32.9464" y1="21.5336" x2="32.9464" y2="23.4507" gradientUnits="userSpaceOnUse">
<stop stop-color="white"/>
<stop offset="1" stop-color="#003A60"/>
</linearGradient>
<linearGradient id="paint13_linear_1488_21123" x1="43.2418" y1="21.4213" x2="43.2418" y2="22.9844" gradientUnits="userSpaceOnUse">
<stop stop-color="white"/>
<stop offset="1" stop-color="#003A60"/>
</linearGradient>
<linearGradient id="paint14_linear_1488_21123" x1="38.0378" y1="62.4698" x2="38.0378" y2="26.0793" gradientUnits="userSpaceOnUse">
<stop stop-color="white"/>
<stop offset="1" stop-color="#73797C"/>
</linearGradient>
<clipPath id="clip0_1488_21123">
<rect width="118" height="44.697" fill="white" transform="translate(16.501 18.1514)"/>
</clipPath>
</defs>
</svg>
