<svg width="150" height="80" viewBox="0 0 150 80" fill="none" xmlns="http://www.w3.org/2000/svg">
<path d="M14.0397 42.4946C14.0397 42.4946 15.5638 39.2732 16.8223 40.0006L27.237 46.7091C27.6412 46.9631 29.6618 48.1985 31.6131 47.1189L44.5968 39.533C45.4686 38.9961 45.7861 39.2155 45.7803 39.7408L45.6822 47.8695C45.6707 48.3371 45.6649 48.5103 45.4455 48.7354L31.7805 56.9911C29.8292 58.0706 27.8086 56.8294 27.4045 56.5812L14.8133 48.9202C14.4265 48.6604 14.311 48.2389 14.2244 47.7944C13.9184 46.2761 14.0628 43.199 14.0397 42.4946Z" fill="white"/>
<path d="M14.001 33.2003L14.0356 43.4014C14.0356 41.8716 15.2884 41.0056 16.5527 40.2724L26.9963 33.7198C27.4004 33.4658 29.421 32.2304 31.3723 33.3099L37.3013 36.6757C38.0749 37.1202 38.583 36.7623 38.5714 36.7623L45.2971 32.9231C45.4703 32.7557 45.6608 32.5594 45.4472 32.3343L31.5455 23.4321C29.5942 22.3583 27.5736 23.5937 27.1695 23.842L15.017 31.7974C14.4571 32.1842 14.0356 32.2939 14.001 33.2003Z" fill="#757575"/>
<path d="M59.8042 27.3401C59.8042 27.7558 59.7349 28.0733 59.5906 28.3042C59.452 28.5352 59.198 28.6449 58.8458 28.6449C58.5283 28.6449 58.2974 28.5236 58.1531 28.2927C58.0087 28.056 57.9395 27.6057 57.9395 26.9302C57.9395 26.8494 57.9452 26.6416 57.9625 26.301C57.9799 25.9603 58.003 25.7294 58.0376 25.6082C58.0722 25.4869 58.1242 25.3715 58.205 25.2676C58.2801 25.1636 58.3782 25.0828 58.4994 25.0309C58.6207 24.9789 58.7592 24.9558 58.9151 24.9558C59.1403 24.9558 59.3365 25.0251 59.4982 25.1579C59.6598 25.2907 59.7522 25.4754 59.7695 25.7005L59.3135 25.868C59.2788 25.5216 59.146 25.3484 58.9151 25.3484C58.7419 25.3484 58.6207 25.4408 58.5514 25.6197C58.4821 25.7987 58.4475 26.0989 58.4475 26.5088V26.6935C58.4475 26.936 58.4533 27.1612 58.4706 27.3805C58.4879 27.5999 58.4994 27.7616 58.511 27.8597C58.5225 27.9636 58.5514 28.0445 58.5918 28.1022C58.6322 28.1599 58.6784 28.2003 58.7246 28.2234C58.7708 28.2465 58.8227 28.2523 58.8862 28.2523C59.0017 28.2523 59.0941 28.2176 59.1576 28.1426C59.2211 28.0733 59.2673 27.9694 59.2904 27.8366C59.3135 27.7038 59.325 27.4729 59.325 27.1496H58.8862V26.7282H59.8042V27.3344V27.3401Z" fill="white"/>
<path d="M65.7165 28.6104H65.2143L64.6543 26.9247H64.6138V28.6104H64.1289V25.0195H64.7986C65.347 25.0195 65.6184 25.3255 65.6184 25.9375C65.6184 26.2146 65.578 26.4224 65.4971 26.5667C65.4163 26.7053 65.2835 26.815 65.1046 26.8843L65.7223 28.6104H65.7165ZM64.6081 26.5956C64.7986 26.5956 64.9314 26.5494 65.018 26.4628C65.1046 26.3762 65.145 26.2204 65.145 25.9952C65.145 25.77 65.1046 25.6257 65.0295 25.5333C64.9545 25.441 64.8217 25.3948 64.6369 25.3948H64.6081V26.5956Z" fill="white"/>
<path d="M69.9189 26.8089C69.9189 26.0295 69.994 25.5273 70.1499 25.2963C70.3057 25.0654 70.554 24.95 70.9061 24.95C71.3103 24.95 71.5758 25.077 71.7086 25.3368C71.8414 25.5908 71.9049 26.0526 71.9049 26.7223C71.9049 27.3227 71.876 27.7326 71.8183 27.9635C71.7606 28.1945 71.6567 28.3619 71.5123 28.4716C71.368 28.5813 71.1717 28.6332 70.9177 28.6332C70.6637 28.6332 70.4616 28.5813 70.3231 28.4831C70.1845 28.385 70.0864 28.2176 70.0171 27.9924C69.9478 27.7673 69.9189 27.3689 69.9189 26.8031V26.8089ZM71.3969 26.8378C71.3969 26.1565 71.3565 25.7351 71.2756 25.5735C71.1948 25.4118 71.0736 25.331 70.9177 25.331C70.7272 25.331 70.6002 25.4291 70.5309 25.6196C70.4616 25.8102 70.427 26.1335 70.427 26.5953V26.7916C70.427 27.2996 70.4558 27.6691 70.5136 27.9058C70.5713 28.1425 70.7041 28.258 70.9177 28.258C71.0505 28.258 71.1602 28.1945 71.2583 28.0617C71.3507 27.9289 71.4026 27.5652 71.4026 26.9706V26.8378H71.3969Z" fill="white"/>
<path d="M78.048 27.7614C78.048 28.3618 77.7766 28.662 77.2397 28.662C76.6509 28.662 76.3564 28.3618 76.3564 27.7672V25.0249H76.8356V27.5651C76.8356 27.8364 76.8587 28.0269 76.9049 28.1309C76.9511 28.2348 77.055 28.2867 77.2109 28.2867C77.3667 28.2867 77.4649 28.2348 77.5053 28.1193C77.5457 28.0096 77.563 27.8133 77.563 27.5362V25.0249H78.0422V27.7614H78.048Z" fill="white"/>
<path d="M82.4756 25.0195H83.2665C83.7803 25.0195 84.0401 25.3601 84.0401 26.0356C84.0401 26.3069 83.9939 26.5206 83.9015 26.6764C83.8092 26.8323 83.6995 26.9304 83.5609 26.9709C83.4224 27.0113 83.2261 27.0344 82.9605 27.0344V28.6104H82.4756V25.0195ZM82.9605 26.6591C83.1684 26.6591 83.3127 26.6187 83.3993 26.5379C83.4859 26.457 83.5321 26.2896 83.5321 26.0356C83.5321 25.7816 83.4917 25.6142 83.4166 25.5218C83.3416 25.4294 83.1857 25.389 82.9605 25.389V26.6591Z" fill="white"/>
<path d="M89.6632 28.6104H88.3643V25.0195H89.6401V25.4294H88.8434V26.5667H89.5824V26.9766H88.8434V28.2121H89.6632V28.6104Z" fill="white"/>
<path d="M100.273 28.5523C100.129 28.6216 99.9848 28.6563 99.8405 28.6563C99.5518 28.6563 99.3036 28.5466 99.09 28.3214C98.8764 28.0963 98.7725 27.6286 98.7725 26.9185C98.7725 26.1449 98.8764 25.6311 99.09 25.3598C99.3036 25.0942 99.5576 24.9614 99.8578 24.9614C99.9733 24.9614 100.112 24.9787 100.273 25.0192V25.4579C100.164 25.4117 100.06 25.3944 99.9675 25.3944C99.777 25.3944 99.6211 25.4926 99.4883 25.6831C99.3556 25.8736 99.2863 26.2488 99.2863 26.8146C99.2863 27.1495 99.3036 27.4092 99.3325 27.5998C99.3613 27.7903 99.4306 27.9404 99.5345 28.0501C99.6384 28.1598 99.7712 28.2175 99.9329 28.2175C100.025 28.2175 100.141 28.1886 100.279 28.1309V28.5581L100.273 28.5523Z" fill="white"/>
<path d="M104.62 26.8089C104.62 26.0295 104.695 25.5273 104.851 25.2963C105.001 25.0654 105.255 24.95 105.607 24.95C106.011 24.95 106.277 25.077 106.41 25.3368C106.543 25.5908 106.606 26.0526 106.606 26.7223C106.606 27.3227 106.577 27.7326 106.519 27.9635C106.462 28.1945 106.358 28.3619 106.213 28.4716C106.069 28.5813 105.873 28.6332 105.619 28.6332C105.365 28.6332 105.163 28.5813 105.024 28.4831C104.886 28.385 104.788 28.2176 104.718 27.9924C104.649 27.7673 104.62 27.3689 104.62 26.8031V26.8089ZM106.098 26.8378C106.098 26.1565 106.058 25.7351 105.977 25.5735C105.896 25.4118 105.775 25.331 105.619 25.331C105.428 25.331 105.301 25.4291 105.232 25.6196C105.163 25.8102 105.128 26.1335 105.128 26.5953V26.7916C105.128 27.2996 105.157 27.6691 105.215 27.9058C105.272 28.1425 105.405 28.258 105.625 28.258C105.757 28.258 105.867 28.1945 105.965 28.0617C106.058 27.9289 106.11 27.5652 106.11 26.9706V26.8378H106.098Z" fill="white"/>
<path d="M112.738 28.6104H112.357L111.439 26.1453H111.427V28.6104H110.994V25.0195H111.381L112.299 27.4847H112.31V25.0195H112.738V28.6104Z" fill="white"/>
<path d="M118.379 25.4808C118.223 25.3942 118.078 25.3538 117.951 25.3538C117.824 25.3538 117.72 25.4 117.628 25.4866C117.541 25.5789 117.495 25.6886 117.495 25.8156C117.495 25.908 117.524 26.0004 117.576 26.1043C117.628 26.2082 117.749 26.3698 117.934 26.595C118.119 26.8202 118.263 27.0164 118.361 27.1839C118.459 27.3513 118.511 27.5418 118.511 27.7554C118.511 28.021 118.43 28.2404 118.269 28.4078C118.107 28.5752 117.899 28.656 117.64 28.656C117.495 28.656 117.322 28.6156 117.114 28.529V28.096C117.114 28.096 117.126 28.096 117.132 28.1076C117.16 28.1307 117.218 28.1595 117.31 28.1999C117.403 28.2404 117.489 28.2634 117.576 28.2634C117.715 28.2634 117.836 28.2173 117.922 28.1249C118.015 28.0325 118.061 27.9113 118.061 27.767C118.061 27.663 118.038 27.5707 117.992 27.4841C117.946 27.3975 117.859 27.282 117.738 27.1319L117.414 26.7336C117.287 26.5777 117.195 26.4391 117.137 26.3121C117.08 26.1851 117.045 26.035 117.045 25.856C117.045 25.5962 117.12 25.3826 117.276 25.221C117.426 25.0593 117.628 24.9785 117.87 24.9785C118.038 24.9785 118.211 25.0189 118.384 25.1055V25.4981L118.379 25.4808Z" fill="white"/>
<path d="M124.123 28.6104H122.824V25.0195H124.1V25.4294H123.303V26.5667H124.042V26.9766H123.303V28.2121H124.123V28.6104Z" fill="white"/>
<path d="M128.511 25.0195H128.996V28.6104H128.511V25.0195Z" fill="white"/>
<path d="M134.803 28.6104H133.504V25.0195H133.989V28.2063H134.803V28.6104Z" fill="white"/>
<path d="M60.2842 55.0162H59.8166L59.6838 54.3061H58.9218L58.789 55.0162H58.3271L59.1007 51.4253H59.4991L60.2785 55.0162H60.2842ZM59.6203 53.9424L59.3028 52.2393H59.2913L58.9911 53.9424H59.6146H59.6203Z" fill="white"/>
<path d="M64.4805 51.4253H65.179C65.5081 51.4253 65.7679 51.5465 65.9584 51.8005C66.1489 52.0488 66.247 52.5164 66.247 53.2034C66.247 53.8904 66.1662 54.335 65.9988 54.6063C65.8314 54.8776 65.5312 55.0162 65.0982 55.0162H64.4862V51.4253H64.4805ZM64.9654 51.7948V54.6525C65.1675 54.6525 65.3233 54.6179 65.4273 54.537C65.5312 54.462 65.612 54.3234 65.664 54.1156C65.7159 53.9078 65.739 53.6018 65.739 53.1919C65.739 52.6723 65.6928 52.3028 65.5947 52.1008C65.4965 51.8929 65.3118 51.789 65.0289 51.789H64.9654V51.7948Z" fill="white"/>
<path d="M70.1963 51.4253H70.6639L71.1142 54.1387L71.5992 51.4253H72.061L71.3047 55.0162H70.9237L70.1963 51.4253Z" fill="white"/>
<path d="M76.2109 51.4253H76.6959V55.0162H76.2109V51.4253Z" fill="white"/>
<path d="M82.2447 51.8875C82.0888 51.8009 81.9445 51.7605 81.8175 51.7605C81.6905 51.7605 81.5866 51.8067 81.4942 51.8933C81.4076 51.9857 81.3614 52.0954 81.3614 52.2224C81.3614 52.3147 81.3903 52.4071 81.4423 52.511C81.4942 52.6149 81.6155 52.7766 81.8002 53.0017C81.9849 53.2269 82.1293 53.4232 82.2274 53.5906C82.3255 53.758 82.3775 53.9485 82.3775 54.1621C82.3775 54.4277 82.2967 54.6471 82.135 54.8145C81.9734 54.9819 81.7656 55.0628 81.5058 55.0628C81.3614 55.0628 81.1882 55.0224 80.9804 54.9358V54.5028C80.9804 54.5028 80.992 54.5028 80.9977 54.5143C81.0266 54.5374 81.0843 54.5663 81.1767 54.6067C81.2691 54.6471 81.3557 54.6702 81.4423 54.6702C81.5808 54.6702 81.702 54.624 81.7886 54.5316C81.881 54.4393 81.9272 54.318 81.9272 54.1737C81.9272 54.0698 81.9041 53.9774 81.8579 53.8908C81.8117 53.8042 81.7251 53.6887 81.6039 53.5386L81.2806 53.1403C81.1536 52.9844 81.0612 52.8459 81.0035 52.7189C80.9458 52.5918 80.9111 52.4417 80.9111 52.2628C80.9111 52.003 80.9862 51.7894 81.1421 51.6277C81.2922 51.4661 81.4942 51.3853 81.7367 51.3853C81.9041 51.3853 82.0773 51.4257 82.2505 51.5123V51.9048L82.2447 51.8875Z" fill="white"/>
<path d="M86.5166 53.2093C86.5166 52.4299 86.5917 51.9277 86.7475 51.6967C86.9034 51.4658 87.1516 51.3503 87.5038 51.3503C87.9079 51.3503 88.1735 51.4774 88.3063 51.7371C88.4391 51.9912 88.5026 52.453 88.5026 53.1227C88.5026 53.7231 88.4737 54.133 88.416 54.3639C88.3582 54.5949 88.2543 54.7623 88.11 54.872C87.9657 54.9817 87.7694 55.0336 87.5154 55.0336C87.2613 55.0336 87.0593 54.9817 86.9207 54.8835C86.7822 54.7854 86.684 54.618 86.6147 54.3928C86.5455 54.1676 86.5166 53.7693 86.5166 53.2035V53.2093ZM87.9945 53.2382C87.9945 52.5569 87.9541 52.1355 87.8733 51.9738C87.7925 51.8122 87.6712 51.7314 87.5154 51.7314C87.3248 51.7314 87.1978 51.8295 87.1286 52.02C87.0593 52.2105 87.0246 52.5338 87.0246 52.9957V53.192C87.0246 53.7 87.0535 54.0695 87.1112 54.3062C87.169 54.5429 87.3017 54.6584 87.5211 54.6584C87.6539 54.6584 87.7636 54.5949 87.8617 54.4621C87.9541 54.3293 88.0061 53.9656 88.0061 53.3709V53.2382H87.9945Z" fill="white"/>
<path d="M94.3806 55.0162H93.8783L93.3183 53.3304H93.2779V55.0162H92.793V51.4253H93.4627C94.0111 51.4253 94.2824 51.7313 94.2824 52.3432C94.2824 52.6203 94.242 52.8282 94.1612 52.9725C94.0804 53.1111 93.9476 53.2207 93.7686 53.29L94.3864 55.0162H94.3806ZM93.2721 53.0014C93.4627 53.0014 93.5954 52.9552 93.682 52.8686C93.7686 52.782 93.809 52.6261 93.809 52.401C93.809 52.1758 93.7686 52.0315 93.6936 51.9391C93.6185 51.8467 93.4857 51.8005 93.301 51.8005H93.2721V53.0014Z" fill="white"/>
<path d="M100.102 51.4253L99.4035 53.4863V55.0162H98.9185V53.5094L98.2373 51.4253H98.7165L99.161 53.0418H99.1725L99.6229 51.4253H100.096H100.102Z" fill="white"/>
<path d="M110.677 53.7466C110.677 54.1623 110.608 54.4798 110.464 54.7107C110.325 54.9417 110.071 55.0514 109.719 55.0514C109.401 55.0514 109.165 54.9301 109.026 54.6992C108.882 54.4625 108.812 54.0122 108.812 53.3367C108.812 53.2559 108.818 53.0481 108.836 52.7075C108.853 52.3668 108.876 52.1359 108.911 52.0147C108.945 51.8934 108.997 51.778 109.078 51.6741C109.153 51.5701 109.251 51.4893 109.372 51.4374C109.494 51.3854 109.632 51.3623 109.788 51.3623C110.013 51.3623 110.21 51.4316 110.371 51.5644C110.533 51.7029 110.625 51.8819 110.643 52.107L110.187 52.2745C110.152 51.9281 110.019 51.7549 109.788 51.7549C109.615 51.7549 109.494 51.8472 109.424 52.0262C109.355 52.2052 109.321 52.5054 109.321 52.9153V53.1C109.321 53.3425 109.326 53.5677 109.344 53.787C109.361 54.0064 109.372 54.1681 109.384 54.2662C109.396 54.3701 109.424 54.4509 109.465 54.5087C109.505 54.5664 109.551 54.6068 109.598 54.6299C109.644 54.653 109.696 54.6588 109.759 54.6588C109.875 54.6588 109.967 54.6241 110.031 54.5491C110.094 54.4798 110.14 54.3759 110.163 54.2431C110.187 54.1103 110.198 53.8794 110.198 53.5561H109.759V53.1347H110.677V53.7408V53.7466Z" fill="white"/>
<path d="M116.445 55.0162H115.943L115.383 53.3304H115.342V55.0162H114.857V51.4253H115.527C116.076 51.4253 116.347 51.7313 116.347 52.3432C116.347 52.6203 116.306 52.8282 116.226 52.9725C116.145 53.1111 116.012 53.2207 115.833 53.29L116.451 55.0162H116.445ZM115.337 53.0014C115.521 53.0014 115.66 52.9552 115.746 52.8686C115.827 52.782 115.873 52.6261 115.873 52.401C115.873 52.1758 115.839 52.0315 115.758 51.9391C115.683 51.8467 115.55 51.8005 115.365 51.8005H115.337V53.0014Z" fill="white"/>
<path d="M120.503 53.2093C120.503 52.4299 120.578 51.9277 120.734 51.6967C120.884 51.4658 121.138 51.3503 121.49 51.3503C121.894 51.3503 122.16 51.4774 122.293 51.7371C122.425 51.9912 122.489 52.453 122.489 53.1227C122.489 53.7231 122.46 54.133 122.402 54.3639C122.345 54.5949 122.241 54.7623 122.096 54.872C121.952 54.9817 121.75 55.0336 121.502 55.0336C121.253 55.0336 121.046 54.9817 120.907 54.8835C120.768 54.7854 120.67 54.618 120.601 54.3928C120.532 54.1676 120.503 53.7693 120.503 53.2035V53.2093ZM121.981 53.2382C121.981 52.5569 121.94 52.1355 121.86 51.9738C121.779 51.8122 121.658 51.7314 121.502 51.7314C121.311 51.7314 121.184 51.8295 121.115 52.02C121.046 52.2105 121.011 52.5338 121.011 52.9957V53.192C121.011 53.7 121.04 54.0695 121.098 54.3062C121.155 54.5429 121.288 54.6584 121.507 54.6584C121.64 54.6584 121.75 54.5949 121.848 54.4621C121.94 54.3293 121.987 53.9656 121.987 53.3709V53.2382H121.981Z" fill="white"/>
<path d="M128.488 54.1679C128.488 54.7683 128.217 55.0685 127.68 55.0685C127.091 55.0685 126.797 54.7683 126.797 54.1737V51.4314H127.276V53.9716C127.276 54.2429 127.299 54.4334 127.345 54.5374C127.392 54.6413 127.495 54.6932 127.651 54.6932C127.807 54.6932 127.905 54.6413 127.946 54.5258C127.986 54.4161 128.003 54.2198 128.003 53.9427V51.4314H128.483V54.1679H128.488Z" fill="white"/>
<path d="M132.771 51.4253H133.562C134.076 51.4253 134.336 51.7659 134.336 52.4414C134.336 52.7127 134.29 52.9263 134.197 53.0822C134.105 53.2381 133.99 53.3362 133.857 53.3766C133.718 53.417 133.522 53.4401 133.256 53.4401V55.0162H132.771V51.4253ZM133.256 53.0649C133.458 53.0649 133.609 53.0245 133.695 52.9436C133.782 52.8628 133.828 52.6954 133.828 52.4414C133.828 52.1873 133.788 52.0199 133.713 51.9276C133.637 51.8352 133.482 51.7948 133.256 51.7948V53.0649Z" fill="white"/>
<path d="M73.4478 32.4612L67.7555 45.0929C66.7279 45.5316 65.7407 45.751 64.7997 45.751C63.0389 45.751 61.5783 45.2141 60.4063 44.1461C59.2402 43.078 58.6513 41.7387 58.6513 40.1395C58.6513 38.5403 59.2228 37.2471 60.3659 36.1676C61.509 35.088 62.9119 34.5511 64.5861 34.5511C65.885 34.5511 67.311 34.9321 68.8582 35.6884V33.4657C67.3572 32.8364 65.9024 32.5189 64.4937 32.5189C62.3057 32.5189 60.4352 33.2637 58.8822 34.7531C57.3293 36.2426 56.5557 38.0265 56.5557 40.1164C56.5557 42.2063 57.3466 44.0595 58.9226 45.5663C60.4987 47.0731 62.4038 47.8236 64.6265 47.8236C66.1448 47.8236 67.7209 47.4945 69.0199 46.8017L70.4112 43.7015H76.5076L78.176 47.379H80.2313L73.4478 32.4612ZM71.1444 42.0677L73.4421 36.9412L75.7629 42.0677H71.1386H71.1444Z" fill="white"/>
<path d="M82.8584 33.0146H85.745C87.3788 33.0146 88.6893 33.3957 89.6938 34.1635C90.6925 34.9313 91.1948 35.9243 91.1948 37.154C91.1948 38.3837 90.6694 39.4229 89.613 40.2542C88.5565 41.0913 86.9515 41.4954 84.8039 41.4723V47.3841H82.8642V33.0146H82.8584ZM84.7982 34.7293V39.7577C86.2703 39.7404 87.3614 39.5326 88.0715 39.1342C88.7816 38.7301 89.1396 38.0893 89.1396 37.2002C89.1396 36.5305 88.8682 35.9532 88.3313 35.4625C87.7944 34.9718 86.6167 34.7293 84.7982 34.7293Z" fill="white"/>
<path d="M105.801 32.4207L109.732 47.3847H107.81L105.431 38.24L101.338 47.9332L97.2333 38.1592L94.8201 47.3847H92.9092L96.8407 32.4207L101.338 43.1299L105.806 32.4207H105.801Z" fill="white"/>
<path d="M117.111 32.4607L123.895 47.3786H121.84L120.171 43.701H114.075L112.424 47.3786H110.38L117.106 32.4607H117.111ZM117.111 36.9464L114.814 42.073H119.432L117.111 36.9464Z" fill="white"/>
<path d="M125.146 33.0146H127.305L130.515 38.2509L133.69 33.0146H135.878L131.606 40.0579L136 47.3783H133.823L130.515 41.8591L127.172 47.3783H124.984L129.424 40.0521L125.14 33.0146H125.146Z" fill="white"/>
</svg>
