<svg width="151" height="80" viewBox="0 0 151 80" fill="none" xmlns="http://www.w3.org/2000/svg">
<path fill-rule="evenodd" clip-rule="evenodd" d="M28.7527 54.0483C37.1754 54.0483 44.0034 47.2203 44.0034 38.7976C44.0034 30.3749 37.1754 23.5469 28.7527 23.5469C20.3299 23.5469 13.502 30.3749 13.502 38.7976C13.502 47.2203 20.3299 54.0483 28.7527 54.0483ZM28.7506 47.3938C33.498 47.3938 37.3465 43.5453 37.3465 38.798C37.3465 34.0506 33.498 30.2021 28.7506 30.2021C24.0033 30.2021 20.1548 34.0506 20.1548 38.798C20.1548 43.5453 24.0033 47.3938 28.7506 47.3938Z" fill="white"/>
<circle cx="43.7279" cy="54.326" r="3.05014" fill="white"/>
<path d="M56.3344 26.9809L54.8214 26.7595V25.8369H57.3124C57.7307 25.8369 58.2596 25.8123 58.8993 25.7631C59.4898 25.7139 59.9265 25.6893 60.2094 25.6893C61.907 25.6893 63.1187 25.9538 63.8445 26.4827C64.5826 27.0117 64.9516 27.7867 64.9516 28.8077C64.9516 29.6811 64.6994 30.4315 64.1951 31.0589C63.6907 31.6862 63.0018 32.0799 62.1284 32.2398C63.3094 32.2152 64.2381 32.492 64.9147 33.0702C65.5913 33.6483 65.9296 34.4356 65.9296 35.432C65.9296 36.6745 65.4867 37.6894 64.601 38.4766C63.7276 39.2639 62.276 39.6576 60.2463 39.6576C59.8034 39.6576 59.379 39.6391 58.9731 39.6022C58.0136 39.5653 57.4416 39.5469 57.257 39.5469H54.8029V38.6427L56.3344 38.4582V26.9809ZM58.2904 31.8892C58.4626 31.9015 58.8132 31.9077 59.3421 31.9077H60.357C61.2181 31.9077 61.8701 31.6678 62.3129 31.188C62.7558 30.7083 62.9772 30.0255 62.9772 29.1398C62.9772 28.2787 62.7558 27.6514 62.3129 27.2577C61.8701 26.8518 61.1136 26.6488 60.0433 26.6488C59.6005 26.6488 59.1453 26.6734 58.6779 26.7226L58.2904 26.7595V31.8892ZM58.2904 38.5136C58.5733 38.612 59.213 38.6612 60.2094 38.6612C61.4518 38.6612 62.3499 38.409 62.9034 37.9046C63.4693 37.388 63.7522 36.6499 63.7522 35.6904C63.7522 34.7432 63.5062 34.0543 63.0141 33.6237C62.5344 33.1932 61.7532 32.9779 60.6707 32.9779C59.416 32.9779 58.6225 32.9902 58.2904 33.0148V38.5136ZM68.7633 25.7815L67.2687 25.5786V24.7851L70.2395 24.4345H70.2764L70.6823 24.7113V38.4951L72.2508 38.6427V39.5469H67.2687V38.6427L68.7633 38.4766V25.7815ZM73.561 36.779C73.561 35.6227 74.1392 34.7739 75.2955 34.2326C76.4518 33.6791 77.9157 33.3838 79.6871 33.3469V32.8303C79.6871 32.2521 79.6256 31.797 79.5026 31.4648C79.3796 31.1327 79.1643 30.8928 78.8568 30.7452C78.5616 30.5853 78.1372 30.5053 77.5836 30.5053C76.9562 30.5053 76.3903 30.5976 75.886 30.7821C75.3939 30.9543 74.9019 31.1696 74.4098 31.4279L73.9485 30.4684C74.1084 30.3331 74.4037 30.1547 74.8342 29.9333C75.2648 29.7119 75.763 29.515 76.3288 29.3428C76.8947 29.1706 77.4606 29.0845 78.0264 29.0845C78.8998 29.0845 79.5887 29.2075 80.0931 29.4535C80.6097 29.6872 80.9788 30.0686 81.2002 30.5976C81.4216 31.1265 81.5324 31.8339 81.5324 32.7196V38.6427H82.621V39.4546C82.375 39.5161 82.0613 39.5776 81.68 39.6391C81.3109 39.7006 80.9849 39.7314 80.702 39.7314C80.3576 39.7314 80.1238 39.676 80.0008 39.5653C79.8778 39.4669 79.8163 39.2393 79.8163 38.8826V38.2737C79.4473 38.6427 78.9921 38.981 78.4508 39.2885C77.9219 39.5961 77.3191 39.7498 76.6425 39.7498C75.7568 39.7498 75.0187 39.4977 74.4283 38.9933C73.8501 38.4766 73.561 37.7386 73.561 36.779ZM77.436 38.4951C77.7558 38.4951 78.1248 38.3967 78.5431 38.1999C78.9613 38.003 79.3427 37.7693 79.6871 37.4987V34.3249C78.3463 34.3249 77.3314 34.534 76.6425 34.9523C75.9659 35.3582 75.6277 35.8933 75.6277 36.5576C75.6277 37.2219 75.7876 37.714 76.1074 38.0338C76.4395 38.3413 76.8824 38.4951 77.436 38.4951ZM83.6829 34.491C83.6829 33.47 83.8797 32.5473 84.2734 31.7231C84.6793 30.8989 85.2698 30.247 86.0448 29.7672C86.8321 29.2751 87.7731 29.0291 88.868 29.0291C89.3969 29.0291 89.8521 29.0783 90.2334 29.1767C90.6148 29.2751 91.0699 29.4105 91.5989 29.5827L91.5251 32.4243H90.3257L89.9197 30.5422C89.8459 30.1978 89.3785 30.0255 88.5174 30.0255C87.6563 30.0255 86.9735 30.3761 86.4692 31.0773C85.9771 31.7662 85.7311 32.7503 85.7311 34.0297C85.7311 35.4812 86.0079 36.5884 86.5614 37.3511C87.1273 38.1015 87.8592 38.4766 88.7573 38.4766C89.2739 38.4766 89.7598 38.3967 90.215 38.2368C90.6824 38.0768 91.0822 37.8862 91.4144 37.6648L91.765 38.4028C91.4328 38.7473 90.9408 39.061 90.2888 39.3439C89.6491 39.6145 88.9971 39.7498 88.3329 39.7498C87.3241 39.7498 86.4692 39.5223 85.768 39.0671C85.0791 38.612 84.5563 37.9907 84.1996 37.2034C83.8551 36.4039 83.6829 35.4997 83.6829 34.491ZM94.3427 25.7815L92.9034 25.5786V24.7851L95.8373 24.4345H95.8557L96.2617 24.7113V33.7344L96.2248 34.8231L100.487 30.413L99.1033 30.1547V29.3059H103.569V30.1547L102.111 30.413L99.3986 33.0517L102.904 38.4951L104.049 38.6427V39.5469H99.5646V38.6427L100.727 38.4766L98.1254 34.1957L96.2248 36.0779L96.2617 37.0189V38.4766L97.5718 38.6427V39.5469H93.1802V38.6427L94.3427 38.4766V25.7815ZM54.8029 55.6427L56.3344 55.4582V43.9809L54.8952 43.741V42.8369H57.3124C57.6568 42.8369 58.1243 42.8123 58.7148 42.7631C59.3298 42.7139 59.8096 42.6893 60.154 42.6893C61.9624 42.6893 63.2479 42.9845 64.0106 43.575C64.7855 44.1531 65.173 45.0696 65.173 46.3244C65.173 47.1978 64.927 47.9974 64.435 48.7231C63.9552 49.4489 63.2909 49.941 62.4421 50.1993C62.8358 50.4084 63.1987 50.7713 63.5308 51.288C63.8752 51.7924 64.2935 52.4997 64.7855 53.41C65.1669 54.0989 65.456 54.6032 65.6528 54.9231C65.8619 55.2429 66.0587 55.4213 66.2433 55.4582L66.9629 55.6427V56.5469H64.4165C64.2197 56.5469 63.9982 56.3378 63.7522 55.9195C63.5062 55.4889 63.1802 54.8308 62.7743 53.9451C62.3314 52.9733 61.9439 52.2045 61.6118 51.6386C61.2919 51.0604 60.9721 50.6914 60.6523 50.5315C59.336 50.5315 58.5549 50.5253 58.3088 50.513V55.4582L60.1356 55.6427V56.5469H54.8029V55.6427ZM60.5046 49.535C61.2919 49.535 61.9132 49.2767 62.3683 48.76C62.8235 48.2434 63.051 47.4745 63.051 46.4535C63.051 45.5555 62.8173 44.8728 62.3499 44.4053C61.8947 43.9256 61.1013 43.6857 59.9695 43.6857C59.5759 43.6857 59.1822 43.7103 58.7886 43.7595C58.5425 43.7841 58.3826 43.7964 58.3088 43.7964V49.5166C58.4933 49.5289 58.8747 49.535 59.4529 49.535H60.5046ZM72.3159 56.7498C70.8274 56.7498 69.6896 56.2639 68.9023 55.2921C68.1273 54.3203 67.7398 53.0225 67.7398 51.3987C67.7398 50.3285 67.9427 49.3874 68.3487 48.5755C68.7546 47.7636 69.3205 47.1363 70.0463 46.6934C70.7844 46.2505 71.6209 46.0291 72.5558 46.0291C73.6998 46.0291 74.5855 46.349 75.2129 46.9886C75.8526 47.616 76.1909 48.5202 76.2278 49.7011C76.2278 50.4515 76.1847 51.0235 76.0986 51.4172H69.7511C69.7757 52.635 70.0586 53.6191 70.5999 54.3695C71.1411 55.1076 71.91 55.4766 72.9064 55.4766C73.3984 55.4766 73.909 55.3905 74.4379 55.2183C74.9792 55.0338 75.3974 54.8185 75.6927 54.5725L76.0433 55.3844C75.6865 55.7534 75.1576 56.0733 74.4564 56.3439C73.7552 56.6145 73.0417 56.7498 72.3159 56.7498ZM74.198 50.4392C74.2349 50.1809 74.2534 49.9164 74.2534 49.6458C74.2411 48.8462 74.0689 48.2188 73.7367 47.7636C73.4169 47.2962 72.9064 47.0624 72.2052 47.0624C71.4917 47.0624 70.9197 47.3208 70.4891 47.8374C70.0709 48.3541 69.831 49.2214 69.7695 50.4392H74.198ZM79.5297 55.0707C79.6527 55.2552 79.9111 55.4213 80.3047 55.5689C80.7107 55.7165 81.1351 55.7903 81.5779 55.7903C82.2791 55.7903 82.7958 55.655 83.1279 55.3844C83.46 55.1138 83.6261 54.7386 83.6261 54.2588C83.6261 53.9267 83.5215 53.6376 83.3124 53.3915C83.1033 53.1455 82.8081 52.9302 82.4267 52.7457C82.0577 52.5489 81.5226 52.3152 80.8214 52.0445C79.8742 51.6878 79.1791 51.2634 78.7363 50.7713C78.3057 50.267 78.0904 49.6088 78.0904 48.797C78.0904 48.2557 78.2504 47.7821 78.5702 47.3761C78.9023 46.9702 79.3513 46.6565 79.9172 46.4351C80.4954 46.2013 81.1351 46.0845 81.8362 46.0845C82.4021 46.0845 82.8942 46.1275 83.3124 46.2136C83.743 46.2998 84.0874 46.3859 84.3457 46.472C84.6041 46.5581 84.7763 46.6134 84.8624 46.638V48.9261H83.7368L83.3678 47.5607C83.294 47.413 83.0971 47.29 82.7773 47.1916C82.4575 47.0809 82.1007 47.0255 81.7071 47.0255C81.1535 47.0255 80.7045 47.1486 80.3601 47.3946C80.0279 47.6406 79.8619 47.9728 79.8619 48.391C79.8619 48.76 79.948 49.0676 80.1202 49.3136C80.3047 49.5473 80.5323 49.738 80.8029 49.8856C81.0735 50.0332 81.4426 50.2055 81.91 50.4023L82.2791 50.5499C82.968 50.8205 83.5277 51.0789 83.9582 51.3249C84.3888 51.5709 84.7455 51.8969 85.0285 52.3029C85.3237 52.6965 85.4713 53.1824 85.4713 53.7606C85.4713 54.6709 85.1146 55.3967 84.4011 55.938C83.6999 56.4792 82.7342 56.7498 81.5041 56.7498C80.9013 56.7498 80.2678 56.6699 79.6035 56.51C78.9515 56.3378 78.4164 56.1655 77.9982 55.9933V53.6314H79.1976L79.5297 55.0707ZM95.5256 56.7129C95.1812 56.7129 94.9228 56.6453 94.7506 56.51C94.5907 56.3747 94.5107 56.1532 94.5107 55.8457V55.2183C94.1048 55.6243 93.5943 55.981 92.9792 56.2885C92.3764 56.5961 91.7675 56.7498 91.1524 56.7498C90.0084 56.7498 89.1965 56.4423 88.7167 55.8272C88.237 55.2122 87.9971 54.1973 87.9971 52.7826V47.4315L86.9638 47.1363V46.3244L89.5471 46.0845H89.5656L89.9161 46.3059V52.635C89.9161 53.3485 89.9653 53.9082 90.0638 54.3142C90.1745 54.7078 90.359 55.003 90.6173 55.1999C90.888 55.3844 91.2755 55.4766 91.7798 55.4766C92.2719 55.4766 92.7332 55.3721 93.1637 55.163C93.5943 54.9538 93.9695 54.7078 94.2893 54.4249V47.4315L92.9608 47.1363V46.3244L95.7655 46.0845H95.7839L96.2083 46.3059V55.6058H97.3155L97.297 56.4362C96.9526 56.5223 96.6512 56.5899 96.3929 56.6391C96.1468 56.6883 95.8578 56.7129 95.5256 56.7129ZM98.7702 55.6427L99.8958 55.4766V47.7267L98.5672 47.3946V46.3982L101.206 46.066L101.538 46.3059L101.649 47.044L101.63 47.6345C102.061 47.2408 102.645 46.8841 103.383 46.5642C104.134 46.2321 104.804 46.066 105.395 46.066C106.059 46.066 106.594 46.1767 107 46.3982C107.406 46.6196 107.713 46.964 107.922 47.4315C108.316 47.0993 108.864 46.7918 109.565 46.5089C110.278 46.2136 110.942 46.066 111.558 46.066C112.32 46.066 112.917 46.2136 113.347 46.5089C113.778 46.7918 114.079 47.2408 114.252 47.8559C114.436 48.4587 114.528 49.2706 114.528 50.2916V55.4766L115.857 55.6427V56.5469H111.465V55.6427L112.609 55.4766V50.3469C112.609 49.6335 112.554 49.0676 112.443 48.6493C112.345 48.2188 112.148 47.8989 111.853 47.6898C111.57 47.4807 111.158 47.3761 110.616 47.3761C110.211 47.3761 109.78 47.4684 109.325 47.6529C108.87 47.8251 108.482 48.0343 108.162 48.2803C108.273 48.76 108.328 49.4428 108.328 50.3285V55.4766L109.639 55.6427V56.5469H105.173V55.6427L106.391 55.4766V50.31C106.391 49.5719 106.342 48.9999 106.243 48.594C106.157 48.188 105.985 47.8866 105.727 47.6898C105.468 47.4807 105.075 47.3761 104.546 47.3761C104.103 47.3761 103.629 47.4868 103.125 47.7083C102.633 47.9297 102.202 48.188 101.833 48.4833V55.4766L103.07 55.6427V56.5469H98.7702V55.6427ZM121.69 56.7498C120.201 56.7498 119.064 56.2639 118.276 55.2921C117.501 54.3203 117.114 53.0225 117.114 51.3987C117.114 50.3285 117.317 49.3874 117.723 48.5755C118.129 47.7636 118.695 47.1363 119.42 46.6934C120.158 46.2505 120.995 46.0291 121.93 46.0291C123.074 46.0291 123.96 46.349 124.587 46.9886C125.227 47.616 125.565 48.5202 125.602 49.7011C125.602 50.4515 125.559 51.0235 125.473 51.4172H119.125C119.15 52.635 119.433 53.6191 119.974 54.3695C120.515 55.1076 121.284 55.4766 122.28 55.4766C122.772 55.4766 123.283 55.3905 123.812 55.2183C124.353 55.0338 124.771 54.8185 125.067 54.5725L125.417 55.3844C125.061 55.7534 124.532 56.0733 123.83 56.3439C123.129 56.6145 122.416 56.7498 121.69 56.7498ZM123.572 50.4392C123.609 50.1809 123.627 49.9164 123.627 49.6458C123.615 48.8462 123.443 48.2188 123.111 47.7636C122.791 47.2962 122.28 47.0624 121.579 47.0624C120.866 47.0624 120.294 47.3208 119.863 47.8374C119.445 48.3541 119.205 49.2214 119.144 50.4392H123.572ZM128.904 55.0707C129.027 55.2552 129.285 55.4213 129.679 55.5689C130.085 55.7165 130.509 55.7903 130.952 55.7903C131.653 55.7903 132.17 55.655 132.502 55.3844C132.834 55.1138 133 54.7386 133 54.2588C133 53.9267 132.896 53.6376 132.686 53.3915C132.477 53.1455 132.182 52.9302 131.801 52.7457C131.432 52.5489 130.897 52.3152 130.195 52.0445C129.248 51.6878 128.553 51.2634 128.11 50.7713C127.68 50.267 127.464 49.6088 127.464 48.797C127.464 48.2557 127.624 47.7821 127.944 47.3761C128.276 46.9702 128.725 46.6565 129.291 46.4351C129.869 46.2013 130.509 46.0845 131.21 46.0845C131.776 46.0845 132.268 46.1275 132.686 46.2136C133.117 46.2998 133.461 46.3859 133.72 46.472C133.978 46.5581 134.15 46.6134 134.236 46.638V48.9261H133.111L132.742 47.5607C132.668 47.413 132.471 47.29 132.151 47.1916C131.832 47.0809 131.475 47.0255 131.081 47.0255C130.528 47.0255 130.079 47.1486 129.734 47.3946C129.402 47.6406 129.236 47.9728 129.236 48.391C129.236 48.76 129.322 49.0676 129.494 49.3136C129.679 49.5473 129.906 49.738 130.177 49.8856C130.448 50.0332 130.817 50.2055 131.284 50.4023L131.653 50.5499C132.342 50.8205 132.902 51.0789 133.332 51.3249C133.763 51.5709 134.12 51.8969 134.403 52.3029C134.698 52.6965 134.845 53.1824 134.845 53.7606C134.845 54.6709 134.489 55.3967 133.775 55.938C133.074 56.4792 132.108 56.7498 130.878 56.7498C130.275 56.7498 129.642 56.6699 128.978 56.51C128.326 56.3378 127.79 56.1655 127.372 55.9933V53.6314H128.572L128.904 55.0707Z" fill="white"/>
</svg>
