<svg width="150" height="80" viewBox="0 0 150 80" fill="none" xmlns="http://www.w3.org/2000/svg">
<g clip-path="url(#clip0_1488_20492)">
<path fill-rule="evenodd" clip-rule="evenodd" d="M18.893 46.7291C17.6596 46.7291 16.6219 46.4585 15.7799 45.9174C14.9379 45.3762 14.3449 44.6401 14.001 43.7091L16.1001 42.5046C16.5863 43.7498 17.541 44.3725 18.9642 44.3725C19.652 44.3725 20.156 44.2503 20.4763 44.0059C20.7965 43.7615 20.9566 43.4531 20.9566 43.0807C20.9566 42.6501 20.7609 42.3155 20.3695 42.0769C19.9782 41.8384 19.2785 41.5794 18.2704 41.3001C17.713 41.1372 17.2416 40.9743 16.8561 40.8113C16.4707 40.6484 16.0853 40.4302 15.6998 40.1567C15.3144 39.8832 15.0209 39.537 14.8193 39.1181C14.6177 38.6991 14.5169 38.2103 14.5169 37.6517C14.5169 36.5461 14.9171 35.6646 15.7176 35.007C16.5182 34.3495 17.4817 34.0208 18.6084 34.0208C19.6164 34.0208 20.5029 34.2622 21.2679 34.7452C22.0328 35.2282 22.6288 35.9002 23.0557 36.7614L20.9921 37.931C20.494 36.8836 19.6995 36.3599 18.6084 36.3599C18.0984 36.3599 17.6982 36.4734 17.4076 36.7003C17.1171 36.9273 16.9718 37.2211 16.9718 37.5819C16.9718 37.9659 17.1348 38.2772 17.461 38.5158C17.7871 38.7544 18.4127 39.0133 19.3377 39.2926C19.7173 39.409 20.0048 39.4992 20.2005 39.5632C20.3962 39.6272 20.663 39.7261 21.001 39.86C21.339 39.9938 21.5999 40.1189 21.7838 40.2353C21.9676 40.3516 22.1781 40.5088 22.4153 40.7066C22.6525 40.9044 22.8333 41.1081 22.9579 41.3176C23.0824 41.527 23.1891 41.7802 23.2781 42.0769C23.367 42.3737 23.4115 42.6966 23.4115 43.0458C23.4115 44.1746 22.9934 45.0707 22.1573 45.7341C21.3212 46.3974 20.2331 46.7291 18.893 46.7291ZM34.6416 46.7291C32.7678 46.7291 31.2201 46.1181 29.9986 44.8962C28.777 43.6742 28.1663 42.1671 28.1663 40.3749C28.1663 38.5711 28.777 37.0611 29.9986 35.845C31.2201 34.6288 32.7678 34.0208 34.6416 34.0208C35.7682 34.0208 36.8089 34.2797 37.7636 34.7976C38.7183 35.3154 39.4624 36.0166 39.9961 36.9011L37.8792 38.1056C37.5709 37.5586 37.1321 37.1309 36.5628 36.8225C35.9935 36.5141 35.3531 36.3599 34.6416 36.3599C33.4319 36.3599 32.4565 36.7323 31.7152 37.4771C30.974 38.222 30.6034 39.1879 30.6034 40.3749C30.6034 41.5503 30.974 42.5104 31.7152 43.2552C32.4565 44.0001 33.4319 44.3725 34.6416 44.3725C35.3531 44.3725 35.9965 44.2183 36.5717 43.9099C37.1469 43.6015 37.5827 43.1796 37.8792 42.6443L39.9961 43.8488C39.4624 44.7332 38.7212 45.4344 37.7725 45.9523C36.8237 46.4701 35.7801 46.7291 34.6416 46.7291ZM55.6735 44.8962C54.4164 46.1181 52.8865 46.7291 51.0839 46.7291C49.2812 46.7291 47.7544 46.1152 46.5032 44.8874C45.252 43.6596 44.6264 42.1555 44.6264 40.3749C44.6264 38.5943 45.252 37.0902 46.5032 35.8624C47.7544 34.6346 49.2812 34.0208 51.0839 34.0208C52.8865 34.0208 54.4164 34.6346 55.6735 35.8624C56.9306 37.0902 57.5592 38.5943 57.5592 40.3749C57.5592 42.1555 56.9306 43.6626 55.6735 44.8962ZM48.2198 43.2552C48.9907 44.0001 49.9454 44.3725 51.0839 44.3725C52.2224 44.3725 53.1771 43.9971 53.948 43.2465C54.7188 42.4959 55.1043 41.5387 55.1043 40.3749C55.1043 39.2111 54.7188 38.251 53.948 37.4946C53.1771 36.7381 52.2224 36.3599 51.0839 36.3599C49.9454 36.3599 48.9907 36.7381 48.2198 37.4946C47.449 38.251 47.0635 39.2111 47.0635 40.3749C47.0635 41.5387 47.449 42.4988 48.2198 43.2552ZM65.2136 44.1804H70.497V46.4847H62.0827V44.5645L67.2594 36.5694H62.2072V34.2651H70.3903V36.1679L65.2136 44.1804ZM78.5428 44.1804H83.8262V46.4847H75.4119V44.5645L80.5886 36.5694H75.5365V34.2651H83.7195V36.1679L78.5428 44.1804ZM91.712 44.1804H96.9598V46.4847H89.257V34.2651H96.8708V36.5694H91.712V39.1704H96.4261V41.4398H91.712V44.1804ZM106.749 46.7291C105.516 46.7291 104.478 46.4585 103.636 45.9174C102.794 45.3762 102.201 44.6401 101.857 43.7091L103.956 42.5046C104.442 43.7498 105.397 44.3725 106.82 44.3725C107.508 44.3725 108.012 44.2503 108.332 44.0059C108.652 43.7615 108.812 43.4531 108.812 43.0807C108.812 42.6501 108.617 42.3155 108.225 42.0769C107.834 41.8384 107.134 41.5794 106.126 41.3001C105.569 41.1372 105.098 40.9743 104.712 40.8113C104.327 40.6484 103.941 40.4302 103.556 40.1567C103.17 39.8832 102.877 39.537 102.675 39.1181C102.474 38.6991 102.373 38.2103 102.373 37.6517C102.373 36.5461 102.773 35.6646 103.574 35.007C104.374 34.3495 105.338 34.0208 106.464 34.0208C107.472 34.0208 108.359 34.2622 109.124 34.7452C109.889 35.2282 110.485 35.9002 110.912 36.7614L108.848 37.931C108.35 36.8836 107.555 36.3599 106.464 36.3599C105.954 36.3599 105.554 36.4734 105.264 36.7003C104.973 36.9273 104.828 37.2211 104.828 37.5819C104.828 37.9659 104.991 38.2772 105.317 38.5158C105.643 38.7544 106.269 39.0133 107.194 39.2926C107.573 39.409 107.861 39.4992 108.056 39.5632C108.252 39.6272 108.519 39.7261 108.857 39.86C109.195 39.9938 109.456 40.1189 109.64 40.2353C109.824 40.3516 110.034 40.5088 110.271 40.7066C110.508 40.9044 110.689 41.1081 110.814 41.3176C110.938 41.527 111.045 41.7802 111.134 42.0769C111.223 42.3737 111.267 42.6966 111.267 43.0458C111.267 44.1746 110.849 45.0707 110.013 45.7341C109.177 46.3974 108.089 46.7291 106.749 46.7291ZM119.046 44.1804H124.294V46.4847H116.591V34.2651H124.205V36.5694H119.046V39.1704H123.761V41.4398H119.046V44.1804ZM135.406 34.021H136.001V37.5848H135.416V35.2481H135.385L134.275 37.5848H133.792L132.682 35.2481H132.652V37.5848H132.067V34.021H132.662L134.003 36.8228H134.065L135.406 34.021ZM129 34.5751V34.0209H131.482V34.5751H130.543V37.5847H129.938V34.5751H129Z" fill="white"/>
</g>
<defs>
<clipPath id="clip0_1488_20492">
<rect width="122" height="15.25" fill="white" transform="translate(14.001 32.75)"/>
</clipPath>
</defs>
</svg>
