<svg width="151" height="80" viewBox="0 0 151 80" fill="none" xmlns="http://www.w3.org/2000/svg">
<path d="M103.778 47.5546V45.3217V43.0889H108.249V47.5546H111.028L110.967 51.2357L108.249 51.2961V62.0379H103.778V51.2961H100.999V47.5546H103.778Z" fill="white"/>
<path d="M115.378 47.6632C115.74 47.5184 116.417 47.3373 116.888 47.2528C117.36 47.1683 118.036 47.0839 118.399 47.0839C118.761 47.0839 119.438 47.1563 119.909 47.2528C120.381 47.3494 121.081 47.5908 121.48 47.7718C121.879 47.9649 122.398 48.2787 122.628 48.4839C122.858 48.677 123.22 49.1115 123.438 49.4374C123.655 49.7633 123.909 50.3547 124.018 50.753C124.114 51.1513 124.199 51.5978 124.199 51.7547C124.199 52.0203 124.199 52.0203 119.97 52.0203L119.897 51.5737C119.849 51.2719 119.692 50.9944 119.438 50.7771C119.22 50.584 118.858 50.415 118.58 50.3788C118.314 50.3305 117.903 50.3667 117.674 50.4392C117.444 50.4995 117.13 50.6926 116.985 50.8374C116.84 50.9943 116.695 51.284 116.647 51.4771C116.59 51.7185 116.627 51.9317 116.755 52.1168C116.864 52.2616 117.07 52.4668 117.227 52.5634C117.372 52.6599 118.447 52.9496 119.607 53.2151C120.767 53.4807 121.963 53.7945 122.266 53.9272C122.568 54.06 123.039 54.3376 123.329 54.5428C123.667 54.7922 123.949 55.1462 124.175 55.6049C124.465 56.2204 124.501 56.4497 124.501 57.4515C124.501 58.4533 124.453 58.6826 124.163 59.2981C123.981 59.6723 123.595 60.2395 123.305 60.5533C123.015 60.8792 122.459 61.3017 122.072 61.5189C121.673 61.7362 120.924 62.0137 120.393 62.1465C119.728 62.3155 119.027 62.4 118.157 62.4C117.239 62.4 116.635 62.3276 115.982 62.1465C115.487 62.0137 114.75 61.7241 114.363 61.5189C113.964 61.3017 113.42 60.8913 113.155 60.5896C112.877 60.2878 112.526 59.7688 112.369 59.443C112.212 59.105 112.055 58.5981 112.007 58.2964C111.958 57.9946 111.934 57.6808 111.958 57.6084C111.982 57.4877 112.514 57.4515 114.109 57.4515C116.224 57.4515 116.224 57.4515 116.224 57.717C116.212 57.8739 116.345 58.1515 116.49 58.3446C116.647 58.5378 116.949 58.7671 117.166 58.8636C117.372 58.9481 117.903 59.0205 118.338 59.0205C118.773 59.0205 119.269 58.9602 119.462 58.8878C119.643 58.8153 119.909 58.6464 120.066 58.5015C120.236 58.3446 120.332 58.0912 120.332 57.8739C120.332 57.6808 120.272 57.4274 120.187 57.3308C120.103 57.2222 119.946 57.0773 119.849 56.9929C119.752 56.9204 118.689 56.6428 117.493 56.3773C116.175 56.0756 115.028 55.7497 114.593 55.5325C114.194 55.3393 113.638 54.929 113.36 54.6273C113.022 54.2652 112.78 53.8548 112.659 53.4444C112.562 53.0944 112.478 52.3944 112.478 51.8996C112.478 51.4047 112.562 50.7288 112.671 50.3909C112.768 50.065 113.022 49.5581 113.215 49.2805C113.408 48.9908 113.819 48.5684 114.133 48.3391C114.46 48.1098 115.015 47.808 115.378 47.6632Z" fill="white"/>
<path d="M27.9539 55.1583C26.9147 51.9358 25.9481 48.9063 25.791 48.4236L25.501 47.5546L30.2377 47.6149L30.866 49.8478C31.2165 51.0788 31.6756 52.8168 31.8811 53.71C32.0865 54.6031 32.304 55.5325 32.3523 55.7618C32.4248 56.1601 32.4611 56.0997 32.7027 55.0376C32.8598 54.41 33.4277 52.4668 34.9623 47.5546L39.542 47.6149L40.1341 49.6064C40.4603 50.7047 40.9799 52.6358 41.8741 56.1842L42.1399 55.098C42.2849 54.5066 42.8166 52.5634 44.2666 47.5546H46.5987C47.8675 47.5546 48.9188 47.5908 48.9188 47.6511C48.9188 47.6994 47.795 50.9581 43.9041 62.0379H39.7957L38.7928 58.755C38.2491 56.9446 37.6811 54.929 37.524 54.2772C37.379 53.6376 37.234 53.1065 37.1978 53.1065C37.1615 53.1065 36.9924 53.6858 36.799 54.3979C36.6178 55.1221 36.0378 57.1015 35.5061 58.8153C34.9744 60.5171 34.5394 61.9413 34.5394 61.9775C34.5394 62.0137 33.5607 62.0379 30.1894 62.0379L30.0081 61.531C29.9114 61.2413 28.981 58.3808 27.9539 55.1583Z" fill="white"/>
<path d="M84.9759 58.2843C84.8551 57.705 84.8188 56.2566 84.8188 52.5272V47.5425H89.2897L89.3501 56.5342L89.6522 57.1377C89.8335 57.4998 90.1235 57.8498 90.4255 58.0429C90.8122 58.2964 91.0539 58.3567 91.8151 58.3688C92.4677 58.3929 92.8664 58.3326 93.2168 58.1877C93.4827 58.067 93.8089 57.8136 93.9539 57.6205C94.0989 57.4274 94.3043 56.9687 94.401 56.5946C94.5702 56.0394 94.6064 55.2549 94.6064 47.5425H99.0773V62.0258H94.8481L94.6064 60.4568L94.0627 60.9396C93.7606 61.2051 93.2531 61.5551 92.9389 61.712C92.6247 61.8689 92.0568 62.0862 91.6701 62.1948C91.2835 62.3034 90.5585 62.3879 90.0389 62.3879C89.4105 62.4 88.8668 62.3155 88.3834 62.1465C87.9847 62.0137 87.4409 61.7724 87.1751 61.6155C86.9093 61.4586 86.4863 61.1085 86.2326 60.8309C85.9788 60.5654 85.6405 60.0585 85.4592 59.7085C85.2901 59.3585 85.0726 58.7188 84.9759 58.2843Z" fill="white"/>
<path d="M105.832 19.0587C106.327 18.938 107.112 18.7811 107.584 18.7208C108.055 18.6725 108.599 18.6122 108.792 18.6001C108.985 18.6001 109.614 18.6484 110.182 18.7208C110.749 18.7811 111.692 19.0105 112.296 19.2036C112.9 19.4088 113.734 19.7708 114.169 20.0122C114.604 20.2536 115.353 20.7726 115.837 21.1467C116.308 21.533 116.864 22.0761 117.057 22.3658C117.238 22.6434 117.601 23.283 117.855 23.7779C118.108 24.2727 118.447 25.0693 118.604 25.528C118.761 25.9866 118.966 26.8073 119.063 27.3384C119.172 27.8694 119.244 28.8229 119.244 29.4505C119.244 30.0781 119.184 30.923 119.123 31.3213C119.051 31.7196 118.858 32.4558 118.7 32.9507C118.531 33.4455 118.181 34.2059 117.903 34.6404C117.625 35.0749 116.985 35.8353 116.477 36.3422C115.97 36.8491 115.184 37.5008 114.713 37.8026C114.242 38.1043 112.683 38.9733 111.245 39.7458C109.795 40.5303 108.635 41.2062 108.671 41.2786C108.707 41.351 108.671 41.3993 108.611 41.3993C108.55 41.3993 108.188 41.5079 107.825 41.6407C107.427 41.7855 107.161 41.9545 107.161 42.0631C107.161 42.1596 107.04 42.2803 106.895 42.3286C106.738 42.3769 106.315 42.5579 105.952 42.751C105.433 43.0045 105.119 43.089 103.777 43.089V43.789C103.777 44.4046 103.741 44.5011 103.451 44.7304C103.258 44.8632 102.944 45.0684 102.75 45.1649C102.557 45.2736 102.255 45.3943 102.086 45.4425C101.832 45.527 101.796 45.515 101.88 45.346C101.941 45.2011 101.904 45.1408 101.784 45.1408C101.687 45.1408 101.469 45.2132 101.3 45.2977C101.131 45.3701 100.914 45.6477 100.817 45.9012C100.72 46.1426 100.563 46.384 100.491 46.4322C100.406 46.4805 99.0768 46.5046 97.5543 46.4926C96.0197 46.4684 94.2918 46.5167 93.6876 46.5891C92.9263 46.6857 92.588 46.6857 92.5759 46.6012C92.5518 46.5288 92.4551 46.4684 92.3584 46.4684C92.2618 46.4684 92.153 46.4202 92.1168 46.3477C92.0805 46.2753 92.2376 46.1184 92.4551 45.9857C92.6605 45.8529 93.023 45.7443 93.6272 45.7443L93.1197 45.1649C92.8297 44.8511 92.4913 44.3684 92.3584 44.1149C92.1651 43.7166 92.1168 43.3907 92.1168 41.0975L92.8659 39.5285C93.2888 38.6595 93.6997 37.6457 93.7722 37.2595C93.893 36.7405 93.893 36.5111 93.7964 36.3542C93.7239 36.2456 93.5668 36.1008 93.4701 36.0284C93.3372 35.9439 93.2164 35.968 93.0351 36.1249C92.7934 36.318 92.7572 36.318 92.3947 36.1249C92.1772 36.0163 91.7301 35.6784 91.3917 35.3645C91.0655 35.0507 90.6546 34.7249 90.4855 34.6404C90.3163 34.568 90.0626 34.5318 89.9176 34.568C89.7121 34.6162 89.6155 34.7611 89.555 35.1352C89.4946 35.4128 89.4221 35.6542 89.3738 35.6784C89.3134 35.7025 89.2046 35.6421 89.1321 35.5456C89.0475 35.437 88.9388 35.3525 88.8905 35.3645C88.83 35.3645 88.7938 35.4611 88.7938 35.5818C88.8059 35.7628 88.7817 35.7628 88.54 35.5456C88.395 35.4128 88.2379 35.1835 88.1775 35.0387C88.105 34.8576 88.1292 34.568 88.25 34.1938C88.3467 33.8679 88.5763 33.4696 88.7575 33.2886C88.9388 33.1076 89.2409 32.9024 89.4342 32.842C89.6155 32.7696 89.9055 32.7093 90.4251 32.7093L90.3767 31.6472C90.3526 30.8626 90.3888 30.4764 90.5338 30.1143C90.6426 29.8488 90.7271 29.6195 90.7271 29.6074C90.7271 29.5833 90.6063 29.6074 90.4613 29.6678C90.2317 29.7402 90.2076 29.7281 90.3042 29.4505C90.3526 29.2816 90.4734 29.004 90.558 28.8229C90.6546 28.6298 90.9205 28.2677 91.1501 28.0022C91.3797 27.7367 91.5488 27.4711 91.5126 27.3987C91.4763 27.3263 91.1984 27.2901 90.8842 27.3022C90.558 27.3142 90.0021 27.2177 89.6396 27.097C89.2288 26.9522 88.7817 26.6866 88.4796 26.3849C88.0929 26.0107 87.96 25.7573 87.8029 24.8038L89.1805 23.5003C89.9296 22.7761 90.8722 21.9795 91.2709 21.714C91.6697 21.4606 92.2738 21.183 92.6001 21.1105C92.9384 21.0261 93.4943 20.9898 93.8447 21.014C94.4368 21.0623 94.5093 21.0381 94.6543 20.7605C94.7389 20.5916 94.908 20.3743 95.0289 20.2777C95.1497 20.1812 95.8022 19.8795 96.491 19.6139C97.1797 19.3484 97.7718 19.1553 97.796 19.1915C97.8322 19.2277 97.8564 19.3846 97.8564 19.5536C97.8564 19.7226 97.9168 20.1571 98.0014 20.5191C98.0739 20.8933 98.0981 21.3399 98.0497 21.545C97.9893 21.7502 97.7718 22.0882 97.1314 22.6916L97.3731 23.3313C97.506 23.6693 97.6631 24.2003 97.7235 24.5021C97.796 24.8038 98.231 25.7814 98.7143 26.6746C99.1977 27.5677 100.007 29.004 100.527 29.873C101.046 30.742 101.687 31.7196 101.965 32.0455C102.231 32.3834 102.811 33.1076 103.234 33.6748C103.656 34.2421 104.224 35.1352 104.49 35.6663C104.756 36.1973 105.058 36.9577 105.155 37.356C105.264 37.7543 105.348 38.2733 105.336 38.925L105.687 38.4423C105.88 38.1767 106.351 37.6577 106.75 37.2957C107.137 36.9336 107.813 36.4146 108.236 36.1491C108.671 35.8835 109.336 35.3645 109.722 35.0025C110.182 34.58 110.568 34.0731 110.798 33.6145C110.991 33.2162 111.233 32.48 111.342 31.9851C111.487 31.3213 111.511 30.742 111.462 29.8126C111.402 28.8108 111.329 28.4126 111.088 27.8815C110.907 27.5194 110.604 27.0366 110.387 26.8073C110.169 26.5901 109.783 26.3004 109.517 26.1797C109.215 26.0349 108.756 25.9504 108.309 25.9504C107.837 25.9504 107.402 26.0349 107.076 26.1918C106.786 26.3245 106.46 26.578 106.351 26.759C106.23 26.9401 106.134 27.278 106.146 27.5194C106.146 27.7487 106.267 28.147 106.412 28.4005C106.557 28.6419 106.677 28.9315 106.677 29.0281C106.677 29.1247 106.593 29.2091 106.496 29.2091C106.399 29.2091 105.989 29.0522 105.59 28.8471C105.022 28.5695 104.865 28.5212 104.865 28.666C104.865 28.8108 104.816 28.8229 104.623 28.7264C104.49 28.6539 103.971 28.2074 103.463 27.7367C102.811 27.1091 102.436 26.6263 102.17 26.0711C101.832 25.3831 101.784 25.1659 101.784 24.2607C101.784 23.3192 101.82 23.1744 102.206 22.4502C102.436 22.0278 102.968 21.3157 103.391 20.8812C103.801 20.4467 104.14 20.0846 104.14 20.0726C104.14 20.0484 104.055 20.0364 103.959 20.0364C103.862 20.0364 103.777 19.9881 103.777 19.9157C103.777 19.8553 104.031 19.6863 104.345 19.5415C104.671 19.4088 105.336 19.1915 105.832 19.0587Z" fill="#757575"/>
<path d="M50.4891 44.7787V42.6666V40.5544L64.4456 40.6148L64.506 44.3563L62.2826 46.2874C61.0501 47.3495 60.0472 48.2547 60.0472 48.303C60.0351 48.3633 60.1076 48.3995 60.1801 48.3995C60.2647 48.3995 60.7964 48.6289 61.3643 48.9065C62.1014 49.2685 62.621 49.6427 63.1768 50.21C63.6118 50.6445 64.1314 51.3204 64.3489 51.7186C64.5543 52.1169 64.8202 52.7687 64.941 53.167C65.0981 53.6739 65.1585 54.2894 65.1464 55.2188C65.1464 56.2688 65.086 56.7154 64.8806 57.3309C64.7235 57.7654 64.4335 58.4172 64.2281 58.7793C64.0226 59.1413 63.5151 59.769 63.1164 60.1673C62.6572 60.6259 62.0289 61.0845 61.4247 61.3983C60.893 61.6759 59.9988 62.0139 59.4309 62.1466C58.7422 62.3156 58.0051 62.4001 57.1955 62.4001C56.5309 62.4001 55.6005 62.3156 55.1413 62.2191C54.6821 62.1225 53.8363 61.8087 53.2683 61.5311C52.5433 61.1811 52.0237 60.8069 51.5162 60.3C51.1054 59.8776 50.5979 59.1896 50.3441 58.7189C50.1025 58.2482 49.8125 57.524 49.7158 57.0895C49.607 56.655 49.5225 56.0154 49.5225 55.0377H51.8183C54.1021 55.0377 54.1142 55.0377 54.1625 55.3033C54.1988 55.4602 54.2471 55.774 54.2834 56.0033C54.3196 56.2326 54.5009 56.6671 54.6942 56.9688C54.9359 57.3551 55.2138 57.6085 55.685 57.8499C56.2288 58.1154 56.5067 58.1758 57.2196 58.1758C57.7392 58.1758 58.2951 58.1034 58.5488 57.9948C58.8026 57.8861 59.2134 57.5965 59.4672 57.3551C59.733 57.0895 59.9988 56.6671 60.1076 56.305C60.2445 55.9027 60.2969 55.4159 60.2647 54.8446C60.2284 54.1567 60.1438 53.8791 59.8538 53.3963C59.5638 52.9377 59.3343 52.7325 58.7663 52.4428C58.0655 52.0928 57.9809 52.0807 53.6913 51.96L53.6308 49.003L58.3917 44.8391L50.4891 44.7787Z" fill="#757575"/>
<path d="M73.7501 47.6512C74.1488 47.4702 74.7772 47.265 75.1397 47.2047C75.5022 47.1443 75.9976 47.0961 76.2272 47.084C76.4568 47.084 77.0005 47.1323 77.4355 47.2047C77.8705 47.265 78.5472 47.4702 78.946 47.6633C79.3447 47.8444 79.9127 48.2427 80.2147 48.5444C80.5168 48.8341 80.9156 49.4013 81.1089 49.7996C81.3023 50.1858 81.5318 50.8617 81.6164 51.2962C81.7373 51.8876 81.7856 53.348 81.7856 62.038H77.3147L77.2905 57.5361C77.2543 53.2032 77.2422 53.0342 76.9885 52.5635C76.8555 52.298 76.6018 51.96 76.4447 51.8152C76.2997 51.6704 75.9614 51.4652 75.7197 51.3686C75.4659 51.26 75.0309 51.1755 74.753 51.1755C74.463 51.1755 74.028 51.2479 73.7622 51.3324C73.5084 51.4048 73.1097 51.6342 72.868 51.8393C72.6384 52.0325 72.3363 52.4187 72.1913 52.6842C71.9496 53.1428 71.9376 53.3601 71.8771 62.038H67.4062V47.5547H71.6355L71.9376 48.991L72.4813 48.484C72.7834 48.2185 73.3513 47.8323 73.7501 47.6512Z" fill="white"/>
</svg>
