<svg width="151" height="80" viewBox="0 0 151 80" fill="none" xmlns="http://www.w3.org/2000/svg">
<path d="M18.5472 49.5454H14.1351V32.784H18.5472V49.5454ZM32.533 49.5454L25.8565 39.087V49.5454H21.8179V32.784H26.5568L32.7431 42.472V32.784H36.7818V49.5454H32.533ZM55.1598 32.784L49.1836 49.5454H44.3746L38.4451 32.784H43.2307L46.9192 44.3862L50.7244 32.784H55.1598ZM68.6711 45.7169V49.5454H56.812V32.784H68.5077V36.6125H61.2242V39.017H67.8307V42.8455H61.2242V45.7169H68.6711ZM75.6094 49.5454H71.1972V32.784H78.0606C82.5894 32.784 85.1807 34.8149 85.1807 38.3867C85.1807 40.5344 83.8967 42.3086 81.6323 43.2657L85.7409 49.5454H80.4884L77.0567 43.966H75.6094V49.5454ZM75.6094 36.4257V40.3243H77.8738C79.8348 40.3243 80.7452 39.7173 80.7452 38.3867C80.7452 37.056 79.8348 36.4257 77.8738 36.4257H75.6094ZM100.728 49.5454H87.0718V46.0204L95.079 36.5891H86.9784V32.784H100.495V36.379L92.441 45.7402H100.728V49.5454ZM110.68 49.8956C105.847 49.8956 102.042 46.2305 102.042 41.1413C102.042 36.0522 105.847 32.4338 110.68 32.4338C115.535 32.4338 119.34 36.0522 119.34 41.1413C119.34 46.2305 115.535 49.8956 110.68 49.8956ZM110.68 45.9503C113.318 45.9503 114.788 43.7793 114.788 41.1413C114.788 38.5034 113.318 36.379 110.68 36.379C108.042 36.379 106.571 38.5034 106.571 41.1413C106.571 43.7793 108.042 45.9503 110.68 45.9503ZM132.34 49.5454L125.664 39.087V49.5454H121.625V32.784H126.364L132.551 42.472V32.784H136.589V49.5454H132.34Z" fill="white"/>
</svg>
