<svg width="151" height="80" viewBox="0 0 151 80" fill="none" xmlns="http://www.w3.org/2000/svg">
<path fill-rule="evenodd" clip-rule="evenodd" d="M109.435 36.7329H113.727L113.843 37.1396C113.904 37.3569 114.042 37.8305 114.152 38.1815C114.257 38.5325 114.439 39.1231 114.561 39.4908C114.682 39.8585 114.948 40.7221 115.158 41.413C115.362 42.1039 115.715 43.2572 115.931 43.9759C116.152 44.6946 116.389 45.4579 116.461 45.6752C116.533 45.8925 116.759 46.6168 116.964 47.291C117.163 47.9651 117.378 48.6448 117.433 48.7953C117.494 48.9513 117.66 49.4861 117.815 49.9932C117.964 50.5002 118.091 50.9459 118.091 50.9849C118.091 51.035 117.715 51.0462 114.649 51.0239L114.572 50.801C114.528 50.6785 114.401 50.2494 114.285 49.8539C114.169 49.4583 113.953 48.734 113.533 47.3745H111.506C109.926 47.3745 109.468 47.3913 109.451 47.447C109.44 47.4804 109.313 47.9373 109.17 48.461C109.031 48.9847 108.81 49.7703 108.446 51.0239L106.778 51.0406C105.861 51.0462 105.109 51.0406 105.109 51.0239C105.109 51.0072 105.22 50.6116 105.358 50.1436C105.496 49.6812 105.645 49.202 105.689 49.0906C105.734 48.9736 105.977 48.2103 106.22 47.3857C106.468 46.5667 106.894 45.1738 107.159 44.2823C107.429 43.3965 107.838 42.0426 108.07 41.2737C108.297 40.5104 108.578 39.58 108.7 39.2122C108.816 38.8445 109.031 38.1369 109.175 37.6411L109.435 36.7329ZM110.766 42.0537C110.661 42.4214 110.451 43.1736 110.302 43.7252C110.147 44.2712 110.009 44.7671 109.998 44.8228C109.97 44.9119 110.07 44.9231 111.49 44.9231C112.666 44.9231 113.009 44.9063 113.009 44.8506C113.009 44.8116 112.898 44.4049 112.76 43.948C112.628 43.4856 112.429 42.8115 112.318 42.4437C112.208 42.0704 111.97 41.1957 111.788 40.4937C111.606 39.7861 111.451 39.2067 111.445 39.2011C111.44 39.19 111.324 39.6803 111.191 40.2875C111.059 40.8893 110.865 41.6804 110.766 42.0537ZM125.769 40.4101C126.128 40.4101 126.432 40.4436 126.736 40.5216C126.979 40.5828 127.327 40.7054 127.509 40.7946C127.691 40.8781 127.979 41.0453 128.15 41.1678C128.316 41.2849 128.614 41.5579 128.802 41.7751C129.05 42.0537 129.238 42.3379 129.448 42.778C129.608 43.1123 129.802 43.6249 129.873 43.9202C129.951 44.2099 130.039 44.7225 130.078 45.0624C130.116 45.4245 130.128 45.8647 130.105 46.1488C130.083 46.4051 130.034 46.8341 129.989 47.096C129.945 47.3523 129.857 47.7311 129.791 47.9317C129.73 48.1267 129.548 48.539 129.393 48.8398C129.238 49.1463 129.001 49.5307 128.863 49.6979C128.724 49.8706 128.415 50.1603 128.172 50.3497C127.929 50.5392 127.542 50.7676 127.316 50.8679C127.089 50.9626 126.741 51.0852 126.542 51.1409C126.294 51.2078 125.973 51.2412 125.493 51.2412C125.09 51.2412 124.675 51.2133 124.499 51.1687C124.333 51.1297 123.996 50.996 123.753 50.879C123.449 50.7342 123.228 50.5782 123.046 50.3832C122.902 50.2272 122.77 50.1213 122.759 50.1436C122.742 50.1659 122.725 51.3303 122.731 55.2861H119.527L119.505 48.1657C119.488 44.2489 119.466 40.9561 119.417 40.6274L120.798 40.633C121.554 40.633 122.19 40.6497 122.201 40.672C122.217 40.6943 122.256 40.9673 122.283 41.2737C122.317 41.5801 122.361 41.8921 122.372 41.9701C122.405 42.0983 122.416 42.0927 122.665 41.803C122.808 41.6303 123.013 41.413 123.118 41.3127C123.223 41.218 123.51 41.0341 123.753 40.9116C123.996 40.789 124.432 40.6274 124.72 40.555C125.09 40.4547 125.399 40.4157 125.769 40.4101ZM123.78 43.2572C123.642 43.3352 123.432 43.5135 123.311 43.6472C123.195 43.7809 123.035 44.026 122.952 44.1988C122.814 44.4996 122.814 44.5163 122.814 45.9259V47.3467C123.09 47.9261 123.245 48.1378 123.372 48.2437C123.488 48.3384 123.687 48.4721 123.808 48.5334C123.93 48.6003 124.178 48.6838 124.36 48.7173C124.615 48.7674 124.775 48.7674 125.051 48.7173C125.25 48.6838 125.532 48.5891 125.686 48.5111C125.835 48.4331 126.056 48.2604 126.178 48.1323C126.299 48.0041 126.46 47.7478 126.542 47.5695C126.625 47.3857 126.725 47.096 126.769 46.9288C126.819 46.7394 126.846 46.3215 126.846 45.8424C126.846 45.1794 126.824 44.9955 126.714 44.6445C126.642 44.4105 126.548 44.1486 126.498 44.0595C126.454 43.9648 126.288 43.753 126.134 43.5915C125.979 43.4243 125.764 43.246 125.659 43.1959C125.554 43.1402 125.333 43.0677 125.173 43.0343C125.012 43.0009 124.802 42.973 124.703 42.973C124.604 42.9786 124.416 43.0065 124.278 43.0455C124.14 43.0845 123.919 43.1792 123.78 43.2572ZM138.143 40.4101C138.552 40.4101 138.778 40.438 139.165 40.555C139.435 40.633 139.8 40.7667 139.966 40.8447C140.131 40.9283 140.391 41.0843 140.546 41.1957C140.695 41.3071 140.96 41.5411 141.126 41.725C141.292 41.9033 141.557 42.2654 141.711 42.5273C141.861 42.7836 142.043 43.1513 142.115 43.3352C142.181 43.519 142.286 43.87 142.347 44.1152C142.424 44.4216 142.468 44.8339 142.49 45.4802C142.512 46.2045 142.501 46.5221 142.424 46.9845C142.374 47.3021 142.269 47.7534 142.192 47.9874C142.115 48.2158 141.954 48.578 141.827 48.7953C141.7 49.007 141.551 49.2577 141.485 49.3524C141.424 49.4471 141.314 49.5976 141.236 49.6867C141.159 49.7759 140.921 50.0043 140.712 50.1937C140.496 50.3832 140.12 50.6339 139.866 50.762C139.618 50.8902 139.209 51.0462 138.955 51.1186C138.607 51.2133 138.347 51.2412 137.811 51.2412C137.253 51.2412 137.033 51.2189 136.679 51.113C136.436 51.0462 136.077 50.8902 135.878 50.7732C135.679 50.6562 135.425 50.4556 135.105 50.0767L135.077 55.2583L131.846 55.2861L131.818 48.1936C131.801 44.2935 131.785 41.0007 131.763 40.6553L134.552 40.633L134.574 40.7556C134.585 40.8224 134.63 41.1511 134.746 42.076L135.083 41.7027C135.265 41.4966 135.574 41.2236 135.773 41.101C135.966 40.9728 136.237 40.828 136.375 40.7723C136.513 40.7166 136.845 40.6163 137.121 40.5438C137.463 40.4547 137.778 40.4101 138.143 40.4101ZM136.165 43.2126C136.066 43.2627 135.872 43.4243 135.734 43.5692C135.596 43.714 135.425 43.948 135.353 44.0873C135.287 44.221 135.199 44.4718 135.16 44.6445C135.116 44.8506 135.099 45.3242 135.116 46.1209C135.138 47.096 135.16 47.3355 135.243 47.5695C135.304 47.72 135.464 47.9707 135.607 48.1267C135.762 48.2994 135.983 48.461 136.187 48.5557C136.364 48.6337 136.651 48.7228 136.817 48.7396C136.988 48.7618 137.248 48.7507 137.425 48.7117C137.59 48.6783 137.85 48.5891 138.005 48.5167C138.154 48.4443 138.364 48.305 138.469 48.1991C138.568 48.0988 138.712 47.915 138.778 47.7924C138.85 47.6643 138.955 47.4024 139.016 47.2074C139.076 47.0068 139.159 46.6558 139.192 46.4274C139.231 46.1934 139.248 45.8479 139.226 45.6474C139.209 45.4468 139.154 45.1069 139.11 44.8952C139.06 44.6779 138.955 44.3492 138.872 44.1709C138.784 43.987 138.618 43.7252 138.496 43.5915C138.38 43.4577 138.132 43.2795 137.95 43.1903C137.718 43.0733 137.502 43.0176 137.231 43.0009C136.994 42.9842 136.745 43.0009 136.596 43.0455C136.458 43.0845 136.265 43.1625 136.165 43.2126Z" fill="#757575"/>
<path d="M57.4489 28.9887C57.4434 26.7378 57.4489 24.8602 57.4655 24.8212C57.4875 24.7711 57.6312 24.7544 58.5703 24.7822V32.1366L58.5426 24.8101H57.4931V33.0559L62.0504 33.0838H57.4655L57.4489 28.9887Z" fill="white"/>
<path d="M48.6934 26.6765C48.6878 26.9217 48.6768 26.7323 48.6768 26.2587C48.6768 25.7851 48.6878 25.5845 48.6934 25.813C48.7044 26.0414 48.7044 26.4314 48.6934 26.6765Z" fill="white"/>
<path d="M46.7047 27.7073C46.6937 27.8466 46.6826 27.7574 46.6826 27.5123C46.6826 27.2671 46.6937 27.1557 46.7047 27.2616C46.7158 27.3674 46.7158 27.568 46.7047 27.7073Z" fill="white"/>
<path d="M50.2401 27.7073C50.229 27.8466 50.218 27.7574 50.218 27.5123C50.218 27.2671 50.229 27.1557 50.2401 27.2616C50.2511 27.3674 50.2511 27.568 50.2401 27.7073Z" fill="white"/>
<path d="M67.1987 30.0195C67.1932 30.5432 67.1822 30.103 67.1822 29.0444C67.1822 27.9859 67.1932 27.5624 67.1987 28.0973C67.2098 28.6321 67.2098 29.5013 67.1987 30.0195Z" fill="white"/>
<path d="M48.6934 30.493C48.6878 30.9388 48.6768 30.5488 48.6768 29.6295C48.6768 28.7101 48.6878 28.348 48.6934 28.8216C48.7044 29.2952 48.7044 30.0473 48.6934 30.493Z" fill="white"/>
<path d="M67.8395 33.0838C67.3976 33.0838 67.3534 33.0727 67.3424 32.9724C67.335 32.8944 67.3405 32.8907 67.3589 32.9612C67.3755 33.0392 67.4584 33.0559 68.3201 33.0838H67.8395Z" fill="white"/>
<path d="M74.6451 33.1005C74.3136 33.1061 74.0209 33.0949 73.9988 33.0727C73.9767 33.0448 74.2529 33.0392 75.2527 33.0838L74.6451 33.1005Z" fill="white"/>
<path d="M71.1926 33.0949C71.0269 33.1061 70.7617 33.1061 70.6126 33.0949C70.4579 33.0838 70.596 33.0782 70.9164 33.0782C71.2368 33.0782 71.3583 33.0838 71.1926 33.0949Z" fill="white"/>
<path d="M78.9096 47.2912C78.9041 49.375 78.8985 47.6812 78.8985 43.5304C78.8985 39.3796 78.9041 37.6747 78.9096 39.7418C78.9206 41.8088 78.9206 45.2075 78.9096 47.2912Z" fill="white"/>
<path d="M82.1688 47.2912C82.1632 49.375 82.1577 47.6812 82.1577 43.5304C82.1577 39.3796 82.1632 37.6747 82.1688 39.7418C82.1798 41.8088 82.1798 45.2075 82.1688 47.2912Z" fill="white"/>
<path d="M112.65 36.7164C112.043 36.7276 111.059 36.7276 110.468 36.7164C109.877 36.7109 110.374 36.7053 111.573 36.7053C112.772 36.7053 113.258 36.7109 112.65 36.7164Z" fill="white"/>
<path d="M71.4412 40.4494C71.3196 40.4605 71.1318 40.4605 71.0269 40.4494C70.9219 40.4382 71.0213 40.4271 71.2478 40.4271C71.4743 40.4271 71.5627 40.4382 71.4412 40.4494Z" fill="white"/>
<path d="M84.3673 43.1126V41.9258L84.3618 40.7447L84.3949 43.0847L85.7483 43.1181L84.3673 43.1126Z" fill="white"/>
<path d="M119.516 42.8841C119.505 43.0067 119.494 42.9343 119.494 42.717C119.494 42.5053 119.505 42.405 119.516 42.4941C119.528 42.5888 119.528 42.7616 119.516 42.8841Z" fill="white"/>
<path d="M70.839 42.7337C70.7175 42.7448 70.5407 42.7448 70.4524 42.7337C70.3585 42.717 70.4579 42.7114 70.6733 42.7114C70.8832 42.7114 70.9606 42.7226 70.839 42.7337Z" fill="white"/>
<path d="M131.835 52.1329C131.829 53.8489 131.824 52.4727 131.824 49.0685C131.824 45.6699 131.829 44.2659 131.835 45.9485C131.846 47.6366 131.846 50.4168 131.835 52.1329Z" fill="white"/>
<path d="M90.6702 43.1237C90.3332 43.1348 89.7974 43.1348 89.4825 43.1237C89.1621 43.1126 89.4328 43.107 90.0902 43.107C90.742 43.107 91.0016 43.1126 90.6702 43.1237Z" fill="white"/>
<path d="M103.442 49.4585C103.436 50.3778 103.425 49.6535 103.425 47.8428C103.425 46.0376 103.436 45.2855 103.442 46.1713C103.453 47.0628 103.453 48.5392 103.442 49.4585Z" fill="white"/>
<path d="M64.7185 45.8649C64.7074 46.0042 64.6964 45.9039 64.6964 45.642C64.6964 45.3857 64.7074 45.2687 64.7185 45.3913C64.7295 45.5139 64.7295 45.7312 64.7185 45.8649Z" fill="white"/>
<path d="M109.413 47.5085C109.408 47.4751 109.424 47.4305 109.452 47.4082C109.474 47.3859 110.418 47.3804 113.595 47.3971L111.551 47.4138C110.015 47.4249 109.496 47.4472 109.463 47.4974C109.441 47.5419 109.419 47.5475 109.413 47.5085Z" fill="white"/>
<path d="M91.1508 48.985C91.1397 48.79 91.101 48.6061 91.0679 48.5838C91.0237 48.5578 91.0329 48.5448 91.0955 48.5448C91.1784 48.5448 91.1894 48.5949 91.1729 49.3471L91.1508 48.985Z" fill="white"/>
<path d="M122.748 52.7736C122.742 51.3807 122.748 50.2107 122.759 50.1717C122.776 50.1327 122.792 50.0993 122.803 50.0993C122.809 50.0993 122.803 51.2749 122.765 55.3086L122.748 52.7736Z" fill="white"/>
<path d="M60.6473 51.3139C60.5092 51.325 60.2993 51.325 60.1777 51.3139C60.0562 51.3027 60.1667 51.2916 60.4263 51.2916C60.6804 51.2916 60.7798 51.3027 60.6473 51.3139Z" fill="white"/>
<path d="M89.2892 51.3139C89.1676 51.325 88.9909 51.325 88.9025 51.3139C88.8086 51.2971 88.908 51.2916 89.1235 51.2916C89.3334 51.2916 89.4107 51.3027 89.2892 51.3139Z" fill="white"/>
<path fill-rule="evenodd" clip-rule="evenodd" d="M71.4685 24.3086L71.4962 29.83L71.7116 29.5347C71.8331 29.3731 72.3413 28.7547 73.761 27.0888L74.341 27.1055C74.7664 27.1166 74.921 27.1389 74.921 27.1946C74.921 27.2336 74.6614 27.5457 74.341 27.8911C74.0206 28.231 73.5511 28.7324 73.2915 29.0054C73.0318 29.2728 72.8164 29.518 72.8054 29.5458C72.7998 29.5793 73.065 29.9693 73.3964 30.4261C73.7334 30.8774 74.2913 31.6352 74.6393 32.1087C74.9929 32.5823 75.2801 32.989 75.2801 33.0169C75.2801 33.0392 74.9929 33.0503 73.993 33.028L73.6174 32.4987C73.413 32.209 73.0539 31.7076 72.8219 31.3844C72.5954 31.0613 72.3192 30.6824 72.2143 30.5376C72.1093 30.3871 72.0044 30.2701 71.9823 30.2757C71.9547 30.2757 71.8331 30.415 71.4685 30.883V33.0559H70.3638L70.3527 28.7212C70.3472 26.3366 70.3638 24.3643 70.3914 24.3476C70.419 24.3253 70.6676 24.3086 71.4685 24.3086ZM22.9513 24.5872C23.0839 24.5872 23.2828 24.6262 23.3932 24.6763C23.5258 24.7265 23.8573 25.0273 24.266 25.4508C24.8184 26.0246 24.9676 26.1472 25.1775 26.2085C25.3764 26.2642 25.4868 26.2642 25.7299 26.2141C25.8956 26.1751 26.3928 25.9689 26.8347 25.7516C27.5694 25.3839 27.6578 25.356 27.9119 25.3783C28.0886 25.3895 28.2599 25.4508 28.3814 25.5343C28.4864 25.6123 28.641 25.7739 28.7294 25.8965C28.8123 26.0191 28.9228 26.2475 28.9669 26.3979C29.0111 26.5539 29.0719 26.8659 29.105 27.0944C29.1327 27.3228 29.2211 27.6459 29.2984 27.8075C29.3978 28.0248 29.4972 28.1418 29.6906 28.2644C29.8397 28.3591 30.0938 28.4594 30.2596 28.4984C30.5137 28.5485 30.6573 28.543 31.1158 28.465C31.4196 28.4092 31.8284 28.3702 32.0328 28.3814C32.32 28.3981 32.436 28.4315 32.5962 28.5597C32.7067 28.6432 32.8337 28.7658 32.8669 28.8382C32.9166 28.9274 32.9387 29.3118 32.9387 31.429L33.1155 31.6686C33.2094 31.8023 33.4082 31.9806 33.5574 32.0642C33.701 32.1477 34.0601 32.2815 34.3473 32.3595C34.6346 32.443 34.9826 32.5545 35.1207 32.6157C35.2588 32.6715 35.4576 32.8108 35.5626 32.9222C35.7283 33.0893 35.7615 33.1618 35.778 33.4348C35.7946 33.6911 35.767 33.8192 35.6399 34.1145C35.5515 34.3151 35.3582 34.6271 35.2091 34.8109C35.0599 34.9948 34.8887 35.2567 34.8334 35.3959C34.7727 35.5352 34.7174 35.7469 34.7174 35.8695C34.7174 36.0088 34.7671 36.1871 34.85 36.332C34.955 36.5214 35.0931 36.644 35.5074 36.9003C35.7946 37.0785 36.115 37.307 36.2199 37.4128C36.3194 37.5131 36.4741 37.7248 36.5624 37.8753C36.6895 38.0981 36.7226 38.2207 36.7226 38.5049C36.7226 38.7333 36.6895 38.9171 36.6177 39.062C36.5569 39.1734 36.4299 39.3629 36.3249 39.4799C36.2255 39.5969 35.9327 39.8365 35.6786 40.0092C35.419 40.1819 35.1372 40.4215 35.0433 40.5385C34.8887 40.739 34.8721 40.7892 34.8721 41.1513C34.8776 41.4578 34.9052 41.6026 34.9991 41.7753C35.0654 41.8979 35.2753 42.2099 35.4576 42.4718C35.6399 42.7337 35.8112 43.0401 35.8388 43.1571C35.8719 43.2852 35.8775 43.4412 35.8443 43.575C35.8112 43.692 35.7117 43.8535 35.6068 43.9482C35.5074 44.0374 35.3251 44.16 35.2035 44.2101C35.082 44.2658 34.6456 44.4385 34.2368 44.6001C33.8281 44.7617 33.4303 44.9455 33.353 45.0124C33.2757 45.0737 33.1597 45.2353 33.0934 45.3746C33.0216 45.5138 32.9553 45.7813 32.9332 46.0097C32.9111 46.227 32.9276 46.6226 32.9608 46.9012C33.0105 47.2912 33.0105 47.475 32.9608 47.709C32.9111 47.9263 32.8393 48.0767 32.6956 48.2272C32.541 48.3888 32.425 48.45 32.193 48.5002C31.961 48.5503 31.7124 48.5503 31.1158 48.4946C30.6904 48.4556 30.243 48.4445 30.1215 48.4612C29.9999 48.4835 29.8176 48.5559 29.7127 48.6228C29.6133 48.684 29.4862 48.8178 29.431 48.9069C29.3757 48.9961 29.2818 49.2468 29.2211 49.4641C29.1603 49.6814 29.0664 50.0045 29.0167 50.1884C28.9614 50.3722 28.862 50.6062 28.7902 50.7065C28.7184 50.8012 28.5526 50.9405 28.4201 51.0018C28.2212 51.1077 28.1218 51.1188 27.7185 51.0965C27.3318 51.0742 27.1551 51.0297 26.7242 50.8402C26.437 50.7177 26.0503 50.5784 25.868 50.5282C25.6857 50.4781 25.4592 50.4391 25.3708 50.4391C25.2769 50.4391 25.0781 50.5004 24.9289 50.5728C24.7411 50.6619 24.5643 50.8179 24.3765 51.0519C24.2218 51.247 24.0009 51.5311 23.8738 51.6871C23.7523 51.8431 23.5645 52.027 23.4595 52.0994C23.3325 52.183 23.1888 52.2275 23.0231 52.222C22.8464 52.222 22.7027 52.1774 22.526 52.066C22.3879 51.9768 22.189 51.8097 22.0841 51.6871C21.9791 51.5701 21.7195 51.2971 21.504 51.0798C21.2886 50.8625 21.0013 50.6229 20.8522 50.5338C20.681 50.4391 20.5097 50.3834 20.355 50.3834C20.1838 50.3834 19.9463 50.4669 19.4602 50.6954C19.0956 50.8625 18.6481 51.0408 18.4658 51.0909C18.2835 51.1355 18.046 51.1578 17.9411 51.1411C17.8361 51.1244 17.6372 51.0241 17.4991 50.9238C17.361 50.8179 17.1843 50.6118 17.1069 50.4614C17.0241 50.3109 16.8528 49.9265 16.7203 49.6033C16.5932 49.2802 16.3999 48.9013 16.3004 48.7565C16.1679 48.5615 16.0629 48.4723 15.9082 48.4278C15.7591 48.3832 15.5602 48.3832 15.1625 48.4278C14.8697 48.4612 14.4775 48.489 14.2952 48.489C14.1129 48.489 13.8312 48.4612 13.671 48.4222C13.4666 48.3776 13.3285 48.2996 13.1904 48.1603C13.0689 48.0322 12.9639 47.8539 12.9197 47.6812C12.859 47.4695 12.8535 47.2744 12.8921 46.8454C12.9197 46.539 12.9363 46.1156 12.9308 45.8983C12.9197 45.6141 12.8866 45.4414 12.7872 45.2576C12.7043 45.096 12.5717 44.9511 12.4115 44.8508C12.2734 44.7673 11.9807 44.6614 11.7266 44.6113C11.4835 44.5611 11.1576 44.4553 11.0084 44.3773C10.8538 44.3048 10.6328 44.16 10.5168 44.0652C10.4008 43.9705 10.2572 43.7978 10.2019 43.6864C10.1412 43.5694 10.097 43.3799 10.097 43.2685C10.097 43.1515 10.1522 42.9565 10.213 42.8284C10.2738 42.7058 10.3953 42.5164 10.4837 42.4105C10.572 42.3046 10.7101 42.0706 10.793 41.8868C10.898 41.6472 10.9422 41.4578 10.9477 41.2182C10.9477 40.9675 10.9145 40.8059 10.8041 40.5775C10.6881 40.3323 10.5555 40.1875 10.1688 39.8755C9.90365 39.6582 9.57221 39.3684 9.43963 39.2347C9.30706 39.101 9.15238 38.8949 9.09714 38.7834C9.03638 38.6664 8.99219 38.4937 8.99219 38.4046C8.99219 38.3154 9.02533 38.1706 9.06952 38.0814C9.10819 37.9978 9.25182 37.8307 9.38439 37.7081C9.51697 37.5856 9.86498 37.307 10.1522 37.0897C10.5665 36.7777 10.7101 36.6273 10.8372 36.3932C10.9808 36.1202 10.9919 36.059 10.9643 35.7302C10.9422 35.4294 10.8759 35.2511 10.5941 34.6995C10.3179 34.1479 10.2517 33.9696 10.224 33.6688C10.2075 33.4682 10.2075 33.2398 10.2296 33.1506C10.2461 33.067 10.329 32.9222 10.4119 32.8275C10.5002 32.7272 10.6825 32.5935 10.8262 32.521C10.9753 32.4486 11.3344 32.3372 11.6271 32.2759C11.9254 32.2146 12.2679 32.1032 12.3894 32.0307C12.511 31.9583 12.6546 31.8357 12.7043 31.7522C12.7596 31.6742 12.8314 31.4736 12.87 31.3176C12.9197 31.0836 12.9197 30.8551 12.8645 30.2423C12.8258 29.7854 12.8148 29.3453 12.8369 29.1837C12.859 29.0333 12.9308 28.8327 12.9916 28.7435C13.0578 28.6544 13.1794 28.5262 13.2622 28.465C13.3948 28.3647 13.4942 28.348 13.9251 28.3535C14.2234 28.3591 14.5604 28.3981 14.7371 28.4538C14.9029 28.504 15.1791 28.543 15.3448 28.543C15.5547 28.543 15.7315 28.504 15.9248 28.4092C16.0905 28.3257 16.2618 28.1864 16.3501 28.0582C16.4496 27.9189 16.5324 27.6738 16.6042 27.3172C16.665 27.0275 16.7644 26.6486 16.8307 26.4815C16.8915 26.3143 16.9965 26.0915 17.0683 25.9856C17.1401 25.8798 17.2561 25.746 17.3334 25.6903C17.4108 25.629 17.582 25.5678 17.7201 25.551C17.8582 25.5343 18.0792 25.5455 18.2173 25.5789C18.3554 25.6123 18.8028 25.7906 19.2116 25.9745C19.6203 26.1528 20.0788 26.3255 20.2335 26.3478C20.4048 26.3701 20.5815 26.3589 20.7031 26.3199C20.808 26.2865 20.9903 26.1862 21.1118 26.1026C21.2278 26.0191 21.4985 25.7293 21.7195 25.4619C21.9349 25.1889 22.2001 24.9103 22.305 24.8435C22.41 24.771 22.5481 24.6819 22.6088 24.6485C22.6696 24.6206 22.8243 24.5872 22.9513 24.5872ZM43.7657 24.6707C44.0695 24.6875 44.5059 24.7487 44.7324 24.81C44.9589 24.8713 45.1909 24.9549 45.2517 24.9939C45.3511 25.0608 45.3511 25.0719 45.2185 25.4786C45.1301 25.746 45.0528 25.8909 45.0031 25.8853C44.9589 25.8798 44.7766 25.8185 44.5943 25.7516C44.3126 25.6402 44.1579 25.6179 43.5724 25.6179C42.9426 25.6179 42.8598 25.629 42.6057 25.7572C42.4179 25.8519 42.2853 25.9745 42.1803 26.1472C42.0975 26.2865 42.0091 26.5093 41.9925 26.6486C41.9704 26.8102 41.987 26.9996 42.0422 27.1779C42.103 27.3785 42.2024 27.5234 42.3958 27.7072C42.5946 27.8911 42.8598 28.0415 43.3569 28.2588C43.7326 28.4204 44.1911 28.6377 44.3734 28.738C44.5557 28.8382 44.8374 29.0444 45.0031 29.1893C45.1909 29.3675 45.3566 29.5904 45.4726 29.8244C45.6328 30.1643 45.6439 30.2256 45.6439 30.7994C45.6439 31.3733 45.6328 31.4346 45.4726 31.7744C45.3787 31.975 45.213 32.2369 45.1081 32.3595C45.0031 32.482 44.7435 32.677 44.5336 32.7885C44.3237 32.8999 43.9922 33.0336 43.7933 33.0782C43.589 33.1283 43.1802 33.1673 42.8377 33.1673C42.5118 33.1673 42.0533 33.1283 41.8158 33.0782C41.5837 33.0336 41.2468 32.9222 41.07 32.8442C40.8932 32.7606 40.7551 32.6826 40.7551 32.6659C40.7551 32.6492 40.7993 32.4765 40.8546 32.2759C40.9043 32.0753 40.9651 31.8914 40.9872 31.858C41.0148 31.8246 41.1363 31.8524 41.3186 31.936C41.4788 32.0085 41.8102 32.1199 42.0533 32.1812C42.3903 32.2647 42.6167 32.2815 42.9924 32.2647C43.3349 32.248 43.5724 32.2035 43.7657 32.1199C43.9149 32.053 44.1193 31.9193 44.2187 31.819C44.3181 31.7187 44.4341 31.5237 44.4838 31.3844C44.528 31.2452 44.5667 31.0223 44.5667 30.883C44.5667 30.7437 44.5391 30.5376 44.5115 30.4261C44.4783 30.3091 44.3623 30.1141 44.2463 29.986C44.1358 29.8634 43.8431 29.6517 43.6 29.518C43.3569 29.3898 43.0587 29.2505 42.9371 29.2115C42.8156 29.1725 42.4952 29.0277 42.2245 28.8828C41.8599 28.6934 41.6556 28.543 41.4346 28.2922C41.2634 28.0972 41.0921 27.8354 41.0313 27.6682C40.954 27.4621 40.9209 27.2336 40.9209 26.8994C40.9209 26.5595 40.954 26.3422 41.0313 26.1361C41.0921 25.9745 41.2413 25.707 41.3628 25.551C41.4843 25.3895 41.6998 25.1889 41.8434 25.1053C41.9925 25.0217 42.2245 24.9103 42.3682 24.8546C42.5173 24.7989 42.7659 24.732 42.9206 24.6986C43.0807 24.6707 43.4619 24.6596 43.7657 24.6707ZM83.8257 24.6485C83.8644 24.6429 83.8975 24.6652 83.8975 24.6986C83.8975 24.732 83.7871 25.0998 83.649 25.5232C83.5109 25.9411 83.2568 26.5818 82.7651 27.5902L82.4723 27.6237C82.3177 27.6404 82.1575 27.6404 82.1299 27.6237C82.0967 27.6069 82.1243 27.4565 82.2072 27.2504C82.279 27.0554 82.4116 26.5595 82.5055 26.1472C82.5994 25.7349 82.7044 25.2502 82.7927 24.7543L83.2181 24.7209C83.4556 24.7042 83.6711 24.6819 83.7042 24.6707C83.7318 24.6596 83.7926 24.6485 83.8257 24.6485ZM57.4928 24.81H58.5424V32.1645H62.0778V33.0559H57.4928V24.81ZM48.6103 25.4285C48.6379 25.4229 48.6545 25.8018 48.6545 27.0944H50.2012V27.9858H48.6545L48.671 29.8133C48.6821 31.5014 48.6931 31.6519 48.7926 31.8524C48.8533 31.975 48.9748 32.1199 49.0688 32.1812C49.2013 32.2647 49.3229 32.2815 50.1459 32.248V33.0559L49.936 33.1116C49.8255 33.1395 49.5052 33.1673 49.2345 33.1673C48.8257 33.1673 48.6876 33.145 48.4611 33.0336C48.3064 32.9612 48.1297 32.8442 48.0634 32.7718C47.9971 32.6993 47.8756 32.4876 47.6325 31.9694L47.6049 27.9858H46.7211V27.0944H47.6049L47.5828 25.707L47.8259 25.6458C47.964 25.6123 48.1849 25.551 48.323 25.5065C48.4611 25.4675 48.5882 25.434 48.6103 25.4285ZM78.8983 27.0052C79.2519 27.0219 79.4894 27.0609 79.7269 27.1556C79.9368 27.2392 80.1688 27.3897 80.3622 27.5735C80.5279 27.7295 80.7323 27.9802 80.8151 28.1307C80.898 28.2811 81.0306 28.6544 81.1079 28.9608C81.1852 29.2673 81.246 29.6183 81.246 29.7408C81.246 29.8634 81.2294 30.0473 81.1632 30.3258H77.0202L77.0588 30.6434C77.0864 30.8217 77.1583 31.0947 77.2301 31.2452C77.3019 31.4012 77.4455 31.6184 77.5505 31.741C77.6554 31.858 77.8488 32.014 77.9869 32.0809C78.125 32.1477 78.3735 32.2369 78.5393 32.2759C78.7418 32.3242 79.018 32.3372 79.3679 32.3149C79.6551 32.2926 80.0142 32.2425 80.1688 32.2035C80.318 32.1589 80.5003 32.1087 80.5666 32.092C80.677 32.0586 80.6991 32.0809 80.7433 32.2647C80.771 32.3762 80.8096 32.5545 80.8262 32.6547C80.8538 32.7996 80.8372 32.8442 80.7323 32.8943C80.666 32.9333 80.3843 33.0058 80.1136 33.067C79.7877 33.1395 79.401 33.1729 78.9812 33.1729C78.5779 33.1729 78.2299 33.1395 78.0255 33.0893C77.8543 33.0392 77.567 32.9278 77.3903 32.8386C77.219 32.7495 76.976 32.5767 76.8544 32.4486C76.7329 32.326 76.5396 32.0642 76.4236 31.8747C76.3076 31.6797 76.175 31.4012 76.1308 31.2452C76.0811 31.0947 76.0314 30.7159 76.0148 30.4094C75.9927 29.9971 76.0093 29.7297 76.0756 29.3787C76.1418 29.0723 76.2523 28.7491 76.4015 28.465C76.5396 28.1975 76.755 27.9022 76.9373 27.7184C77.103 27.5568 77.3903 27.3451 77.5726 27.2559C77.7549 27.1668 78.0145 27.0721 78.1526 27.0386C78.2907 27.0108 78.6221 26.9941 78.8983 27.0052ZM77.6941 28.192C77.5836 28.309 77.4179 28.543 77.3295 28.7101C77.2356 28.8772 77.1417 29.1224 77.1085 29.2561L77.0478 29.4901H80.1688C80.1025 29.0778 80.0418 28.8327 79.9865 28.6822C79.9313 28.5151 79.7987 28.309 79.6551 28.1641C79.5225 28.0304 79.3347 27.9078 79.2132 27.8744C79.1027 27.8465 78.8596 27.8187 78.6774 27.8187C78.4951 27.8242 78.2465 27.8577 78.125 27.9022C78.0034 27.9468 77.8101 28.0805 77.6941 28.192ZM86.3005 26.9885C86.5104 26.9885 86.8418 27.0219 87.0296 27.0665C87.223 27.1111 87.4605 27.1891 87.5544 27.2392C87.6538 27.2894 87.7422 27.3339 87.7533 27.3395C87.7643 27.3395 87.7201 27.5122 87.6594 27.7239C87.5931 27.9301 87.5268 28.0972 87.4992 28.0972C87.4771 28.0972 87.3224 28.0471 87.1567 27.9802C86.991 27.9189 86.6761 27.8521 86.4662 27.8354C86.1458 27.8075 86.0353 27.8242 85.8144 27.9245C85.6597 27.9914 85.5105 28.114 85.4387 28.2254C85.3614 28.3535 85.3338 28.4761 85.3448 28.6655C85.3559 28.8438 85.4001 28.9664 85.4995 29.0723C85.5768 29.1558 85.9967 29.401 86.4386 29.6127C86.8805 29.8244 87.3279 30.0696 87.4329 30.1587C87.5378 30.2423 87.698 30.4596 87.7919 30.6379C87.9356 30.922 87.9577 31.0279 87.9577 31.4123C87.9577 31.78 87.93 31.9137 87.814 32.1645C87.7312 32.3372 87.5599 32.5656 87.4274 32.6826C87.2948 32.794 87.0352 32.9445 86.8529 33.0169C86.5656 33.1228 86.4165 33.1395 85.7481 33.1395C85.0962 33.1395 84.9195 33.1228 84.6157 33.0169C84.4168 32.95 84.229 32.8609 84.1903 32.8219C84.1406 32.7662 84.1572 32.6603 84.2455 32.3706C84.3395 32.0865 84.3892 31.9973 84.4499 32.0196C84.4941 32.0363 84.7206 32.1143 84.9471 32.1979C85.262 32.3149 85.4663 32.3483 85.8033 32.3483C86.1513 32.3483 86.2949 32.326 86.4772 32.2313C86.6595 32.1366 86.7424 32.0475 86.8308 31.8413C86.9192 31.6463 86.9413 31.5182 86.9136 31.3454C86.8915 31.1671 86.8252 31.0501 86.6706 30.8941C86.5325 30.7549 86.2618 30.5989 85.8586 30.4261C85.5216 30.2813 85.1294 30.0807 84.9802 29.9804C84.8256 29.8801 84.6322 29.6851 84.5494 29.5458C84.461 29.4065 84.3671 29.206 84.3395 29.1001C84.3063 28.9943 84.2842 28.816 84.2842 28.7101C84.2842 28.6042 84.3174 28.387 84.3671 28.2365C84.4113 28.0805 84.5494 27.8298 84.6819 27.6682C84.8145 27.5122 85.03 27.3228 85.1681 27.2559C85.3062 27.1891 85.5271 27.0999 85.6652 27.0609C85.8033 27.0219 86.0906 26.9885 86.3005 26.9885ZM64.3978 27.0944L64.4144 29.1168C64.4255 31.0446 64.431 31.1449 64.547 31.4402C64.6133 31.6073 64.7238 31.819 64.7956 31.9082C64.8674 31.9973 65.022 32.1199 65.1436 32.1756C65.2762 32.2313 65.5026 32.2759 65.696 32.2759C65.9611 32.2759 66.0992 32.2425 66.3865 32.0976C66.6516 31.9639 66.7897 31.8469 66.9168 31.663C67.0107 31.5237 67.1156 31.2786 67.1488 31.117C67.193 30.9276 67.2151 30.1921 67.2151 27.0944L68.2923 27.1222L68.3199 33.0559H67.8503C67.4084 33.0559 67.3808 33.0503 67.3532 32.9333C67.3366 32.8609 67.3256 32.6547 67.3311 32.1366L67.0107 32.482C66.8008 32.7049 66.5853 32.8776 66.3865 32.9668C66.2208 33.0448 65.9335 33.1395 65.7512 33.1729C65.5634 33.2063 65.2872 33.2175 65.116 33.1952C64.9502 33.1729 64.6851 33.1116 64.5359 33.0503C64.3813 32.9946 64.1548 32.8442 64.0222 32.7216C63.8841 32.5879 63.7129 32.3372 63.6024 32.0976C63.4974 31.8636 63.3869 31.5182 63.3538 31.2897C63.3207 31.0613 63.2875 30.0528 63.282 29.0277C63.2765 28.0025 63.293 27.1501 63.3207 27.1334C63.3483 27.1111 63.5969 27.0944 64.3978 27.0944ZM52.1898 31.663C52.3058 31.663 52.4605 31.7132 52.5765 31.7912C52.6814 31.858 52.803 31.9806 52.8361 32.053C52.8748 32.131 52.9079 32.2982 52.9079 32.4319C52.9079 32.56 52.8693 32.7439 52.8251 32.833C52.7698 32.9389 52.6483 33.0448 52.4771 33.1172C52.2837 33.2063 52.1677 33.2286 52.0241 33.1952C51.9191 33.1729 51.7534 33.0782 51.6595 32.9779C51.5546 32.872 51.4717 32.716 51.4441 32.5823C51.4165 32.4152 51.433 32.2982 51.5104 32.1087C51.5877 31.936 51.6761 31.8302 51.8087 31.7633C51.9136 31.7076 52.0849 31.663 52.1898 31.663ZM78.9259 35.9531H82.1299V51.1077H78.9259V35.9531ZM96.7961 35.981L96.8513 41.9202L97.1551 41.6026C97.3208 41.4243 97.597 41.1959 97.7628 41.09C97.9285 40.9786 98.1881 40.8393 98.3428 40.7725C98.4919 40.7 98.8013 40.6053 99.0167 40.5552C99.2377 40.505 99.5967 40.466 99.8066 40.466C100.017 40.466 100.376 40.505 100.591 40.5496C100.812 40.5998 101.171 40.7168 101.381 40.817C101.591 40.9173 101.862 41.0733 101.978 41.168C102.094 41.2572 102.331 41.5191 102.502 41.7475C102.674 41.9759 102.883 42.3214 102.966 42.5164C103.049 42.7058 103.176 43.0679 103.243 43.3242C103.359 43.77 103.364 43.8758 103.397 51.1077H100.193V48.06C100.193 46.2047 100.171 44.862 100.133 44.6447C100.105 44.4441 100.017 44.16 99.9447 44.004C99.8784 43.8535 99.7403 43.6418 99.6464 43.5471C99.5525 43.4468 99.3702 43.3075 99.2377 43.2407C99.0609 43.1459 98.9062 43.1181 98.5637 43.1181C98.2102 43.1181 98.0611 43.1459 97.8235 43.2518C97.6412 43.3354 97.4368 43.4914 97.3098 43.6418C97.1938 43.7811 97.0391 44.004 96.9728 44.1432C96.8513 44.394 96.8513 44.433 96.7961 51.0798H93.6474L93.6308 43.5861C93.6253 39.4632 93.6308 36.059 93.6474 36.02C93.6695 35.9642 94.0175 35.9531 96.7961 35.981ZM43.6829 36.7331V42.2489H48.9859L49.0135 36.761H52.2174V51.0798H49.0135L48.9859 45.1461H43.6829V51.1077L40.5066 51.0798L40.49 43.9761C40.4845 40.0705 40.49 36.839 40.5066 36.8055C40.5231 36.7498 40.8988 36.7331 43.6829 36.7331ZM88.8249 37.7416C88.9188 37.736 88.9244 37.8418 88.9244 40.6889H91.2444V43.0847H88.9244L88.952 47.7926L89.1011 48.0879C89.2171 48.2996 89.3166 48.411 89.4878 48.5058C89.7032 48.6172 89.7916 48.6283 91.134 48.6005L91.1671 49.3415C91.1837 49.7426 91.1892 50.2886 91.1616 51.0241L90.7749 51.1244C90.5153 51.1968 90.101 51.2414 89.5044 51.2581C88.8084 51.2804 88.5266 51.2692 88.1786 51.1968C87.9356 51.1467 87.5599 51.0185 87.35 50.9127C87.107 50.7957 86.8584 50.6118 86.6816 50.4279C86.527 50.2664 86.306 49.9432 86.19 49.7148C86.074 49.4808 85.9414 49.0908 85.8862 48.8233C85.8309 48.5615 85.7702 48.1269 85.7536 47.8483C85.737 47.5697 85.7205 46.3886 85.7205 43.0847H84.3947V40.6889H85.7205V39.5746C85.7205 38.5661 85.7315 38.4547 85.8144 38.4213C85.8696 38.399 86.549 38.243 87.3224 38.0647C88.0958 37.8864 88.7752 37.7416 88.8249 37.7416ZM60.1996 40.4883C60.7299 40.505 61.0724 40.544 61.3873 40.6276C61.6303 40.6945 62.0391 40.8505 62.2987 40.973C62.6909 41.1625 62.8511 41.2851 63.2709 41.7085C63.63 42.0818 63.8289 42.3381 63.9835 42.6389C64.0995 42.8674 64.2763 43.3075 64.3813 43.614C64.4807 43.9204 64.5912 44.3717 64.6243 44.6168C64.663 44.8675 64.6796 45.4526 64.6685 45.954C64.6519 46.4443 64.6243 46.8789 64.6022 46.9179C64.5746 46.968 63.8399 46.9847 57.9348 46.9847L57.9679 47.1964C57.9845 47.3079 58.0397 47.5029 58.095 47.6255C58.1447 47.748 58.2883 47.9486 58.4098 48.0712C58.5258 48.1993 58.7855 48.3776 58.9843 48.4723C59.1832 48.567 59.5036 48.6952 59.7024 48.7453C59.9842 48.8289 60.2604 48.8456 60.973 48.8456C61.4756 48.8456 62.0833 48.8122 62.3263 48.7732C62.5694 48.7342 62.9726 48.6506 63.2212 48.5838C63.4753 48.5169 63.6852 48.4723 63.7018 48.489C63.7129 48.5058 63.8068 48.9905 63.9173 49.5755C64.0277 50.1605 64.0995 50.6508 64.0774 50.6731C64.0554 50.6898 63.8344 50.7734 63.5803 50.8514C63.3317 50.9294 62.8345 51.0519 62.4755 51.1188C61.9231 51.2247 61.6414 51.247 60.5034 51.247C59.3434 51.247 59.1169 51.2302 58.6805 51.1244C58.4043 51.0631 57.9845 50.9238 57.7414 50.8235C57.4984 50.7232 57.1393 50.5282 56.9404 50.3889C56.7416 50.2552 56.4599 50.0324 56.3162 49.8875C56.1671 49.7482 55.9296 49.4696 55.7804 49.2691C55.6313 49.0685 55.4269 48.7175 55.3164 48.489C55.2059 48.2606 55.0623 47.8316 54.996 47.5419C54.8966 47.1073 54.8745 46.8454 54.8745 46.0654C54.8745 45.3021 54.8966 45.0236 54.9905 44.6168C55.0568 44.3383 55.1893 43.9037 55.2943 43.6418C55.3937 43.3799 55.6257 42.9454 55.808 42.6724C55.9903 42.3994 56.3107 42.0149 56.5261 41.8143C56.7361 41.6138 57.062 41.3519 57.2443 41.2349C57.4266 41.1179 57.7746 40.9396 58.0176 40.8449C58.2607 40.7558 58.6805 40.6276 58.9567 40.5719C59.3379 40.4939 59.6251 40.4716 60.1996 40.4883ZM59.0948 42.8228C58.9898 42.8729 58.791 43.0067 58.6584 43.1237C58.5258 43.2407 58.3491 43.4635 58.2662 43.614C58.1778 43.77 58.0729 44.0318 58.0231 44.199C57.9734 44.3661 57.9348 44.55 57.9348 44.6057C57.9348 44.6948 58.0618 44.7004 59.824 44.7004H61.7187C61.6469 44.2491 61.5585 43.9427 61.4701 43.7254C61.3707 43.4914 61.2271 43.2574 61.1 43.1348C60.984 43.0234 60.8183 42.8952 60.7244 42.8451C60.6305 42.8005 60.4261 42.7337 60.2659 42.7002C60.1112 42.6668 59.9234 42.6389 59.8516 42.6445C59.7853 42.6501 59.6306 42.6724 59.5091 42.6946C59.3876 42.7169 59.1998 42.7782 59.0948 42.8228ZM71.1647 40.4716C71.5293 40.466 72.0651 40.505 72.3524 40.5552C72.6396 40.5998 73.065 40.7 73.2915 40.778C73.518 40.856 73.877 41.0288 74.0869 41.1513C74.2968 41.2795 74.5786 41.5135 74.7167 41.6639C74.8548 41.8199 75.0536 42.0818 75.1586 42.2489C75.2635 42.4161 75.4016 42.6668 75.4624 42.8061C75.5176 42.9454 75.6171 43.2685 75.6778 43.5304C75.7828 43.965 75.7938 44.2658 75.8325 47.2912C75.8601 49.1019 75.8988 50.7009 75.9706 51.1132L73.0429 51.0798L72.9545 50.5784C72.9048 50.2998 72.8606 50.0714 72.8551 50.0658C72.8495 50.0546 72.7059 50.1828 72.5292 50.3444C72.3579 50.5004 72.0762 50.7121 71.9105 50.8124C71.7447 50.9071 71.3802 51.0575 71.1095 51.1355C70.6952 51.2637 70.4963 51.2859 69.9218 51.2915C69.3529 51.2971 69.154 51.2748 68.7894 51.1745C68.5464 51.1021 68.2094 50.9684 68.0437 50.8681C67.878 50.7734 67.5907 50.5449 67.4084 50.3611C67.1875 50.1382 66.9996 49.8764 66.8671 49.6033C66.7511 49.3749 66.624 48.9961 66.5743 48.7676C66.5135 48.4946 66.497 48.2049 66.5135 47.9319C66.5301 47.7035 66.5743 47.3915 66.613 47.2354C66.6461 47.085 66.7621 46.7674 66.8671 46.539C67.0162 46.2047 67.1488 46.032 67.5079 45.6754C67.8614 45.33 68.0658 45.174 68.4304 44.9957C68.69 44.8731 69.1209 44.6948 69.3971 44.6001C69.6677 44.5054 70.1041 44.3884 70.3638 44.3383C70.6234 44.2937 71.0708 44.238 71.3581 44.2212C71.6453 44.2045 71.9436 44.1822 72.021 44.1711C72.0983 44.16 72.253 44.1488 72.3634 44.1488C72.5568 44.1432 72.5733 44.1265 72.5733 43.9928C72.5733 43.9037 72.5292 43.7142 72.4794 43.5638C72.4187 43.3911 72.3082 43.2295 72.1867 43.1292C72.0817 43.0401 71.8552 42.9175 71.6895 42.8507C71.4354 42.7504 71.2697 42.7337 70.6676 42.7337C70.2201 42.7337 69.8003 42.7671 69.5628 42.8228C69.3529 42.8674 69.0159 42.9621 68.817 43.0345C68.6182 43.1014 68.342 43.2128 68.1928 43.2852C68.0492 43.3577 67.9056 43.4134 67.8724 43.4078C67.8393 43.3967 67.7233 43.1014 67.6183 42.7504C67.5134 42.3994 67.3808 41.9425 67.2151 41.3575L67.4471 41.2516C67.5797 41.1959 67.8614 41.0845 68.0713 41.0065C68.2812 40.9285 68.6182 40.8226 68.817 40.7725C69.0159 40.7223 69.4744 40.6332 69.839 40.5775C70.2036 40.5218 70.8001 40.4716 71.1647 40.4716ZM71.0929 46.3719C70.9659 46.3997 70.7173 46.5 70.5405 46.5891C70.3637 46.6783 70.1373 46.851 70.0213 46.9903C69.9053 47.124 69.7893 47.3413 69.7561 47.475C69.7285 47.6032 69.7009 47.8037 69.7009 47.9207C69.7009 48.0322 69.7506 48.2272 69.8058 48.3498C69.8555 48.4723 69.9826 48.6395 70.0765 48.7286C70.1759 48.8122 70.3582 48.9069 70.4853 48.9403C70.6179 48.9738 70.883 48.9905 71.0819 48.9793C71.2807 48.9626 71.5514 48.9013 71.6895 48.84C71.8276 48.7788 72.0596 48.6172 72.2032 48.4835C72.369 48.3275 72.5071 48.1436 72.5623 47.9876C72.6286 47.8037 72.6562 47.5419 72.6562 46.9847V46.2326C72.3137 46.2214 72.0154 46.2381 71.7724 46.266C71.5293 46.2883 71.2255 46.3384 71.0929 46.3719Z" fill="white"/>
<path d="M21.1169 28.0639C21.3875 28.0138 21.9013 27.958 22.2493 27.9358C22.5973 27.919 23.0724 27.9079 23.2988 27.919C23.5253 27.9246 23.9507 27.958 24.2379 27.9859C24.5252 28.0193 25.0223 28.1029 25.3427 28.1753C25.6631 28.2478 26.2597 28.4372 26.6685 28.5988C27.0772 28.7548 27.6241 28.9999 27.8837 29.1448C28.1434 29.2841 28.6019 29.5738 28.9057 29.7799C29.2095 29.9916 29.6404 30.3315 29.8669 30.5377C30.0933 30.7438 30.3088 30.9332 30.3419 30.9667C30.3806 31.0001 30.5795 31.223 30.7894 31.4681C30.9938 31.7132 31.2092 31.964 31.27 32.0253C31.3252 32.0865 31.5738 32.4654 31.8168 32.861C32.0654 33.2566 32.3527 33.7747 32.4576 34.0031C32.557 34.2316 32.7614 34.7832 32.9106 35.2289C33.0542 35.6746 33.2199 36.2875 33.2752 36.5939C33.358 37.0341 33.3801 37.4241 33.3801 38.4325C33.3801 39.4465 33.358 39.8365 33.2752 40.299C33.2199 40.6221 33.0487 41.2629 32.8995 41.7197C32.7504 42.1822 32.5239 42.7672 32.3969 43.029C32.2698 43.2909 32.0046 43.7645 31.8058 44.0821C31.6069 44.3996 31.2202 44.9289 30.944 45.2521C30.6734 45.5752 30.2038 46.0599 29.9111 46.333C29.6183 46.6004 29.1101 46.996 28.7842 47.2188C28.4527 47.4361 27.95 47.737 27.6628 47.8763C27.3755 48.0211 26.9668 48.205 26.7513 48.283C26.5359 48.361 26.1658 48.478 25.9227 48.5448C25.6797 48.6117 25.2212 48.7176 24.9008 48.7789C24.5141 48.8513 23.9783 48.9014 23.2988 48.9181C22.647 48.9404 22.078 48.9237 21.7245 48.8847C21.4207 48.8457 20.9125 48.7566 20.5921 48.6786C20.2717 48.6061 19.8298 48.4947 19.6088 48.4334C19.3934 48.3721 18.9294 48.1938 18.5924 48.0434C18.2499 47.8874 17.8246 47.6701 17.6478 47.5531C17.4728 47.4428 17.1082 47.1904 16.8275 46.9962L16.8192 46.9904C16.5375 46.7898 16.0735 46.4054 15.7807 46.1268C15.4879 45.8482 15.0515 45.3691 14.814 45.0626C14.5709 44.7562 14.2726 44.3439 14.1511 44.1433C14.024 43.9428 13.792 43.5305 13.6318 43.224C13.4717 42.9176 13.2562 42.4273 13.1513 42.1376C13.0463 41.8479 12.9027 41.3687 12.8309 41.079C12.7591 40.7893 12.6762 40.377 12.6431 40.1597C12.6099 39.9424 12.5547 39.4744 12.527 39.1178C12.4884 38.6832 12.4884 38.2375 12.527 37.8085C12.5547 37.4464 12.6099 36.9783 12.6431 36.7611C12.6762 36.5438 12.7591 36.1315 12.8309 35.8418C12.9027 35.552 13.0463 35.0729 13.1513 34.7832C13.2562 34.4934 13.4882 33.9809 13.6595 33.641C13.8362 33.3011 14.0627 32.8888 14.1732 32.7217C14.2782 32.5546 14.5544 32.1757 14.7864 31.8804C15.0184 31.5851 15.4548 31.1115 15.7586 30.8218C16.0624 30.5321 16.4878 30.1644 16.6977 30.0084C16.9076 29.8524 17.2611 29.6128 17.471 29.4735C17.6809 29.3398 18.0068 29.1503 18.1891 29.0612C18.3714 28.9665 18.8078 28.7771 19.1558 28.6378C19.5039 28.4985 19.9789 28.3313 20.2054 28.27C20.4319 28.2088 20.8462 28.114 21.1169 28.0639Z" fill="black"/>
<path d="M79.3674 29.5292C78.9255 29.5404 78.2184 29.5404 77.793 29.5292C77.3677 29.5236 77.7267 29.5125 78.594 29.5125C79.4613 29.5125 79.8093 29.5236 79.3674 29.5292Z" fill="black"/>
<path d="M109.943 44.9512L111.489 44.9234C112.34 44.9066 113.042 44.8899 113.047 44.8788C113.058 44.8732 113.064 44.8955 113.064 44.9234C113.064 44.9568 112.517 44.9735 109.943 44.9512Z" fill="black"/>
<path d="M122.769 46.372C122.764 46.6338 122.753 46.4332 122.753 45.9262C122.753 45.4192 122.764 45.2075 122.769 45.4526C122.78 45.6978 122.78 46.1101 122.769 46.372Z" fill="black"/>
<path fill-rule="evenodd" clip-rule="evenodd" d="M23.1999 28.7102L23.5148 28.7436C23.6861 28.7659 23.9181 28.8272 24.0341 28.8829C24.1445 28.9442 24.2882 29.0556 24.3489 29.1448C24.4318 29.2506 24.4649 29.3788 24.4594 29.5905C24.4594 29.7465 24.4263 29.9471 24.3931 30.0251C24.3545 30.1031 24.2219 30.2312 24.1059 30.3148C23.9678 30.4095 23.791 30.4708 23.6363 30.4875C23.4982 30.4987 23.3049 30.4931 23.0508 30.4318L23.095 29.9749C23.1171 29.7242 23.1502 29.3342 23.1668 29.1169L23.1999 28.7102ZM22.2332 28.7715C22.3879 28.7659 22.4708 28.7882 22.4708 28.8328C22.4708 28.8718 22.3934 28.9219 22.294 28.9442C22.1946 28.9665 22.0454 28.9888 21.957 28.9888C21.8189 28.9832 21.8079 28.9999 21.8079 29.2061C21.8079 29.3342 21.841 29.4456 21.8742 29.4624C21.9129 29.4791 22.0786 29.4735 22.2332 29.4456C22.4542 29.4122 22.526 29.4234 22.526 29.4735C22.526 29.5125 22.5315 29.5626 22.5371 29.5849C22.5481 29.6072 22.4155 29.6407 22.2443 29.6518C22.073 29.6685 21.9184 29.6964 21.9018 29.7075C21.8852 29.7242 21.8908 29.8691 21.946 30.3259L22.3272 30.2814C22.6862 30.2424 22.7028 30.2424 22.6862 30.3482C22.6641 30.443 22.5923 30.4708 22.2222 30.5265C21.9791 30.56 21.7748 30.5878 21.7692 30.5822C21.7637 30.5767 21.7195 30.2479 21.6698 29.8468C21.6256 29.4512 21.5814 29.0612 21.5704 28.9832C21.5593 28.8606 21.5869 28.8439 21.7803 28.8105C21.9018 28.7938 22.1062 28.7771 22.2332 28.7715ZM25.1112 28.9331C25.1333 28.9331 25.1775 28.9498 25.2107 28.9721C25.2549 28.9999 25.2273 29.2451 25.1002 29.8357C24.9566 30.5154 24.9124 30.6602 24.8295 30.6602C24.7798 30.6547 24.7356 30.6268 24.7356 30.5878C24.7356 30.5488 24.7964 30.2145 24.8737 29.8468C24.951 29.4791 25.0229 29.1225 25.0394 29.0556C25.056 28.9888 25.0892 28.9331 25.1112 28.9331ZM20.4821 29.0668C20.5042 29.1002 20.6037 29.2729 20.7031 29.4568C20.8081 29.6407 20.9959 29.9694 21.1229 30.1811C21.3107 30.4931 21.3439 30.5822 21.2776 30.6157C21.2334 30.638 21.1616 30.6268 21.1174 30.5878C21.0677 30.5488 21.029 30.4987 21.0345 30.4764C21.0345 30.4541 20.9406 30.2758 20.8302 30.0864C20.6368 29.7632 20.6258 29.7465 20.5871 29.8747C20.565 29.9527 20.5484 30.2034 20.5429 30.4318C20.5429 30.6658 20.5208 30.872 20.4987 30.8942C20.4711 30.9221 20.2722 30.7438 20.0568 30.5042C19.7088 30.1309 19.6535 30.0919 19.6591 30.2089C19.6591 30.2869 19.6867 30.5377 19.7254 30.7605C19.7806 31.0892 19.7751 31.1784 19.7198 31.2063C19.6812 31.2285 19.6425 31.2285 19.6259 31.2118C19.6149 31.2007 19.5375 30.7995 19.4602 30.3204C19.3829 29.8468 19.3276 29.4568 19.3331 29.4512C19.3442 29.4512 19.5652 29.6741 20.2998 30.4597L20.333 30.2368C20.3551 30.1142 20.3827 29.7911 20.3993 29.5125C20.4214 29.2395 20.4545 29.0389 20.4821 29.0668ZM26.4481 29.3788C26.6966 29.3732 26.785 29.4011 26.9397 29.5292C27.0833 29.6462 27.122 29.7075 27.0944 29.7911C27.0557 29.9025 27.0502 29.9025 26.9286 29.7799C26.8624 29.7131 26.7298 29.6351 26.6414 29.6072C26.5475 29.5849 26.3873 29.5849 26.2823 29.6072C26.1774 29.6351 26.0448 29.6964 25.984 29.7521C25.9288 29.8078 25.8459 29.9304 25.8073 30.0307C25.7576 30.1477 25.7465 30.2869 25.7686 30.4207C25.7907 30.5377 25.8736 30.6937 25.9509 30.7661C26.0282 30.8441 26.1663 30.9277 26.2547 30.9444C26.3486 30.9667 26.4757 30.9667 26.5475 30.9444C26.6524 30.911 26.6635 30.9221 26.6414 31.0335C26.6193 31.1338 26.5751 31.1561 26.4204 31.1561C26.3155 31.1561 26.1332 31.1171 26.0227 31.0614C25.9122 31.0057 25.7631 30.8775 25.6913 30.7661C25.5974 30.6212 25.5642 30.4987 25.5642 30.2647C25.5642 30.0697 25.6029 29.9025 25.6692 29.7911C25.7244 29.7019 25.857 29.5682 25.9564 29.5014C26.0945 29.4122 26.2271 29.3788 26.4481 29.3788ZM28.4201 30.4485C28.4367 30.5154 28.4035 30.8218 28.3538 31.1282C28.3041 31.4347 28.2323 31.8191 28.1992 31.9751C28.1439 32.2258 28.1218 32.2593 28.0334 32.2147C27.9561 32.1701 27.9451 32.1144 27.9727 31.925C28.0058 31.691 28.0003 31.6854 27.7351 31.4793C27.5915 31.3678 27.4313 31.2731 27.3871 31.2731C27.3429 31.2731 27.2269 31.3177 27.1386 31.3734C27.0115 31.457 26.9507 31.4625 26.8789 31.418C26.7961 31.3623 26.8844 31.2898 27.4866 30.9277C27.8732 30.6881 28.2378 30.4597 28.2931 30.4095C28.387 30.3315 28.398 30.3371 28.4201 30.4485ZM17.5655 30.6045C17.687 30.6045 17.7201 30.6268 17.7201 30.7104C17.7201 30.794 17.6815 30.8218 17.5931 30.8218C17.5213 30.8218 17.4108 30.8664 17.339 30.9221C17.2727 30.9778 17.2175 31.0558 17.2175 31.1004C17.2175 31.1505 17.2617 31.223 17.3114 31.2675C17.3887 31.34 17.4384 31.3455 17.6428 31.2843C17.7754 31.2453 17.9522 31.2174 18.035 31.2174C18.1234 31.2174 18.2449 31.262 18.3057 31.3121C18.372 31.3678 18.4548 31.4681 18.488 31.535C18.5211 31.6018 18.5377 31.7355 18.5211 31.8247C18.5046 31.9194 18.4217 32.0531 18.3278 32.1311C18.2284 32.2203 18.0903 32.276 17.9798 32.276C17.8859 32.276 17.7533 32.237 17.6925 32.1924C17.6318 32.1534 17.6041 32.0921 17.6262 32.0698C17.6539 32.042 17.792 32.0197 17.9301 32.0197C18.1455 32.0197 18.1952 32.003 18.2504 31.8804C18.3057 31.769 18.3057 31.7133 18.2394 31.5907C18.1952 31.5015 18.1179 31.4347 18.0516 31.4347C17.9908 31.4347 17.8361 31.4681 17.7036 31.5015C17.5765 31.535 17.4053 31.5517 17.3169 31.5294C17.2175 31.5071 17.1346 31.4235 17.0683 31.2954C16.9799 31.106 16.9799 31.0892 17.0849 30.911C17.1456 30.8107 17.2451 30.6992 17.3058 30.6658C17.3666 30.6324 17.4826 30.6045 17.5655 30.6045ZM23.2441 31.1895C23.6253 31.2007 24.1225 31.2453 24.3489 31.2898C24.5754 31.3344 24.9731 31.4458 25.2328 31.535C25.4924 31.6297 25.9012 31.7968 26.1442 31.9083C26.3873 32.0197 26.8237 32.2816 27.1109 32.4933C27.3982 32.6994 27.8456 33.0783 28.0997 33.3346C28.3704 33.6076 28.7295 34.0589 28.967 34.4155C29.188 34.7553 29.431 35.1676 29.5028 35.3348C29.5746 35.5075 29.7017 35.8306 29.7735 36.0591C29.8508 36.2931 29.9558 36.6775 30.0055 36.9226C30.0497 37.1678 30.116 37.6079 30.1436 37.8977C30.1767 38.2375 30.1767 38.6331 30.1436 38.9841C30.116 39.2905 30.0552 39.7307 30.0055 39.9591C29.9613 40.1931 29.8508 40.5999 29.7624 40.8673C29.6685 41.1347 29.5194 41.5136 29.4255 41.703C29.3261 41.8924 29.1161 42.2602 28.9559 42.5109C28.7902 42.7616 28.4754 43.1628 28.2544 43.3968C28.039 43.6308 27.713 43.9372 27.5418 44.0765C27.3706 44.2213 27.122 44.4164 26.9894 44.5111C26.8568 44.6114 26.5254 44.8008 26.2547 44.9345C25.9785 45.0738 25.4814 45.2744 25.1499 45.3858C24.813 45.4972 24.3655 45.6142 24.1556 45.6532C23.9402 45.6867 23.4209 45.7145 22.9956 45.7145C22.5702 45.7145 22.062 45.6867 21.8631 45.6477C21.6643 45.6142 21.2279 45.4917 20.8964 45.3858C20.5595 45.2744 20.0623 45.0738 19.7916 44.9345C19.5154 44.8008 19.0183 44.4776 18.6868 44.2213C18.3057 43.9316 17.9245 43.5751 17.6594 43.2686C17.4274 42.9956 17.1346 42.6 17.002 42.3827C16.8694 42.171 16.6595 41.7699 16.527 41.4913C16.3999 41.2183 16.2287 40.7781 16.1569 40.5163C16.0795 40.26 15.9911 39.8421 15.9525 39.597C15.9138 39.3518 15.8807 38.8281 15.8807 38.427C15.8807 38.0202 15.9193 37.4854 15.969 37.2012C16.0188 36.9282 16.1182 36.4992 16.1955 36.2541C16.2729 36.0089 16.4496 35.5743 16.5932 35.279C16.7313 34.9893 16.9357 34.616 17.0462 34.4433C17.1512 34.2762 17.4329 33.914 17.6649 33.6354C17.9135 33.3457 18.3167 32.9613 18.6371 32.7161C18.9409 32.4821 19.3718 32.1868 19.5983 32.0643C19.8248 31.9361 20.2833 31.7355 20.6202 31.613C20.9517 31.4904 21.3494 31.3623 21.5041 31.3288C21.6532 31.2954 21.9515 31.2397 22.167 31.2174C22.3769 31.1895 22.863 31.1728 23.2441 31.1895ZM29.652 31.3567C29.7238 31.4291 29.6741 31.5015 28.6576 32.5211L28.8344 32.705C28.9836 32.8499 29.0057 32.9 28.9449 32.9557C28.8897 33.0114 28.8234 32.9724 28.3538 32.4988L28.9615 31.886C29.4918 31.3511 29.5746 31.2898 29.652 31.3567ZM16.4054 31.5517C16.4331 31.5517 16.4883 31.6687 16.5325 31.8135C16.5767 31.9584 16.6153 32.1088 16.6153 32.1478C16.6153 32.1868 16.5988 32.2203 16.5712 32.2203C16.5491 32.2203 16.4551 32.0921 16.3668 31.9361C16.2287 31.691 16.2121 31.6408 16.2839 31.5963C16.3281 31.574 16.3833 31.5517 16.4054 31.5517ZM15.7978 32.2147C15.8199 32.2147 15.853 32.2426 15.8696 32.2704C15.8862 32.3038 15.8088 32.4543 15.5105 32.8833L15.8696 33.1619L15.958 33.0393C16.0077 32.9724 16.0961 32.8554 16.1513 32.7774C16.2231 32.6883 16.2894 32.6548 16.3502 32.6827C16.4386 32.7161 16.4275 32.7496 16.2563 32.9836C16.1458 33.1284 16.0574 33.2621 16.0629 33.2733C16.0629 33.29 16.1679 33.3847 16.295 33.485C16.4275 33.5853 16.5435 33.6689 16.5601 33.6633C16.5767 33.6633 16.6706 33.5407 16.7645 33.3847C16.886 33.2064 16.9744 33.1173 17.0296 33.134C17.0738 33.1507 17.1125 33.1841 17.1125 33.2064C17.118 33.2287 17.002 33.407 16.8639 33.5964C16.7258 33.7859 16.5988 33.9474 16.5712 33.9474C16.5491 33.9474 16.422 33.8694 16.2839 33.7692C16.1458 33.6744 15.9083 33.485 15.7591 33.3569C15.6045 33.2287 15.4277 33.095 15.3559 33.0616C15.2896 33.0281 15.2343 32.9669 15.2343 32.9279C15.2343 32.8889 15.3504 32.7161 15.494 32.5378C15.6321 32.3596 15.7702 32.2147 15.7978 32.2147ZM30.8341 33.2231C30.928 33.2454 31.0661 33.29 31.1434 33.3234C31.2208 33.3624 31.3478 33.4962 31.4362 33.6243C31.5191 33.7524 31.5854 33.9084 31.5909 33.9697C31.5909 34.031 31.5577 34.1146 31.5191 34.1536C31.4638 34.2037 31.4362 34.1703 31.3755 33.9697C31.3313 33.8026 31.2484 33.6744 31.1269 33.5853C31.033 33.5073 30.8562 33.4293 30.7402 33.4126C30.5634 33.3847 30.5027 33.4014 30.3204 33.5519C30.2044 33.6466 30.0828 33.7859 30.0442 33.8639C30.011 33.9363 29.9834 34.0644 29.9834 34.1369C29.9834 34.2149 30.0166 34.3486 30.0607 34.4322C30.0994 34.5157 30.2044 34.6216 30.2817 34.6662C30.3646 34.7163 30.4253 34.772 30.4253 34.7943C30.4253 34.8166 30.3701 34.85 30.2983 34.8723C30.2044 34.8946 30.1381 34.8612 30.0221 34.733C29.9392 34.6327 29.8453 34.4545 29.8177 34.3319C29.7845 34.1926 29.779 34.0366 29.8122 33.9029C29.8453 33.7859 29.9226 33.6187 29.9945 33.5352C30.0663 33.446 30.1712 33.3457 30.232 33.3123C30.2928 33.2844 30.4143 33.2399 30.5027 33.2231C30.591 33.2009 30.7402 33.2009 30.8341 33.2231ZM14.8532 33.5519C14.8863 33.5519 14.9747 33.7692 15.0465 34.0254C15.157 34.4155 15.1957 34.499 15.273 34.4767C15.3283 34.46 15.5768 34.3987 15.8254 34.3375C16.0795 34.2762 16.306 34.2205 16.3391 34.2205C16.3723 34.2205 16.3668 34.2762 16.3226 34.3597C16.2673 34.4767 16.1845 34.5157 15.842 34.5882C15.6155 34.6383 15.3945 34.6885 15.3559 34.6996C15.3227 34.7107 15.2896 34.7497 15.2896 34.7776C15.2896 34.811 15.4387 34.9002 15.621 34.9726C15.9193 35.1008 15.9469 35.1286 15.8972 35.2233C15.842 35.3348 15.8088 35.318 15.0686 34.9615C14.6433 34.7553 14.2953 34.5715 14.2953 34.5547C14.2953 34.5436 14.3229 34.4935 14.3505 34.4433C14.3947 34.3765 14.4444 34.382 14.6819 34.5157C14.8311 34.5993 14.9747 34.6606 14.9913 34.655C15.0079 34.6495 14.9581 34.4266 14.8753 34.1647C14.7924 33.9084 14.7427 33.6633 14.7593 33.6243C14.7759 33.5853 14.82 33.5519 14.8532 33.5519ZM31.8892 34.7832C31.9168 34.7776 32.0107 34.9447 32.0936 35.1565C32.182 35.3626 32.2482 35.5632 32.2482 35.6022C32.2482 35.6412 32.2041 35.6746 32.1488 35.6746C32.0825 35.6746 32.0273 35.5855 31.9555 35.3682C31.9058 35.1955 31.845 35.0562 31.8174 35.0562C31.7953 35.0562 31.6958 35.084 31.5964 35.1119C31.4417 35.162 31.4252 35.1843 31.4528 35.3236C31.4749 35.4072 31.5136 35.5353 31.5357 35.6022C31.5633 35.669 31.5854 35.7638 31.5854 35.8083C31.5854 35.8585 31.5467 35.8919 31.5025 35.8919C31.4528 35.8919 31.3865 35.7861 31.3313 35.6022C31.2815 35.4406 31.2318 35.2902 31.2208 35.2679C31.2097 35.2456 31.0661 35.279 30.9059 35.3403C30.7512 35.4016 30.6131 35.4573 30.6021 35.4629C30.5966 35.4685 30.6408 35.6078 30.7015 35.7693C30.7623 35.9309 30.812 36.0869 30.812 36.1148C30.812 36.1482 30.7678 36.1761 30.7126 36.1761C30.6463 36.1761 30.58 36.0646 30.4806 35.7582C30.4032 35.5298 30.3535 35.3292 30.3701 35.3125C30.3867 35.2958 30.7181 35.1732 31.1158 35.0395C31.508 34.9002 31.856 34.7887 31.8892 34.7832ZM14.2124 35.3626C14.3008 35.3793 14.577 35.4573 14.82 35.5353C15.0631 35.6133 15.3283 35.7359 15.4111 35.8139C15.5437 35.9253 15.5658 35.9978 15.5658 36.2262C15.5658 36.4658 15.5382 36.5326 15.4001 36.6719C15.262 36.8112 15.1902 36.8391 14.9692 36.8391C14.8256 36.8391 14.5218 36.7889 14.2953 36.7276C14.0688 36.6664 13.8368 36.6051 13.7815 36.5884C13.7318 36.5772 13.6876 36.5438 13.6876 36.5215C13.6876 36.4992 13.7097 36.4491 13.7318 36.4045C13.765 36.3488 13.8644 36.3599 14.24 36.4769C14.4997 36.5605 14.8035 36.6329 14.9195 36.6385C15.0907 36.6441 15.157 36.6162 15.2399 36.5048C15.3006 36.4323 15.3504 36.2875 15.3448 36.1872C15.3448 36.0479 15.3062 35.9811 15.1902 35.9086C15.1018 35.8529 14.7924 35.7526 14.4997 35.6858C14.1682 35.6078 13.9583 35.5298 13.9528 35.4852C13.9473 35.4462 13.9694 35.3905 13.997 35.3682C14.0246 35.3459 14.1185 35.3459 14.2124 35.3626ZM32.3698 36.3432C32.425 36.3432 32.4692 36.3711 32.4692 36.4101C32.4692 36.4491 32.3532 36.6162 32.2151 36.7834C32.0715 36.9561 31.8505 37.2346 31.7179 37.4129C31.5854 37.5912 31.4859 37.7528 31.508 37.7751C31.5246 37.7974 31.7511 37.7862 32.0162 37.7472C32.2814 37.7082 32.541 37.6804 32.5907 37.6748C32.657 37.6748 32.6846 37.7138 32.6736 37.7751C32.6625 37.8587 32.53 37.8921 31.8339 37.9868C31.3755 38.0481 30.9998 38.0815 30.9888 38.0592C30.9833 38.0314 31.0661 37.9032 31.1711 37.7751C31.276 37.6469 31.5136 37.3405 32.0218 36.6552L31.7345 36.6886C31.5743 36.7109 31.2871 36.7444 31.0937 36.7666C30.7623 36.8112 30.7457 36.8056 30.7623 36.6998C30.7789 36.6274 30.8396 36.5828 30.9501 36.5716C31.044 36.5605 31.3755 36.5103 31.6958 36.4491C32.0162 36.3933 32.3201 36.3488 32.3698 36.3432ZM15.2123 37.2291C15.273 37.2291 15.2896 37.3238 15.2896 37.5912C15.2896 37.7918 15.273 37.9645 15.2454 37.9812C15.2233 37.9924 14.9195 37.9812 14.5715 37.9478C14.2235 37.9199 13.8533 37.8865 13.7539 37.8698C13.6324 37.8531 13.5771 37.8141 13.5771 37.7472C13.5771 37.6581 13.6269 37.6525 14.3118 37.7082C14.7096 37.7417 15.0465 37.7695 15.0576 37.7639C15.0631 37.7639 15.0852 37.6414 15.1073 37.4965C15.1239 37.3238 15.1625 37.2291 15.2123 37.2291ZM32.5686 38.5662C32.646 38.5662 32.6625 38.6052 32.6515 38.7501C32.6404 38.8504 32.6349 39.0733 32.6349 39.2515C32.6349 39.5357 32.6239 39.5691 32.5244 39.5691C32.4305 39.5691 32.414 39.5357 32.414 39.1234H32.1764C32.0494 39.129 31.7124 39.1067 31.4307 39.0844C30.9998 39.051 30.9225 39.0287 30.9225 38.9451C30.9225 38.856 30.9722 38.8504 31.4583 38.8783C31.7566 38.895 32.1046 38.9173 32.4692 38.9563V38.7612C32.4692 38.6108 32.4913 38.5662 32.5686 38.5662ZM15.2067 39.2348C15.2509 39.2348 15.3006 39.2627 15.3172 39.2905C15.3338 39.324 15.3117 39.3853 15.273 39.4354C15.2178 39.5078 15.1957 39.5078 15.1294 39.4465C15.0907 39.4075 15.0742 39.3463 15.0907 39.3073C15.1128 39.2683 15.1681 39.2348 15.2067 39.2348ZM30.917 39.7976C30.9667 39.7976 31.3478 39.8644 32.53 40.0984L32.4968 40.2934C32.4747 40.4049 32.4361 40.611 32.4084 40.7559C32.3698 40.9676 32.3366 41.0177 32.2482 41.0177C32.1709 41.0177 32.1433 40.9899 32.1654 40.923C32.1764 40.8673 32.2151 40.7113 32.2427 40.572C32.2759 40.4383 32.2814 40.3101 32.2593 40.2878C32.2372 40.2711 32.1267 40.2377 32.0107 40.221C31.8174 40.1876 31.8063 40.1931 31.7787 40.3491C31.7621 40.4439 31.74 40.5943 31.7235 40.6834C31.7014 40.806 31.6627 40.8506 31.5854 40.8506C31.508 40.8506 31.4804 40.8227 31.5025 40.7559C31.5136 40.7001 31.5412 40.5831 31.5577 40.4884C31.5798 40.3993 31.6075 40.2823 31.6185 40.2266C31.6351 40.1486 31.5964 40.1207 31.4307 40.0984C31.3202 40.0817 31.1711 40.0538 31.0993 40.0427C30.9888 40.0204 30.9722 40.0483 30.9059 40.3547C30.8562 40.611 30.8175 40.689 30.7402 40.689C30.6776 40.6853 30.6537 40.6519 30.6684 40.5887C30.685 40.533 30.7236 40.3324 30.7623 40.143C30.8065 39.8811 30.8451 39.792 30.917 39.7976ZM13.7871 40.1931C13.8368 40.2043 13.892 40.2934 13.9196 40.3937C13.9583 40.5553 13.9804 40.572 14.113 40.5386C14.2014 40.5163 14.5273 40.4327 14.8477 40.3547C15.2454 40.2488 15.4387 40.221 15.4664 40.2656C15.4885 40.299 15.5105 40.3436 15.5105 40.3658C15.5105 40.3881 15.3559 40.455 15.1625 40.5107C14.9747 40.5664 14.6709 40.6444 14.4886 40.6834C14.3063 40.7169 14.124 40.767 14.0909 40.7893C14.0412 40.8171 14.0356 40.8729 14.0743 41.0066C14.1185 41.1514 14.113 41.1904 14.0467 41.2127C14.0025 41.2294 13.9528 41.2406 13.9362 41.2406C13.9196 41.2406 13.8589 41.0233 13.7981 40.7559C13.7373 40.4884 13.6932 40.2488 13.6932 40.221C13.6932 40.1987 13.7373 40.182 13.7871 40.1931ZM30.5192 41.0734C30.5469 41.0734 30.812 41.1793 31.1158 41.3019C31.4196 41.43 31.7621 41.5693 31.8781 41.6194C31.9941 41.664 32.088 41.7197 32.088 41.7364C32.088 41.7587 32.0494 41.8646 31.9997 41.9816C31.9555 42.0986 31.8671 42.2379 31.8063 42.2992C31.7456 42.366 31.624 42.4106 31.5301 42.4106C31.4362 42.4106 31.3036 42.3827 31.2263 42.3437C31.149 42.3047 31.0661 42.2156 31.033 42.1487C31.0053 42.0819 30.9777 41.9872 30.9777 41.937C30.9777 41.8924 30.9446 41.8646 30.9059 41.8757C30.8728 41.8869 30.696 41.9315 30.5248 41.976C30.3535 42.015 30.1878 42.0317 30.1657 42.0095C30.1436 41.9872 30.1602 41.9314 30.2044 41.8869C30.2486 41.8367 30.4695 41.7587 30.685 41.7142C30.9059 41.6696 31.0882 41.6083 31.0882 41.5749C31.0882 41.547 30.9501 41.4634 30.7844 41.3966C30.5745 41.313 30.4806 41.2406 30.4806 41.1737C30.4806 41.118 30.4971 41.0734 30.5192 41.0734ZM15.4829 41.1626C15.5713 41.1793 15.7039 41.2462 15.7757 41.313C15.842 41.3799 15.9138 41.5247 15.9304 41.6306C15.9469 41.7754 15.9248 41.8813 15.842 42.0095C15.7812 42.1097 15.7039 42.1877 15.6763 42.1877C15.6431 42.1877 15.61 42.1487 15.5934 42.093C15.5768 42.0373 15.5989 41.9593 15.6486 41.9092C15.6928 41.8646 15.7315 41.7754 15.7315 41.7142C15.7315 41.6529 15.6928 41.547 15.6486 41.4802C15.6045 41.4133 15.5105 41.352 15.4387 41.352C15.3724 41.352 15.273 41.3854 15.2178 41.4244C15.1404 41.4746 15.1073 41.5972 15.0797 41.8757C15.0465 42.1877 15.0189 42.2713 14.9029 42.366C14.8256 42.4217 14.7096 42.4719 14.6378 42.4719C14.5715 42.4719 14.4389 42.3939 14.3505 42.2992C14.24 42.1877 14.1848 42.0763 14.1848 41.9649C14.1848 41.8757 14.1958 41.7643 14.2124 41.7142C14.229 41.664 14.2732 41.6473 14.3284 41.6752C14.3892 41.703 14.4057 41.7643 14.3837 41.8702C14.3616 41.9816 14.3837 42.054 14.461 42.132C14.5218 42.1933 14.6212 42.2435 14.6819 42.2435C14.7427 42.2435 14.8145 42.2045 14.8421 42.1487C14.8698 42.093 14.8919 41.9147 14.8974 41.742C14.8974 41.5526 14.9361 41.4022 14.9913 41.3353C15.041 41.274 15.1294 41.2072 15.1957 41.1793C15.262 41.157 15.389 41.1459 15.4829 41.1626ZM15.9801 43.263C16.0408 43.2686 16.0961 43.3243 16.1071 43.3856C16.1182 43.4469 16.0906 43.5305 16.0519 43.5695C16.0132 43.6085 15.9359 43.6252 15.8807 43.6085C15.8309 43.5973 15.7812 43.5249 15.7757 43.4525C15.7702 43.38 15.7923 43.3076 15.8144 43.2853C15.842 43.263 15.9138 43.2519 15.9801 43.263ZM30.0939 43.2575C30.1878 43.2742 30.2375 43.3132 30.243 43.4023C30.2541 43.4803 30.2209 43.5472 30.1491 43.5806C30.0718 43.6252 30.011 43.6196 29.9558 43.5695C29.9061 43.5305 29.8674 43.458 29.8619 43.4135C29.8564 43.3633 29.8785 43.3076 29.9005 43.2853C29.9282 43.263 30.0166 43.2519 30.0939 43.2575ZM17.2782 43.9706C17.2948 43.9706 17.3942 44.0653 17.5047 44.1824C17.6207 44.2994 17.7257 44.4721 17.7422 44.5724C17.7699 44.7228 17.7478 44.7841 17.6152 44.9345C17.4881 45.0738 17.4053 45.1128 17.2617 45.1128C17.1456 45.1128 16.9965 45.0627 16.7258 44.8621L16.4607 45.0849C16.2563 45.2577 16.1845 45.2911 16.1292 45.2409C16.074 45.1852 16.1845 45.0515 16.654 44.5724C16.9799 44.2436 17.2617 43.9706 17.2782 43.9706ZM28.8786 44.0876C28.8952 44.0876 28.9449 44.1099 28.9891 44.1322C29.0333 44.1601 29.0554 44.2102 29.0278 44.2436C29.0057 44.2771 28.9559 44.3049 28.9118 44.3049C28.8731 44.3049 28.7847 44.3495 28.7184 44.4052C28.6521 44.4609 28.5969 44.5501 28.5969 44.6114C28.5969 44.6726 28.6356 44.7618 28.6853 44.8064C28.7681 44.8844 28.8068 44.8844 29.0333 44.7952C29.1769 44.7395 29.3537 44.6949 29.431 44.6949C29.5083 44.6949 29.6354 44.7451 29.7183 44.8064C29.8066 44.8676 29.8895 44.9902 29.9061 45.0738C29.9226 45.1574 29.895 45.3189 29.8508 45.4359C29.8011 45.5529 29.7127 45.6699 29.652 45.6978C29.5912 45.7312 29.4642 45.7535 29.3758 45.7535C29.2819 45.7535 29.1714 45.7424 29.1272 45.7257C29.083 45.7145 29.0443 45.6644 29.0443 45.6142C29.0443 45.5697 29.0775 45.5195 29.1106 45.5028C29.1493 45.4805 29.2377 45.4972 29.304 45.5307C29.4089 45.5752 29.4586 45.5697 29.5691 45.4749C29.6464 45.4137 29.7072 45.3134 29.7072 45.2521C29.7072 45.1908 29.6796 45.0905 29.652 45.0292C29.6188 44.9624 29.5415 44.9178 29.4421 44.9234C29.3592 44.9234 29.1769 44.9568 29.0278 45.0069C28.8399 45.0627 28.7295 45.0738 28.63 45.0292C28.5527 45.0014 28.4643 44.9234 28.4367 44.8621C28.4035 44.8008 28.3814 44.6949 28.3814 44.6281C28.3759 44.5612 28.4312 44.4331 28.4919 44.3439C28.5582 44.2604 28.6632 44.1656 28.7295 44.1378C28.7957 44.1155 28.862 44.0932 28.8786 44.0876ZM18.2946 44.9011C18.3388 44.9178 18.3775 44.9456 18.3775 44.9679C18.383 44.9902 18.3057 45.1184 18.2173 45.2521C18.1289 45.3914 18.0516 45.5251 18.0516 45.5474C18.0516 45.5697 18.1897 45.6755 18.3554 45.7814C18.5211 45.8928 18.6758 45.982 18.6979 45.982C18.7255 45.982 18.8139 45.8538 18.9078 45.7034C18.9962 45.5474 19.0846 45.4248 19.1011 45.4192C19.1177 45.4192 19.1564 45.4471 19.195 45.4917C19.2448 45.5474 19.1674 45.7034 18.8084 46.255C18.5598 46.6338 18.3223 46.957 18.2836 46.9625C18.2504 46.9737 18.2063 46.9458 18.1897 46.8957C18.1731 46.8511 18.2615 46.6728 18.5985 46.1714L18.2725 45.9652C18.0903 45.8482 17.9356 45.7535 17.9245 45.7535C17.919 45.7535 17.8141 45.8928 17.6925 46.06C17.571 46.2327 17.4384 46.372 17.3998 46.372C17.3666 46.372 17.3224 46.3441 17.3058 46.3107C17.2893 46.2828 17.35 46.1658 17.4329 46.0488C17.5213 45.9318 17.7312 45.6198 17.9024 45.3524C18.1234 45.0069 18.2339 44.8788 18.2946 44.9011ZM27.8291 44.9234C27.8456 44.9178 27.8898 44.9512 27.923 44.9902C27.9782 45.0459 27.9395 45.0961 27.7186 45.2409C27.5639 45.3412 27.4424 45.4471 27.4424 45.4749C27.4424 45.5084 27.4921 45.6087 27.6633 45.865L27.9506 45.6755C28.1108 45.5697 28.2599 45.4917 28.282 45.5084C28.3096 45.5195 28.3262 45.5641 28.3262 45.6031C28.3317 45.6421 28.2047 45.7535 27.7738 46.0321L27.9506 46.2995C28.0445 46.4444 28.1273 46.567 28.1273 46.5725C28.1329 46.5837 28.2544 46.4945 28.4091 46.3887C28.5582 46.2772 28.7184 46.2048 28.7516 46.2215C28.7902 46.2438 28.8234 46.2772 28.8234 46.2995C28.8289 46.3218 28.6853 46.4444 28.5085 46.567C28.3317 46.6951 28.155 46.8121 28.1163 46.8344C28.0721 46.8567 27.8843 46.6227 27.5639 46.138C27.1772 45.5474 27.0999 45.3969 27.1662 45.3635C27.2104 45.3357 27.3706 45.2298 27.5252 45.1239C27.6744 45.0125 27.8125 44.9234 27.8291 44.9234ZM26.658 45.709C26.669 45.7034 26.7629 45.9597 26.8734 46.2717C26.9839 46.5837 27.1165 46.957 27.1772 47.0907C27.2325 47.23 27.2711 47.3526 27.2656 47.3581C27.2546 47.3637 26.9397 47.2244 26.5585 47.0461C26.1774 46.8623 25.8128 46.7007 25.741 46.684C25.6195 46.6505 25.6195 46.6505 25.6968 46.8567C25.741 46.9737 25.8404 47.2355 25.9177 47.4417C26.0503 47.7871 26.0558 47.8206 25.9619 47.8484C25.9122 47.8596 25.8625 47.8651 25.857 47.8596C25.8515 47.854 25.7078 47.4807 25.5421 47.035C25.3764 46.5948 25.2493 46.2215 25.2604 46.216C25.277 46.2104 25.625 46.3664 26.0338 46.5614C26.4425 46.762 26.8016 46.9235 26.8347 46.9235C26.8624 46.9235 26.7905 46.6673 26.669 46.3552C26.5475 46.0432 26.4425 45.7814 26.437 45.7758C26.426 45.7702 26.4701 45.7535 26.5309 45.7368C26.5917 45.7257 26.6469 45.709 26.658 45.709ZM19.7695 45.7535C19.7972 45.7535 19.8303 45.787 19.8469 45.826C19.8635 45.865 19.8137 46.0432 19.7364 46.2271C19.6535 46.411 19.4989 46.7453 19.3884 46.9681C19.2521 47.2393 19.1564 47.3693 19.1011 47.3581C19.0514 47.347 19.0293 47.2968 19.0404 47.23C19.0514 47.1687 19.2116 46.8121 19.3939 46.4388C19.5762 46.0655 19.7419 45.7535 19.7695 45.7535ZM20.4324 46.0321C20.4877 46.0321 20.5374 46.0711 20.5374 46.1157C20.5374 46.1658 20.4379 46.4778 20.3164 46.8121C20.1949 47.152 20.0955 47.464 20.0955 47.5086C20.0955 47.5643 20.1838 47.6144 20.344 47.6478C20.4821 47.6813 20.5926 47.7314 20.5926 47.7593C20.5926 47.7927 20.5595 47.8317 20.5208 47.854C20.4877 47.8707 20.3109 47.8428 20.1341 47.7816C19.9076 47.7091 19.8248 47.6534 19.8414 47.5921C19.8579 47.5476 19.9684 47.1798 20.0955 46.7731C20.2833 46.1547 20.3385 46.0321 20.4324 46.0321ZM21.4046 46.3107C21.4765 46.3107 21.5317 46.333 21.5317 46.3552C21.5317 46.3775 21.4544 46.723 21.3605 47.1185C21.2721 47.5197 21.1837 47.8874 21.1671 47.9431C21.1561 47.9988 21.1064 48.0378 21.0622 48.0378C21.018 48.0378 20.9793 48.01 20.9793 47.971C20.9738 47.932 21.0456 47.542 21.1284 47.1074C21.2721 46.3608 21.2886 46.3107 21.4046 46.3107ZM24.7301 46.3552C24.7467 46.3664 24.8295 46.7453 24.9124 47.1965C25.0284 47.8206 25.045 48.0211 24.9952 48.0546C24.9566 48.0769 24.9179 48.0936 24.9013 48.0991C24.8848 48.0991 24.8074 47.7537 24.7246 47.3303C24.6417 46.9068 24.5644 46.5224 24.5588 46.4722C24.5533 46.4221 24.5809 46.3664 24.6251 46.3552C24.6638 46.3385 24.7135 46.3385 24.7301 46.3552ZM22.2443 46.4444C22.3824 46.4667 22.5702 46.528 22.6641 46.5837C22.7912 46.6561 22.8354 46.7285 22.8464 46.8734C22.8575 46.9793 22.8519 47.1241 22.8354 47.191C22.8133 47.2634 22.7249 47.3526 22.6089 47.3971C22.5039 47.4473 22.3382 47.4807 22.2498 47.4807C22.1007 47.4807 22.0841 47.4974 22.0841 47.6646C22.0841 47.7648 22.0675 47.9264 22.0454 48.0267C22.0178 48.127 21.9902 48.2106 21.9736 48.2106C21.957 48.205 21.9184 48.1883 21.8852 48.166C21.841 48.1381 21.8466 47.9041 21.8963 47.3414C21.9349 46.9124 21.9736 46.528 21.9791 46.489C21.9902 46.4277 22.051 46.4165 22.2443 46.4444ZM23.5756 46.4778C23.7247 46.4778 23.9181 46.5168 24.0009 46.5558C24.0893 46.6004 24.1722 46.6728 24.1943 46.723C24.2219 46.7731 24.2385 46.9013 24.2385 47.0071C24.2385 47.1575 24.1998 47.2355 24.0727 47.3414C23.9678 47.4306 23.8407 47.4807 23.548 47.4807L23.5866 47.8428C23.6253 48.166 23.6198 48.2106 23.5314 48.2384C23.4817 48.2496 23.432 48.2551 23.4264 48.2496C23.4154 48.244 23.3878 47.9097 23.3546 47.5086C23.327 47.113 23.2994 46.7174 23.2994 46.6338C23.2994 46.489 23.3104 46.4778 23.5756 46.4778Z" fill="white"/>
<path d="M18.245 40.2988C18.1787 39.9199 18.1621 39.2012 18.1621 36.6327V33.4458L27.8346 33.4737L27.8291 36.7497C27.8291 39.5411 27.818 40.0759 27.7407 40.3991C27.691 40.6052 27.5805 40.9562 27.4921 41.1791C27.4038 41.3964 27.1773 41.831 26.9895 42.143C26.7961 42.4494 26.4315 42.9397 26.1719 43.2238C25.9123 43.5136 25.4151 43.976 25.0671 44.2546C24.7191 44.5331 24.1777 44.912 23.8629 45.0959C23.537 45.2853 23.2 45.4413 23.0674 45.458C22.9348 45.4803 22.7084 45.4636 22.5537 45.4302C22.3659 45.3856 22.1062 45.2407 21.7251 44.9622C21.4157 44.7393 20.9407 44.3604 20.6645 44.1153C20.3828 43.8701 19.9519 43.4188 19.6978 43.1124C19.4437 42.806 19.1288 42.3825 18.9907 42.1652C18.8581 41.948 18.6537 41.5524 18.5377 41.2738C18.4217 40.9952 18.2892 40.5606 18.245 40.2988Z" fill="#757575"/>
<path fill-rule="evenodd" clip-rule="evenodd" d="M23.5263 28.9329C23.5871 28.9329 23.7141 28.9663 23.808 29.0053C23.9075 29.0499 24.0456 29.1557 24.1174 29.2449C24.1892 29.3396 24.2444 29.4789 24.2389 29.5903C24.2389 29.685 24.2002 29.8466 24.156 29.9357C24.1118 30.0249 23.9958 30.1419 23.9075 30.1865C23.8191 30.231 23.6534 30.27 23.3551 30.27V29.9747C23.3551 29.8187 23.3716 29.5179 23.3882 29.3062C23.4213 28.9886 23.4434 28.9329 23.5263 28.9329ZM28.1444 30.7715C28.1996 30.7715 28.2051 30.816 28.1665 30.9553C28.1388 31.05 28.1002 31.2005 28.0505 31.4401L27.8295 31.2896C27.7024 31.2005 27.5975 31.128 27.592 31.1225C27.5864 31.1169 27.6914 31.0389 27.8295 30.9442C27.9676 30.8495 28.1112 30.777 28.1444 30.7715ZM22.9684 31.5013C23.3827 31.4958 23.8577 31.5292 24.156 31.5793C24.4267 31.6295 24.8244 31.7186 25.0399 31.7799C25.2553 31.8468 25.6254 31.9861 25.8685 32.0975C26.1115 32.2089 26.4706 32.4095 26.6695 32.5488C26.8683 32.6881 27.1279 32.8664 27.2495 32.9499C27.371 33.0335 27.5478 33.1784 27.8019 33.4458H23.0347C20.2837 33.4458 18.2785 33.4235 18.284 33.3957C18.2951 33.3678 18.4387 33.2341 18.6044 33.0948C18.7701 32.9611 19.1458 32.6992 19.433 32.5154C19.7203 32.3315 20.1788 32.0919 20.455 31.9805C20.7256 31.8691 21.1731 31.7298 21.4493 31.6685C21.72 31.6072 22.0238 31.5459 22.1122 31.5348C22.2005 31.5236 22.5872 31.5069 22.9684 31.5013ZM18.1349 33.5294L18.1625 36.9002C18.1901 39.7193 18.2122 40.3211 18.284 40.5774C18.3337 40.7445 18.4498 41.0732 18.5437 41.3017C18.6431 41.5301 18.8364 41.909 18.9745 42.1374C19.1182 42.3658 19.4275 42.7948 19.6706 43.0846C19.9081 43.3743 20.3611 43.8367 20.6704 44.1153C20.9797 44.3939 21.4659 44.7783 21.7476 44.9789C22.0238 45.1794 22.2226 45.3466 22.184 45.3577C22.1453 45.3689 21.9022 45.3355 21.6426 45.2853C21.383 45.2296 20.9632 45.1126 20.7035 45.0234C20.4439 44.9287 20.0959 44.7839 19.9302 44.6947C19.7645 44.6056 19.4993 44.4551 19.3502 44.3604C19.1955 44.2657 18.9635 44.0986 18.8254 43.9871C18.6873 43.8757 18.4442 43.6584 18.2785 43.5024C18.1183 43.352 17.8255 43.0233 17.6377 42.7781C17.4444 42.533 17.2013 42.182 17.0964 41.9981C16.9859 41.8142 16.7981 41.4131 16.6766 41.1067C16.555 40.8002 16.4059 40.3601 16.3451 40.1316C16.2899 39.9032 16.2125 39.4241 16.1794 39.073C16.1407 38.6329 16.1407 38.2485 16.1794 37.8473C16.207 37.5242 16.2733 37.1007 16.3175 36.9002C16.3617 36.6996 16.4998 36.2761 16.6213 35.953C16.7428 35.6298 16.9528 35.1674 17.0964 34.9223C17.2345 34.6771 17.4499 34.354 17.5714 34.198C17.693 34.0475 17.8697 33.8302 17.9636 33.7244L18.1349 33.5294ZM28.1886 33.847C28.3377 34.0085 28.5587 34.3038 28.6857 34.5044C28.8128 34.705 28.9951 35.0114 29.089 35.1841C29.1884 35.3624 29.332 35.6633 29.4094 35.8527C29.4867 36.0477 29.6137 36.4544 29.6911 36.7609C29.796 37.1899 29.8347 37.5186 29.8568 38.1816C29.8789 38.8279 29.8623 39.1845 29.8016 39.5856C29.7518 39.8865 29.6469 40.3378 29.5696 40.5885C29.4867 40.8448 29.3265 41.2515 29.205 41.4967C29.0834 41.7418 28.8459 42.1485 28.6857 42.3993C28.52 42.6555 28.1554 43.0957 27.8737 43.3798C27.592 43.664 27.139 44.0484 26.8683 44.2379C26.5921 44.4217 26.2441 44.639 26.095 44.717C25.9403 44.7894 25.6033 44.9287 25.3492 45.0234C25.0896 45.1126 24.6919 45.2296 24.4654 45.2742C24.2334 45.3243 23.8854 45.3745 23.692 45.3912C23.4932 45.4135 23.344 45.419 23.3606 45.4023C23.3716 45.3912 23.6368 45.2352 23.9406 45.0513C24.2444 44.873 24.7637 44.5053 25.1006 44.2379C25.4321 43.9649 25.9182 43.5136 26.1778 43.2238C26.4319 42.9397 26.802 42.4494 26.9898 42.143C27.1777 41.831 27.4097 41.3964 27.4981 41.1735C27.5864 40.9562 27.6969 40.6052 27.7466 40.3935C27.8184 40.0704 27.8295 39.5745 27.824 36.8277C27.8184 34.9445 27.835 33.6129 27.8626 33.5907C27.8903 33.5684 28.0394 33.6798 28.1886 33.847ZM31.2986 41.636C31.3207 41.636 31.4588 41.6861 31.6024 41.7474C31.7736 41.8198 31.851 41.8811 31.8289 41.9257C31.8068 41.9647 31.7405 42.0538 31.6797 42.1263C31.6134 42.1931 31.5361 42.2544 31.5085 42.2544C31.4753 42.2544 31.3925 42.2098 31.3207 42.1541C31.2047 42.0705 31.1936 42.026 31.2267 41.8421C31.2433 41.7307 31.2765 41.636 31.2986 41.636ZM17.2842 44.2546C17.3118 44.2546 17.3891 44.3214 17.4499 44.405C17.5162 44.4886 17.5604 44.6056 17.5493 44.6669C17.5383 44.7282 17.461 44.8173 17.3781 44.8674C17.24 44.9399 17.2124 44.9399 17.0798 44.8674C16.9969 44.8229 16.9251 44.756 16.9141 44.7282C16.903 44.6947 16.9693 44.5777 17.0632 44.4607C17.1571 44.3493 17.2566 44.2546 17.2842 44.2546ZM22.3552 46.6838C22.4381 46.706 22.5541 46.7673 22.6148 46.8231C22.7143 46.9233 22.7143 46.9401 22.6369 47.0849C22.5707 47.2019 22.5044 47.2409 22.1453 47.2632L22.1343 46.9958C22.1287 46.8453 22.1453 46.706 22.1674 46.6893C22.1895 46.667 22.2779 46.667 22.3552 46.6838ZM23.7031 46.706C23.8025 46.706 23.913 46.7339 23.9517 46.7729C23.9903 46.8119 24.0235 46.9066 24.0235 46.9846C24.0235 47.0626 23.9958 47.1518 23.9517 47.1908C23.913 47.2242 23.8191 47.2688 23.7473 47.2911C23.6313 47.3189 23.5981 47.3022 23.565 47.1963C23.5429 47.1239 23.5263 46.9846 23.5263 46.8843C23.5263 46.7172 23.5374 46.706 23.7031 46.706ZM22.0183 33.7244C22.0403 33.7244 22.1453 33.7411 22.4436 33.7912L22.4215 38.293H18.4995V37.9587H21.9796V35.8416C21.9796 34.6771 21.9962 33.7244 22.0183 33.7244ZM23.449 33.8358H27.3379V37.6802H23.5263V37.1899C23.5263 36.9224 23.5097 36.0589 23.4876 35.2677L23.449 33.8358ZM20.4273 35.1173C20.4605 35.1173 20.5157 35.2231 20.5544 35.3457C20.6152 35.5407 20.6428 35.5686 20.7864 35.5686C20.8803 35.5741 20.9963 35.5908 21.046 35.6131C21.1289 35.641 21.1123 35.6744 20.9466 35.7858C20.8416 35.8638 20.7533 35.9586 20.7588 35.9976C20.7588 36.0366 20.7864 36.1313 20.814 36.2037C20.8472 36.2817 20.8582 36.3709 20.8416 36.3987C20.8251 36.4321 20.7256 36.3876 20.4273 36.148L20.2064 36.304C20.0849 36.3876 19.9744 36.4544 19.9578 36.4544C19.9412 36.4544 19.9689 36.343 20.0959 35.953L19.9026 35.8026C19.7589 35.6911 19.7258 35.6354 19.7755 35.6076C19.8142 35.5853 19.9302 35.5686 20.0296 35.5686C20.129 35.5686 20.2174 35.5351 20.234 35.4961C20.2451 35.4571 20.2837 35.3568 20.3169 35.2733C20.3445 35.1897 20.3942 35.1173 20.4273 35.1173ZM23.1341 38.6273H27.3323V38.9059H23.5208V44.7839L23.3551 44.8842C23.2667 44.9399 23.1783 44.9789 23.1617 44.9789C23.1451 44.9789 23.1341 43.5526 23.1341 41.8031V38.6273ZM18.5492 39.4073H21.9741L21.9796 41.987C21.9796 44.093 21.9685 44.5499 21.9078 44.4997C21.8691 44.4663 21.6371 44.2936 21.394 44.1153C21.151 43.937 20.7698 43.6138 20.5489 43.3966C20.3224 43.1793 19.9302 42.7447 19.6761 42.4327C19.422 42.1207 19.1403 41.7195 19.0574 41.5412C18.969 41.363 18.842 41.0565 18.7812 40.8559C18.7149 40.6609 18.6376 40.3322 18.6099 40.1316C18.5768 39.9366 18.5492 39.6915 18.5492 39.5912V39.4073Z" fill="black"/>
</svg>
