<svg width="150" height="80" viewBox="0 0 150 80" fill="none" xmlns="http://www.w3.org/2000/svg">
<path d="M78.1831 22.6313L75.7688 24.329L72.1441 17.8234C71.5191 16.7255 70.6359 16.7255 70.0088 17.8234L66.3842 24.329L63.9698 22.6313C62.8324 21.9334 62.0595 21.9688 62.5824 23.6687C64.6156 29.4327 65.6759 37.3216 64.276 41.9691C63.9031 44.4314 63.2157 46.7083 62.2949 48.6831C73.2752 41.4525 78.7477 33.8907 79.5684 23.6687C80.0913 21.9667 79.3205 21.9334 78.181 22.6313H78.1831Z" fill="white"/>
<path d="M64.1992 42.2213C63.845 38.7174 61.4744 33.1367 59.0413 29.6328C58.0997 28.5871 57.3873 29.0495 57.0706 29.5057L55.5416 31.6764L50.342 30.5973C48.4964 30.3244 49.0692 31.6181 49.3359 32.2597L51.7794 38.4133L50.2816 39.1736C49.3525 39.7111 49.2588 40.134 50.2629 40.7797L58.7017 46.4834C60.1578 47.4 59.1121 49.506 58.7892 50.4122C58.7059 50.6434 58.7746 50.883 59.1871 50.6372C60.2703 49.9873 61.3077 49.3373 62.2993 48.6832C63.2201 46.7063 63.9075 44.4315 64.2804 41.9692C64.2554 42.0546 64.2283 42.14 64.2012 42.2234L64.1992 42.2213Z" fill="#757575"/>
<path d="M43.1133 60.8692C43.0279 60.8838 42.9404 60.8984 42.8508 60.9109C42.4779 60.9671 42.0863 60.9942 41.678 60.9942C40.9405 60.9942 40.4114 60.7754 40.0906 60.3338C39.7677 59.8943 39.6073 59.1985 39.6073 58.2465V48.5182H43.2341C43.3591 48.3495 43.4903 48.1911 43.6278 48.0432V46.3705H39.6073V42.4729H36.9992C36.6826 43.8749 36.2014 44.9123 35.5577 45.5872C35.241 45.9351 34.8161 46.2413 34.2849 46.508C33.7537 46.7746 33.1496 46.9079 32.4746 46.9079V48.5182H34.8369V58.5694C34.8369 59.4901 34.9452 60.2651 35.1598 60.8942C35.3744 61.5233 35.6806 62.0357 36.0805 62.4295C36.4805 62.8232 36.9659 63.1044 37.5388 63.2731C38.1116 63.4419 38.7512 63.5252 39.4573 63.5252C40.0094 63.5252 40.5218 63.5002 40.9926 63.4481C41.4634 63.396 41.8842 63.3335 42.2592 63.2565C42.6321 63.1794 42.9591 63.0961 43.2403 63.0044C43.5216 62.9128 43.7445 62.8253 43.907 62.744V61.767C43.8507 61.7149 43.7945 61.6629 43.7382 61.6087C43.5153 61.3858 43.3091 61.1358 43.1174 60.8671L43.1133 60.8692Z" fill="white"/>
<path d="M55.443 58.6319C55.2576 58.9902 55.0201 59.3256 54.7285 59.6381C54.4368 59.9506 54.0973 60.2214 53.7077 60.4526C53.3182 60.6818 52.887 60.8609 52.412 60.9901C51.9371 61.1171 51.4267 61.1817 50.8851 61.1817C49.5664 61.1817 48.6144 60.6547 48.0311 59.6006C47.4479 58.5465 47.1562 56.9571 47.1562 54.8281C47.1562 53.4886 47.225 52.3721 47.3625 51.4826C47.4999 50.5931 47.6999 49.8806 47.9603 49.3494C48.2207 48.8182 48.5332 48.4412 48.8957 48.2224C49.2581 48.0016 49.6706 47.8912 50.131 47.8912C50.5309 47.8912 50.8601 48.0016 51.1205 48.2224C51.3809 48.4433 51.5892 48.737 51.7412 49.1036C51.8954 49.4723 52.0037 49.9015 52.0704 50.3931C52.137 50.8847 52.1704 51.4013 52.1704 51.9429C52.9891 51.9429 53.6619 51.8659 54.1889 51.7138C54.716 51.5596 55.1305 51.3597 55.4326 51.1159C55.7346 50.8701 55.943 50.5868 56.0617 50.2639C56.1784 49.941 56.2388 49.6119 56.2388 49.2744C56.2388 48.8141 56.1034 48.3808 55.8326 47.9787C55.5617 47.5746 55.1659 47.2246 54.6431 46.9267C54.1223 46.6309 53.4723 46.3976 52.6953 46.2289C51.9183 46.0601 51.0226 45.9768 50.0101 45.9768C48.9248 45.9768 47.9124 46.1226 46.9729 46.4143C46.0313 46.7059 45.2147 47.1934 44.5252 47.8787C44.471 47.9329 44.4169 47.9891 44.3627 48.0475C44.2252 48.1954 44.094 48.3558 43.969 48.5224C43.5357 49.1036 43.1795 49.7994 42.8983 50.6097C42.5045 51.745 42.3066 53.1616 42.3066 54.8594C42.3066 56.4655 42.4962 57.8216 42.8753 58.9257C43.1295 59.6693 43.4565 60.3172 43.8503 60.8713C44.0419 61.14 44.2461 61.3879 44.471 61.6129C44.5252 61.6671 44.5835 61.7192 44.6398 61.7712C45.2897 62.3733 46.0542 62.8128 46.9354 63.0857C47.8916 63.3815 48.9477 63.5315 50.1039 63.5315C51.1684 63.5315 52.0829 63.4273 52.8516 63.2169C53.6182 63.0065 54.2494 62.7357 54.7472 62.4024C55.243 62.0691 55.6097 61.6983 55.8451 61.29C56.0805 60.8817 56.1971 60.4755 56.1971 60.0776C56.1971 59.7922 56.1346 59.5173 56.0117 59.2569C55.8888 58.9965 55.6992 58.7882 55.4451 58.6361L55.443 58.6319Z" fill="white"/>
<path d="M33.3943 61.4714C33.0819 61.4194 32.8069 61.3173 32.5652 61.1652C32.5382 61.1486 32.5132 61.1298 32.4882 61.1111C32.284 60.9611 32.1174 60.759 31.9903 60.5049C31.8465 60.2174 31.7757 59.8341 31.7757 59.3529V39.3442H24.2118V41.0024H24.4576C24.8055 41.0024 25.1325 41.0233 25.4388 41.0628C25.745 41.1045 26.0137 41.192 26.2449 41.3232C26.4741 41.4566 26.6595 41.6524 26.797 41.9148C26.9345 42.1752 27.0032 42.521 27.0032 42.9502V44.6833C27.0032 44.775 27.0053 44.8979 27.0115 45.0521C27.0157 45.2062 27.0261 45.3833 27.0428 45.5812C27.0574 45.7812 27.074 45.9936 27.0886 46.2186C27.1032 46.4436 27.1157 46.6644 27.1261 46.879C27.1678 47.3914 27.2074 47.9372 27.249 48.5205H27.0345C26.8199 48.1518 26.5637 47.8143 26.2679 47.5081C25.97 47.2019 25.6304 46.9373 25.2471 46.7186C24.8638 46.4978 24.4326 46.3249 23.9576 46.1957C23.4827 46.0686 22.9473 46.0041 22.3536 46.0041C21.3412 46.0041 20.4413 46.1811 19.6539 46.5332C18.8664 46.8873 18.2019 47.4227 17.6582 48.1455C17.1166 48.8663 16.7041 49.7829 16.4229 50.8911C16.1417 52.0014 16 53.3117 16 54.8262C16 56.3406 16.1417 57.6301 16.4229 58.7238C16.7041 59.8195 17.1187 60.7215 17.6665 61.4319C18.2144 62.1422 18.8873 62.6693 19.6851 63.013C20.4829 63.3546 21.3933 63.5275 22.4161 63.5275C23.0306 63.5275 23.5827 63.4629 24.0743 63.3359C24.5659 63.2088 25.0076 63.0234 25.4013 62.7838C25.795 62.5443 26.1429 62.2547 26.4449 61.9172C26.747 61.5798 27.0157 61.1965 27.2511 60.7653H27.5428L28.4177 63.2213H34.0568V61.5402C33.8276 61.5298 33.6068 61.5069 33.3964 61.4714H33.3943ZM26.8491 57.5968C26.747 58.4009 26.5699 59.0675 26.3199 59.5987C26.07 60.1299 25.7367 60.5278 25.3221 60.7882C24.9076 61.0486 24.3889 61.1798 23.7639 61.1798C22.7098 61.1798 21.962 60.6507 21.5162 59.5924C21.0704 58.5342 20.8496 56.9343 20.8496 54.797C20.8496 53.7534 20.9037 52.8305 21.01 52.0285C21.1183 51.2265 21.287 50.5474 21.5162 49.9954C21.7453 49.4433 22.0474 49.0267 22.4224 48.7455C22.7952 48.4643 23.2431 48.3226 23.7639 48.3226C24.3889 48.3226 24.9076 48.4643 25.3221 48.7455C25.7367 49.0267 26.0679 49.4413 26.3199 49.9891C26.5699 50.537 26.747 51.2119 26.8491 52.0139C26.9511 52.818 27.0032 53.7346 27.0032 54.7679C27.0032 55.8511 26.9511 56.7969 26.8491 57.5989V57.5968Z" fill="white"/>
<path d="M70.1959 51.116C70.1959 51.4681 70.1917 51.7743 70.1834 52.0388C70.1751 52.3034 70.1563 52.5346 70.1271 52.7367C70.098 52.9388 70.0542 53.1117 69.9959 53.2596C69.9355 53.4075 69.8542 53.5366 69.7543 53.6512C69.6293 53.7929 69.4751 53.9116 69.2918 54.0074C69.1085 54.1032 68.871 54.1532 68.5814 54.1532H67.042V48.0996H68.5814C68.871 48.0996 69.1064 48.1475 69.2918 48.2433C69.4751 48.3392 69.6314 48.46 69.7543 48.6016C69.8563 48.7162 69.9376 48.8433 69.9959 48.9891C70.0542 49.1349 70.1001 49.3058 70.1271 49.5078C70.1542 49.7099 70.173 49.9411 70.1834 50.2057C70.1917 50.4702 70.1959 50.7744 70.1959 51.1202V51.116ZM69.2439 51.116C69.2439 50.5827 69.2335 50.1661 69.2147 49.8661C69.1939 49.5661 69.1376 49.3453 69.0397 49.2037C68.9939 49.1308 68.9314 49.0704 68.8481 49.0245C68.7668 48.9787 68.6689 48.9558 68.5544 48.9558H67.994V53.2929H68.5544C68.6689 53.2929 68.7668 53.27 68.8481 53.2242C68.9293 53.1783 68.9939 53.12 69.0397 53.045C69.1356 52.9033 69.1939 52.6784 69.2147 52.3742C69.2335 52.068 69.2439 51.6493 69.2439 51.116Z" fill="white"/>
<path d="M70.6807 49.0995V48.1038H71.6764V49.0995H70.6807ZM70.7307 54.1511V49.789H71.6327V54.1511H70.7307Z" fill="white"/>
<path d="M74.8121 52.8596C74.8121 53.0804 74.7746 53.2741 74.6975 53.4387C74.6204 53.6033 74.5267 53.7428 74.4121 53.8553C74.2746 53.9928 74.1267 54.0866 73.9663 54.1407C73.8059 54.1949 73.6268 54.222 73.4351 54.222C73.2435 54.222 73.0581 54.1907 72.8831 54.1282C72.7081 54.0657 72.5623 53.9762 72.4498 53.8553C72.3185 53.7199 72.2206 53.5699 72.1519 53.4095C72.0831 53.2471 72.0498 53.0596 72.0498 52.845H72.9435C72.9435 53.0262 72.9935 53.1679 73.0956 53.27C73.1414 53.3158 73.1935 53.3491 73.2518 53.372C73.3122 53.395 73.3726 53.4054 73.4351 53.4054C73.5768 53.4054 73.6934 53.3616 73.7851 53.2783C73.8309 53.2387 73.8622 53.1887 73.883 53.1262C73.9017 53.0637 73.9121 52.995 73.9121 52.9221C73.9121 52.7971 73.8809 52.6867 73.8184 52.5909C73.7497 52.4888 73.6351 52.4034 73.4705 52.3367L72.8747 52.0722C72.5685 51.9368 72.3498 51.7639 72.2206 51.5535C72.1248 51.4014 72.0769 51.1972 72.0769 50.941C72.0769 50.7264 72.1123 50.5431 72.1831 50.3931C72.254 50.2432 72.3498 50.1057 72.4685 49.9807C72.5935 49.8557 72.7393 49.7619 72.906 49.6995C73.0726 49.637 73.2497 49.6057 73.4372 49.6057C73.6247 49.6057 73.7997 49.6349 73.9642 49.6911C74.1288 49.7474 74.2663 49.8328 74.3809 49.9453C74.4996 50.0598 74.5933 50.1952 74.6621 50.3577C74.7308 50.5181 74.7642 50.7139 74.7642 50.941H73.8788C73.8788 50.8452 73.8684 50.7639 73.8497 50.6994C73.8288 50.6348 73.7976 50.5785 73.7517 50.5327C73.6663 50.4431 73.5622 50.3973 73.4372 50.3973C73.3018 50.3973 73.1914 50.439 73.106 50.5244C73.0206 50.6098 72.9789 50.7223 72.9789 50.8639C72.9789 50.9723 73.0018 51.0598 73.0476 51.1285C73.1101 51.2306 73.2205 51.316 73.3789 51.3826L73.9746 51.6368C74.1267 51.7055 74.2579 51.7784 74.3621 51.8534C74.4663 51.9305 74.5558 52.0222 74.6308 52.1305C74.7558 52.3055 74.8183 52.5513 74.8183 52.8617L74.8121 52.8596Z" fill="white"/>
<path d="M77.0462 54.1514V53.7681C77.0066 53.8244 76.9649 53.8806 76.9191 53.9327C76.8733 53.9868 76.8254 54.0306 76.7754 54.066C76.7066 54.1118 76.6337 54.1473 76.5546 54.1764C76.4754 54.2035 76.3796 54.2181 76.265 54.2181C76.0775 54.2181 75.9192 54.1889 75.788 54.1285C75.6567 54.0681 75.5359 53.9743 75.4213 53.8431C75.2401 53.6285 75.1484 53.2932 75.1484 52.839C75.1484 52.6349 75.1839 52.4453 75.2547 52.2724C75.3255 52.0995 75.4297 51.9537 75.5651 51.835C75.6776 51.7391 75.813 51.6641 75.9692 51.61C76.1254 51.5558 76.3338 51.5287 76.5941 51.5287H76.9941V50.908C76.9941 50.5622 76.8504 50.3893 76.5608 50.3893C76.4358 50.3893 76.3379 50.4309 76.2629 50.5163C76.1734 50.6121 76.1275 50.7517 76.1275 50.933H75.2255C75.2255 50.7517 75.2547 50.5809 75.3109 50.4184C75.3672 50.2559 75.4672 50.1059 75.6088 49.9643C75.7171 49.856 75.8546 49.7685 76.0254 49.6997C76.1963 49.631 76.3713 49.5977 76.5525 49.5977C76.7337 49.5977 76.917 49.6227 77.0837 49.6747C77.2503 49.7268 77.392 49.8122 77.5045 49.931C77.6232 50.0497 77.719 50.1955 77.7899 50.3643C77.8607 50.5351 77.8961 50.7413 77.8961 50.985V54.1493H77.0462V54.1514ZM76.9941 52.1703H76.6962C76.6004 52.1703 76.5129 52.1766 76.4358 52.1912C76.3587 52.2058 76.29 52.2433 76.2275 52.3057C76.1713 52.3557 76.1275 52.4307 76.0963 52.5266C76.065 52.6224 76.0484 52.7161 76.0484 52.8078C76.0484 53.2223 76.2046 53.4286 76.5171 53.4286C76.6525 53.4286 76.7671 53.3744 76.8566 53.2682C76.9483 53.1598 76.992 53.0161 76.992 52.8349V52.1703H76.9941Z" fill="white"/>
<path d="M81.1062 51.9052C81.1062 52.3989 81.0916 52.803 81.0604 53.1217C81.0291 53.4384 80.9396 53.6883 80.7917 53.8696C80.6833 54.0008 80.5688 54.0904 80.4438 54.1425C80.3188 54.1925 80.1709 54.2195 80.0021 54.2195C79.8334 54.2195 79.6813 54.18 79.5522 54.1008C79.5063 54.0716 79.4522 54.03 79.3918 53.9716C79.3293 53.9154 79.2835 53.8633 79.2543 53.8196V54.1508H78.3877V48.0972H79.2897V49.9595C79.3689 49.8637 79.4564 49.7845 79.5543 49.722C79.6855 49.6429 79.8355 49.6033 80.0042 49.6033C80.173 49.6033 80.3229 49.6283 80.45 49.6804C80.5771 49.7324 80.6917 49.822 80.7937 49.9533C80.9416 50.1345 81.0291 50.3824 81.0625 50.6969C81.0937 51.0115 81.1083 51.4156 81.1083 51.9072L81.1062 51.9052ZM80.2042 51.9052C80.2042 51.6969 80.2042 51.5135 80.2 51.3615C80.198 51.2094 80.1896 51.0802 80.1792 50.9782C80.1688 50.8761 80.1521 50.7948 80.1313 50.7324C80.1125 50.6699 80.0875 50.6178 80.0584 50.5803C79.973 50.4615 79.8626 50.4011 79.7272 50.4011C79.5918 50.4011 79.4959 50.4428 79.4209 50.5282C79.3751 50.574 79.3418 50.6303 79.3189 50.699C79.296 50.7678 79.2855 50.849 79.2855 50.9448V52.8759C79.2855 53.0634 79.3314 53.2009 79.4209 53.2925C79.5001 53.3717 79.6022 53.4113 79.7272 53.4113C79.8688 53.4113 79.9792 53.355 80.0584 53.2405C80.0855 53.2009 80.1105 53.1509 80.1313 53.0884C80.1521 53.0259 80.1667 52.9426 80.1792 52.8384C80.1896 52.7322 80.198 52.6051 80.2 52.4551C80.2021 52.3051 80.2042 52.1218 80.2042 51.9052Z" fill="white"/>
<path d="M81.5479 49.0995V48.1038H82.5436V49.0995H81.5479ZM81.5999 54.1511V49.789H82.5019V54.1511H81.5999Z" fill="white"/>
<path d="M84.8975 49.0995V48.1038H85.8932V49.0995H84.8975ZM84.9495 54.1511V49.789H85.8515V54.1511H84.9495Z" fill="white"/>
<path d="M84.1715 48.1101H83.2695V54.1512H84.1715V48.1101Z" fill="white"/>
<path d="M120.03 48.1099H119.128V54.151H120.03V48.1099Z" fill="white"/>
<path d="M87.5624 49.789V48.5225H86.6604V49.789H86.2021V50.4785H86.6604V52.7908C86.6604 53.0575 86.7 53.2762 86.7792 53.4512C86.8583 53.6241 86.9687 53.7657 87.1104 53.8803C87.2625 53.9991 87.4291 54.0741 87.6083 54.1053C87.7874 54.1365 87.9832 54.1511 88.1999 54.1511V53.3429C87.7749 53.3429 87.5624 53.1408 87.5624 52.7388V50.4765H88.1249L87.9541 49.7869H87.5624V49.789Z" fill="white"/>
<path d="M90.2991 49.7874L89.7116 52.8412L89.1159 49.7874H88.1201L88.2909 50.479L89.2325 54.2599L89.1554 54.5744C89.1263 54.6828 89.0867 54.7661 89.0367 54.8244C88.9846 54.8848 88.9263 54.9286 88.8576 54.9598C88.7888 54.9911 88.7138 55.0119 88.6284 55.0244C88.543 55.0348 88.4534 55.0411 88.3555 55.0411V55.841C88.5597 55.841 88.7513 55.8306 88.9305 55.8118C89.1096 55.791 89.27 55.7472 89.4158 55.6806C89.5596 55.6118 89.6846 55.5118 89.7887 55.3785C89.8929 55.2452 89.9741 55.0661 90.0304 54.839L91.2886 49.7874H90.2949H90.2991Z" fill="white"/>
<path d="M94.5152 48.9559V54.1513H93.5632V48.9559H92.5508V48.0977H95.5359V48.9559H94.5152Z" fill="white"/>
<path d="M97.0325 54.1514V53.7681C96.9929 53.8244 96.9513 53.8806 96.9054 53.9327C96.8596 53.9868 96.8117 54.0306 96.7617 54.066C96.693 54.1118 96.6201 54.1473 96.5409 54.1764C96.4617 54.2035 96.3659 54.2181 96.2513 54.2181C96.0639 54.2181 95.9055 54.1889 95.7743 54.1285C95.6431 54.0681 95.5222 53.9743 95.4077 53.8431C95.2264 53.6285 95.1348 53.2932 95.1348 52.839C95.1348 52.6349 95.1702 52.4453 95.241 52.2724C95.3118 52.0995 95.416 51.9537 95.5514 51.835C95.6639 51.7391 95.7993 51.6641 95.9555 51.61C96.1118 51.5558 96.3201 51.5287 96.5805 51.5287H96.9804V50.908C96.9804 50.5622 96.8367 50.3893 96.5471 50.3893C96.4222 50.3893 96.3242 50.4309 96.2493 50.5163C96.1597 50.6121 96.1139 50.7517 96.1139 50.933H95.2118C95.2118 50.7517 95.241 50.5809 95.2973 50.4184C95.3535 50.2559 95.4535 50.1059 95.5951 49.9643C95.7035 49.856 95.841 49.7685 96.0118 49.6997C96.1826 49.631 96.3576 49.5977 96.5388 49.5977C96.72 49.5977 96.9034 49.6227 97.07 49.6747C97.2367 49.7268 97.3783 49.8122 97.4908 49.931C97.6096 50.0497 97.7054 50.1955 97.7762 50.3643C97.847 50.5351 97.8824 50.7413 97.8824 50.985V54.1493H97.0325V54.1514ZM96.9804 52.1703H96.6825C96.5867 52.1703 96.4992 52.1766 96.4222 52.1912C96.3451 52.2058 96.2763 52.2433 96.2138 52.3057C96.1576 52.3557 96.1139 52.4307 96.0826 52.5266C96.0514 52.6224 96.0347 52.7161 96.0347 52.8078C96.0347 53.2223 96.1909 53.4286 96.5034 53.4286C96.6388 53.4286 96.7534 53.3744 96.843 53.2682C96.9346 53.1598 96.9784 53.0161 96.9784 52.8349V52.1703H96.9804Z" fill="white"/>
<path d="M100.29 54.1513L99.7023 52.7556L99.1149 54.1513H98.1191L99.1732 51.8723L98.1691 49.6704H99.1649L99.7003 51.0307L100.236 49.6704H101.24L100.219 51.8723L101.29 54.1513H100.286H100.29Z" fill="white"/>
<path d="M105.893 52.5449C105.882 52.8178 105.832 53.0657 105.749 53.2886C105.664 53.5115 105.545 53.6948 105.391 53.8365C105.255 53.9677 105.105 54.0636 104.941 54.1261C104.776 54.1885 104.578 54.2198 104.345 54.2198C104.062 54.2198 103.826 54.1698 103.639 54.0719C103.451 53.9719 103.295 53.849 103.17 53.7011C103.068 53.5824 102.989 53.449 102.933 53.3011C102.876 53.1532 102.833 52.9782 102.801 52.7741C102.77 52.5699 102.749 52.3325 102.741 52.0637C102.733 51.795 102.729 51.4805 102.729 51.1242C102.729 50.768 102.733 50.4535 102.741 50.1847C102.749 49.916 102.77 49.6785 102.801 49.4744C102.833 49.2702 102.876 49.0952 102.933 48.9473C102.989 48.7994 103.068 48.6661 103.17 48.5474C103.295 48.3995 103.451 48.2766 103.639 48.1787C103.826 48.0787 104.062 48.0308 104.345 48.0308C104.576 48.0308 104.778 48.0641 104.949 48.1287C105.12 48.1953 105.272 48.2912 105.407 48.4224C105.56 48.564 105.676 48.7453 105.755 48.9619C105.834 49.1807 105.88 49.4244 105.891 49.6973H104.939C104.932 49.5848 104.92 49.4765 104.901 49.3744C104.88 49.2723 104.845 49.1848 104.795 49.1098C104.749 49.0411 104.691 48.989 104.62 48.9494C104.549 48.9099 104.458 48.889 104.343 48.889C104.228 48.889 104.137 48.9098 104.066 48.9536C103.995 48.9973 103.937 49.0515 103.891 49.1202C103.795 49.2682 103.735 49.4994 103.712 49.8181C103.689 50.1347 103.678 50.5722 103.678 51.1284C103.678 51.6846 103.689 52.12 103.712 52.4387C103.735 52.7553 103.793 52.9887 103.891 53.1366C103.937 53.2053 103.995 53.2595 104.066 53.3032C104.137 53.3449 104.228 53.3657 104.343 53.3657C104.458 53.3657 104.549 53.347 104.62 53.3074C104.691 53.2678 104.749 53.2136 104.795 53.1449C104.847 53.0657 104.88 52.9741 104.901 52.872C104.92 52.7699 104.935 52.6616 104.939 52.5491H105.891L105.893 52.5449Z" fill="white"/>
<path d="M108.991 51.9055C108.991 52.2867 108.974 52.6367 108.938 52.9596C108.905 53.2825 108.816 53.5429 108.676 53.7408C108.545 53.922 108.388 54.047 108.207 54.1157C108.026 54.1845 107.828 54.2178 107.611 54.2178C107.395 54.2178 107.197 54.1845 107.016 54.1157C106.834 54.047 106.678 53.9241 106.547 53.7408C106.405 53.5429 106.318 53.2825 106.285 52.9596C106.251 52.6367 106.232 52.2847 106.232 51.9055C106.232 51.5264 106.249 51.1743 106.285 50.8515C106.318 50.5286 106.405 50.2661 106.547 50.0682C106.678 49.887 106.834 49.764 107.016 49.6995C107.197 49.6349 107.395 49.6016 107.611 49.6016C107.828 49.6016 108.026 49.6349 108.207 49.6995C108.388 49.764 108.545 49.887 108.676 50.0682C108.818 50.2661 108.905 50.5265 108.938 50.8515C108.972 51.1743 108.991 51.5264 108.991 51.9055ZM108.089 51.9055C108.089 51.5722 108.082 51.2931 108.072 51.0723C108.061 50.8515 108.024 50.689 107.961 50.5869C107.922 50.5244 107.872 50.4786 107.809 50.4452C107.747 50.414 107.682 50.3994 107.614 50.3994C107.545 50.3994 107.48 50.414 107.418 50.4452C107.355 50.4765 107.303 50.5244 107.266 50.5869C107.203 50.689 107.166 50.8515 107.155 51.0723C107.145 51.2931 107.139 51.5722 107.139 51.9055C107.139 52.2388 107.145 52.5201 107.155 52.743C107.166 52.9679 107.203 53.1304 107.266 53.2325C107.305 53.295 107.355 53.3408 107.418 53.3679C107.48 53.3971 107.545 53.4116 107.614 53.4116C107.682 53.4116 107.747 53.3971 107.809 53.3679C107.872 53.3387 107.922 53.295 107.961 53.2325C108.024 53.1304 108.061 52.9679 108.072 52.743C108.082 52.5201 108.089 52.2409 108.089 51.9055Z" fill="white"/>
<path d="M111.27 54.151V50.9284C111.27 50.7534 111.228 50.6222 111.143 50.5368C111.057 50.4514 110.953 50.4097 110.828 50.4097C110.703 50.4097 110.599 50.4514 110.513 50.5368C110.428 50.6222 110.386 50.7534 110.386 50.9284V54.151H109.484V49.6702H110.351V50.0014C110.391 49.9493 110.436 49.8993 110.488 49.8452C110.538 49.791 110.593 49.7514 110.649 49.7223C110.78 49.6431 110.93 49.6035 111.099 49.6035C111.28 49.6035 111.436 49.6327 111.565 49.6889C111.695 49.7452 111.811 49.8327 111.913 49.9514C112.003 50.0535 112.07 50.1764 112.109 50.318C112.149 50.4597 112.17 50.6618 112.17 50.9221V54.1531H111.268L111.27 54.151Z" fill="white"/>
<path d="M115.326 52.8596C115.326 53.0804 115.288 53.2741 115.211 53.4387C115.134 53.6033 115.04 53.7428 114.926 53.8553C114.788 53.9928 114.64 54.0866 114.48 54.1407C114.32 54.1949 114.14 54.222 113.949 54.222C113.757 54.222 113.572 54.1907 113.397 54.1282C113.222 54.0657 113.076 53.9762 112.963 53.8553C112.832 53.7199 112.734 53.5699 112.666 53.4095C112.597 53.2471 112.563 53.0596 112.563 52.845H113.457C113.457 53.0262 113.507 53.1679 113.609 53.27C113.655 53.3158 113.707 53.3491 113.765 53.372C113.826 53.395 113.886 53.4054 113.949 53.4054C114.09 53.4054 114.207 53.3616 114.299 53.2783C114.345 53.2387 114.376 53.1887 114.397 53.1262C114.415 53.0637 114.426 52.995 114.426 52.9221C114.426 52.7971 114.395 52.6867 114.332 52.5909C114.263 52.4888 114.149 52.4034 113.984 52.3367L113.388 52.0722C113.082 51.9368 112.863 51.7639 112.734 51.5535C112.638 51.4014 112.588 51.1972 112.588 50.941C112.588 50.7264 112.624 50.5431 112.695 50.3931C112.766 50.2432 112.861 50.1057 112.98 49.9807C113.105 49.8557 113.251 49.7619 113.418 49.6995C113.584 49.637 113.761 49.6057 113.949 49.6057C114.136 49.6057 114.311 49.6349 114.476 49.6911C114.64 49.7474 114.778 49.8328 114.892 49.9453C115.011 50.0598 115.105 50.1952 115.174 50.3577C115.242 50.5181 115.276 50.7139 115.276 50.941H114.39C114.39 50.8452 114.38 50.7639 114.361 50.6994C114.34 50.6348 114.309 50.5785 114.263 50.5327C114.178 50.4431 114.074 50.3973 113.949 50.3973C113.813 50.3973 113.703 50.439 113.618 50.5244C113.532 50.6098 113.49 50.7223 113.49 50.8639C113.49 50.9723 113.513 51.0598 113.559 51.1285C113.622 51.2306 113.732 51.316 113.89 51.3826L114.486 51.6368C114.638 51.7055 114.77 51.7784 114.874 51.8534C114.978 51.9305 115.067 52.0222 115.142 52.1305C115.267 52.3055 115.33 52.5513 115.33 52.8617L115.326 52.8596Z" fill="white"/>
<path d="M117.562 54.1509V53.8114C117.523 53.8634 117.477 53.9155 117.423 53.9676C117.369 54.0217 117.315 54.0634 117.256 54.0905C117.194 54.1301 117.123 54.1613 117.044 54.1842C116.965 54.2071 116.885 54.2176 116.806 54.2176C116.625 54.2176 116.469 54.1884 116.338 54.1322C116.206 54.0759 116.092 53.9884 115.99 53.8697C115.9 53.7676 115.833 53.6447 115.794 53.503C115.754 53.3614 115.733 53.1593 115.733 52.8989V49.668H116.635V52.8906C116.635 53.0656 116.677 53.1968 116.762 53.2822C116.848 53.3676 116.952 53.4114 117.077 53.4114C117.202 53.4114 117.306 53.3676 117.392 53.2822C117.477 53.1968 117.519 53.0677 117.519 52.8906V49.668H118.421V54.1488H117.562V54.1509Z" fill="white"/>
<path d="M122.496 54.1514C122.279 54.1514 122.083 54.1368 121.904 54.1055C121.725 54.0743 121.56 53.9993 121.406 53.8806C121.265 53.766 121.154 53.6243 121.075 53.4514C120.996 53.2785 120.956 53.0577 120.956 52.7911V50.4788H120.498V49.7893H120.956V48.5227H121.858V49.7893H122.479V50.4788H121.858V52.7411C121.858 53.1431 122.071 53.3452 122.496 53.3452V54.1535V54.1514Z" fill="white"/>
<path d="M124.759 54.1514V53.7681C124.72 53.8244 124.678 53.8806 124.632 53.9327C124.586 53.9868 124.538 54.0306 124.488 54.066C124.42 54.1118 124.347 54.1473 124.267 54.1764C124.188 54.2035 124.092 54.2181 123.978 54.2181C123.79 54.2181 123.632 54.1889 123.501 54.1285C123.37 54.0681 123.249 53.9743 123.134 53.8431C122.953 53.6285 122.861 53.2932 122.861 52.839C122.861 52.6349 122.897 52.4453 122.968 52.2724C123.038 52.0995 123.143 51.9537 123.278 51.835C123.39 51.7391 123.526 51.6641 123.682 51.61C123.838 51.5558 124.047 51.5287 124.307 51.5287H124.707V50.908C124.707 50.5622 124.563 50.3893 124.274 50.3893C124.149 50.3893 124.051 50.4309 123.976 50.5163C123.886 50.6121 123.84 50.7517 123.84 50.933H122.938C122.938 50.7517 122.968 50.5809 123.024 50.4184C123.08 50.2559 123.18 50.1059 123.322 49.9643C123.43 49.856 123.568 49.7685 123.738 49.6997C123.909 49.631 124.084 49.5977 124.265 49.5977C124.447 49.5977 124.63 49.6227 124.797 49.6747C124.963 49.7268 125.105 49.8122 125.217 49.931C125.336 50.0497 125.432 50.1955 125.503 50.3643C125.574 50.5351 125.609 50.7413 125.609 50.985V54.1493H124.759V54.1514ZM124.707 52.1703H124.409C124.313 52.1703 124.226 52.1766 124.149 52.1912C124.072 52.2058 124.003 52.2433 123.94 52.3057C123.884 52.3557 123.84 52.4307 123.809 52.5266C123.778 52.6224 123.761 52.7161 123.761 52.8078C123.761 53.2223 123.917 53.4286 124.23 53.4286C124.365 53.4286 124.48 53.3744 124.57 53.2682C124.661 53.1598 124.705 53.0161 124.705 52.8349V52.1703H124.707Z" fill="white"/>
<path d="M127.869 54.1508V50.9282C127.869 50.7532 127.828 50.6219 127.742 50.5365C127.657 50.4511 127.553 50.4094 127.428 50.4094C127.303 50.4094 127.198 50.4511 127.113 50.5365C127.028 50.6219 126.986 50.7532 126.986 50.9282V54.1508H126.084V49.6699H126.951V50.0012C126.99 49.9491 127.036 49.8991 127.088 49.8449C127.138 49.7908 127.192 49.7512 127.248 49.722C127.38 49.6428 127.53 49.6033 127.698 49.6033C127.88 49.6033 128.036 49.6324 128.165 49.6887C128.294 49.7449 128.411 49.8324 128.513 49.9512C128.603 50.0532 128.669 50.1761 128.709 50.3178C128.748 50.4594 128.769 50.6615 128.769 50.9219V54.1529H127.867L127.869 54.1508Z" fill="white"/>
<path d="M131.093 54.1514C130.877 54.1514 130.681 54.1368 130.502 54.1055C130.323 54.0743 130.158 53.9993 130.004 53.8806C129.862 53.766 129.752 53.6243 129.673 53.4514C129.594 53.2785 129.554 53.0577 129.554 52.7911V50.4788H129.096V49.7893H129.554V48.5227H130.456V49.7893H131.077V50.4788H130.456V52.7411C130.456 53.1431 130.668 53.3452 131.093 53.3452V54.1535V54.1514Z" fill="white"/>
<path d="M134 52.8596C134 53.0804 133.962 53.2741 133.885 53.4387C133.808 53.6033 133.714 53.7428 133.6 53.8553C133.462 53.9928 133.314 54.0866 133.154 54.1407C132.993 54.1949 132.814 54.222 132.623 54.222C132.431 54.222 132.246 54.1907 132.071 54.1282C131.896 54.0657 131.75 53.9762 131.637 53.8553C131.506 53.7199 131.408 53.5699 131.339 53.4095C131.271 53.2471 131.237 53.0596 131.237 52.845H132.131C132.131 53.0262 132.181 53.1679 132.283 53.27C132.329 53.3158 132.381 53.3491 132.439 53.372C132.5 53.395 132.56 53.4054 132.623 53.4054C132.764 53.4054 132.881 53.3616 132.973 53.2783C133.018 53.2387 133.05 53.1887 133.07 53.1262C133.089 53.0637 133.1 52.995 133.1 52.9221C133.1 52.7971 133.068 52.6867 133.006 52.5909C132.937 52.4888 132.823 52.4034 132.658 52.3367L132.062 52.0722C131.756 51.9368 131.537 51.7639 131.408 51.5535C131.312 51.4014 131.262 51.1972 131.262 50.941C131.262 50.7264 131.298 50.5431 131.369 50.3931C131.439 50.2432 131.535 50.1057 131.654 49.9807C131.779 49.8557 131.925 49.7619 132.091 49.6995C132.258 49.637 132.435 49.6057 132.623 49.6057C132.81 49.6057 132.985 49.6349 133.15 49.6911C133.314 49.7474 133.452 49.8328 133.566 49.9453C133.685 50.0598 133.779 50.1952 133.848 50.3577C133.916 50.5181 133.95 50.7139 133.95 50.941H133.064C133.064 50.8452 133.054 50.7639 133.035 50.6994C133.014 50.6348 132.983 50.5785 132.937 50.5327C132.852 50.4431 132.748 50.3973 132.623 50.3973C132.487 50.3973 132.377 50.439 132.291 50.5244C132.206 50.6098 132.164 50.7223 132.164 50.8639C132.164 50.9723 132.187 51.0598 132.233 51.1285C132.296 51.2306 132.406 51.316 132.564 51.3826L133.16 51.6368C133.312 51.7055 133.443 51.7784 133.548 51.8534C133.652 51.9305 133.741 52.0222 133.816 52.1305C133.941 52.3055 134.004 52.5513 134.004 52.8617L134 52.8596Z" fill="white"/>
<path d="M69.158 60.1277C69.158 60.6381 69.1372 61.0401 69.0934 61.3359C69.0497 61.6317 68.9643 61.8567 68.833 62.0171C68.6456 62.2442 68.3789 62.3567 68.0331 62.3567C67.6873 62.3567 67.4207 62.2421 67.2332 62.0171C67.1019 61.8588 67.0165 61.6317 66.9728 61.3359C66.9311 61.0401 66.9082 60.6381 66.9082 60.1277C66.9082 59.6173 66.929 59.2153 66.9728 58.9195C67.0144 58.6236 67.1019 58.3987 67.2332 58.2403C67.4207 58.007 67.6873 57.8904 68.0331 57.8904C68.3789 57.8904 68.6456 58.007 68.833 58.2403C68.9643 58.3987 69.0497 58.6257 69.0934 58.9195C69.1351 59.2153 69.158 59.6173 69.158 60.1277ZM68.681 60.1277C68.681 59.6631 68.6685 59.3069 68.6435 59.0611C68.6185 58.8153 68.5581 58.632 68.4602 58.5132C68.4143 58.457 68.356 58.4091 68.2852 58.3716C68.2143 58.3341 68.131 58.3174 68.0352 58.3174C67.9394 58.3174 67.854 58.3362 67.781 58.3716C67.7081 58.4091 67.6477 58.4549 67.6019 58.5132C67.5061 58.632 67.4457 58.8153 67.4227 59.0611C67.3998 59.3069 67.3894 59.6631 67.3894 60.1277C67.3894 60.5922 67.3998 60.9464 67.4227 61.1901C67.4457 61.4338 67.504 61.615 67.6019 61.7338C67.6477 61.79 67.7061 61.8379 67.781 61.8734C67.854 61.9109 67.9394 61.9296 68.0352 61.9296C68.131 61.9296 68.2143 61.9109 68.2852 61.8734C68.356 61.8359 68.4143 61.79 68.4602 61.7338C68.556 61.615 68.6164 61.4338 68.6435 61.1901C68.6685 60.9464 68.681 60.5922 68.681 60.1277Z" fill="white"/>
<path d="M70.4172 58.3319V62.2858H69.9401V58.3319H69.4131V57.9591H69.9401V57.3716C69.9401 56.9862 70.0484 56.6946 70.263 56.4946C70.388 56.3821 70.5276 56.3071 70.6796 56.2696C70.8317 56.2321 70.99 56.2134 71.1546 56.2134V56.6467C70.6609 56.6467 70.4151 56.8883 70.4151 57.3695V57.957H71.1546V58.3299H70.4151L70.4172 58.3319Z" fill="white"/>
<path d="M75.4768 60.9005C75.4705 61.138 75.4351 61.3588 75.3664 61.563C75.2976 61.7671 75.1935 61.9338 75.0518 62.065C74.8414 62.2587 74.5644 62.3546 74.2186 62.3546C74.0207 62.3546 73.8457 62.3233 73.6957 62.2608C73.5457 62.1983 73.4186 62.1108 73.3166 61.9963C73.227 61.9004 73.152 61.7921 73.0958 61.6734C73.0395 61.5546 72.9958 61.3963 72.9687 61.2005C72.9395 61.0047 72.9208 60.7526 72.9083 60.4443C72.8979 60.136 72.8916 59.7402 72.8916 59.259C72.8916 58.7778 72.8979 58.382 72.9083 58.0737C72.9187 57.7654 72.9395 57.5133 72.9687 57.3175C72.9978 57.1217 73.0395 56.9655 73.0958 56.8467C73.152 56.728 73.227 56.6197 73.3166 56.5238C73.4186 56.4113 73.5436 56.3218 73.6957 56.2593C73.8457 56.1968 74.0207 56.1655 74.2186 56.1655C74.4165 56.1655 74.5852 56.1947 74.7248 56.2509C74.8644 56.3072 74.9831 56.3863 75.0872 56.4884C75.2185 56.6197 75.3143 56.7821 75.3768 56.978C75.4393 57.1738 75.4726 57.3883 75.4789 57.6196H74.9768C74.9768 57.4675 74.9602 57.3196 74.9248 57.1779C74.8914 57.0363 74.8289 56.9175 74.7373 56.8196C74.6748 56.7571 74.6019 56.7071 74.5206 56.6717C74.4394 56.6342 74.3373 56.6155 74.2186 56.6155C73.9915 56.6155 73.8124 56.6884 73.6832 56.8363C73.6207 56.9092 73.5707 56.9925 73.5353 57.0863C73.4978 57.18 73.4686 57.3154 73.4457 57.4904C73.4228 57.6654 73.4082 57.8945 73.4041 58.1758C73.3978 58.457 73.3957 58.8174 73.3957 59.2611C73.3957 59.7048 73.3978 60.0652 73.4041 60.3443C73.4082 60.6255 73.4228 60.8547 73.4457 61.0297C73.4686 61.2047 73.4978 61.3401 73.5353 61.4338C73.5728 61.5275 73.6207 61.6109 73.6832 61.6838C73.8144 61.8317 73.9915 61.9046 74.2186 61.9046C74.3373 61.9046 74.4394 61.8859 74.5248 61.8484C74.6102 61.8109 74.681 61.7629 74.7373 61.7005C74.8289 61.6046 74.8893 61.4838 74.9248 61.338C74.9581 61.1942 74.9768 61.0484 74.9768 60.9005H75.4789H75.4768Z" fill="white"/>
<path d="M77.6117 62.288V61.8964C77.5825 61.9589 77.545 62.0151 77.5013 62.0651C77.4555 62.1172 77.4138 62.1568 77.3742 62.1839C77.3055 62.2339 77.2326 62.2755 77.1534 62.3068C77.0742 62.338 76.9743 62.3547 76.8555 62.3547C76.5826 62.3547 76.3535 62.2589 76.166 62.0651C76.0868 61.9797 76.0202 61.8547 75.966 61.6922C75.9118 61.5277 75.8848 61.3256 75.8848 61.0881C75.8848 60.884 75.9139 60.6986 75.9743 60.5319C76.0348 60.3653 76.1264 60.2257 76.2514 60.1111C76.3597 60.0153 76.4785 59.9424 76.6076 59.8945C76.7389 59.8466 76.9034 59.8216 77.1013 59.8216H77.595V59.0487C77.595 58.8112 77.545 58.6279 77.4471 58.5009C77.3492 58.3738 77.1992 58.3092 77.0013 58.3092C76.9159 58.3092 76.8409 58.3238 76.7764 58.3571C76.7118 58.3884 76.6555 58.4259 76.6097 58.4717C76.541 58.5446 76.4931 58.6279 76.4618 58.7175C76.4306 58.8092 76.416 58.9279 76.416 59.0758H75.9389C75.9389 58.9112 75.9598 58.7529 76.0035 58.5988C76.0473 58.4467 76.1306 58.3071 76.2556 58.1821C76.3451 58.0926 76.4535 58.0217 76.5785 57.9697C76.7034 57.9197 76.8451 57.8926 77.0034 57.8926C77.3492 57.8926 77.6075 57.9842 77.7763 58.1655C77.8721 58.2675 77.9471 58.3884 77.9971 58.5321C78.0471 58.6738 78.0742 58.8529 78.0742 59.0675V62.2901H77.6159L77.6117 62.288ZM77.595 60.1965H77.118C77.0034 60.1965 76.9055 60.2111 76.8243 60.2382C76.7409 60.2674 76.6639 60.3153 76.591 60.3819C76.518 60.4548 76.4597 60.5528 76.4201 60.6757C76.3806 60.7986 76.3597 60.9319 76.3597 61.0798C76.3597 61.3402 76.4076 61.5464 76.5055 61.7006C76.6014 61.8526 76.7555 61.9297 76.9638 61.9297C77.1555 61.9297 77.3096 61.8568 77.4221 61.7089C77.5346 61.561 77.593 61.3735 77.593 61.1465V60.1945L77.595 60.1965Z" fill="white"/>
<path d="M80.5108 62.2878V59.0318C80.5108 58.7943 80.4525 58.6173 80.3358 58.5006C80.2191 58.384 80.0796 58.3256 79.915 58.3256C79.7504 58.3256 79.6088 58.384 79.49 58.5006C79.3713 58.6173 79.3109 58.7943 79.3109 59.0318V62.2878H78.8359V57.959H79.3026V58.3069C79.3317 58.2611 79.3692 58.2131 79.4171 58.1631C79.4651 58.1111 79.5088 58.0715 79.5484 58.0444C79.6963 57.9423 79.8609 57.8923 80.0421 57.8923C80.19 57.8923 80.3171 57.9173 80.4254 57.9694C80.5337 58.0215 80.6316 58.0944 80.7233 58.1902C80.8087 58.2798 80.8733 58.3923 80.9191 58.5214C80.9649 58.6527 80.9878 58.8256 80.9878 59.0402V62.2878H80.5108Z" fill="white"/>
<path d="M83.264 62.2878V61.8961C83.2349 61.9586 83.1974 62.0149 83.1536 62.0649C83.1078 62.117 83.0661 62.1565 83.0266 62.1836C82.9578 62.2336 82.8849 62.2753 82.8057 62.3065C82.7266 62.3378 82.6266 62.3544 82.5079 62.3544C82.235 62.3544 82.0058 62.2586 81.8183 62.0649C81.7392 61.9795 81.6725 61.8545 81.6183 61.692C81.5642 61.5274 81.5371 61.3254 81.5371 61.0879C81.5371 60.8837 81.5663 60.6983 81.6267 60.5317C81.6871 60.365 81.7788 60.2255 81.9037 60.1109C82.0121 60.0151 82.1308 59.9422 82.26 59.8942C82.3912 59.8463 82.5558 59.8213 82.7537 59.8213H83.2474V59.0485C83.2474 58.811 83.1974 58.6277 83.0995 58.5006C82.9995 58.3735 82.8516 58.309 82.6537 58.309C82.5683 58.309 82.4933 58.3235 82.4287 58.3569C82.3641 58.3881 82.3079 58.4256 82.262 58.4714C82.1933 58.5444 82.1454 58.6277 82.1141 58.7173C82.0829 58.8089 82.0683 58.9277 82.0683 59.0756H81.5913C81.5913 58.911 81.6121 58.7527 81.6559 58.5985C81.6996 58.4465 81.7829 58.3069 81.9079 58.1819C81.9975 58.0923 82.1058 58.0215 82.2308 57.9694C82.3558 57.9194 82.4974 57.8923 82.6558 57.8923C83.0016 57.8923 83.2599 57.984 83.4286 58.1652C83.5244 58.2673 83.5994 58.3881 83.6494 58.5319C83.6994 58.6735 83.7265 58.8527 83.7265 59.0672V62.2899H83.2682L83.264 62.2878ZM83.2474 60.1963H82.7703C82.6558 60.1963 82.5579 60.2109 82.4766 60.238C82.3933 60.2671 82.3162 60.315 82.2433 60.3817C82.1704 60.4546 82.1121 60.5525 82.0725 60.6754C82.0329 60.7983 82.0121 60.9316 82.0121 61.0796C82.0121 61.3399 82.06 61.5462 82.1579 61.7003C82.2537 61.8524 82.4079 61.9295 82.6162 61.9295C82.8078 61.9295 82.962 61.8566 83.0745 61.7087C83.187 61.5608 83.2453 61.3733 83.2453 61.1462V60.1942L83.2474 60.1963Z" fill="white"/>
<path d="M86.0707 62.2879V61.94C86.0478 61.9858 86.0124 62.0337 85.9644 62.0837C85.9165 62.1358 85.8728 62.1754 85.8332 62.2025C85.6853 62.3046 85.5207 62.3546 85.3395 62.3546C85.0666 62.3546 84.8437 62.2525 84.6687 62.0483C84.5375 61.9004 84.4521 61.6775 84.4083 61.3817C84.3667 61.0838 84.3438 60.6651 84.3438 60.1277C84.3438 59.8548 84.3479 59.6173 84.3562 59.4131C84.3646 59.209 84.3812 59.0298 84.4062 58.8778C84.4312 58.7257 84.4646 58.5924 84.5042 58.482C84.5437 58.3716 84.5979 58.2757 84.6666 58.1966C84.7458 58.1008 84.8395 58.0258 84.9479 57.9716C85.0562 57.9174 85.1853 57.8904 85.3395 57.8904C85.5436 57.8904 85.7082 57.9362 85.8332 58.0258C85.8728 58.0549 85.9144 58.0924 85.9561 58.1403C85.9978 58.1883 86.0332 58.2362 86.0624 58.282V56.2322H86.5394V62.2858H86.0707V62.2879ZM86.0624 59.0736C86.0624 58.8069 85.9978 58.609 85.8665 58.4778C85.7478 58.3695 85.6082 58.3174 85.4499 58.3174C85.3645 58.3174 85.2874 58.3362 85.2166 58.3716C85.1458 58.4091 85.0874 58.4549 85.0416 58.5132C84.9916 58.5695 84.952 58.6403 84.9229 58.7215C84.8937 58.8028 84.8729 58.909 84.8583 59.0361C84.8437 59.1632 84.8333 59.3173 84.8291 59.4944C84.825 59.6715 84.8208 59.8839 84.8208 60.1277C84.8208 60.3714 84.8229 60.5818 84.8291 60.7609C84.8354 60.9401 84.8437 61.0922 84.8583 61.2151C84.8729 61.3401 84.8937 61.4442 84.9229 61.5296C84.952 61.615 84.9916 61.6859 85.0416 61.7421C85.0874 61.7983 85.1458 61.8442 85.2166 61.8775C85.2874 61.9108 85.3645 61.9275 85.4499 61.9275C85.6082 61.9275 85.7478 61.8733 85.8665 61.7671C85.9978 61.6359 86.0624 61.438 86.0624 61.1713V59.0715V59.0736Z" fill="white"/>
<path d="M88.8529 62.2878V61.8961C88.8237 61.9586 88.7862 62.0149 88.7425 62.0649C88.6967 62.117 88.655 62.1565 88.6154 62.1836C88.5467 62.2336 88.4738 62.2753 88.3946 62.3065C88.3155 62.3378 88.2155 62.3544 88.0967 62.3544C87.8238 62.3544 87.5947 62.2586 87.4072 62.0649C87.328 61.9795 87.2614 61.8545 87.2072 61.692C87.1531 61.5274 87.126 61.3254 87.126 61.0879C87.126 60.8837 87.1551 60.6983 87.2156 60.5317C87.276 60.365 87.3676 60.2255 87.4926 60.1109C87.6009 60.0151 87.7197 59.9422 87.8488 59.8942C87.9801 59.8463 88.1446 59.8213 88.3425 59.8213H88.8362V59.0485C88.8362 58.811 88.7863 58.6277 88.6883 58.5006C88.5904 58.3735 88.4404 58.309 88.2425 58.309C88.1571 58.309 88.0821 58.3235 88.0176 58.3569C87.953 58.3881 87.8967 58.4256 87.8509 58.4714C87.7822 58.5444 87.7343 58.6277 87.703 58.7173C87.6718 58.8089 87.6572 58.9277 87.6572 59.0756H87.1801C87.1801 58.911 87.201 58.7527 87.2447 58.5985C87.2885 58.4465 87.3718 58.3069 87.4968 58.1819C87.5864 58.0923 87.6947 58.0215 87.8197 57.9694C87.9447 57.9194 88.0863 57.8923 88.2446 57.8923C88.5904 57.8923 88.8487 57.984 89.0175 58.1652C89.1133 58.2673 89.1883 58.3881 89.2383 58.5319C89.2883 58.6735 89.3154 58.8527 89.3154 59.0672V62.2899H88.8571L88.8529 62.2878ZM88.8362 60.1963H88.3592C88.2446 60.1963 88.1467 60.2109 88.0655 60.238C87.9821 60.2671 87.9051 60.315 87.8322 60.3817C87.7593 60.4546 87.7009 60.5525 87.6613 60.6754C87.6218 60.7983 87.6009 60.9316 87.6009 61.0796C87.6009 61.3399 87.6488 61.5462 87.7468 61.7003C87.8426 61.8524 87.9967 61.9295 88.205 61.9295C88.3967 61.9295 88.5508 61.8566 88.6633 61.7087C88.7758 61.5608 88.8342 61.3733 88.8342 61.1462V60.1942L88.8362 60.1963Z" fill="white"/>
</svg>
