<svg width="151" height="80" viewBox="0 0 151 80" fill="none" xmlns="http://www.w3.org/2000/svg">
<g clip-path="url(#clip0_1488_20919)">
<path d="M77.8184 22.913L77.8309 16.1636L72.5213 21.4828L72.5088 28.2323L77.8184 22.913Z" fill="white"/>
<path d="M76.0537 31.7827H82.7909L88.1006 26.4509L81.3633 26.4635L76.0537 31.7827Z" fill="white"/>
<path d="M66.0723 41.794L68.6895 39.172V45.2564C65.9972 47.5272 61.9774 47.4018 59.4478 44.8676C56.7804 42.1954 56.7804 37.8547 59.4478 35.1699C61.489 33.125 64.4944 32.6483 66.9989 33.7272L62.5033 38.231C61.5141 39.2221 61.5141 40.8154 62.5033 41.8064C63.4801 42.785 65.083 42.785 66.0723 41.794Z" fill="white"/>
<path d="M53.4487 50.8645C47.4754 44.8803 47.4754 35.145 53.4487 29.1734C56.3415 26.2754 60.1859 24.6821 64.2809 24.6821C65.7961 24.6821 67.2738 24.9079 68.6889 25.3219V29.9261C67.3238 29.3239 65.8212 29.0103 64.2809 29.0103C61.3506 29.0103 58.5831 30.1519 56.5043 32.2344C52.2215 36.525 52.2215 43.5129 56.5043 47.8034C58.5831 49.8859 61.3381 51.0276 64.2809 51.0276C65.8212 51.0276 67.3113 50.7139 68.6889 50.1117V54.7159C67.2738 55.1425 65.7961 55.3557 64.2809 55.3557C60.1859 55.3557 56.3415 53.7625 53.4487 50.8645Z" fill="white"/>
<path d="M47.4636 23.1638C53.1113 17.5058 61.0632 15.1472 68.6895 16.59V21.0185C62.2028 19.5005 55.3403 21.4074 50.5317 26.2248C46.8625 29.9007 44.8338 34.8059 44.8338 40.0123C44.8338 45.2187 46.8625 50.1114 50.5317 53.7998C54.2133 57.4881 59.0972 59.5079 64.2941 59.5079C65.7968 59.5079 67.2745 59.3323 68.7021 59.0061V63.4347C67.2619 63.6981 65.7968 63.8487 64.2941 63.8487C57.945 63.8487 51.9718 61.3646 47.4761 56.8734C42.9805 52.357 40.501 46.3728 40.501 40.0123C40.501 33.6518 42.9805 27.6676 47.4636 23.1638Z" fill="white"/>
<path d="M87.6362 39.1345L84.0422 49.2837H81.8257L80.0725 43.3497L78.3193 49.2837H76.1028L72.5088 39.147H75.364L77.2799 45.5327L78.9831 39.147H81.1495L82.8525 45.5327L84.7685 39.147H87.6362V39.1345Z" fill="white"/>
<path d="M95.9763 46.1974C95.9763 47.2136 95.6257 48.0165 94.937 48.6062C94.2482 49.1958 93.2965 49.4968 92.1069 49.4968C90.9172 49.4968 89.9905 49.1832 89.3143 48.5434C88.6381 47.9162 88.3125 47.0254 88.3125 45.8838H90.8546C90.8546 46.3605 90.9548 46.7118 91.1677 46.9627C91.368 47.2136 91.6811 47.339 92.0818 47.339C92.47 47.339 92.7831 47.2261 93.021 47.0003C93.2589 46.7745 93.3716 46.486 93.3716 46.1347C93.3716 45.683 93.2339 45.3569 92.9459 45.1562C92.6704 44.9554 92.2196 44.8676 91.5934 44.8676V43.1238C92.157 43.1238 92.5577 43.036 92.7956 42.8478C93.0335 42.6722 93.1588 42.3836 93.1588 41.9947C93.1588 41.6936 93.0586 41.4427 92.8457 41.2545C92.6453 41.0538 92.3699 40.966 92.0567 40.966C91.7061 40.966 91.4307 41.0663 91.2428 41.2545C91.0424 41.4427 90.9423 41.7062 90.9423 42.0449H88.5254C88.5379 41.0914 88.876 40.3261 89.5272 39.7741C90.1784 39.2222 91.0675 38.9336 92.182 38.9336C93.1964 38.9336 94.0228 39.1845 94.649 39.6989C95.2751 40.2007 95.5882 40.8656 95.5882 41.6685C95.5882 42.208 95.4504 42.6722 95.1874 43.061C94.9119 43.4499 94.5363 43.726 94.0604 43.8765C94.5863 43.9392 95.0371 44.1901 95.4254 44.6418C95.7885 45.0684 95.9763 45.5952 95.9763 46.1974Z" fill="white"/>
<path d="M82.2016 58.7804C82.2016 60.4866 81.7006 61.7537 80.7113 62.5942C79.722 63.4222 78.1817 63.8362 76.0905 63.8362H73.5107V53.6995H75.7022C78.019 53.6995 79.672 54.1135 80.6863 54.9289C81.6881 55.7569 82.2016 57.0366 82.2016 58.7804ZM79.4591 58.7804C79.4591 57.8019 79.2086 57.0868 78.7077 56.6226C78.2068 56.1584 77.4303 55.9326 76.3659 55.9326H76.1405V61.6031H76.3659C77.4303 61.6031 78.2068 61.3773 78.7077 60.9131C79.2086 60.4615 79.4591 59.7464 79.4591 58.7804Z" fill="white"/>
<path d="M93.0214 63.8362H90.2038L89.6528 62.0422H85.7833L85.2072 63.8362H82.3896L85.9837 53.6995H89.4023L93.0214 63.8362ZM89.0642 60.0851L87.7243 55.7695L86.3719 60.0851H89.0642Z" fill="white"/>
<path d="M101.938 63.8362H98.8322L96.5155 59.8969V63.8362H93.8857V53.6995H96.9788C98.6194 53.6995 99.7714 53.9629 100.435 54.4773C101.099 54.9916 101.437 55.8072 101.437 56.9236C101.437 57.7015 101.249 58.3413 100.861 58.8306C100.473 59.3198 99.9217 59.646 99.1829 59.8091L101.938 63.8362ZM98.6945 57.2373C98.6945 56.7355 98.5693 56.3842 98.3188 56.1584C98.0683 55.9451 97.6426 55.8322 97.0415 55.8322H96.5155V58.5295H96.9914C97.5675 58.5295 98.0058 58.4292 98.2813 58.2158C98.5567 58.0151 98.6945 57.689 98.6945 57.2373Z" fill="white"/>
<path d="M108.938 56.0204H106.885V63.8362H104.255V56.0204H102.188V53.6995H108.938V56.0204Z" fill="white"/>
</g>
<defs>
<clipPath id="clip0_1488_20919">
<rect width="69" height="47.6727" fill="white" transform="translate(40.501 16.1636)"/>
</clipPath>
</defs>
</svg>
