<svg width="151" height="80" viewBox="0 0 151 80" fill="none" xmlns="http://www.w3.org/2000/svg">
<path d="M13.5 47.0679V33.2061H16.6031V47.0668H13.5V47.0679Z" fill="white"/>
<path d="M19.6857 47.0679V33.2061H23.8857L27.1338 40.0327L28.4372 43.2807H28.6645L29.9261 40.0327L33.071 33.2061H37.2908V47.0668H34.1877V40.0338L34.2909 37.8618H34.0636L33.2565 40.0338L30.3599 46.24H26.5946L23.698 40.0338L22.8909 37.8618H22.6636L22.7877 40.0338V47.0679H19.6846H19.6857Z" fill="white"/>
<path d="M40.3743 47.0679V33.2061H44.5743L47.8224 40.0327L49.1258 43.2807H49.3531L50.6147 40.0327L53.7585 33.2061H57.9783V47.0668H54.8752V40.0338L54.9784 37.8618H54.7511L53.944 40.0338L51.0474 46.24H47.2821L44.3855 40.0338L43.5784 37.8618H43.3511L43.4752 40.0338V47.0679H40.3721H40.3743Z" fill="white"/>
<path d="M60.9581 41.2746V33.2061H64.0612V41.0473C64.0612 43.4059 64.9507 44.2536 67.765 44.2536C70.5793 44.2536 71.4676 43.4048 71.4676 41.0473V33.2061H74.5707V41.2746C74.5707 44.9981 72.2955 47.2743 67.7639 47.2743C63.2322 47.2743 60.957 44.9992 60.957 41.2746H60.9581Z" fill="white"/>
<path d="M77.5898 47.0679V33.2061H80.8994L85.8648 39.7636L87.7677 42.6812H87.995L87.8501 39.8888V33.2061H90.9532V47.0668H87.6436L82.5333 40.4466L80.7753 37.8398H80.5689L80.6929 40.384V47.0668H77.5898V47.0679Z" fill="white"/>
<path d="M93.748 40.1374C93.748 35.8132 96.603 33 101.196 33C105.789 33 108.727 35.8132 108.727 40.1374C108.727 44.4615 105.893 47.2747 101.196 47.2747C96.4998 47.2747 93.748 44.4615 93.748 40.1374ZM105.416 40.1374C105.416 37.0551 104.237 35.979 101.195 35.979C98.1534 35.979 97.0367 37.0551 97.0367 40.1374C97.0367 43.2196 98.1534 44.2957 101.195 44.2957C104.237 44.2957 105.416 43.2196 105.416 40.1374Z" fill="white"/>
<path d="M111.932 47.0679V33.2061H118.718C121.614 33.2061 123.58 34.6753 123.58 37.2194C123.58 39.5572 121.862 41.0055 119.297 41.067V41.1702C120.208 41.4184 120.725 42.0179 121.2 42.825L123.807 47.0657H122.111L119.649 43.0523C118.945 41.8939 118.221 41.3975 116.38 41.3975H113.401V47.0657H111.932V47.0679ZM113.401 40.2204H118.697C120.89 40.2204 122.048 39.3519 122.048 37.3863C122.048 35.4208 120.89 34.5523 118.697 34.5523H113.401V40.2204Z" fill="white"/>
<path d="M125.896 47.0682L130.55 41.9787V41.8755L125.896 36.8486H127.674L131.667 41.0893H131.77L135.742 36.8486H137.5L132.824 41.8349V41.9381L137.5 47.0682H135.721L131.708 42.7441H131.625L127.653 47.0682H125.896Z" fill="white"/>
</svg>
