<svg width="151" height="80" viewBox="0 0 151 80" fill="none" xmlns="http://www.w3.org/2000/svg">
<path d="M47.9592 38.2768C44.6379 38.2768 42.2575 35.8595 42.2575 32.5197C42.2575 27.9066 45.4682 24.4745 49.7676 24.4745C53.1628 24.4745 55.4139 26.818 55.4324 30.3977H52.0925C52.0003 28.534 51.0408 27.4638 49.4354 27.4638C47.2765 27.4638 45.7265 29.5489 45.7265 32.4274C45.7265 34.1435 46.7599 35.2875 48.3098 35.2875C49.8783 35.2875 51.133 34.2173 51.7604 32.3721H55.0818C54.1407 36.0441 51.4467 38.2768 47.9592 38.2768ZM60.3003 38.1845C57.6616 38.1845 55.8164 36.45 55.8164 33.9774C55.8164 30.6191 58.3813 27.8882 61.5735 27.8882C64.1753 27.8882 66.0205 29.6042 66.0205 32.0768C66.0205 35.4536 63.4556 38.1845 60.3003 38.1845ZM60.614 35.4351C61.8687 35.4351 62.8283 34.1066 62.8283 32.3905C62.8283 31.3203 62.2009 30.6376 61.2229 30.6376C59.9682 30.6376 59.0087 31.9846 59.0087 33.7006C59.0087 34.7709 59.6545 35.4351 60.614 35.4351ZM75.4471 34.734C75.4471 36.6714 73.8418 38.1845 70.9448 38.1845C68.3246 38.1845 66.4978 36.7268 66.4978 34.4756H69.4317C69.4317 35.2691 70.0222 35.9334 71.1478 35.9334C71.8305 35.9334 72.4579 35.6566 72.4579 35.1215C72.4579 34.6417 72.1442 34.4756 71.5722 34.3465L69.7454 33.9405C68.4168 33.6453 67.4573 32.9072 67.4573 31.228C67.4573 29.1245 69.4317 27.8882 71.8674 27.8882C74.3769 27.8882 76.0007 29.2906 76.0007 31.4864H73.0852C73.0852 30.6745 72.4948 30.1394 71.7013 30.1394C70.9817 30.1394 70.3912 30.4161 70.3912 30.9513C70.3912 31.4126 70.7603 31.6155 71.2585 31.7263L72.79 32.0768C74.3769 32.4459 75.4471 33.1471 75.4471 34.734ZM79.5078 38H76.4631L78.8066 24.7513H81.8512L79.5078 38ZM86.3963 38.1845C83.8868 38.1845 81.8202 36.5976 81.8202 33.8298C81.8202 30.3977 84.1452 27.8882 87.2636 27.8882C90.4558 27.8882 91.932 30.5453 91.4153 33.8114H84.994C85.0493 34.9738 85.6213 35.5828 86.6362 35.5828C87.3558 35.5828 87.8172 35.2506 88.0939 34.6048H91.2308C90.4005 37.1327 88.5737 38.1845 86.3963 38.1845ZM87.2451 30.287C86.1934 30.287 85.566 30.9513 85.2523 31.8923H88.6106C88.5921 31.0435 88.1493 30.287 87.2451 30.287ZM98.79 34.9923L98.3287 37.7601C97.7013 38.0554 96.9448 38.1845 96.2436 38.1845C94.0109 38.1845 92.9038 36.5607 93.3466 34.0697L93.9371 30.7298H92.1472L92.627 28.0727H94.4168L94.915 25.1573H97.9597L97.4615 28.0727H100.1L99.6204 30.7298H96.9817L96.3912 34.0512C96.2436 34.9 96.5942 35.3244 97.3876 35.3244C97.8674 35.3244 98.4394 35.1953 98.79 34.9923ZM106.953 34.9923L106.492 37.7601C105.864 38.0554 105.108 38.1845 104.407 38.1845C102.174 38.1845 101.067 36.5607 101.51 34.0697L102.1 30.7298H100.31L100.79 28.0727H102.58L103.078 25.1573H106.123L105.624 28.0727H108.263L107.783 30.7298H105.145L104.554 34.0512C104.407 34.9 104.757 35.3244 105.551 35.3244C106.03 35.3244 106.602 35.1953 106.953 34.9923Z" fill="white"/>
<path d="M34.9592 56.2768C31.6379 56.2768 29.2575 53.8595 29.2575 50.5197C29.2575 45.9066 32.4682 42.4745 36.7676 42.4745C40.1628 42.4745 42.4139 44.818 42.4324 48.3977H39.0925C39.0003 46.534 38.0408 45.4638 36.4354 45.4638C34.2765 45.4638 32.7265 47.5489 32.7265 50.4274C32.7265 52.1435 33.7599 53.2875 35.3098 53.2875C36.8783 53.2875 38.133 52.2173 38.7604 50.3721H42.0818C41.1407 54.0441 38.4467 56.2768 34.9592 56.2768ZM46.636 50.7411L45.695 56H42.6504L44.9753 42.7513H47.7616L46.9866 47.309C47.7247 46.4233 48.6842 45.8882 49.8098 45.8882C51.8765 45.8882 53.0205 47.5673 52.5961 49.9846L51.5443 56H48.4997L49.4408 50.6489C49.6622 49.3757 49.2747 48.656 48.3521 48.656C47.3188 48.656 46.8759 49.3941 46.636 50.7411ZM58.3138 56.1845C55.8043 56.1845 53.7377 54.5976 53.7377 51.8298C53.7377 48.3977 56.0627 45.8882 59.1811 45.8882C62.3733 45.8882 63.8495 48.5453 63.3328 51.8114H56.9115C56.9668 52.9738 57.5388 53.5828 58.5537 53.5828C59.2733 53.5828 59.7346 53.2506 60.0114 52.6048H63.1483C62.3179 55.1327 60.4912 56.1845 58.3138 56.1845ZM59.1626 48.287C58.1108 48.287 57.4835 48.9513 57.1698 49.8923H60.5281C60.5096 49.0435 60.0668 48.287 59.1626 48.287ZM67.0844 56H64.0398L65.7927 46.0727H68.579L68.376 47.309C69.1695 46.331 70.0921 45.8882 71.107 45.8882C72.4724 45.8882 73.3766 46.5709 73.7456 47.6781C74.576 46.4971 75.6093 45.8882 76.8456 45.8882C78.9122 45.8882 80.0563 47.5673 79.6319 49.9846L78.5801 56H75.5355L76.4766 50.6489C76.698 49.3941 76.3289 48.656 75.4986 48.656C74.5391 48.656 74.0224 49.2649 73.7641 50.7411L72.8415 56H69.7969L70.7379 50.6489C70.9593 49.3941 70.5718 48.656 69.7415 48.656C68.7082 48.656 68.2653 49.3941 68.0254 50.7411L67.0844 56ZM86.1922 43.471C86.1922 44.5965 85.1589 45.5376 83.8857 45.5376C82.8708 45.5376 82.2065 44.9287 82.2065 44.0799C82.2065 42.9543 83.2583 41.9948 84.4946 41.9948C85.5279 41.9948 86.1922 42.6037 86.1922 43.471ZM83.5905 56H80.5458L82.2988 46.0727H85.3434L83.5905 56ZM90.2945 56.1845C87.785 56.1845 85.8844 54.3762 85.8844 51.8852C85.8844 48.4531 88.2463 45.8882 91.4016 45.8882C94.0034 45.8882 95.701 47.6781 95.7195 50.4459H92.5457C92.5457 49.3388 92.0106 48.6376 91.1802 48.6376C89.9255 48.6376 89.0767 49.8923 89.0767 51.6637C89.0767 52.7709 89.6487 53.4536 90.5897 53.4536C91.4201 53.4536 92.1397 52.8631 92.5272 51.5899H95.5903C95.1105 54.3024 93.0254 56.1845 90.2945 56.1845ZM101.905 56L102.09 55.0036C101.444 55.797 100.521 56.1845 99.2668 56.1845C97.4584 56.1845 96.259 55.1143 96.259 53.509C96.259 51.4054 98.1596 50.0584 101.13 50.0584C101.684 50.0584 102.182 50.0953 102.496 50.1691L102.588 49.7078C102.754 48.859 102.274 48.3054 101.37 48.3054C100.466 48.3054 99.9679 48.7483 99.8019 49.7078H97.0525C97.237 47.3459 99.0084 45.8882 101.702 45.8882C104.323 45.8882 105.854 47.5304 105.448 49.8739L104.36 56H101.905ZM99.1929 53.1215C99.1929 53.6566 99.6912 54.0625 100.355 54.0625C101.278 54.0625 101.942 53.5274 102.09 52.6786L102.201 52.0328C101.795 51.9405 101.389 51.9036 101.001 51.9036C99.8388 51.9036 99.1929 52.3465 99.1929 53.1215ZM109.395 56H106.35L108.694 42.7513H111.738L109.395 56ZM120.417 52.734C120.417 54.6714 118.811 56.1845 115.914 56.1845C113.294 56.1845 111.467 54.7268 111.467 52.4756H114.401C114.401 53.2691 114.992 53.9334 116.117 53.9334C116.8 53.9334 117.427 53.6566 117.427 53.1215C117.427 52.6417 117.114 52.4756 116.542 52.3465L114.715 51.9405C113.386 51.6453 112.427 50.9072 112.427 49.228C112.427 47.1245 114.401 45.8882 116.837 45.8882C119.346 45.8882 120.97 47.2906 120.97 49.4864H118.055C118.055 48.6745 117.464 48.1394 116.671 48.1394C115.951 48.1394 115.361 48.4161 115.361 48.9513C115.361 49.4126 115.73 49.6155 116.228 49.7263L117.759 50.0768C119.346 50.4459 120.417 51.1471 120.417 52.734Z" fill="#757575"/>
</svg>
