<svg width="151" height="80" viewBox="0 0 151 80" fill="none" xmlns="http://www.w3.org/2000/svg">
<path d="M41.2947 25.7017H38.9834V34.5315H41.2947V25.7017Z" fill="white"/>
<path d="M26.1566 35.022L25.4424 37.2202L33.84 39.9487L34.5542 37.7506L26.1566 35.022Z" fill="white"/>
<path d="M35.5328 45.1569L30.3428 52.3003L32.2127 53.6588L37.4027 46.5154L35.5328 45.1569Z" fill="white"/>
<path d="M44.7478 45.1551L42.8779 46.5137L48.0679 53.6571L49.9378 52.2986L44.7478 45.1551Z" fill="white"/>
<path d="M54.1232 35.02L45.7256 37.7485L46.4398 39.9467L54.8375 37.2182L54.1232 35.02Z" fill="white"/>
<path d="M41.2947 25.7017H38.9834V34.5315H41.2947V25.7017Z" fill="white"/>
<path d="M26.1566 35.022L25.4424 37.2202L33.84 39.9487L34.5542 37.7506L26.1566 35.022Z" fill="white"/>
<path d="M35.5328 45.1569L30.3428 52.3003L32.2127 53.6588L37.4027 46.5154L35.5328 45.1569Z" fill="white"/>
<path d="M44.7478 45.1551L42.8779 46.5137L48.0679 53.6571L49.9378 52.2986L44.7478 45.1551Z" fill="white"/>
<path d="M54.1232 35.02L45.7256 37.7485L46.4398 39.9467L54.8375 37.2182L54.1232 35.02Z" fill="white"/>
<path d="M41.2947 47.0278H38.9834V55.8574H41.2947V47.0278Z" fill="#757575"/>
<path d="M46.4388 41.6119L45.7246 43.8101L54.1223 46.5386L54.8365 44.3404L46.4388 41.6119Z" fill="#757575"/>
<path d="M48.0679 27.902L42.8779 35.0454L44.7478 36.404L49.9378 29.2605L48.0679 27.902Z" fill="#757575"/>
<path d="M32.2127 27.9027L30.3428 29.2612L35.5328 36.4047L37.4027 35.0461L32.2127 27.9027Z" fill="#757575"/>
<path d="M33.84 41.6118L25.4424 44.3403L26.1566 46.5385L34.5543 43.81L33.84 41.6118Z" fill="#757575"/>
<path d="M40.1389 49.2469C35.4701 49.2469 31.6719 45.4487 31.6719 40.78C31.6719 36.1112 35.4701 32.313 40.1389 32.313C44.8076 32.313 48.604 36.1116 48.604 40.78C48.604 45.4483 44.8072 49.2469 40.1389 49.2469ZM40.1389 35.2752C39.05 35.2751 37.9855 35.5979 37.0801 36.2028C36.1747 36.8077 35.469 37.6675 35.0523 38.6734C34.6356 39.6794 34.5265 40.7864 34.7389 41.8543C34.9513 42.9223 35.4756 43.9033 36.2456 44.6732C37.0155 45.4432 37.9965 45.9675 39.0645 46.1799C40.1324 46.3923 41.2394 46.2832 42.2454 45.8665C43.2513 45.4498 44.1111 44.7441 44.716 43.8387C45.3209 42.9333 45.6437 41.8688 45.6436 40.78C45.6419 39.3205 45.0614 37.9214 44.0294 36.8894C42.9975 35.8574 41.5983 35.2769 40.1389 35.2752Z" fill="white"/>
<path d="M64.6808 39.1401H61.7375V27.959H69.3526V30.5129H64.6808V32.5841H68.5895V35.138H64.6808V39.1401ZM74.1697 39.2803C71.5847 39.2803 69.8561 37.5362 69.8561 34.9355C69.8561 32.4283 71.6626 30.6063 74.1542 30.6063C76.9261 30.6063 78.7793 32.8644 78.2965 35.6207H72.6125C72.7526 36.6797 73.251 37.2091 74.1075 37.2091C74.8549 37.2091 75.3533 36.8977 75.5869 36.2903H78.2498C77.7359 38.2058 76.2565 39.2803 74.1697 39.2803ZM74.0919 32.5685C73.2977 32.5685 72.8305 33.0201 72.6436 33.9544H75.4467C75.4156 33.1135 74.8861 32.5685 74.0919 32.5685ZM84.4916 39.1401V38.3304C83.8999 39 83.1679 39.2959 82.0934 39.2959C80.3493 39.2959 79.1813 38.2525 79.1813 36.6641C79.1813 35.029 80.505 34.1413 82.9032 34.1413C83.3548 34.1413 83.7753 34.1725 84.1334 34.2348V33.8299C84.1334 33.098 83.713 32.6931 82.9655 32.6931C82.2336 32.6931 81.7975 33.098 81.7041 33.8299H79.3059C79.4616 31.8833 80.9099 30.6063 82.9811 30.6063C85.2858 30.6063 86.6406 31.8521 86.6406 33.97V39.1401H84.4916ZM81.6885 36.5862C81.6885 37.1313 82.0623 37.4583 82.7163 37.4583C83.604 37.4583 84.1334 37.0378 84.1334 36.3526V35.8232C83.7286 35.7453 83.4171 35.7142 83.0745 35.7142C82.1713 35.7142 81.6885 36.01 81.6885 36.5862ZM90.9631 35.2781V39.1401H88.3002V30.7621H90.7451V32.2415C91.3836 31.2604 92.7073 30.6998 94.0465 30.6998V33.4717C92.1622 33.2848 90.9631 33.425 90.9631 35.2781ZM97.7617 39.1401H95.0676V27.959H97.7617V39.1401ZM103.292 39.2803C100.707 39.2803 98.9788 37.5362 98.9788 34.9355C98.9788 32.4283 100.785 30.6063 103.277 30.6063C106.049 30.6063 107.902 32.8644 107.419 35.6207H101.735C101.875 36.6797 102.374 37.2091 103.23 37.2091C103.978 37.2091 104.476 36.8977 104.71 36.2903H107.372C106.859 38.2058 105.379 39.2803 103.292 39.2803ZM103.215 32.5685C102.42 32.5685 101.953 33.0201 101.766 33.9544H104.569C104.538 33.1135 104.009 32.5685 103.215 32.5685ZM116.137 36.2903C116.137 38.1435 114.767 39.2959 112.244 39.2959C109.721 39.2959 108.351 38.1123 108.179 36.1813H110.733C110.733 36.8821 111.372 37.3337 112.291 37.3337C112.898 37.3337 113.443 37.1936 113.443 36.7575C113.443 36.3838 113.163 36.2281 112.586 36.119L110.936 35.8232C109.472 35.5584 108.538 34.7175 108.538 33.3627C108.538 31.7431 109.908 30.6063 112.104 30.6063C114.299 30.6063 115.826 31.7743 115.981 33.643H113.427C113.365 32.9734 112.851 32.5685 112.119 32.5685C111.496 32.5685 111.092 32.7398 111.092 33.1135C111.092 33.4717 111.356 33.5807 111.886 33.6741L113.661 34.0012C115.281 34.297 116.137 35.0912 116.137 36.2903ZM124.851 36.2903C124.851 38.1435 123.481 39.2959 120.958 39.2959C118.435 39.2959 117.065 38.1123 116.893 36.1813H119.447C119.447 36.8821 120.086 37.3337 121.005 37.3337C121.612 37.3337 122.157 37.1936 122.157 36.7575C122.157 36.3838 121.877 36.2281 121.3 36.119L119.65 35.8232C118.186 35.5584 117.252 34.7175 117.252 33.3627C117.252 31.7431 118.622 30.6063 120.818 30.6063C123.013 30.6063 124.54 31.7743 124.695 33.643H122.141C122.079 32.9734 121.565 32.5685 120.833 32.5685C120.21 32.5685 119.806 32.7398 119.806 33.1135C119.806 33.4717 120.07 33.5807 120.6 33.6741L122.375 34.0012C123.995 34.297 124.851 35.0912 124.851 36.2903ZM66.7987 54.1401L64.4005 47.6931V54.1401H61.7375V42.959H65.2102L68.0289 50.5429L70.832 42.959H74.3047V54.1401H71.6417V47.6152L69.228 54.1401H66.7987ZM79.2921 43.8155C79.2921 44.6875 78.5913 45.326 77.5791 45.326C76.5668 45.326 75.8661 44.6875 75.8661 43.8155C75.8661 42.9278 76.5668 42.2894 77.5791 42.2894C78.5913 42.2894 79.2921 42.9278 79.2921 43.8155ZM78.9339 54.1401H76.271V45.7621H78.9339V54.1401ZM83.3441 49.7331V54.1401H80.6812V45.7621H83.1261V46.7743C83.7801 46.0424 84.5588 45.6063 85.6177 45.6063C87.2684 45.6063 88.4364 46.712 88.4364 48.752V54.1401H85.7734V49.6396C85.7734 48.5807 85.3997 48.0045 84.5899 48.0045C83.9359 48.0045 83.3441 48.4717 83.3441 49.7331ZM89.5805 49.9511C89.5805 47.5218 91.0599 45.6063 93.3179 45.6063C94.19 45.6063 94.9375 45.9178 95.5915 46.5407V42.959H98.2544V54.1401H95.8095V53.1902C95.1243 53.9065 94.299 54.2959 93.3179 54.2959C91.0599 54.2959 89.5805 52.3493 89.5805 49.9511ZM92.3524 49.9511C92.3524 51.2592 93.1466 51.8977 93.9564 51.8977C94.7817 51.8977 95.5604 51.2592 95.5604 49.9355C95.5604 48.5963 94.7662 48.0045 93.9564 48.0045C93.1466 48.0045 92.3524 48.6118 92.3524 49.9511Z" fill="white"/>
</svg>
