<svg width="151" height="80" viewBox="0 0 151 80" fill="none" xmlns="http://www.w3.org/2000/svg">
<g clip-path="url(#clip0_1488_20909)">
<path d="M85.4583 28.7517L86.3118 26.4965C86.5428 25.8897 86.2374 25.2084 85.6306 24.9813L78.1095 22.1272C77.5027 21.8962 76.8214 22.2016 76.5943 22.8084L68.9441 42.9872L70.5728 44.6159C70.8512 44.895 71.0075 45.273 71.0075 45.6672C71.0075 46.0613 70.8512 46.4393 70.5728 46.7184L65.7572 51.534C65.7297 51.5614 65.7023 51.5849 65.6749 51.6084L64.9545 53.5073C64.7236 54.1141 65.0289 54.7954 65.6358 55.0225L73.1607 57.8766C73.7676 58.1076 74.4488 57.8022 74.6759 57.1954L79.4642 44.5689C78.916 43.1517 78.6107 41.613 78.6107 40.0039C78.6107 35.106 81.3904 30.8619 85.4583 28.7556V28.7517ZM98.8364 27.3383C96.7379 27.3383 94.7647 27.8512 93.0224 28.7517L87.0244 44.565C88.8567 49.3024 93.4531 52.6616 98.8364 52.6616C105.829 52.6616 111.502 46.9924 111.502 39.996C111.502 32.9996 105.833 27.3305 98.8364 27.3305V27.3383ZM58.3888 39.9999L63.0048 35.384C63.2831 35.1049 63.4394 34.7269 63.4394 34.3327C63.4394 33.9386 63.2831 33.5606 63.0048 33.2815L58.1891 28.4658C57.9101 28.1875 57.532 28.0312 57.1379 28.0312C56.7438 28.0312 56.3657 28.1875 56.0867 28.4658L51.4707 33.0818L46.8547 28.4658C46.5757 28.1875 46.1976 28.0312 45.8035 28.0312C45.4094 28.0312 45.0313 28.1875 44.7523 28.4658L39.9366 33.2815C39.6583 33.5606 39.502 33.9386 39.502 34.3327C39.502 34.7269 39.6583 35.1049 39.9366 35.384L44.5526 39.9999L39.9366 44.6159C39.6583 44.895 39.502 45.273 39.502 45.6672C39.502 46.0613 39.6583 46.4393 39.9366 46.7184L44.7523 51.534C45.0313 51.8124 45.4094 51.9687 45.8035 51.9687C46.1976 51.9687 46.5757 51.8124 46.8547 51.534L51.4707 46.9181L56.0867 51.534C56.3515 51.7997 56.7073 51.9551 57.0822 51.9689C57.457 51.9827 57.8232 51.8539 58.1069 51.6084L61.3761 42.9872L58.3888 39.9999Z" fill="white"/>
</g>
<defs>
<clipPath id="clip0_1488_20909">
<rect width="72" height="50" fill="white" transform="translate(39.502 15)"/>
</clipPath>
</defs>
</svg>
