<svg width="151" height="80" viewBox="0 0 151 80" fill="none" xmlns="http://www.w3.org/2000/svg">
<g clip-path="url(#clip0_1488_20912)">
<path d="M83.962 37.3224C79.962 44.0847 76.1928 50.0786 72.8082 56.3798C71.1159 59.6073 68.8851 60.5294 65.4236 60.4526C53.2697 60.0684 44.4236 51.6923 44.5005 40.0888C44.5774 28.6389 53.4236 20.2629 65.4236 20.186C69.1928 20.186 73.039 20.186 76.8851 20.186C75.2697 26.5641 73.3467 28.101 67.6543 28.2547C65.5005 28.3316 63.2697 28.3316 61.1928 28.8695C56.039 30.1758 52.3467 35.3244 52.5005 40.6267C52.6543 45.929 56.8082 50.847 61.8082 51.9997C64.3467 52.5376 66.1159 52.0765 67.5005 49.5407C72.7313 40.1656 78.1928 30.9443 83.8851 21.0313C91.5774 34.1718 98.8851 46.928 106.501 60.1452C96.5774 60.1452 87.2697 60.1452 77.8851 60.1452C79.5774 52.2302 85.4236 51.6923 92.6544 52.3839C89.5774 47.0048 86.962 42.471 83.962 37.3224Z" fill="white"/>
</g>
<defs>
<clipPath id="clip0_1488_20912">
<rect width="62" height="40.1897" fill="white" transform="translate(44.5 20.186)"/>
</clipPath>
</defs>
</svg>
