<svg width="150" height="80" viewBox="0 0 150 80" fill="none" xmlns="http://www.w3.org/2000/svg">
<g clip-path="url(#clip0_1488_20540)">
<mask id="mask0_1488_20540" style="mask-type:luminance" maskUnits="userSpaceOnUse" x="23" y="27" width="103" height="26">
<path d="M125.328 27.0649H23.999V52.9351H125.328V27.0649Z" fill="white"/>
</mask>
<g mask="url(#mask0_1488_20540)">
<path d="M76.1369 51.4211V52.0037L71.0664 52.8941C70.1414 53.0308 70.107 52.2438 70.107 52.2438V49.2337C69.2855 51.1859 66.4417 52.9286 64.3184 52.9286C61.6088 52.9286 60.0078 51.798 60.0078 47.6869V40.3563C60.0078 38.3007 60.0755 37.9928 58.0889 37.7182V37.1368L64.2555 36.4854V47.5846C64.2555 49.5035 65.1461 50.4284 67.1326 50.4284C68.0921 50.4284 69.3939 49.5663 70.1131 48.2017V40.4597C70.1131 38.366 70.251 37.9239 68.5034 37.7182V37.1368L74.3954 36.4854V49.469C74.3893 51.1132 74.7046 51.2499 76.1369 51.4211Z" fill="white"/>
<path d="M84.8714 52.0384V52.6209H77.8512V52.0384C79.153 51.6615 79.2207 50.223 79.2207 48.4753V31.1416C79.2207 29.942 78.8784 29.4284 77.5088 28.9148V28.3323L83.5006 27.0649V48.4753C83.5006 50.3597 83.6718 51.7305 84.8714 52.0384Z" fill="white"/>
<path d="M97.068 49.2977L97.5816 49.6056C96.8969 51.2153 94.8068 52.9309 92.5111 52.9309C89.8015 52.9309 88.2005 51.8349 88.2005 47.6892V37.3757H86.4873L86.3838 36.7931H88.2005V32.2029L92.4815 31.4836V36.7944H96.5594L96.4214 37.3769H92.4803V47.5858C92.4803 49.5046 93.303 50.4973 95.0162 50.4973C96.0052 50.4961 96.7589 49.8113 97.068 49.2977Z" fill="white"/>
<path d="M106.281 52.0382V52.6207H99.2617V52.0382C100.563 51.6269 100.632 50.1908 100.632 48.4406V40.8354C100.632 39.6716 100.29 39.1912 98.8848 38.4375V37.8562L104.88 36.4853V48.4406C104.88 50.3595 105.048 51.697 106.281 52.0382ZM102.416 33.745C101.808 33.731 101.229 33.4794 100.804 33.0441C100.379 32.6087 100.14 32.0242 100.14 31.4154C100.14 30.8067 100.379 30.2221 100.804 29.7868C101.229 29.3514 101.808 29.0998 102.416 29.0858C102.727 29.0787 103.036 29.1337 103.325 29.2475C103.614 29.3614 103.877 29.5318 104.099 29.7489C104.321 29.9659 104.498 30.2251 104.618 30.5113C104.739 30.7975 104.801 31.1049 104.801 31.4154C104.801 31.7259 104.739 32.0333 104.618 32.3195C104.498 32.6057 104.321 32.8649 104.099 33.082C103.877 33.299 103.614 33.4694 103.325 33.5833C103.036 33.6972 102.727 33.7522 102.416 33.745Z" fill="white"/>
<path d="M124.744 50.256L125.327 50.5023C125.053 51.5985 123.48 52.9348 121.319 52.9348C121.319 52.9348 118.27 52.9348 117.893 50.1599C117.38 51.6674 115.358 52.9348 112.925 52.9348C112.925 52.9348 108.984 52.9348 108.984 49.4407C108.984 45.7065 111.862 45.3641 117.853 43.8565V41.7271C117.853 38.164 115.864 36.3831 113.501 37.6159C112.405 38.164 112.269 38.7466 112.509 38.781C112.761 38.8081 113.005 38.8892 113.224 39.0191C113.443 39.149 113.631 39.3245 113.776 39.5336C113.921 39.7448 114.024 39.9828 114.076 40.2338C114.13 40.4848 114.132 40.7438 114.084 40.9959C114.036 41.2479 113.939 41.4879 113.798 41.7021C113.657 41.9161 113.474 42.1001 113.261 42.2431C112.832 42.529 112.308 42.6353 111.801 42.5393C111.295 42.4433 110.846 42.1526 110.551 41.7296C110.14 41.078 110.106 40.2516 110.449 39.674C110.792 39.0964 111.236 38.1665 113.121 37.1726C114.662 36.3511 116.446 36.4878 116.446 36.4878C120.934 36.4878 122.166 39.2971 122.166 43.3393V48.4431C122.166 48.4431 122.133 50.8411 123.811 50.8411C123.82 50.8349 124.54 50.8349 124.744 50.256ZM117.86 44.4674C114.502 45.2212 113.372 46.8309 113.372 48.5785C113.372 48.5785 113.372 50.8386 115.598 50.8386C116.764 50.8386 117.55 49.9137 117.86 49.0921V44.4674Z" fill="white"/>
<path d="M42.1543 45.8714L33.9025 28.5056H25.2664V29.0882C26.1223 29.1571 27.8355 29.1571 29.1373 31.4516V43.9525C29.1373 43.9525 29.1373 52.0381 23.999 52.0381V52.6194H34.3779V52.0381C29.6509 52.0381 29.7199 43.9525 29.7199 43.9525V32.3753L39.3117 52.9285H39.8943L42.4572 46.5094L42.1543 45.8714Z" fill="white"/>
<path d="M53.9391 48.4748V32.0944C53.9391 30.0006 55.1029 29.0794 56.576 29.0794V28.4968H49.0052V48.4748C49.0052 50.8039 47.9781 52.0379 46.542 52.0379V52.6192H56.8876V52.0379C55.4121 52.0379 53.9391 50.8039 53.9391 48.4748Z" fill="white"/>
</g>
</g>
<defs>
<clipPath id="clip0_1488_20540">
<rect width="102.002" height="26.6092" fill="white" transform="translate(23.999 26.6953)"/>
</clipPath>
</defs>
</svg>
