<svg width="24" height="24" viewBox="0 0 24 24" fill="none" xmlns="http://www.w3.org/2000/svg">
<g clip-path="url(#clip0_2260_3570)">
<path d="M3.00195 12C3.00195 12.7956 3.31802 13.5587 3.88063 14.1213C4.44324 14.6839 5.2063 15 6.00195 15C6.7976 15 7.56066 14.6839 8.12327 14.1213C8.68588 13.5587 9.00195 12.7956 9.00195 12C9.00195 11.2044 8.68588 10.4413 8.12327 9.87868C7.56066 9.31607 6.7976 9 6.00195 9C5.2063 9 4.44324 9.31607 3.88063 9.87868C3.31802 10.4413 3.00195 11.2044 3.00195 12Z" stroke="white" stroke-width="2" stroke-linecap="round" stroke-linejoin="round"/>
<path d="M15.002 6C15.002 6.79565 15.318 7.55871 15.8806 8.12132C16.4432 8.68393 17.2063 9 18.002 9C18.7976 9 19.5607 8.68393 20.1233 8.12132C20.6859 7.55871 21.002 6.79565 21.002 6C21.002 5.20435 20.6859 4.44129 20.1233 3.87868C19.5607 3.31607 18.7976 3 18.002 3C17.2063 3 16.4432 3.31607 15.8806 3.87868C15.318 4.44129 15.002 5.20435 15.002 6Z" stroke="white" stroke-width="2" stroke-linecap="round" stroke-linejoin="round"/>
<path d="M15.002 18C15.002 18.7956 15.318 19.5587 15.8806 20.1213C16.4432 20.6839 17.2063 21 18.002 21C18.7976 21 19.5607 20.6839 20.1233 20.1213C20.6859 19.5587 21.002 18.7956 21.002 18C21.002 17.2044 20.6859 16.4413 20.1233 15.8787C19.5607 15.3161 18.7976 15 18.002 15C17.2063 15 16.4432 15.3161 15.8806 15.8787C15.318 16.4413 15.002 17.2044 15.002 18Z" stroke="white" stroke-width="2" stroke-linecap="round" stroke-linejoin="round"/>
<path d="M8.70117 10.7L15.3012 7.29999" stroke="white" stroke-width="2" stroke-linecap="round" stroke-linejoin="round"/>
<path d="M8.70117 13.3L15.3012 16.7" stroke="white" stroke-width="2" stroke-linecap="round" stroke-linejoin="round"/>
</g>
<defs>
<clipPath id="clip0_2260_3570">
<rect width="24" height="24" fill="white" transform="translate(0.00195312)"/>
</clipPath>
</defs>
</svg>
