<svg width="80" height="80" viewBox="0 0 80 80" fill="none" xmlns="http://www.w3.org/2000/svg">
<g filter="url(#filter0_d_1852_473)">
<path d="M41.6471 20H47L38.3529 61H33L41.6471 20Z" fill="#F35423"/>
<path d="M41.6471 20H47L38.3529 61H33L41.6471 20Z" stroke="black"/>
</g>
<g filter="url(#filter1_d_1852_473)">
<path d="M29.2195 34.4194L30 29L14 37.9032V44.0968L30 53L29.2195 47.5806L18.6829 41L29.2195 34.4194Z" fill="#F35423"/>
<path d="M29.2195 34.4194L30 29L14 37.9032V44.0968L30 53L29.2195 47.5806L18.6829 41L29.2195 34.4194Z" stroke="black"/>
</g>
<g filter="url(#filter2_d_1852_473)">
<path d="M50.7805 34.4194L50 29L66 37.9032V44.0968L50 53L50.7805 47.5806L61.3171 41L50.7805 34.4194Z" fill="#F35423"/>
<path d="M50.7805 34.4194L50 29L66 37.9032V44.0968L50 53L50.7805 47.5806L61.3171 41L50.7805 34.4194Z" stroke="black"/>
</g>
<defs>
<filter id="filter0_d_1852_473" x="30.148" y="19.5" width="17.4682" height="44.2358" filterUnits="userSpaceOnUse" color-interpolation-filters="sRGB">
<feFlood flood-opacity="0" result="BackgroundImageFix"/>
<feColorMatrix in="SourceAlpha" type="matrix" values="0 0 0 0 0 0 0 0 0 0 0 0 0 0 0 0 0 0 127 0" result="hardAlpha"/>
<feOffset dx="-2.23579" dy="2.23579"/>
<feComposite in2="hardAlpha" operator="out"/>
<feColorMatrix type="matrix" values="0 0 0 0 1 0 0 0 0 1 0 0 0 0 1 0 0 0 1 0"/>
<feBlend mode="normal" in2="BackgroundImageFix" result="effect1_dropShadow_1852_473"/>
<feBlend mode="normal" in="SourceGraphic" in2="effect1_dropShadow_1852_473" result="shape"/>
</filter>
<filter id="filter1_d_1852_473" x="11.2642" y="28.0723" width="19.3745" height="28.0913" filterUnits="userSpaceOnUse" color-interpolation-filters="sRGB">
<feFlood flood-opacity="0" result="BackgroundImageFix"/>
<feColorMatrix in="SourceAlpha" type="matrix" values="0 0 0 0 0 0 0 0 0 0 0 0 0 0 0 0 0 0 127 0" result="hardAlpha"/>
<feOffset dx="-2.23579" dy="2.23579"/>
<feComposite in2="hardAlpha" operator="out"/>
<feColorMatrix type="matrix" values="0 0 0 0 1 0 0 0 0 1 0 0 0 0 1 0 0 0 1 0"/>
<feBlend mode="normal" in2="BackgroundImageFix" result="effect1_dropShadow_1852_473"/>
<feBlend mode="normal" in="SourceGraphic" in2="effect1_dropShadow_1852_473" result="shape"/>
</filter>
<filter id="filter2_d_1852_473" x="47.1255" y="28.0723" width="19.3745" height="28.0913" filterUnits="userSpaceOnUse" color-interpolation-filters="sRGB">
<feFlood flood-opacity="0" result="BackgroundImageFix"/>
<feColorMatrix in="SourceAlpha" type="matrix" values="0 0 0 0 0 0 0 0 0 0 0 0 0 0 0 0 0 0 127 0" result="hardAlpha"/>
<feOffset dx="-2.23579" dy="2.23579"/>
<feComposite in2="hardAlpha" operator="out"/>
<feColorMatrix type="matrix" values="0 0 0 0 1 0 0 0 0 1 0 0 0 0 1 0 0 0 1 0"/>
<feBlend mode="normal" in2="BackgroundImageFix" result="effect1_dropShadow_1852_473"/>
<feBlend mode="normal" in="SourceGraphic" in2="effect1_dropShadow_1852_473" result="shape"/>
</filter>
</defs>
</svg>
