<svg width="80" height="80" viewBox="0 0 80 80" fill="none" xmlns="http://www.w3.org/2000/svg">
<g filter="url(#filter0_d_1852_455)">
<path d="M25.0623 16.3684C25.2208 16.2105 25.3792 14.9079 25.4189 13.5263L25.4585 11L30.8472 11.2368C33.8189 11.3553 37.3849 11.75 38.8113 12.1053C40.2377 12.4605 42.8132 13.4079 44.5566 14.2763C46.3 15.1053 48.7566 16.6447 50.0245 17.7105C51.2925 18.7368 53.1943 20.6711 54.3038 21.9737C55.3736 23.2763 56.9585 25.7632 57.8302 27.5C58.6623 29.2368 59.6528 31.7237 60.0094 33.0263C60.5245 34.8026 60.7226 37.6053 61 52.5658L58.5434 52.6053C57.1566 52.6447 55.9283 52.6447 55.7698 52.6053C55.5717 52.6053 55.4528 52.6842 55.4528 52.8816C55.4528 53.0395 56.6811 54.4211 61 58.6842V68.75H21.7736L21.5755 62.6316L29.7774 54.3421C37.0679 47 38.0189 45.8947 38.0189 44.7895C38.0189 43.8816 37.6623 43.1316 36.8302 42.3026C35.9189 41.3947 35.2849 41.1184 34.0566 41.1184C32.7491 41.1184 32.3132 41.3553 31.4415 42.4211C30.6491 43.3684 30.4509 44.0395 30.6887 46.6447H21.3774L21.417 38.0789C21.417 33.3421 21.3377 29.1974 21.2189 28.8816C21.1 28.5658 20.5453 28.0526 19 27.3026L19.1585 19.5263C19.2377 15.2237 19.3566 11.6316 19.3566 11.5132C19.3566 11.3947 20.5849 12.5395 22.0509 14C23.5566 15.4605 24.9038 16.5263 25.0623 16.3684Z" fill="#F35423"/>
<path d="M25.0623 16.3684C25.2208 16.2105 25.3792 14.9079 25.4189 13.5263L25.4585 11L30.8472 11.2368C33.8189 11.3553 37.3849 11.75 38.8113 12.1053C40.2377 12.4605 42.8132 13.4079 44.5566 14.2763C46.3 15.1053 48.7566 16.6447 50.0245 17.7105C51.2925 18.7368 53.1943 20.6711 54.3038 21.9737C55.3736 23.2763 56.9585 25.7632 57.8302 27.5C58.6623 29.2368 59.6528 31.7237 60.0094 33.0263C60.5245 34.8026 60.7226 37.6053 61 52.5658L58.5434 52.6053C57.1566 52.6447 55.9283 52.6447 55.7698 52.6053C55.5717 52.6053 55.4528 52.6842 55.4528 52.8816C55.4528 53.0395 56.6811 54.4211 61 58.6842V68.75H21.7736L21.5755 62.6316L29.7774 54.3421C37.0679 47 38.0189 45.8947 38.0189 44.7895C38.0189 43.8816 37.6623 43.1316 36.8302 42.3026C35.9189 41.3947 35.2849 41.1184 34.0566 41.1184C32.7491 41.1184 32.3132 41.3553 31.4415 42.4211C30.6491 43.3684 30.4509 44.0395 30.6887 46.6447H21.3774L21.417 38.0789C21.417 33.3421 21.3377 29.1974 21.2189 28.8816C21.1 28.5658 20.5453 28.0526 19 27.3026L19.1585 19.5263C19.2377 15.2237 19.3566 11.6316 19.3566 11.5132C19.3566 11.3947 20.5849 12.5395 22.0509 14C23.5566 15.4605 24.9038 16.5263 25.0623 16.3684Z" stroke="white" stroke-width="0.65625"/>
</g>
<defs>
<filter id="filter0_d_1852_455" x="16.043" y="10.6572" width="45.291" height="61.0459" filterUnits="userSpaceOnUse" color-interpolation-filters="sRGB">
<feFlood flood-opacity="0" result="BackgroundImageFix"/>
<feColorMatrix in="SourceAlpha" type="matrix" values="0 0 0 0 0 0 0 0 0 0 0 0 0 0 0 0 0 0 127 0" result="hardAlpha"/>
<feOffset dx="-2.625" dy="2.625"/>
<feComposite in2="hardAlpha" operator="out"/>
<feColorMatrix type="matrix" values="0 0 0 0 1 0 0 0 0 1 0 0 0 0 1 0 0 0 1 0"/>
<feBlend mode="normal" in2="BackgroundImageFix" result="effect1_dropShadow_1852_455"/>
<feBlend mode="normal" in="SourceGraphic" in2="effect1_dropShadow_1852_455" result="shape"/>
</filter>
</defs>
</svg>
