<svg width="80" height="80" viewBox="0 0 80 80" fill="none" xmlns="http://www.w3.org/2000/svg">
<g filter="url(#filter0_d_1852_482)">
<g filter="url(#filter1_d_1852_482)">
<path d="M8 18H71V24.3V61.7684H8V24.3V18Z" fill="black"/>
<path d="M71 24.3V61.7684H8V24.3M71 24.3V18H8V24.3M71 24.3H8" stroke="white" stroke-width="0.663158"/>
</g>
<path d="M14.6318 32.5894H34.8582M34.8582 37.8946H28.2266M24.2476 37.8946H14.6318M14.6318 43.1999H34.8582M14.6318 48.5051H28.2266M14.6318 53.8104H34.8582" stroke="white" stroke-width="0.663158"/>
<circle cx="12.3107" cy="20.9845" r="1.32632" fill="white"/>
<circle cx="16.2902" cy="20.9845" r="1.32632" fill="white"/>
<circle cx="20.2677" cy="20.9845" r="1.32632" fill="white"/>
<g filter="url(#filter2_d_1852_482)">
<path d="M47.7899 51.821L63.7057 35.9053L59.3952 31.5947L47.4583 43.5316L43.811 39.8842L39.832 43.8631L47.7899 51.821Z" fill="#F35423"/>
<path d="M47.7899 51.821L63.7057 35.9053L59.3952 31.5947L47.4583 43.5316L43.811 39.8842L39.832 43.8631L47.7899 51.821Z" stroke="white" stroke-width="0.663158"/>
</g>
</g>
<defs>
<filter id="filter0_d_1852_482" x="5.2806" y="17.6685" width="66.0514" height="46.819" filterUnits="userSpaceOnUse" color-interpolation-filters="sRGB">
<feFlood flood-opacity="0" result="BackgroundImageFix"/>
<feColorMatrix in="SourceAlpha" type="matrix" values="0 0 0 0 0 0 0 0 0 0 0 0 0 0 0 0 0 0 127 0" result="hardAlpha"/>
<feOffset dx="-2.38737" dy="2.38737"/>
<feComposite in2="hardAlpha" operator="out"/>
<feColorMatrix type="matrix" values="0 0 0 0 1 0 0 0 0 1 0 0 0 0 1 0 0 0 1 0"/>
<feBlend mode="normal" in2="BackgroundImageFix" result="effect1_dropShadow_1852_482"/>
<feBlend mode="normal" in="SourceGraphic" in2="effect1_dropShadow_1852_482" result="shape"/>
</filter>
<filter id="filter1_d_1852_482" x="5.01534" y="17.6685" width="68.9693" height="49.7369" filterUnits="userSpaceOnUse" color-interpolation-filters="sRGB">
<feFlood flood-opacity="0" result="BackgroundImageFix"/>
<feColorMatrix in="SourceAlpha" type="matrix" values="0 0 0 0 0 0 0 0 0 0 0 0 0 0 0 0 0 0 127 0" result="hardAlpha"/>
<feOffset dy="2.65263"/>
<feGaussianBlur stdDeviation="1.32632"/>
<feComposite in2="hardAlpha" operator="out"/>
<feColorMatrix type="matrix" values="0 0 0 0 0 0 0 0 0 0 0 0 0 0 0 0 0 0 0.25 0"/>
<feBlend mode="normal" in2="BackgroundImageFix" result="effect1_dropShadow_1852_482"/>
<feBlend mode="normal" in="SourceGraphic" in2="effect1_dropShadow_1852_482" result="shape"/>
</filter>
<filter id="filter2_d_1852_482" x="38.037" y="31.126" width="26.1378" height="21.1641" filterUnits="userSpaceOnUse" color-interpolation-filters="sRGB">
<feFlood flood-opacity="0" result="BackgroundImageFix"/>
<feColorMatrix in="SourceAlpha" type="matrix" values="0 0 0 0 0 0 0 0 0 0 0 0 0 0 0 0 0 0 127 0" result="hardAlpha"/>
<feOffset dx="-1.32632"/>
<feComposite in2="hardAlpha" operator="out"/>
<feColorMatrix type="matrix" values="0 0 0 0 0 0 0 0 0 0 0 0 0 0 0 0 0 0 1 0"/>
<feBlend mode="normal" in2="BackgroundImageFix" result="effect1_dropShadow_1852_482"/>
<feBlend mode="normal" in="SourceGraphic" in2="effect1_dropShadow_1852_482" result="shape"/>
</filter>
</defs>
</svg>
