<svg width="44" height="38" viewBox="0 0 44 38" fill="none" xmlns="http://www.w3.org/2000/svg">
<g id="Group 3399">
<path id="Vector 6" d="M16.6818 20.7645H9.71499C9.33628 20.7645 9.02784 20.4553 9.04224 20.0768C9.33567 12.3649 14.5408 8.74867 17.7371 7.7144C18.1673 7.5752 18.4043 7.08735 18.205 6.6815C17.6124 5.47471 16.6742 3.52978 15.7587 1.53462C15.6177 1.22723 15.2685 1.06784 14.9451 1.16656C3.09497 4.78332 1.00005 15.0315 1 23.5439V36.4462C1 36.825 1.30701 37.132 1.68571 37.132H16.6818C17.0605 37.132 17.3675 36.825 17.3675 36.4462V21.4502C17.3675 21.0715 17.0605 20.7645 16.6818 20.7645Z" stroke="#F35423"/>
<path id="Vector 7" d="M41.0802 20.7645H34.1134C33.7347 20.7645 33.4263 20.4553 33.4407 20.0768C33.7341 12.3649 38.9393 8.74867 42.1355 7.7144C42.5657 7.5752 42.8027 7.08735 42.6034 6.6815C42.0109 5.47471 41.0726 3.52978 40.1572 1.53462C40.0161 1.22723 39.667 1.06784 39.3435 1.16656C27.4934 4.78332 25.3985 15.0315 25.3985 23.5439V36.4462C25.3985 36.825 25.7055 37.132 26.0842 37.132H41.0802C41.4589 37.132 41.7659 36.825 41.7659 36.4462V21.4502C41.7659 21.0715 41.4589 20.7645 41.0802 20.7645Z" stroke="#F35423"/>
</g>
</svg>
