<svg width="98" height="99" viewBox="0 0 98 99" fill="none" xmlns="http://www.w3.org/2000/svg">
<g id="Frame" clip-path="url(#clip0_877_774)">
<path id="Vector" d="M6.93744 49.74C6.93744 66.3127 16.5681 80.6343 30.5341 87.4213L10.5623 32.7011C8.16821 38.0623 6.93297 43.8686 6.93744 49.74ZM77.0701 47.6271C77.0701 42.4531 75.2114 38.8696 73.6175 36.0807C71.495 32.6318 69.5057 29.7113 69.5057 26.2624C69.5057 22.4136 72.4248 18.8308 76.5365 18.8308C76.7222 18.8308 76.8979 18.8538 77.0789 18.8645C69.6301 12.04 59.7059 7.87348 48.8059 7.87348C34.1789 7.87348 21.3103 15.3782 13.824 26.7451C14.8062 26.7746 15.7317 26.7949 16.5183 26.7949C20.8973 26.7949 27.6763 26.264 27.6763 26.264C29.9335 26.1308 30.1995 29.4456 27.945 29.7128C27.945 29.7128 25.6766 29.9796 23.1526 30.1116L38.4001 75.4626L47.5627 47.9831L41.0394 30.1105C38.7848 29.9784 36.6489 29.7116 36.6489 29.7116C34.3928 29.5792 34.6573 26.1296 36.9134 26.2628C36.9134 26.2628 43.8279 26.7941 47.9416 26.7941C52.3206 26.7941 59.0999 26.2628 59.0999 26.2628C61.3583 26.1296 61.624 29.4445 59.3686 29.7116C59.3686 29.7116 57.0957 29.9784 54.5763 30.1105L69.707 75.1177L73.8831 61.1625C75.6929 55.3714 77.0705 51.2122 77.0705 47.6275L77.0701 47.6271ZM49.5405 53.4024L36.9785 89.9052C40.8191 91.0363 44.8022 91.6107 48.8059 91.6108C53.6813 91.6108 58.357 90.7679 62.7095 89.2376C62.5933 89.0545 62.4935 88.8614 62.4113 88.6607L49.5405 53.4024ZM85.5436 29.6531C85.7236 30.9867 85.8258 32.4183 85.8258 33.9582C85.8258 38.207 85.0323 42.9829 82.6422 48.9546L69.8533 85.9308C82.3004 78.6722 90.6725 65.187 90.6725 49.7412C90.6732 42.4619 88.8141 35.6167 85.5436 29.6531ZM48.8059 0.936035C21.8948 0.936035 0 22.8293 0 49.74C0 76.6542 21.8948 98.5467 48.8059 98.5467C75.7159 98.5467 97.6137 76.6542 97.6137 49.74C97.6134 22.8293 75.7159 0.936035 48.8059 0.936035ZM48.8059 96.3098C23.1293 96.3098 2.23771 75.4186 2.23771 49.74C2.23771 24.0634 23.1281 3.17375 48.8059 3.17375C74.4818 3.17375 95.3714 24.0634 95.3714 49.74C95.3714 75.4186 74.4818 96.3098 48.8059 96.3098Z" fill="#757575"/>
</g>
<defs>
<clipPath id="clip0_877_774">
<rect width="98" height="97.608" fill="white" transform="translate(0 0.936035)"/>
</clipPath>
</defs>
</svg>
